<svg width="18" height="20" viewBox="0 0 18 20" fill="none" xmlns="http://www.w3.org/2000/svg">
<path d="M15.5 11.6667H6.5C6.36739 11.6667 6.24021 11.7252 6.14645 11.8294C6.05268 11.9336 6 12.0749 6 12.2222C6 12.3696 6.05268 12.5109 6.14645 12.6151C6.24021 12.7192 6.36739 12.7778 6.5 12.7778H15.5C15.6326 12.7778 15.7598 12.7192 15.8536 12.6151C15.9473 12.5109 16 12.3696 16 12.2222C16 12.0749 15.9473 11.9336 15.8536 11.8294C15.7598 11.7252 15.6326 11.6667 15.5 11.6667Z" fill="white"/>
<path d="M6 8.8889C6 9.03624 6.05268 9.17755 6.14645 9.28174C6.24021 9.38592 6.36739 9.44446 6.5 9.44446H15.5C15.6326 9.44446 15.7598 9.38592 15.8536 9.28174C15.9473 9.17755 16 9.03624 16 8.8889C16 8.74156 15.9473 8.60025 15.8536 8.49606C15.7598 8.39188 15.6326 8.33334 15.5 8.33334H6.5C6.36739 8.33334 6.24021 8.39188 6.14645 8.49606C6.05268 8.60025 6 8.74156 6 8.8889Z" fill="white"/>
<path d="M13.5 15H6.5C6.36739 15 6.24021 15.0585 6.14645 15.1627C6.05268 15.2669 6 15.4082 6 15.5556C6 15.7029 6.05268 15.8442 6.14645 15.9484C6.24021 16.0526 6.36739 16.1111 6.5 16.1111H13.5C13.6326 16.1111 13.7598 16.0526 13.8536 15.9484C13.9473 15.8442 14 15.7029 14 15.5556C14 15.4082 13.9473 15.2669 13.8536 15.1627C13.7598 15.0585 13.6326 15 13.5 15Z" fill="white"/>
<path d="M7.94495 5.00001C7.94495 4.85266 7.89227 4.71135 7.7985 4.60717C7.70473 4.50298 7.57755 4.44445 7.44495 4.44445H4.99995V1.78334C4.99995 1.636 4.94727 1.49469 4.8535 1.3905C4.75973 1.28631 4.63255 1.22778 4.49995 1.22778C4.36734 1.22778 4.24016 1.28631 4.14639 1.3905C4.05262 1.49469 3.99995 1.636 3.99995 1.78334V4.44445H1.44495C1.31234 4.44445 1.18516 4.50298 1.09139 4.60717C0.997625 4.71135 0.944946 4.85266 0.944946 5.00001C0.944946 5.14735 0.997625 5.28866 1.09139 5.39284C1.18516 5.49703 1.31234 5.55556 1.44495 5.55556H3.99995V8.45001C3.99995 8.59735 4.05262 8.73866 4.14639 8.84284C4.24016 8.94703 4.36734 9.00556 4.49995 9.00556C4.63255 9.00556 4.75973 8.94703 4.8535 8.84284C4.94727 8.73866 4.99995 8.59735 4.99995 8.45001V5.55556H7.44495C7.57755 5.55556 7.70473 5.49703 7.7985 5.39284C7.89227 5.28866 7.94495 5.14735 7.94495 5.00001Z" fill="white"/>
</svg>
