<svg width="21" height="26" viewBox="0 0 21 26" fill="none" xmlns="http://www.w3.org/2000/svg">
    <path d="M21 17.6791H20.2674C19.3249 17.6791 18.5581 16.9123 18.5581 15.9698V10.9884C18.5581 7.22385 15.9632 4.05447 12.4682 3.17378C12.6148 2.87949 12.6977 2.54818 12.6977 2.19767C12.6977 0.985877 11.7118 0 10.5 0C9.2882 0 8.30233 0.985877 8.30233 2.19767C8.30233 2.54818 8.3852 2.87949 8.53176 3.17378C5.03678 4.05447 2.44186 7.22385 2.44186 10.9884V15.9698C2.44186 16.9123 1.67507 17.6791 0.732558 17.6791H0V22.0744H8.42833C8.34701 22.3037 8.30233 22.5501 8.30233 22.807C8.30233 24.0188 9.2882 25.0047 10.5 25.0047C11.7118 25.0047 12.6977 24.0188 12.6977 22.807C12.6977 22.5501 12.653 22.3037 12.5717 22.0744H21V17.6791ZM10.5 1.46512C10.9039 1.46512 11.2326 1.79374 11.2326 2.19767C11.2326 2.60161 10.9039 2.93023 10.5 2.93023C10.0961 2.93023 9.76744 2.60161 9.76744 2.19767C9.76744 1.79374 10.0961 1.46512 10.5 1.46512ZM3.90698 15.9698V10.9884C3.90698 7.35298 6.86461 4.39535 10.5 4.39535C14.1354 4.39535 17.093 7.35298 17.093 10.9884V15.9698C17.093 16.5988 17.2774 17.1853 17.5943 17.6791H3.40571C3.72257 17.1853 3.90698 16.5988 3.90698 15.9698ZM10.5 23.5395C10.0961 23.5395 9.76744 23.2109 9.76744 22.807C9.76744 22.403 10.0961 22.0744 10.5 22.0744C10.9039 22.0744 11.2326 22.403 11.2326 22.807C11.2326 23.2109 10.9039 23.5395 10.5 23.5395ZM19.5349 20.6093H1.46512V19.1442H19.5349V20.6093Z" fill="white"/>
</svg>
