<svg width="17" height="18" viewBox="0 0 17 18" fill="none" xmlns="http://www.w3.org/2000/svg">
<path d="M0.5 14.158H15.6579" stroke="white" stroke-linecap="round" stroke-linejoin="round"/>
<path d="M1.44702 7.52635C1.44702 3.86383 4.41608 0.894775 8.0786 0.894775V0.894775C11.7411 0.894775 14.7102 3.86383 14.7102 7.52635V14.1579H1.44702V7.52635Z" stroke="white" stroke-linecap="round" stroke-linejoin="round"/>
<path d="M6.43756 14.1579V13.6579C6.25908 13.6579 6.09413 13.753 6.00476 13.9075L6.43756 14.1579ZM9.72007 14.1579L10.1529 13.9075C10.0635 13.753 9.89856 13.6579 9.72007 13.6579V14.1579ZM6.68408 15.1053C6.68408 14.8504 6.75199 14.6129 6.87037 14.4083L6.00476 13.9075C5.80071 14.2603 5.68408 14.6699 5.68408 15.1053H6.68408ZM8.07882 16.5C7.30853 16.5 6.68408 15.8756 6.68408 15.1053H5.68408C5.68408 16.4278 6.75624 17.5 8.07882 17.5V16.5ZM9.47356 15.1053C9.47356 15.8756 8.84911 16.5 8.07882 16.5V17.5C9.4014 17.5 10.4736 16.4278 10.4736 15.1053H9.47356ZM9.28727 14.4083C9.40565 14.6129 9.47356 14.8504 9.47356 15.1053H10.4736C10.4736 14.6699 10.3569 14.2603 10.1529 13.9075L9.28727 14.4083ZM9.72007 13.6579H6.43756V14.6579H9.72007V13.6579Z" fill="white"/>
</svg>
