<svg width="16" height="17" viewBox="0 0 16 17" fill="none" xmlns="http://www.w3.org/2000/svg">
<path opacity="0.5" fill-rule="evenodd" clip-rule="evenodd" d="M4.3607 9.39425H6.28081V7.47415H4.3607V9.39425ZM4.3607 12.2744H6.28081V10.3543H4.3607V12.2744ZM7.24086 9.39425H9.16096V7.47415H7.24086V9.39425ZM7.24086 12.2744H9.16096V10.3543H7.24086V12.2744ZM10.121 9.39425H12.0411V7.47415H10.121V9.39425ZM10.121 12.2744H12.0411V10.3543H10.121V12.2744ZM13.9612 6.51409C13.9612 5.98415 13.5311 5.55404 13.0012 5.55404H3.40065C2.8707 5.55404 2.4406 5.98415 2.4406 6.51409V13.2345C2.4406 13.7644 2.8707 14.1945 3.40065 14.1945H13.0012C13.5311 14.1945 13.9612 13.7644 13.9612 13.2345V6.51409ZM13.9612 16.1147H2.44061C1.38071 16.1147 0.520508 15.2555 0.520508 14.1946V2.67401C0.520508 1.61315 1.38071 0.753906 2.44061 0.753906H4.36071V1.71396C4.36071 2.24391 4.79082 2.67401 5.32077 2.67401C5.85071 2.67401 6.28082 2.24391 6.28082 1.71396V0.753906H10.121V1.71396C10.121 2.24391 10.5511 2.67401 11.0811 2.67401C11.611 2.67401 12.0411 2.24391 12.0411 1.71396V0.753906H13.9612C15.0221 0.753906 15.8813 1.61315 15.8813 2.67401V14.1946C15.8813 15.2555 15.0221 16.1147 13.9612 16.1147Z" fill="white"/>
</svg>
