<svg width="18" height="18" viewBox="0 0 18 18" fill="none" xmlns="http://www.w3.org/2000/svg">
<path d="M3.21423 5.14284H14.7857M6.42852 5.14284V3.85713C6.42852 3.51613 6.56398 3.18911 6.8051 2.94799C7.04622 2.70687 7.37324 2.57141 7.71423 2.57141H10.2857C10.6267 2.57141 10.9537 2.70687 11.1948 2.94799C11.4359 3.18911 11.5714 3.51613 11.5714 3.85713V5.14284M13.4999 5.14284V14.1428C13.4999 14.4838 13.3645 14.8109 13.1234 15.052C12.8823 15.2931 12.5552 15.4286 12.2142 15.4286H5.78566C5.44467 15.4286 5.11764 15.2931 4.87652 15.052C4.63541 14.8109 4.49995 14.4838 4.49995 14.1428V5.14284H13.4999Z" stroke="url(#paint0_linear)" stroke-linecap="round" stroke-linejoin="round"/>
<defs>
<linearGradient id="paint0_linear" x1="14.7857" y1="2.57141" x2="1.99955" y2="14.0789" gradientUnits="userSpaceOnUse">
<stop stop-color="#FA2B56"/>
<stop offset="1" stop-color="#F91C3D"/>
</linearGradient>
</defs>
</svg>
