<svg width="14" height="14" viewBox="0 0 14 14" fill="none" xmlns="http://www.w3.org/2000/svg">
<path fill-rule="evenodd" clip-rule="evenodd" d="M13.2545 11.4989L7.99681 1.45829C7.8026 1.08768 7.41875 0.855469 7.00034 0.855469C6.58193 0.855469 6.19808 1.08768 6.00387 1.45829L0.745623 11.4989C0.562942 11.8477 0.575874 12.2666 0.77972 12.6034C0.983566 12.9402 1.34866 13.146 1.74237 13.1459H12.2577C12.6515 13.146 13.0166 12.9402 13.2204 12.6034C13.4242 12.2666 13.4372 11.8477 13.2545 11.4989ZM6.43756 4.98687C6.43756 4.67621 6.6894 4.42437 7.00006 4.42437C7.31072 4.42437 7.56256 4.67621 7.56256 4.98687V8.36187C7.56256 8.67253 7.31072 8.92437 7.00006 8.92437C6.6894 8.92437 6.43756 8.67253 6.43756 8.36187V4.98687ZM7.01244 11.4612H7.02819C7.25155 11.4576 7.46403 11.3641 7.61754 11.2018C7.77105 11.0395 7.85262 10.8221 7.84381 10.5989C7.8257 10.1384 7.44741 9.77428 6.98656 9.77373H6.97081C6.748 9.77781 6.53617 9.87129 6.38299 10.0332C6.2298 10.195 6.14812 10.4117 6.15631 10.6344C6.17381 11.095 6.55151 11.4598 7.01244 11.4612Z" fill="#FF3654"/>
</svg>
