<svg width="20" height="20" viewBox="0 0 20 20" fill="none" xmlns="http://www.w3.org/2000/svg">
<path fill-rule="evenodd" clip-rule="evenodd" d="M15.625 14.375L18.75 15.625V14.375L15.625 12.8125V11.25C15.625 11.0842 15.5592 10.9253 15.4419 10.8081C15.3247 10.6908 15.1658 10.625 15 10.625C14.8342 10.625 14.6753 10.6908 14.5581 10.8081C14.4408 10.9253 14.375 11.0842 14.375 11.25V12.8125L11.25 14.375V15.625L14.375 14.375V16.5625L13.125 17.5V18.125L15 17.5L16.875 18.125V17.5L15.625 16.5625V14.375Z" fill="white"/>
<path fill-rule="evenodd" clip-rule="evenodd" d="M16.25 2.5H13.75V1.25H12.5V2.5H7.5V1.25H6.25V2.5H3.75C3.41848 2.5 3.10054 2.6317 2.86612 2.86612C2.6317 3.10054 2.5 3.41848 2.5 3.75V16.25C2.5 16.5815 2.6317 16.8995 2.86612 17.1339C3.10054 17.3683 3.41848 17.5 3.75 17.5H10V16.25H3.75V3.75H6.25V5H7.5V3.75H12.5V5H13.75V3.75H16.25V8.125H17.5V3.75C17.5 3.41848 17.3683 3.10054 17.1339 2.86612C16.8995 2.6317 16.5815 2.5 16.25 2.5Z" fill="white"/>
</svg>
