<svg width="16" height="16" viewBox="0 0 16 16" fill="none" xmlns="http://www.w3.org/2000/svg">
<path d="M14.341 5.579C13.994 5.106 13.51 4.552 12.979 4.021C12.448 3.49 11.894 3.006 11.421 2.659C10.615 2.068 10.224 2 10 2H4.25C3.561 2 3 2.561 3 3.25V14.75C3 15.439 3.561 16 4.25 16H13.75C14.439 16 15 15.439 15 14.75V7C15 6.776 14.932 6.385 14.341 5.579ZM12.271 4.729C12.751 5.209 13.127 5.641 13.405 6H10.999V3.595C11.358 3.873 11.792 4.249 12.271 4.729ZM14 14.75C14 14.886 13.886 15 13.75 15H4.25C4.18394 14.9992 4.1208 14.9726 4.07408 14.9259C4.02737 14.8792 4.00078 14.8161 4 14.75V3.25C4 3.115 4.114 3 4.25 3H10V6.5C10 6.63261 10.0527 6.75979 10.1464 6.85355C10.2402 6.94732 10.3674 7 10.5 7H14V14.75Z" fill="white"/>
<path d="M9.421 0.659C8.615 0.068 8.224 0 8 0H2.25C1.561 0 1 0.561 1 1.25V12.75C1 13.354 1.43 13.859 2 13.975V1.25C2 1.115 2.115 1 2.25 1H9.857C9.71437 0.882491 9.56866 0.768785 9.42 0.659H9.421Z" fill="white"/>
</svg>
