<svg width="22" height="20" viewBox="0 0 22 20" fill="none" xmlns="http://www.w3.org/2000/svg">
<path d="M17.6359 13.1836H3.71465C3.26425 13.1836 2.89575 13.4808 2.89575 13.8439C2.89575 14.2071 3.26425 14.5042 3.71465 14.5042H17.6359C18.0863 14.5042 18.4548 14.2071 18.4548 13.8439C18.4548 13.4808 18.0863 13.1836 17.6359 13.1836ZM18.9216 7.00337C18.7414 6.47514 18.0699 6.1648 17.4148 6.30346L13.0665 7.24107L7.77638 3.26614C7.66693 3.1825 7.53235 3.12328 7.38588 3.09434C7.23942 3.06539 7.08612 3.06771 6.94111 3.10107C6.38426 3.22653 6.12221 3.74155 6.40882 4.14432L9.22583 8.07963L5.15591 8.95781L3.87024 8.13906C3.66551 8.0136 3.40346 7.96738 3.14961 8.02021L2.87937 8.07963C2.61732 8.13246 2.49449 8.37676 2.6337 8.56164L4.17323 10.7076C4.36158 10.9651 4.73827 11.0905 5.0904 11.0179L18.0454 8.21829C18.7005 8.07303 19.0936 7.53159 18.9216 7.00337Z" fill="white"/>
</svg>
