<svg width="20" height="20" viewBox="0 0 20 20" fill="none" xmlns="http://www.w3.org/2000/svg">
<path d="M10 19C14.9706 19 19 14.9706 19 10C19 5.02944 14.9706 1 10 1C5.02944 1 1 5.02944 1 10C1 14.9706 5.02944 19 10 19Z" stroke="white" stroke-linecap="round" stroke-linejoin="round"/>
<path d="M9.75 15.5C10.1642 15.5 10.5 15.1642 10.5 14.75C10.5 14.3358 10.1642 14 9.75 14C9.33579 14 9 14.3358 9 14.75C9 15.1642 9.33579 15.5 9.75 15.5Z" fill="white"/>
<path d="M7.78564 7.61733C7.9837 7.11911 8.34989 6.70593 8.82069 6.44944C9.2915 6.19295 9.83723 6.10933 10.3632 6.21308C10.8892 6.31683 11.3623 6.60141 11.7005 7.01747C12.0386 7.43352 12.2205 7.95481 12.2145 8.49092C12.2145 10.6444 9.91883 10.9085 9.91883 11.7212V12.3611" stroke="white" stroke-width="1.2" stroke-linecap="round" stroke-linejoin="round"/>
</svg>
