<svg width="25" height="25" viewBox="0 0 25 25" fill="none" xmlns="http://www.w3.org/2000/svg">
    <path d="M14.3974 17.0065H15.9004M21.1609 14.0005V12.4975C21.1609 12.0989 21.0025 11.7166 20.7207 11.4347C20.4388 11.1529 20.0565 10.9945 19.6579 10.9945H4.62799C4.22937 10.9945 3.84708 11.1529 3.56522 11.4347C3.28335 11.7166 3.125 12.0989 3.125 12.4975V21.5154C3.125 21.9141 3.28335 22.2964 3.56522 22.5782C3.84708 22.8601 4.22937 23.0184 4.62799 23.0184H19.6579C20.0565 23.0184 20.4388 22.8601 20.7207 22.5782C21.0025 22.2964 21.1609 21.9141 21.1609 21.5154V20.0125V14.0005ZM21.1609 14.0005H15.1489C14.3517 14.0005 13.5871 14.3172 13.0234 14.8809C12.4596 15.4447 12.1429 16.2092 12.1429 17.0065C12.1429 17.8037 12.4596 18.5683 13.0234 19.132C13.5871 19.6957 14.3517 20.0125 15.1489 20.0125H21.1609V14.0005ZM21.1609 14.0005C21.9581 14.0005 22.7227 14.3172 23.2864 14.8809C23.8502 15.4447 24.1669 16.2092 24.1669 17.0065C24.1669 17.8037 23.8502 18.5683 23.2864 19.132C22.7227 19.6957 21.9581 20.0125 21.1609 20.0125V14.0005ZM7.63397 10.9945V6.48553C7.63397 5.28968 8.10902 4.14281 8.95462 3.29721C9.80022 2.45161 10.9471 1.97656 12.1429 1.97656C13.3388 1.97656 14.4857 2.45161 15.3313 3.29721C16.1769 4.14281 16.6519 5.28968 16.6519 6.48553V10.9945H7.63397ZM20.4094 17.0065H21.9124H20.4094ZM17.4034 17.0065H18.9064H17.4034Z" stroke="white" stroke-width="1.25249"/>
</svg>
