<svg width="21" height="21" viewBox="0 0 21 21" fill="none" xmlns="http://www.w3.org/2000/svg">
    <path d="M14.0392 15.0081H4.47189V8.38461H6.38167C6.38167 8.38461 6.88873 7.7252 7.97867 6.91272H3.73594C3.54076 6.91272 3.35357 6.99026 3.21555 7.12827C3.07754 7.26629 3 7.45348 3 7.64866V15.7441C3 15.9392 3.07754 16.1264 3.21555 16.2644C3.35357 16.4025 3.54076 16.48 3.73594 16.48H14.7751C14.9703 16.48 15.1575 16.4025 15.2955 16.2644C15.4335 16.1264 15.5111 15.9392 15.5111 15.7441V12.9872L14.0392 14.1978V15.0081ZM12.833 9.8933V12.5066L17.7189 8.67899L12.833 5V7.30424C6.90051 7.30424 6.90051 13.1682 6.90051 13.1682C8.57993 10.4099 9.6132 9.8933 12.833 9.8933Z" fill="white"/>
</svg>
