<svg width="12" height="12" viewBox="0 0 12 12" fill="none" xmlns="http://www.w3.org/2000/svg">
<path opacity="0.7" fill-rule="evenodd" clip-rule="evenodd" d="M7.88829 2.5943C6.42609 1.13211 4.05649 1.13211 2.5943 2.5943C1.13211 4.05649 1.13211 6.42609 2.5943 7.88829C4.05649 9.35048 6.42609 9.35048 7.88829 7.88829C9.35048 6.42609 9.35048 4.05649 7.88829 2.5943ZM11.781 11.781C11.4883 12.073 11.0144 12.073 10.7216 11.781L8.36399 9.42264C6.31108 10.9574 3.40017 10.8122 1.53519 8.94647C-0.511729 6.9003 -0.511729 3.58211 1.53519 1.53519C3.58136 -0.511729 6.9003 -0.511729 8.94647 1.53519C10.8122 3.40017 10.9574 6.31108 9.42264 8.36399L11.781 10.7224C12.073 11.0143 12.073 11.4883 11.781 11.781Z" fill="#CED0DA"/>
</svg>
