<svg width="24" height="24" viewBox="0 0 24 24" fill="none" xmlns="http://www.w3.org/2000/svg">
<path d="M12.0001 14.5714C13.4203 14.5714 14.5715 13.4201 14.5715 12C14.5715 10.5798 13.4203 9.42855 12.0001 9.42855C10.5799 9.42855 9.42868 10.5798 9.42868 12C9.42868 13.4201 10.5799 14.5714 12.0001 14.5714Z" stroke="white" stroke-linecap="round" stroke-linejoin="round"/>
<path d="M18.343 14.5714C18.2289 14.8299 18.1948 15.1167 18.2452 15.3948C18.2957 15.6728 18.4282 15.9294 18.6258 16.1314L18.6772 16.1828C18.8366 16.3421 18.9631 16.5311 19.0493 16.7392C19.1356 16.9473 19.18 17.1704 19.18 17.3957C19.18 17.621 19.1356 17.8441 19.0493 18.0522C18.9631 18.2603 18.8366 18.4493 18.6772 18.6086C18.518 18.7679 18.329 18.8944 18.1209 18.9807C17.9127 19.0669 17.6897 19.1113 17.4644 19.1113C17.2391 19.1113 17.016 19.0669 16.8079 18.9807C16.5998 18.8944 16.4107 18.7679 16.2515 18.6086L16.2001 18.5571C15.9981 18.3595 15.7415 18.227 15.4635 18.1766C15.1854 18.1261 14.8986 18.1602 14.6401 18.2743C14.3866 18.3829 14.1704 18.5633 14.0181 18.7933C13.8658 19.0233 13.7841 19.2927 13.783 19.5686V19.7143C13.783 20.1689 13.6023 20.605 13.2809 20.9265C12.9594 21.2479 12.5233 21.4286 12.0687 21.4286C11.614 21.4286 11.178 21.2479 10.8565 20.9265C10.535 20.605 10.3544 20.1689 10.3544 19.7143V19.6371C10.3478 19.3534 10.2559 19.0783 10.0908 18.8474C9.92574 18.6166 9.69502 18.4408 9.42868 18.3428C9.17015 18.2287 8.88337 18.1947 8.60531 18.2451C8.32726 18.2955 8.07069 18.4281 7.86868 18.6257L7.81725 18.6771C7.65804 18.8365 7.46897 18.963 7.26086 19.0492C7.05275 19.1355 6.82967 19.1799 6.60439 19.1799C6.37911 19.1799 6.15603 19.1355 5.94792 19.0492C5.73981 18.963 5.55074 18.8365 5.39153 18.6771C5.23214 18.5179 5.1057 18.3288 5.01943 18.1207C4.93316 17.9126 4.88876 17.6896 4.88876 17.4643C4.88876 17.239 4.93316 17.0159 5.01943 16.8078C5.1057 16.5997 5.23214 16.4106 5.39153 16.2514L5.44296 16.2C5.64056 15.998 5.77312 15.7414 5.82354 15.4633C5.87395 15.1853 5.83992 14.8985 5.72582 14.64C5.61716 14.3865 5.43675 14.1703 5.20679 14.018C4.97683 13.8657 4.70735 13.7839 4.43153 13.7828H4.28582C3.83116 13.7828 3.39513 13.6022 3.07364 13.2807C2.75214 12.9592 2.57153 12.5232 2.57153 12.0686C2.57153 11.6139 2.75214 11.1779 3.07364 10.8564C3.39513 10.5349 3.83116 10.3543 4.28582 10.3543H4.36296C4.64667 10.3476 4.92182 10.2558 5.15265 10.0907C5.38347 9.92561 5.55929 9.6949 5.65725 9.42855C5.77135 9.17003 5.80538 8.88325 5.75497 8.60519C5.70455 8.32714 5.57199 8.07056 5.37439 7.86855L5.32296 7.81713C5.16357 7.65791 5.03713 7.46885 4.95086 7.26074C4.86459 7.05263 4.82018 6.82955 4.82018 6.60427C4.82018 6.37898 4.86459 6.15591 4.95086 5.9478C5.03713 5.73969 5.16357 5.55062 5.32296 5.39141C5.48217 5.23202 5.67124 5.10558 5.87935 5.01931C6.08746 4.93304 6.31054 4.88863 6.53582 4.88863C6.7611 4.88863 6.98418 4.93304 7.19229 5.01931C7.4004 5.10558 7.58947 5.23202 7.74868 5.39141L7.8001 5.44284C8.00212 5.64044 8.25869 5.773 8.53674 5.82341C8.8148 5.87383 9.10158 5.8398 9.3601 5.7257H9.42868C9.68219 5.61704 9.89841 5.43663 10.0507 5.20667C10.203 4.9767 10.2847 4.70723 10.2858 4.43141V4.2857C10.2858 3.83104 10.4664 3.395 10.7879 3.07351C11.1094 2.75202 11.5454 2.57141 12.0001 2.57141C12.4548 2.57141 12.8908 2.75202 13.2123 3.07351C13.5338 3.395 13.7144 3.83104 13.7144 4.2857V4.36284C13.7155 4.63866 13.7972 4.90813 13.9495 5.1381C14.1018 5.36806 14.318 5.54847 14.5715 5.65713C14.8301 5.77122 15.1168 5.80526 15.3949 5.75484C15.6729 5.70443 15.9295 5.57187 16.1315 5.37427L16.183 5.32284C16.3422 5.16345 16.5312 5.03701 16.7394 4.95074C16.9475 4.86447 17.1705 4.82006 17.3958 4.82006C17.6211 4.82006 17.8442 4.86447 18.0523 4.95074C18.2604 5.03701 18.4495 5.16345 18.6087 5.32284C18.7681 5.48205 18.8945 5.67112 18.9808 5.87923C19.067 6.08734 19.1115 6.31041 19.1115 6.5357C19.1115 6.76098 19.067 6.98405 18.9808 7.19217C18.8945 7.40028 18.7681 7.58934 18.6087 7.74855L18.5572 7.79998C18.3596 8.00199 18.2271 8.25857 18.1767 8.53662C18.1263 8.81467 18.1603 9.10145 18.2744 9.35998V9.42855C18.383 9.68207 18.5635 9.89828 18.7934 10.0506C19.0234 10.2029 19.2929 10.2846 19.5687 10.2857H19.7144C20.169 10.2857 20.6051 10.4663 20.9266 10.7878C21.2481 11.1093 21.4287 11.5453 21.4287 12C21.4287 12.4546 21.2481 12.8907 20.9266 13.2122C20.6051 13.5337 20.169 13.7143 19.7144 13.7143H19.6372C19.3614 13.7154 19.092 13.7971 18.862 13.9494C18.632 14.1017 18.4516 14.3179 18.343 14.5714Z" stroke="white" stroke-linecap="round" stroke-linejoin="round"/>
</svg>
