<svg width="84" height="79" viewBox="0 0 84 79" fill="none" xmlns="http://www.w3.org/2000/svg">
<g opacity="0.3">
<path d="M1.57031 2.57812H4.79688C6.3125 2.57812 7.40885 2.80469 8.08594 3.25781C8.76302 3.71094 9.10156 4.42708 9.10156 5.40625C9.10156 6.08333 8.91146 6.64323 8.53125 7.08594C8.15625 7.52344 7.60677 7.80729 6.88281 7.9375V8.01562C8.61719 8.3125 9.48438 9.22396 9.48438 10.75C9.48438 11.7708 9.13802 12.5677 8.44531 13.1406C7.75781 13.7135 6.79427 14 5.55469 14H1.57031V2.57812ZM2.89844 7.46875H5.08594C6.02344 7.46875 6.69792 7.32292 7.10938 7.03125C7.52083 6.73438 7.72656 6.23698 7.72656 5.53906C7.72656 4.89844 7.4974 4.4375 7.03906 4.15625C6.58073 3.86979 5.85156 3.72656 4.85156 3.72656H2.89844V7.46875ZM2.89844 8.59375V12.8672H5.28125C6.20312 12.8672 6.89583 12.6901 7.35938 12.3359C7.82812 11.9766 8.0625 11.4167 8.0625 10.6562C8.0625 9.94792 7.82292 9.42708 7.34375 9.09375C6.86979 8.76042 6.14583 8.59375 5.17188 8.59375H2.89844ZM19.1406 9.71094C19.1406 11.1068 18.7891 12.1979 18.0859 12.9844C17.3828 13.7656 16.4115 14.1562 15.1719 14.1562C14.4062 14.1562 13.7266 13.9766 13.1328 13.6172C12.5391 13.2578 12.0807 12.7422 11.7578 12.0703C11.4349 11.3984 11.2734 10.612 11.2734 9.71094C11.2734 8.3151 11.6224 7.22917 12.3203 6.45312C13.0182 5.67188 13.987 5.28125 15.2266 5.28125C16.4245 5.28125 17.375 5.67969 18.0781 6.47656C18.7865 7.27344 19.1406 8.35156 19.1406 9.71094ZM12.6172 9.71094C12.6172 10.8047 12.8359 11.638 13.2734 12.2109C13.7109 12.7839 14.3542 13.0703 15.2031 13.0703C16.0521 13.0703 16.6953 12.7865 17.1328 12.2188C17.5755 11.6458 17.7969 10.8099 17.7969 9.71094C17.7969 8.6224 17.5755 7.79688 17.1328 7.23438C16.6953 6.66667 16.0469 6.38281 15.1875 6.38281C14.3385 6.38281 13.6979 6.66146 13.2656 7.21875C12.8333 7.77604 12.6172 8.60677 12.6172 9.71094ZM25.0391 14.1562C23.7734 14.1562 22.7734 13.7708 22.0391 13C21.3099 12.2292 20.9453 11.1589 20.9453 9.78906C20.9453 8.40885 21.2839 7.3125 21.9609 6.5C22.6432 5.6875 23.5573 5.28125 24.7031 5.28125C25.776 5.28125 26.625 5.63542 27.25 6.34375C27.875 7.04688 28.1875 7.97656 28.1875 9.13281V9.95312H22.2891C22.3151 10.9583 22.5677 11.7214 23.0469 12.2422C23.5312 12.763 24.2109 13.0234 25.0859 13.0234C26.0078 13.0234 26.9193 12.8307 27.8203 12.4453V13.6016C27.362 13.7995 26.9271 13.9401 26.5156 14.0234C26.1094 14.112 25.6172 14.1562 25.0391 14.1562ZM24.6875 6.36719C24 6.36719 23.4505 6.59115 23.0391 7.03906C22.6328 7.48698 22.3932 8.10677 22.3203 8.89844H26.7969C26.7969 8.08073 26.6146 7.45573 26.25 7.02344C25.8854 6.58594 25.3646 6.36719 24.6875 6.36719ZM31.7031 14H30.4062V5.4375H31.7031V14ZM30.2969 3.11719C30.2969 2.82031 30.3698 2.60417 30.5156 2.46875C30.6615 2.32812 30.8438 2.25781 31.0625 2.25781C31.2708 2.25781 31.4505 2.32812 31.6016 2.46875C31.7526 2.60938 31.8281 2.82552 31.8281 3.11719C31.8281 3.40885 31.7526 3.6276 31.6016 3.77344C31.4505 3.91406 31.2708 3.98438 31.0625 3.98438C30.8438 3.98438 30.6615 3.91406 30.5156 3.77344C30.3698 3.6276 30.2969 3.40885 30.2969 3.11719ZM40.3125 14V8.46094C40.3125 7.76302 40.1536 7.24219 39.8359 6.89844C39.5182 6.55469 39.0208 6.38281 38.3438 6.38281C37.4479 6.38281 36.7917 6.625 36.375 7.10938C35.9583 7.59375 35.75 8.39323 35.75 9.50781V14H34.4531V5.4375H35.5078L35.7188 6.60938H35.7812C36.0469 6.1875 36.4193 5.86198 36.8984 5.63281C37.3776 5.39844 37.9115 5.28125 38.5 5.28125C39.5312 5.28125 40.3073 5.53125 40.8281 6.03125C41.349 6.52604 41.6094 7.32031 41.6094 8.41406V14H40.3125ZM51.2891 5.4375V6.25781L49.7031 6.44531C49.849 6.6276 49.9792 6.86719 50.0938 7.16406C50.2083 7.45573 50.2656 7.78646 50.2656 8.15625C50.2656 8.99479 49.9792 9.66406 49.4062 10.1641C48.8333 10.6641 48.0469 10.9141 47.0469 10.9141C46.7917 10.9141 46.5521 10.8932 46.3281 10.8516C45.776 11.1432 45.5 11.5104 45.5 11.9531C45.5 12.1875 45.5964 12.362 45.7891 12.4766C45.9818 12.5859 46.3125 12.6406 46.7812 12.6406H48.2969C49.224 12.6406 49.9349 12.8359 50.4297 13.2266C50.9297 13.6172 51.1797 14.1849 51.1797 14.9297C51.1797 15.8776 50.7995 16.599 50.0391 17.0938C49.2786 17.5938 48.1693 17.8438 46.7109 17.8438C45.5911 17.8438 44.7266 17.6354 44.1172 17.2188C43.513 16.8021 43.2109 16.2135 43.2109 15.4531C43.2109 14.9323 43.3776 14.4818 43.7109 14.1016C44.0443 13.7214 44.513 13.4635 45.1172 13.3281C44.8984 13.2292 44.7135 13.0755 44.5625 12.8672C44.4167 12.6589 44.3438 12.4167 44.3438 12.1406C44.3438 11.8281 44.4271 11.5547 44.5938 11.3203C44.7604 11.0859 45.0234 10.8594 45.3828 10.6406C44.9401 10.4583 44.5781 10.1484 44.2969 9.71094C44.0208 9.27344 43.8828 8.77344 43.8828 8.21094C43.8828 7.27344 44.1641 6.55208 44.7266 6.04688C45.2891 5.53646 46.0859 5.28125 47.1172 5.28125C47.5651 5.28125 47.9688 5.33333 48.3281 5.4375H51.2891ZM44.4609 15.4375C44.4609 15.901 44.6562 16.2526 45.0469 16.4922C45.4375 16.7318 45.9974 16.8516 46.7266 16.8516C47.8151 16.8516 48.6198 16.6875 49.1406 16.3594C49.6667 16.0365 49.9297 15.5964 49.9297 15.0391C49.9297 14.5755 49.7865 14.2526 49.5 14.0703C49.2135 13.8932 48.6745 13.8047 47.8828 13.8047H46.3281C45.7396 13.8047 45.2812 13.9453 44.9531 14.2266C44.625 14.5078 44.4609 14.9115 44.4609 15.4375ZM45.1641 8.17969C45.1641 8.77865 45.3333 9.23177 45.6719 9.53906C46.0104 9.84635 46.4818 10 47.0859 10C48.3516 10 48.9844 9.38542 48.9844 8.15625C48.9844 6.86979 48.3438 6.22656 47.0625 6.22656C46.4531 6.22656 45.9844 6.39062 45.6562 6.71875C45.3281 7.04688 45.1641 7.53385 45.1641 8.17969ZM64.1172 14H56.6094V12.8828L59.6172 9.85938C60.5339 8.93229 61.138 8.27083 61.4297 7.875C61.7214 7.47917 61.9401 7.09375 62.0859 6.71875C62.2318 6.34375 62.3047 5.9401 62.3047 5.50781C62.3047 4.89844 62.1198 4.41667 61.75 4.0625C61.3802 3.70312 60.8672 3.52344 60.2109 3.52344C59.737 3.52344 59.2865 3.60156 58.8594 3.75781C58.4375 3.91406 57.9661 4.19792 57.4453 4.60938L56.7578 3.72656C57.8099 2.85156 58.9557 2.41406 60.1953 2.41406C61.2682 2.41406 62.1094 2.6901 62.7188 3.24219C63.3281 3.78906 63.6328 4.52604 63.6328 5.45312C63.6328 6.17708 63.4297 6.89323 63.0234 7.60156C62.6172 8.3099 61.8568 9.20573 60.7422 10.2891L58.2422 12.7344V12.7969H64.1172V14ZM72.8438 5.26562C72.8438 5.99479 72.638 6.59115 72.2266 7.05469C71.8203 7.51823 71.2422 7.82812 70.4922 7.98438V8.04688C71.4089 8.16146 72.0885 8.45312 72.5312 8.92188C72.974 9.39062 73.1953 10.0052 73.1953 10.7656C73.1953 11.8542 72.8177 12.6927 72.0625 13.2812C71.3073 13.8646 70.2344 14.1562 68.8438 14.1562C68.2396 14.1562 67.6849 14.1094 67.1797 14.0156C66.6797 13.9271 66.1927 13.7682 65.7188 13.5391V12.3047C66.2135 12.5495 66.7396 12.737 67.2969 12.8672C67.8594 12.9922 68.3906 13.0547 68.8906 13.0547C70.8646 13.0547 71.8516 12.2812 71.8516 10.7344C71.8516 9.34896 70.763 8.65625 68.5859 8.65625H67.4609V7.53906H68.6016C69.4922 7.53906 70.1979 7.34375 70.7188 6.95312C71.2396 6.55729 71.5 6.01042 71.5 5.3125C71.5 4.75521 71.3073 4.31771 70.9219 4C70.5417 3.68229 70.0234 3.52344 69.3672 3.52344C68.8672 3.52344 68.3958 3.59115 67.9531 3.72656C67.5104 3.86198 67.0052 4.11198 66.4375 4.47656L65.7812 3.60156C66.25 3.23177 66.7891 2.94271 67.3984 2.73438C68.013 2.52083 68.6589 2.41406 69.3359 2.41406C70.4453 2.41406 71.3073 2.66927 71.9219 3.17969C72.5365 3.6849 72.8438 4.38021 72.8438 5.26562ZM82.4922 8.27344C82.4922 10.2474 82.1797 11.7214 81.5547 12.6953C80.9349 13.6693 79.9844 14.1562 78.7031 14.1562C77.474 14.1562 76.5391 13.6589 75.8984 12.6641C75.2578 11.6641 74.9375 10.2005 74.9375 8.27344C74.9375 6.28385 75.2474 4.80729 75.8672 3.84375C76.487 2.88021 77.4323 2.39844 78.7031 2.39844C79.9427 2.39844 80.8828 2.90104 81.5234 3.90625C82.1693 4.91146 82.4922 6.36719 82.4922 8.27344ZM76.25 8.27344C76.25 9.9349 76.4453 11.1458 76.8359 11.9062C77.2266 12.6615 77.849 13.0391 78.7031 13.0391C79.5677 13.0391 80.1927 12.6562 80.5781 11.8906C80.9688 11.1198 81.1641 9.91406 81.1641 8.27344C81.1641 6.63281 80.9688 5.43229 80.5781 4.67188C80.1927 3.90625 79.5677 3.52344 78.7031 3.52344C77.849 3.52344 77.2266 3.90104 76.8359 4.65625C76.4453 5.40625 76.25 6.61198 76.25 8.27344Z" fill="white"/>
</g>
<g opacity="0.3">
<path d="M45.909 68.1829C46.6856 69.2923 46.4637 70.7345 45.5762 71.2892C44.6887 71.8439 43.3575 71.4001 42.6918 70.2907C41.9153 69.1814 42.1371 67.7392 42.9137 67.1845C43.9121 66.6298 45.1325 67.0735 45.909 68.1829Z" fill="#3E4347"/>
<path d="M46.02 58.1987C46.02 58.1987 44.4669 55.869 43.2466 53.8721C42.0262 51.9862 42.1372 50.6549 43.5794 51.0987C45.0216 51.4315 48.0169 52.9846 50.1247 54.5378C51.1231 55.2034 54.0075 57.3112 54.0075 57.3112C56.1153 58.8643 55.8934 59.6409 53.3419 59.0862L46.02 58.1987Z" fill="white"/>
<path d="M50.2357 68.6268C51.0122 69.7361 50.7903 71.1783 49.9028 71.733C49.0153 72.2877 47.6841 71.844 47.0185 70.7346C46.2419 69.6252 46.4638 68.183 47.3513 67.6283C48.1278 67.0736 49.4591 67.5174 50.2357 68.6268Z" fill="#3E4347"/>
<path d="M73.5324 71.4001C74.309 72.5095 74.0871 73.9517 73.1996 74.5064C72.3121 75.0611 70.9809 74.6173 70.3152 73.508C69.5387 72.3986 69.7606 70.9564 70.5371 70.4017C71.5356 69.847 72.8668 70.2908 73.5324 71.4001Z" fill="#3E4347"/>
<path d="M72.8668 72.2877C72.645 69.8471 72.534 67.4065 72.3122 64.9659C72.2012 63.7456 70.3153 63.9674 70.4262 65.1877C70.6481 67.6284 70.759 70.069 70.9809 72.5096C71.0918 73.7299 72.9778 73.619 72.8668 72.2877Z" fill="#94989B"/>
<path d="M16.1777 52.6517C16.1777 52.6517 13.1824 51.2095 12.4059 52.6517C10.409 56.3127 13.2934 65.8533 80.1887 69.5142C84.1824 69.7361 83.7387 66.9627 79.9668 63.9673C68.6512 54.8705 84.7371 58.5314 16.1777 52.6517Z" fill="#DAE3EA"/>
<path d="M75.7512 61.5267C74.9747 61.9705 71.3137 62.4142 71.3137 62.4142C71.3137 62.4142 71.3137 63.4127 72.8668 63.8564C74.1981 64.3002 75.9731 63.8564 77.3043 63.0799L75.7512 61.5267Z" fill="#3E4347"/>
<path d="M30.5997 53.8722C30.5997 53.8722 21.6137 43.6659 18.7294 40.1159C16.9544 37.8972 14.1809 39.6722 14.1809 39.6722C14.1809 39.6722 11.8512 52.6519 12.4059 52.7628L30.045 54.5378C30.5997 54.6488 30.8216 54.3159 30.5997 53.8722Z" fill="white"/>
<path d="M54.4512 68.9596C55.2278 70.069 55.0059 71.5112 54.1184 72.0659C53.2309 72.6206 51.8997 72.1768 51.234 71.0675C50.4575 69.9581 50.6794 68.5159 51.5669 67.9612C52.4544 67.4065 53.7856 67.8503 54.4512 68.9596Z" fill="#3E4347"/>
<path d="M53.231 69.6253C51.1231 67.7393 49.0153 65.7425 46.7966 63.8565C46.5747 63.6346 46.131 63.7456 46.02 64.0784C45.2435 65.7425 44.5778 67.4065 43.8013 69.0706V69.4034C43.8013 69.6253 43.9122 69.7362 44.1341 69.7362C47.0185 69.9581 49.9028 70.2909 52.6763 70.5128C53.3419 70.5128 53.5638 69.9581 53.231 69.6253Z" fill="#94989B"/>
<path d="M39.9184 71.733C39.9184 71.733 30.4887 66.8517 20.5043 69.1814C19.9497 69.2924 18.6184 69.847 19.395 71.0673C21.17 73.0642 25.9403 76.7252 37.034 78.0564L39.9184 71.733Z" fill="#C5D0D8"/>
<path d="M37.4777 77.9455C36.5902 77.7237 36.2574 76.1705 36.9231 74.3955C37.4777 72.6205 38.6981 71.4002 39.5856 71.6221C40.4731 71.844 40.8059 73.3971 40.1402 75.1721C39.5856 76.9471 38.3652 78.1674 37.4777 77.9455Z" fill="#94989B"/>
<path d="M38.0325 75.394C38.4762 74.1737 38.4762 72.9533 38.0325 72.2877C37.5887 72.8424 37.145 73.508 36.8122 74.3955C36.3684 75.6158 36.3684 76.8362 36.8122 77.5018C37.2559 76.9471 37.6997 76.2815 38.0325 75.394Z" fill="#3E4347"/>
<path d="M44.134 61.9704C41.3605 61.5267 40.0293 61.4157 37.5887 62.636L20.3934 70.4017C17.9527 71.622 18.1746 73.1751 20.948 73.8407C23.6105 74.5064 28.048 74.3954 30.5996 73.6189L55.2277 65.7423C57.7793 64.9657 57.6684 63.8564 54.8949 63.5236L44.134 61.9704Z" fill="white"/>
<path d="M33.3731 59.308C33.9245 59.308 34.3715 58.861 34.3715 58.3096C34.3715 57.7582 33.9245 57.3112 33.3731 57.3112C32.8216 57.3112 32.3746 57.7582 32.3746 58.3096C32.3746 58.861 32.8216 59.308 33.3731 59.308Z" fill="#3E4347"/>
<path d="M37.5888 57.7549C37.0341 57.7549 36.5903 58.0877 36.5903 58.6424C36.5903 59.1971 36.9231 59.6408 37.4778 59.6408C38.0325 59.6408 38.4763 59.308 38.4763 58.7533C38.4763 58.1986 38.0325 57.7549 37.5888 57.7549Z" fill="#3E4347"/>
<path d="M41.5825 59.9737C42.134 59.9737 42.581 59.5267 42.581 58.9752C42.581 58.4238 42.134 57.9768 41.5825 57.9768C41.0311 57.9768 40.5841 58.4238 40.5841 58.9752C40.5841 59.5267 41.0311 59.9737 41.5825 59.9737Z" fill="#3E4347"/>
<path d="M45.6872 60.3064C46.2386 60.3064 46.6856 59.8594 46.6856 59.308C46.6856 58.7566 46.2386 58.3096 45.6872 58.3096C45.1357 58.3096 44.6887 58.7566 44.6887 59.308C44.6887 59.8594 45.1357 60.3064 45.6872 60.3064Z" fill="#3E4347"/>
<path d="M49.7919 60.6393C50.3433 60.6393 50.7903 60.1923 50.7903 59.6408C50.7903 59.0894 50.3433 58.6424 49.7919 58.6424C49.2405 58.6424 48.7935 59.0894 48.7935 59.6408C48.7935 60.1923 49.2405 60.6393 49.7919 60.6393Z" fill="#3E4347"/>
<path d="M53.8965 60.9721C54.4479 60.9721 54.8949 60.5251 54.8949 59.9737C54.8949 59.4222 54.4479 58.9752 53.8965 58.9752C53.3451 58.9752 52.8981 59.4222 52.8981 59.9737C52.8981 60.5251 53.3451 60.9721 53.8965 60.9721Z" fill="#3E4347"/>
<path d="M58.1122 59.4189C57.5575 59.4189 57.1138 59.7518 57.1138 60.3064C57.1138 60.8611 57.4466 61.3049 58.0013 61.3049C58.556 61.3049 58.9997 60.9721 58.9997 60.4174C58.9997 59.8627 58.6669 59.4189 58.1122 59.4189Z" fill="#3E4347"/>
<path d="M62.106 61.6377C62.6574 61.6377 63.1044 61.1907 63.1044 60.6393C63.1044 60.0879 62.6574 59.6409 62.106 59.6409C61.5546 59.6409 61.1075 60.0879 61.1075 60.6393C61.1075 61.1907 61.5546 61.6377 62.106 61.6377Z" fill="#3E4347"/>
</g>
</svg>
