<svg width="84" height="89" viewBox="0 0 84 89" fill="none" xmlns="http://www.w3.org/2000/svg">
<g opacity="0.3">
<path d="M1.57031 2.57812H4.79688C6.3125 2.57812 7.40885 2.80469 8.08594 3.25781C8.76302 3.71094 9.10156 4.42708 9.10156 5.40625C9.10156 6.08333 8.91146 6.64323 8.53125 7.08594C8.15625 7.52344 7.60677 7.80729 6.88281 7.9375V8.01562C8.61719 8.3125 9.48438 9.22396 9.48438 10.75C9.48438 11.7708 9.13802 12.5677 8.44531 13.1406C7.75781 13.7135 6.79427 14 5.55469 14H1.57031V2.57812ZM2.89844 7.46875H5.08594C6.02344 7.46875 6.69792 7.32292 7.10938 7.03125C7.52083 6.73438 7.72656 6.23698 7.72656 5.53906C7.72656 4.89844 7.4974 4.4375 7.03906 4.15625C6.58073 3.86979 5.85156 3.72656 4.85156 3.72656H2.89844V7.46875ZM2.89844 8.59375V12.8672H5.28125C6.20312 12.8672 6.89583 12.6901 7.35938 12.3359C7.82812 11.9766 8.0625 11.4167 8.0625 10.6562C8.0625 9.94792 7.82292 9.42708 7.34375 9.09375C6.86979 8.76042 6.14583 8.59375 5.17188 8.59375H2.89844ZM19.1406 9.71094C19.1406 11.1068 18.7891 12.1979 18.0859 12.9844C17.3828 13.7656 16.4115 14.1562 15.1719 14.1562C14.4062 14.1562 13.7266 13.9766 13.1328 13.6172C12.5391 13.2578 12.0807 12.7422 11.7578 12.0703C11.4349 11.3984 11.2734 10.612 11.2734 9.71094C11.2734 8.3151 11.6224 7.22917 12.3203 6.45312C13.0182 5.67188 13.987 5.28125 15.2266 5.28125C16.4245 5.28125 17.375 5.67969 18.0781 6.47656C18.7865 7.27344 19.1406 8.35156 19.1406 9.71094ZM12.6172 9.71094C12.6172 10.8047 12.8359 11.638 13.2734 12.2109C13.7109 12.7839 14.3542 13.0703 15.2031 13.0703C16.0521 13.0703 16.6953 12.7865 17.1328 12.2188C17.5755 11.6458 17.7969 10.8099 17.7969 9.71094C17.7969 8.6224 17.5755 7.79688 17.1328 7.23438C16.6953 6.66667 16.0469 6.38281 15.1875 6.38281C14.3385 6.38281 13.6979 6.66146 13.2656 7.21875C12.8333 7.77604 12.6172 8.60677 12.6172 9.71094ZM25.0391 14.1562C23.7734 14.1562 22.7734 13.7708 22.0391 13C21.3099 12.2292 20.9453 11.1589 20.9453 9.78906C20.9453 8.40885 21.2839 7.3125 21.9609 6.5C22.6432 5.6875 23.5573 5.28125 24.7031 5.28125C25.776 5.28125 26.625 5.63542 27.25 6.34375C27.875 7.04688 28.1875 7.97656 28.1875 9.13281V9.95312H22.2891C22.3151 10.9583 22.5677 11.7214 23.0469 12.2422C23.5312 12.763 24.2109 13.0234 25.0859 13.0234C26.0078 13.0234 26.9193 12.8307 27.8203 12.4453V13.6016C27.362 13.7995 26.9271 13.9401 26.5156 14.0234C26.1094 14.112 25.6172 14.1562 25.0391 14.1562ZM24.6875 6.36719C24 6.36719 23.4505 6.59115 23.0391 7.03906C22.6328 7.48698 22.3932 8.10677 22.3203 8.89844H26.7969C26.7969 8.08073 26.6146 7.45573 26.25 7.02344C25.8854 6.58594 25.3646 6.36719 24.6875 6.36719ZM31.7031 14H30.4062V5.4375H31.7031V14ZM30.2969 3.11719C30.2969 2.82031 30.3698 2.60417 30.5156 2.46875C30.6615 2.32812 30.8438 2.25781 31.0625 2.25781C31.2708 2.25781 31.4505 2.32812 31.6016 2.46875C31.7526 2.60938 31.8281 2.82552 31.8281 3.11719C31.8281 3.40885 31.7526 3.6276 31.6016 3.77344C31.4505 3.91406 31.2708 3.98438 31.0625 3.98438C30.8438 3.98438 30.6615 3.91406 30.5156 3.77344C30.3698 3.6276 30.2969 3.40885 30.2969 3.11719ZM40.3125 14V8.46094C40.3125 7.76302 40.1536 7.24219 39.8359 6.89844C39.5182 6.55469 39.0208 6.38281 38.3438 6.38281C37.4479 6.38281 36.7917 6.625 36.375 7.10938C35.9583 7.59375 35.75 8.39323 35.75 9.50781V14H34.4531V5.4375H35.5078L35.7188 6.60938H35.7812C36.0469 6.1875 36.4193 5.86198 36.8984 5.63281C37.3776 5.39844 37.9115 5.28125 38.5 5.28125C39.5312 5.28125 40.3073 5.53125 40.8281 6.03125C41.349 6.52604 41.6094 7.32031 41.6094 8.41406V14H40.3125ZM51.2891 5.4375V6.25781L49.7031 6.44531C49.849 6.6276 49.9792 6.86719 50.0938 7.16406C50.2083 7.45573 50.2656 7.78646 50.2656 8.15625C50.2656 8.99479 49.9792 9.66406 49.4062 10.1641C48.8333 10.6641 48.0469 10.9141 47.0469 10.9141C46.7917 10.9141 46.5521 10.8932 46.3281 10.8516C45.776 11.1432 45.5 11.5104 45.5 11.9531C45.5 12.1875 45.5964 12.362 45.7891 12.4766C45.9818 12.5859 46.3125 12.6406 46.7812 12.6406H48.2969C49.224 12.6406 49.9349 12.8359 50.4297 13.2266C50.9297 13.6172 51.1797 14.1849 51.1797 14.9297C51.1797 15.8776 50.7995 16.599 50.0391 17.0938C49.2786 17.5938 48.1693 17.8438 46.7109 17.8438C45.5911 17.8438 44.7266 17.6354 44.1172 17.2188C43.513 16.8021 43.2109 16.2135 43.2109 15.4531C43.2109 14.9323 43.3776 14.4818 43.7109 14.1016C44.0443 13.7214 44.513 13.4635 45.1172 13.3281C44.8984 13.2292 44.7135 13.0755 44.5625 12.8672C44.4167 12.6589 44.3438 12.4167 44.3438 12.1406C44.3438 11.8281 44.4271 11.5547 44.5938 11.3203C44.7604 11.0859 45.0234 10.8594 45.3828 10.6406C44.9401 10.4583 44.5781 10.1484 44.2969 9.71094C44.0208 9.27344 43.8828 8.77344 43.8828 8.21094C43.8828 7.27344 44.1641 6.55208 44.7266 6.04688C45.2891 5.53646 46.0859 5.28125 47.1172 5.28125C47.5651 5.28125 47.9688 5.33333 48.3281 5.4375H51.2891ZM44.4609 15.4375C44.4609 15.901 44.6562 16.2526 45.0469 16.4922C45.4375 16.7318 45.9974 16.8516 46.7266 16.8516C47.8151 16.8516 48.6198 16.6875 49.1406 16.3594C49.6667 16.0365 49.9297 15.5964 49.9297 15.0391C49.9297 14.5755 49.7865 14.2526 49.5 14.0703C49.2135 13.8932 48.6745 13.8047 47.8828 13.8047H46.3281C45.7396 13.8047 45.2812 13.9453 44.9531 14.2266C44.625 14.5078 44.4609 14.9115 44.4609 15.4375ZM45.1641 8.17969C45.1641 8.77865 45.3333 9.23177 45.6719 9.53906C46.0104 9.84635 46.4818 10 47.0859 10C48.3516 10 48.9844 9.38542 48.9844 8.15625C48.9844 6.86979 48.3438 6.22656 47.0625 6.22656C46.4531 6.22656 45.9844 6.39062 45.6562 6.71875C45.3281 7.04688 45.1641 7.53385 45.1641 8.17969ZM64.1172 14H56.6094V12.8828L59.6172 9.85938C60.5339 8.93229 61.138 8.27083 61.4297 7.875C61.7214 7.47917 61.9401 7.09375 62.0859 6.71875C62.2318 6.34375 62.3047 5.9401 62.3047 5.50781C62.3047 4.89844 62.1198 4.41667 61.75 4.0625C61.3802 3.70312 60.8672 3.52344 60.2109 3.52344C59.737 3.52344 59.2865 3.60156 58.8594 3.75781C58.4375 3.91406 57.9661 4.19792 57.4453 4.60938L56.7578 3.72656C57.8099 2.85156 58.9557 2.41406 60.1953 2.41406C61.2682 2.41406 62.1094 2.6901 62.7188 3.24219C63.3281 3.78906 63.6328 4.52604 63.6328 5.45312C63.6328 6.17708 63.4297 6.89323 63.0234 7.60156C62.6172 8.3099 61.8568 9.20573 60.7422 10.2891L58.2422 12.7344V12.7969H64.1172V14ZM72.8438 5.26562C72.8438 5.99479 72.638 6.59115 72.2266 7.05469C71.8203 7.51823 71.2422 7.82812 70.4922 7.98438V8.04688C71.4089 8.16146 72.0885 8.45312 72.5312 8.92188C72.974 9.39062 73.1953 10.0052 73.1953 10.7656C73.1953 11.8542 72.8177 12.6927 72.0625 13.2812C71.3073 13.8646 70.2344 14.1562 68.8438 14.1562C68.2396 14.1562 67.6849 14.1094 67.1797 14.0156C66.6797 13.9271 66.1927 13.7682 65.7188 13.5391V12.3047C66.2135 12.5495 66.7396 12.737 67.2969 12.8672C67.8594 12.9922 68.3906 13.0547 68.8906 13.0547C70.8646 13.0547 71.8516 12.2812 71.8516 10.7344C71.8516 9.34896 70.763 8.65625 68.5859 8.65625H67.4609V7.53906H68.6016C69.4922 7.53906 70.1979 7.34375 70.7188 6.95312C71.2396 6.55729 71.5 6.01042 71.5 5.3125C71.5 4.75521 71.3073 4.31771 70.9219 4C70.5417 3.68229 70.0234 3.52344 69.3672 3.52344C68.8672 3.52344 68.3958 3.59115 67.9531 3.72656C67.5104 3.86198 67.0052 4.11198 66.4375 4.47656L65.7812 3.60156C66.25 3.23177 66.7891 2.94271 67.3984 2.73438C68.013 2.52083 68.6589 2.41406 69.3359 2.41406C70.4453 2.41406 71.3073 2.66927 71.9219 3.17969C72.5365 3.6849 72.8438 4.38021 72.8438 5.26562ZM82.4922 8.27344C82.4922 10.2474 82.1797 11.7214 81.5547 12.6953C80.9349 13.6693 79.9844 14.1562 78.7031 14.1562C77.474 14.1562 76.5391 13.6589 75.8984 12.6641C75.2578 11.6641 74.9375 10.2005 74.9375 8.27344C74.9375 6.28385 75.2474 4.80729 75.8672 3.84375C76.487 2.88021 77.4323 2.39844 78.7031 2.39844C79.9427 2.39844 80.8828 2.90104 81.5234 3.90625C82.1693 4.91146 82.4922 6.36719 82.4922 8.27344ZM76.25 8.27344C76.25 9.9349 76.4453 11.1458 76.8359 11.9062C77.2266 12.6615 77.849 13.0391 78.7031 13.0391C79.5677 13.0391 80.1927 12.6562 80.5781 11.8906C80.9688 11.1198 81.1641 9.91406 81.1641 8.27344C81.1641 6.63281 80.9688 5.43229 80.5781 4.67188C80.1927 3.90625 79.5677 3.52344 78.7031 3.52344C77.849 3.52344 77.2266 3.90104 76.8359 4.65625C76.4453 5.40625 76.25 6.61198 76.25 8.27344Z" fill="white"/>
</g>
<g opacity="0.3">
<path d="M17.6343 48.9626L23.9874 42.6094L25.5343 44.1563L19.1812 50.5094L17.6343 48.9626Z" fill="#ACB8BF"/>
<path d="M28.7351 50.5601L35.089 44.2085L36.6359 45.7554L30.282 52.1069L28.7351 50.5601Z" fill="#ACB8BF"/>
<path d="M50.5234 81.8545L56.8781 75.5029L58.425 77.0506L52.0703 83.4021L50.5234 81.8545Z" fill="#ACB8BF"/>
<path d="M48.9366 70.6849L55.2913 64.3334L56.8382 65.881L50.4827 72.2326L48.9366 70.6849Z" fill="#ACB8BF"/>
<path d="M56.0625 86.4218L52.3906 53.5312L47.4688 48.6093L14.5781 44.9374C13.0156 44.7812 13.3281 48.6874 15.125 49.5468L39.8906 61.1093L51.4531 85.8749C52.3125 87.6718 56.2188 87.9843 56.0625 86.4218Z" fill="white"/>
<path d="M59.8907 45.3281C61.6094 41.9687 59.0313 39.3906 55.6719 41.1094C51.375 43.2969 45.0469 48.2187 38.6407 54.5469C28.6407 64.5469 22.2344 74.4687 24.3438 76.6562C26.4532 78.7656 36.4532 72.3594 46.4532 62.3594C52.7813 56.0312 57.7032 49.625 59.8907 45.3281Z" fill="#DAE3EA"/>
<path d="M29.5 86.0311L28.25 74.4686L26.5312 72.7498L14.9687 71.4998C14.4219 71.4217 14.5 72.828 15.125 73.1405L23.7969 77.203L27.8594 85.8748C28.1719 86.4998 29.5781 86.578 29.5 86.0311Z" fill="white"/>
<path d="M27.7813 75.0938C24.2657 78.6094 21.0626 81.0312 20.5938 80.4844C20.1251 80.0156 22.5469 76.7344 25.9844 73.2187C29.5001 69.7031 32.7032 67.2813 33.2501 67.8281C33.6407 68.2969 31.2188 71.5781 27.7813 75.0938Z" fill="#ACB8BF"/>
<path d="M58.7187 46.5783C59.1094 45.172 58.9531 43.8439 58.0938 42.9064C57.2344 42.047 55.8281 41.8127 54.5 42.2814L51.8438 43.922C53.1719 43.4533 55.125 44.1564 55.9844 45.0158C56.9219 45.9533 57.5469 47.8283 57.0781 49.1564L58.7187 46.5783Z" fill="#3E4347"/>
<path d="M53.925 46.5742L58.3422 42.1531L58.8399 42.65L54.4219 47.0719L53.925 46.5742Z" fill="#DAE3EA"/>
</g>
</svg>
