<svg width="76" height="77" viewBox="0 0 76 77" fill="none" xmlns="http://www.w3.org/2000/svg">
<g opacity="0.3">
<path d="M1.57031 2.57812H4.79688C6.3125 2.57812 7.40885 2.80469 8.08594 3.25781C8.76302 3.71094 9.10156 4.42708 9.10156 5.40625C9.10156 6.08333 8.91146 6.64323 8.53125 7.08594C8.15625 7.52344 7.60677 7.80729 6.88281 7.9375V8.01562C8.61719 8.3125 9.48438 9.22396 9.48438 10.75C9.48438 11.7708 9.13802 12.5677 8.44531 13.1406C7.75781 13.7135 6.79427 14 5.55469 14H1.57031V2.57812ZM2.89844 7.46875H5.08594C6.02344 7.46875 6.69792 7.32292 7.10938 7.03125C7.52083 6.73438 7.72656 6.23698 7.72656 5.53906C7.72656 4.89844 7.4974 4.4375 7.03906 4.15625C6.58073 3.86979 5.85156 3.72656 4.85156 3.72656H2.89844V7.46875ZM2.89844 8.59375V12.8672H5.28125C6.20312 12.8672 6.89583 12.6901 7.35938 12.3359C7.82812 11.9766 8.0625 11.4167 8.0625 10.6562C8.0625 9.94792 7.82292 9.42708 7.34375 9.09375C6.86979 8.76042 6.14583 8.59375 5.17188 8.59375H2.89844ZM19.1406 9.71094C19.1406 11.1068 18.7891 12.1979 18.0859 12.9844C17.3828 13.7656 16.4115 14.1562 15.1719 14.1562C14.4062 14.1562 13.7266 13.9766 13.1328 13.6172C12.5391 13.2578 12.0807 12.7422 11.7578 12.0703C11.4349 11.3984 11.2734 10.612 11.2734 9.71094C11.2734 8.3151 11.6224 7.22917 12.3203 6.45312C13.0182 5.67188 13.987 5.28125 15.2266 5.28125C16.4245 5.28125 17.375 5.67969 18.0781 6.47656C18.7865 7.27344 19.1406 8.35156 19.1406 9.71094ZM12.6172 9.71094C12.6172 10.8047 12.8359 11.638 13.2734 12.2109C13.7109 12.7839 14.3542 13.0703 15.2031 13.0703C16.0521 13.0703 16.6953 12.7865 17.1328 12.2188C17.5755 11.6458 17.7969 10.8099 17.7969 9.71094C17.7969 8.6224 17.5755 7.79688 17.1328 7.23438C16.6953 6.66667 16.0469 6.38281 15.1875 6.38281C14.3385 6.38281 13.6979 6.66146 13.2656 7.21875C12.8333 7.77604 12.6172 8.60677 12.6172 9.71094ZM25.0391 14.1562C23.7734 14.1562 22.7734 13.7708 22.0391 13C21.3099 12.2292 20.9453 11.1589 20.9453 9.78906C20.9453 8.40885 21.2839 7.3125 21.9609 6.5C22.6432 5.6875 23.5573 5.28125 24.7031 5.28125C25.776 5.28125 26.625 5.63542 27.25 6.34375C27.875 7.04688 28.1875 7.97656 28.1875 9.13281V9.95312H22.2891C22.3151 10.9583 22.5677 11.7214 23.0469 12.2422C23.5312 12.763 24.2109 13.0234 25.0859 13.0234C26.0078 13.0234 26.9193 12.8307 27.8203 12.4453V13.6016C27.362 13.7995 26.9271 13.9401 26.5156 14.0234C26.1094 14.112 25.6172 14.1562 25.0391 14.1562ZM24.6875 6.36719C24 6.36719 23.4505 6.59115 23.0391 7.03906C22.6328 7.48698 22.3932 8.10677 22.3203 8.89844H26.7969C26.7969 8.08073 26.6146 7.45573 26.25 7.02344C25.8854 6.58594 25.3646 6.36719 24.6875 6.36719ZM31.7031 14H30.4062V5.4375H31.7031V14ZM30.2969 3.11719C30.2969 2.82031 30.3698 2.60417 30.5156 2.46875C30.6615 2.32812 30.8438 2.25781 31.0625 2.25781C31.2708 2.25781 31.4505 2.32812 31.6016 2.46875C31.7526 2.60938 31.8281 2.82552 31.8281 3.11719C31.8281 3.40885 31.7526 3.6276 31.6016 3.77344C31.4505 3.91406 31.2708 3.98438 31.0625 3.98438C30.8438 3.98438 30.6615 3.91406 30.5156 3.77344C30.3698 3.6276 30.2969 3.40885 30.2969 3.11719ZM40.3125 14V8.46094C40.3125 7.76302 40.1536 7.24219 39.8359 6.89844C39.5182 6.55469 39.0208 6.38281 38.3438 6.38281C37.4479 6.38281 36.7917 6.625 36.375 7.10938C35.9583 7.59375 35.75 8.39323 35.75 9.50781V14H34.4531V5.4375H35.5078L35.7188 6.60938H35.7812C36.0469 6.1875 36.4193 5.86198 36.8984 5.63281C37.3776 5.39844 37.9115 5.28125 38.5 5.28125C39.5312 5.28125 40.3073 5.53125 40.8281 6.03125C41.349 6.52604 41.6094 7.32031 41.6094 8.41406V14H40.3125ZM51.2891 5.4375V6.25781L49.7031 6.44531C49.849 6.6276 49.9792 6.86719 50.0938 7.16406C50.2083 7.45573 50.2656 7.78646 50.2656 8.15625C50.2656 8.99479 49.9792 9.66406 49.4062 10.1641C48.8333 10.6641 48.0469 10.9141 47.0469 10.9141C46.7917 10.9141 46.5521 10.8932 46.3281 10.8516C45.776 11.1432 45.5 11.5104 45.5 11.9531C45.5 12.1875 45.5964 12.362 45.7891 12.4766C45.9818 12.5859 46.3125 12.6406 46.7812 12.6406H48.2969C49.224 12.6406 49.9349 12.8359 50.4297 13.2266C50.9297 13.6172 51.1797 14.1849 51.1797 14.9297C51.1797 15.8776 50.7995 16.599 50.0391 17.0938C49.2786 17.5938 48.1693 17.8438 46.7109 17.8438C45.5911 17.8438 44.7266 17.6354 44.1172 17.2188C43.513 16.8021 43.2109 16.2135 43.2109 15.4531C43.2109 14.9323 43.3776 14.4818 43.7109 14.1016C44.0443 13.7214 44.513 13.4635 45.1172 13.3281C44.8984 13.2292 44.7135 13.0755 44.5625 12.8672C44.4167 12.6589 44.3438 12.4167 44.3438 12.1406C44.3438 11.8281 44.4271 11.5547 44.5938 11.3203C44.7604 11.0859 45.0234 10.8594 45.3828 10.6406C44.9401 10.4583 44.5781 10.1484 44.2969 9.71094C44.0208 9.27344 43.8828 8.77344 43.8828 8.21094C43.8828 7.27344 44.1641 6.55208 44.7266 6.04688C45.2891 5.53646 46.0859 5.28125 47.1172 5.28125C47.5651 5.28125 47.9688 5.33333 48.3281 5.4375H51.2891ZM44.4609 15.4375C44.4609 15.901 44.6562 16.2526 45.0469 16.4922C45.4375 16.7318 45.9974 16.8516 46.7266 16.8516C47.8151 16.8516 48.6198 16.6875 49.1406 16.3594C49.6667 16.0365 49.9297 15.5964 49.9297 15.0391C49.9297 14.5755 49.7865 14.2526 49.5 14.0703C49.2135 13.8932 48.6745 13.8047 47.8828 13.8047H46.3281C45.7396 13.8047 45.2812 13.9453 44.9531 14.2266C44.625 14.5078 44.4609 14.9115 44.4609 15.4375ZM45.1641 8.17969C45.1641 8.77865 45.3333 9.23177 45.6719 9.53906C46.0104 9.84635 46.4818 10 47.0859 10C48.3516 10 48.9844 9.38542 48.9844 8.15625C48.9844 6.86979 48.3438 6.22656 47.0625 6.22656C46.4531 6.22656 45.9844 6.39062 45.6562 6.71875C45.3281 7.04688 45.1641 7.53385 45.1641 8.17969ZM64.5781 14L63.1562 10.3672H58.5781L57.1719 14H55.8281L60.3438 2.53125H61.4609L65.9531 14H64.5781ZM62.7422 9.17188L61.4141 5.63281C61.2422 5.1849 61.0651 4.63542 60.8828 3.98438C60.7682 4.48438 60.6042 5.03385 60.3906 5.63281L59.0469 9.17188H62.7422ZM74.2422 14H66.7344V12.8828L69.7422 9.85938C70.6589 8.93229 71.263 8.27083 71.5547 7.875C71.8464 7.47917 72.0651 7.09375 72.2109 6.71875C72.3568 6.34375 72.4297 5.9401 72.4297 5.50781C72.4297 4.89844 72.2448 4.41667 71.875 4.0625C71.5052 3.70312 70.9922 3.52344 70.3359 3.52344C69.862 3.52344 69.4115 3.60156 68.9844 3.75781C68.5625 3.91406 68.0911 4.19792 67.5703 4.60938L66.8828 3.72656C67.9349 2.85156 69.0807 2.41406 70.3203 2.41406C71.3932 2.41406 72.2344 2.6901 72.8438 3.24219C73.4531 3.78906 73.7578 4.52604 73.7578 5.45312C73.7578 6.17708 73.5547 6.89323 73.1484 7.60156C72.7422 8.3099 71.9818 9.20573 70.8672 10.2891L68.3672 12.7344V12.7969H74.2422V14Z" fill="white"/>
</g>
<g opacity="0.3">
<path d="M38.8001 50.0059C38.8001 50.0059 36.3001 48.8059 34.2001 47.9059C32.2001 47.0059 31.6001 45.8059 33.1001 45.3059C34.5001 44.8059 37.8001 44.6059 40.4001 44.7059C41.5001 44.8059 45.0001 45.0059 45.0001 45.0059C47.6001 45.1059 47.8001 46.0059 45.4001 46.8059L38.8001 50.0059Z" fill="white"/>
<path d="M14.2001 59.4058C14.2001 59.4058 11.6001 60.4058 11.4001 61.6058C11.1001 62.6058 10.2001 76.3058 68.1001 44.0058C71.5001 42.1058 69.8001 40.0058 65.1001 39.5058C50.9001 37.9058 54.4001 39.0058 14.2001 59.4058Z" fill="#DAE3EA"/>
<path d="M27 52.8059C27 52.8059 14.2 49.0059 10 47.6059C7.3 46.7059 6 49.7059 6 49.7059C6 49.7059 11 61.9059 11.5 61.6059L26.9 53.7059C27.4 53.4059 27.4 53.0059 27 52.8059Z" fill="white"/>
<path d="M40.7 64.5059C40.7 64.5059 30.3 65.4059 23.2 72.6059C22.8 73.0059 22 74.1059 23.3 74.7059C25.8 75.4059 31.7 76.0059 41.7 71.2059L40.7 64.5059Z" fill="#C5D0D8"/>
<path d="M41.8 71.1059C40.9 71.4059 39.9 70.2059 39.4 68.4059C39 66.6059 39.3 64.9059 40.2 64.6059C41.1 64.3059 42.1 65.5059 42.6 67.3059C43 69.1059 42.7 70.8059 41.8 71.1059Z" fill="#94989B"/>
<path d="M39.2 54.2059C36.7 55.3059 35.5 55.9059 34.1 58.2059L23.7 73.8059C22.3 76.1059 23.3 77.2059 25.9 76.4059C28.5 75.5059 32.1 73.2059 33.8 71.1059L50.3 51.5059C52 49.4059 51.4 48.7059 48.9 49.8059L39.2 54.2059Z" fill="white"/>
<path d="M40.9999 68.6058C40.6999 67.3058 40.0999 66.3058 39.3999 66.0058C39.2999 66.7058 39.2999 67.5058 39.4999 68.4058C39.7999 69.7058 40.3999 70.7058 41.0999 71.0058C41.1999 70.3058 41.1999 69.5058 40.9999 68.6058Z" fill="#3E4347"/>
<path d="M60.3 39.7058C59.8 40.5058 57.1 42.8058 57.1 42.8058C57.1 42.8058 57.6 43.7058 59.2 43.2058C60.5 42.8058 61.8 41.6058 62.5 40.2058L60.3 39.7058Z" fill="#3E4347"/>
<path d="M27.2 57.4058C27.7522 57.4058 28.2 56.9581 28.2 56.4058C28.2 55.8535 27.7522 55.4058 27.2 55.4058C26.6477 55.4058 26.2 55.8535 26.2 56.4058C26.2 56.9581 26.6477 57.4058 27.2 57.4058Z" fill="#3E4347"/>
<path d="M30.7999 55.6058C31.3522 55.6058 31.7999 55.1581 31.7999 54.6058C31.7999 54.0535 31.3522 53.6058 30.7999 53.6058C30.2476 53.6058 29.7999 54.0535 29.7999 54.6058C29.7999 55.1581 30.2476 55.6058 30.7999 55.6058Z" fill="#3E4347"/>
<path d="M34.3999 53.7058C34.9522 53.7058 35.3999 53.2581 35.3999 52.7058C35.3999 52.1535 34.9522 51.7058 34.3999 51.7058C33.8476 51.7058 33.3999 52.1535 33.3999 52.7058C33.3999 53.2581 33.8476 53.7058 34.3999 53.7058Z" fill="#3E4347"/>
<path d="M38.1 51.8058C38.6523 51.8058 39.1 51.3581 39.1 50.8058C39.1 50.2535 38.6523 49.8058 38.1 49.8058C37.5477 49.8058 37.1 50.2535 37.1 50.8058C37.1 51.3581 37.5477 51.8058 38.1 51.8058Z" fill="#3E4347"/>
<path d="M41.7 49.9058C42.2522 49.9058 42.7 49.4581 42.7 48.9058C42.7 48.3535 42.2522 47.9058 41.7 47.9058C41.1477 47.9058 40.7 48.3535 40.7 48.9058C40.7 49.4581 41.1477 49.9058 41.7 49.9058Z" fill="#3E4347"/>
<path d="M45.2999 48.1058C45.8522 48.1058 46.2999 47.6581 46.2999 47.1058C46.2999 46.5535 45.8522 46.1058 45.2999 46.1058C44.7476 46.1058 44.2999 46.5535 44.2999 47.1058C44.2999 47.6581 44.7476 48.1058 45.2999 48.1058Z" fill="#3E4347"/>
<path d="M48.8999 46.2058C49.4522 46.2058 49.8999 45.7581 49.8999 45.2058C49.8999 44.6535 49.4522 44.2058 48.8999 44.2058C48.3476 44.2058 47.8999 44.6535 47.8999 45.2058C47.8999 45.7581 48.3476 46.2058 48.8999 46.2058Z" fill="#3E4347"/>
</g>
</svg>
