<svg width="361" height="389" viewBox="0 0 361 389" fill="none" xmlns="http://www.w3.org/2000/svg">
<rect opacity="0.7" width="361" height="354" rx="8.40864" fill="white" fill-opacity="0.02"/>
<path d="M32.9814 45H31.5049L28.9121 36.3955C28.7891 36.0146 28.6514 35.5342 28.499 34.9541C28.3467 34.374 28.2676 34.0254 28.2617 33.9082C28.1328 34.6816 27.9277 35.5283 27.6465 36.4482L25.1328 45H23.6562L20.2373 32.1504H21.8193L23.8496 40.0869C24.1309 41.2002 24.3359 42.208 24.4648 43.1104C24.623 42.0381 24.8574 40.9893 25.168 39.9639L27.4707 32.1504H29.0527L31.4697 40.0342C31.751 40.9424 31.9883 41.9678 32.1816 43.1104C32.293 42.2783 32.5039 41.2646 32.8145 40.0693L34.8359 32.1504H36.418L32.9814 45ZM44.1348 45L43.8447 43.6289H43.7744C43.2939 44.2324 42.8135 44.6426 42.333 44.8594C41.8584 45.0703 41.2637 45.1758 40.5488 45.1758C39.5938 45.1758 38.8438 44.9297 38.2988 44.4375C37.7598 43.9453 37.4902 43.2451 37.4902 42.3369C37.4902 40.3916 39.0459 39.3721 42.1572 39.2783L43.792 39.2256V38.6279C43.792 37.8721 43.6279 37.3154 43.2998 36.958C42.9775 36.5947 42.459 36.4131 41.7441 36.4131C40.9414 36.4131 40.0332 36.6592 39.0195 37.1514L38.5713 36.0352C39.0459 35.7773 39.5645 35.5752 40.127 35.4287C40.6953 35.2822 41.2637 35.209 41.832 35.209C42.9805 35.209 43.8301 35.4639 44.3809 35.9736C44.9375 36.4834 45.2158 37.3008 45.2158 38.4258V45H44.1348ZM40.8389 43.9717C41.7471 43.9717 42.459 43.7227 42.9746 43.2246C43.4961 42.7266 43.7568 42.0293 43.7568 41.1328V40.2627L42.2979 40.3242C41.1377 40.3652 40.2998 40.5469 39.7842 40.8691C39.2744 41.1855 39.0195 41.6807 39.0195 42.3545C39.0195 42.8818 39.1777 43.2832 39.4941 43.5586C39.8164 43.834 40.2646 43.9717 40.8389 43.9717ZM51.3418 43.9717C51.5996 43.9717 51.8486 43.9541 52.0889 43.9189C52.3291 43.8779 52.5195 43.8369 52.6602 43.7959V44.9121C52.502 44.9883 52.2676 45.0498 51.957 45.0967C51.6523 45.1494 51.377 45.1758 51.1309 45.1758C49.2676 45.1758 48.3359 44.1943 48.3359 42.2314V36.501H46.9561V35.7979L48.3359 35.1914L48.9512 33.1348H49.7949V35.3672H52.5898V36.501H49.7949V42.1699C49.7949 42.75 49.9326 43.1953 50.208 43.5059C50.4834 43.8164 50.8613 43.9717 51.3418 43.9717ZM58.4434 45.1758C57.0488 45.1758 55.9678 44.748 55.2002 43.8926C54.4385 43.0312 54.0576 41.8154 54.0576 40.2451C54.0576 38.6338 54.4443 37.3887 55.2178 36.5098C55.9971 35.6309 57.1045 35.1914 58.54 35.1914C59.0029 35.1914 59.4658 35.2412 59.9287 35.3408C60.3916 35.4404 60.7549 35.5576 61.0186 35.6924L60.5703 36.9316C60.248 36.8027 59.8965 36.6973 59.5156 36.6152C59.1348 36.5273 58.7979 36.4834 58.5049 36.4834C56.5479 36.4834 55.5693 37.7314 55.5693 40.2275C55.5693 41.4111 55.8066 42.3193 56.2812 42.9521C56.7617 43.585 57.4707 43.9014 58.4082 43.9014C59.2109 43.9014 60.0342 43.7285 60.8779 43.3828V44.6748C60.2334 45.0088 59.4219 45.1758 58.4434 45.1758ZM69.7637 45V38.7686C69.7637 37.9834 69.585 37.3975 69.2275 37.0107C68.8701 36.624 68.3105 36.4307 67.5488 36.4307C66.5352 36.4307 65.7939 36.7061 65.3252 37.2568C64.8623 37.8076 64.6309 38.71 64.6309 39.9639V45H63.1719V31.3242H64.6309V35.4639C64.6309 35.9619 64.6074 36.375 64.5605 36.7031H64.6484C64.9355 36.2402 65.3428 35.877 65.8701 35.6133C66.4033 35.3438 67.0098 35.209 67.6895 35.209C68.8672 35.209 69.749 35.4902 70.335 36.0527C70.9268 36.6094 71.2227 37.4971 71.2227 38.7158V45H69.7637ZM75.6875 45H74.2285V31.3242H75.6875V45ZM80.2402 45H78.7812V35.3672H80.2402V45ZM78.6582 32.7568C78.6582 32.4229 78.7402 32.1797 78.9043 32.0273C79.0684 31.8691 79.2734 31.79 79.5195 31.79C79.7539 31.79 79.9561 31.8691 80.126 32.0273C80.2959 32.1855 80.3809 32.4287 80.3809 32.7568C80.3809 33.085 80.2959 33.3311 80.126 33.4951C79.9561 33.6533 79.7539 33.7324 79.5195 33.7324C79.2734 33.7324 79.0684 33.6533 78.9043 33.4951C78.7402 33.3311 78.6582 33.085 78.6582 32.7568ZM89.5479 42.3721C89.5479 43.2686 89.2139 43.96 88.5459 44.4463C87.8779 44.9326 86.9404 45.1758 85.7334 45.1758C84.4561 45.1758 83.46 44.9736 82.7451 44.5693V43.2158C83.208 43.4502 83.7031 43.6348 84.2305 43.7695C84.7637 43.9043 85.2764 43.9717 85.7686 43.9717C86.5303 43.9717 87.1162 43.8516 87.5264 43.6113C87.9365 43.3652 88.1416 42.9932 88.1416 42.4951C88.1416 42.1201 87.9775 41.8008 87.6494 41.5371C87.3271 41.2676 86.6943 40.9512 85.751 40.5879C84.8545 40.2539 84.2158 39.9639 83.835 39.7178C83.46 39.4658 83.1787 39.1816 82.9912 38.8652C82.8096 38.5488 82.7188 38.1709 82.7188 37.7314C82.7188 36.9463 83.0381 36.3281 83.6768 35.877C84.3154 35.4199 85.1914 35.1914 86.3047 35.1914C87.3418 35.1914 88.3555 35.4023 89.3457 35.8242L88.8271 37.0107C87.8604 36.6123 86.9844 36.4131 86.1992 36.4131C85.5078 36.4131 84.9863 36.5215 84.6348 36.7383C84.2832 36.9551 84.1074 37.2539 84.1074 37.6348C84.1074 37.8926 84.1719 38.1123 84.3008 38.2939C84.4355 38.4756 84.6494 38.6484 84.9424 38.8125C85.2354 38.9766 85.7979 39.2139 86.6299 39.5244C87.7725 39.9404 88.543 40.3594 88.9414 40.7812C89.3457 41.2031 89.5479 41.7334 89.5479 42.3721ZM95.041 43.9717C95.2988 43.9717 95.5479 43.9541 95.7881 43.9189C96.0283 43.8779 96.2188 43.8369 96.3594 43.7959V44.9121C96.2012 44.9883 95.9668 45.0498 95.6562 45.0967C95.3516 45.1494 95.0762 45.1758 94.8301 45.1758C92.9668 45.1758 92.0352 44.1943 92.0352 42.2314V36.501H90.6553V35.7979L92.0352 35.1914L92.6504 33.1348H93.4941V35.3672H96.2891V36.501H93.4941V42.1699C93.4941 42.75 93.6318 43.1953 93.9072 43.5059C94.1826 43.8164 94.5605 43.9717 95.041 43.9717Z" fill="white"/>
<path d="M33.013 79.583H32V301.583H33.013V79.583Z" fill="#33393F"/>
<path d="M56.0721 79.583H55.0591V301.583H56.0721V79.583Z" fill="#33393F"/>
<path d="M87.085 79.583H86.072V301.583H87.085V79.583Z" fill="#33393F"/>
<path d="M268.562 318L267.496 315.275H264.062L263.008 318H262L265.387 309.398H266.225L269.594 318H268.562ZM267.186 314.379L266.189 311.725C266.061 311.389 265.928 310.977 265.791 310.488C265.705 310.863 265.582 311.275 265.422 311.725L264.414 314.379H267.186ZM271.539 311.578V315.744C271.539 316.268 271.658 316.658 271.896 316.916C272.135 317.174 272.508 317.303 273.016 317.303C273.688 317.303 274.178 317.119 274.486 316.752C274.799 316.385 274.955 315.785 274.955 314.953V311.578H275.928V318H275.125L274.984 317.139H274.932C274.732 317.455 274.455 317.697 274.1 317.865C273.748 318.033 273.346 318.117 272.893 318.117C272.111 318.117 271.525 317.932 271.135 317.561C270.748 317.189 270.555 316.596 270.555 315.779V311.578H271.539ZM283.252 311.578V312.193L282.062 312.334C282.172 312.471 282.27 312.65 282.355 312.873C282.441 313.092 282.484 313.34 282.484 313.617C282.484 314.246 282.27 314.748 281.84 315.123C281.41 315.498 280.82 315.686 280.07 315.686C279.879 315.686 279.699 315.67 279.531 315.639C279.117 315.857 278.91 316.133 278.91 316.465C278.91 316.641 278.982 316.771 279.127 316.857C279.271 316.939 279.52 316.98 279.871 316.98H281.008C281.703 316.98 282.236 317.127 282.607 317.42C282.982 317.713 283.17 318.139 283.17 318.697C283.17 319.408 282.885 319.949 282.314 320.32C281.744 320.695 280.912 320.883 279.818 320.883C278.979 320.883 278.33 320.727 277.873 320.414C277.42 320.102 277.193 319.66 277.193 319.09C277.193 318.699 277.318 318.361 277.568 318.076C277.818 317.791 278.17 317.598 278.623 317.496C278.459 317.422 278.32 317.307 278.207 317.15C278.098 316.994 278.043 316.812 278.043 316.605C278.043 316.371 278.105 316.166 278.23 315.99C278.355 315.814 278.553 315.645 278.822 315.48C278.49 315.344 278.219 315.111 278.008 314.783C277.801 314.455 277.697 314.08 277.697 313.658C277.697 312.955 277.908 312.414 278.33 312.035C278.752 311.652 279.35 311.461 280.123 311.461C280.459 311.461 280.762 311.5 281.031 311.578H283.252ZM278.131 319.078C278.131 319.426 278.277 319.689 278.57 319.869C278.863 320.049 279.283 320.139 279.83 320.139C280.646 320.139 281.25 320.016 281.641 319.77C282.035 319.527 282.232 319.197 282.232 318.779C282.232 318.432 282.125 318.189 281.91 318.053C281.695 317.92 281.291 317.854 280.697 317.854H279.531C279.09 317.854 278.746 317.959 278.5 318.17C278.254 318.381 278.131 318.684 278.131 319.078ZM278.658 313.635C278.658 314.084 278.785 314.424 279.039 314.654C279.293 314.885 279.646 315 280.1 315C281.049 315 281.523 314.539 281.523 313.617C281.523 312.652 281.043 312.17 280.082 312.17C279.625 312.17 279.273 312.293 279.027 312.539C278.781 312.785 278.658 313.15 278.658 313.635Z" fill="#8A94A6"/>
<path d="M300.012 315.721C300.012 316.475 299.738 317.062 299.191 317.484C298.645 317.906 297.902 318.117 296.965 318.117C295.949 318.117 295.168 317.986 294.621 317.725V316.764C294.973 316.912 295.355 317.029 295.77 317.115C296.184 317.201 296.594 317.244 297 317.244C297.664 317.244 298.164 317.119 298.5 316.869C298.836 316.615 299.004 316.264 299.004 315.814C299.004 315.518 298.943 315.275 298.822 315.088C298.705 314.896 298.506 314.721 298.225 314.561C297.947 314.4 297.523 314.219 296.953 314.016C296.156 313.73 295.586 313.393 295.242 313.002C294.902 312.611 294.732 312.102 294.732 311.473C294.732 310.812 294.98 310.287 295.477 309.896C295.973 309.506 296.629 309.311 297.445 309.311C298.297 309.311 299.08 309.467 299.795 309.779L299.484 310.646C298.777 310.35 298.09 310.201 297.422 310.201C296.895 310.201 296.482 310.314 296.186 310.541C295.889 310.768 295.74 311.082 295.74 311.484C295.74 311.781 295.795 312.025 295.904 312.217C296.014 312.404 296.197 312.578 296.455 312.738C296.717 312.895 297.115 313.068 297.65 313.26C298.549 313.58 299.166 313.924 299.502 314.291C299.842 314.658 300.012 315.135 300.012 315.721ZM304.33 318.117C303.381 318.117 302.631 317.828 302.08 317.25C301.533 316.672 301.26 315.869 301.26 314.842C301.26 313.807 301.514 312.984 302.021 312.375C302.533 311.766 303.219 311.461 304.078 311.461C304.883 311.461 305.52 311.727 305.988 312.258C306.457 312.785 306.691 313.482 306.691 314.35V314.965H302.268C302.287 315.719 302.477 316.291 302.836 316.682C303.199 317.072 303.709 317.268 304.365 317.268C305.057 317.268 305.74 317.123 306.416 316.834V317.701C306.072 317.85 305.746 317.955 305.438 318.018C305.133 318.084 304.764 318.117 304.33 318.117ZM304.066 312.275C303.551 312.275 303.139 312.443 302.83 312.779C302.525 313.115 302.346 313.58 302.291 314.174H305.648C305.648 313.561 305.512 313.092 305.238 312.768C304.965 312.439 304.574 312.275 304.066 312.275ZM311.344 318.117C310.926 318.117 310.543 318.041 310.195 317.889C309.852 317.732 309.562 317.494 309.328 317.174H309.258C309.305 317.549 309.328 317.904 309.328 318.24V320.883H308.355V311.578H309.146L309.281 312.457H309.328C309.578 312.105 309.869 311.852 310.201 311.695C310.533 311.539 310.914 311.461 311.344 311.461C312.195 311.461 312.852 311.752 313.312 312.334C313.777 312.916 314.01 313.732 314.01 314.783C314.01 315.838 313.773 316.658 313.301 317.244C312.832 317.826 312.18 318.117 311.344 318.117ZM311.203 312.287C310.547 312.287 310.072 312.469 309.779 312.832C309.486 313.195 309.336 313.773 309.328 314.566V314.783C309.328 315.686 309.479 316.332 309.779 316.723C310.08 317.109 310.562 317.303 311.227 317.303C311.781 317.303 312.215 317.078 312.527 316.629C312.844 316.18 313.002 315.561 313.002 314.771C313.002 313.971 312.844 313.357 312.527 312.932C312.215 312.502 311.773 312.287 311.203 312.287Z" fill="#8A94A6"/>
<path d="M172.969 318L170.062 310.406H170.016C170.07 311.008 170.098 311.723 170.098 312.551V318H169.178V309.434H170.678L173.391 316.5H173.438L176.174 309.434H177.662V318H176.666V312.48C176.666 311.848 176.693 311.16 176.748 310.418H176.701L173.771 318H172.969ZM183.82 318L183.627 317.086H183.58C183.26 317.488 182.939 317.762 182.619 317.906C182.303 318.047 181.906 318.117 181.43 318.117C180.793 318.117 180.293 317.953 179.93 317.625C179.57 317.297 179.391 316.83 179.391 316.225C179.391 314.928 180.428 314.248 182.502 314.186L183.592 314.15V313.752C183.592 313.248 183.482 312.877 183.264 312.639C183.049 312.396 182.703 312.275 182.227 312.275C181.691 312.275 181.086 312.439 180.41 312.768L180.111 312.023C180.428 311.852 180.773 311.717 181.148 311.619C181.527 311.521 181.906 311.473 182.285 311.473C183.051 311.473 183.617 311.643 183.984 311.982C184.355 312.322 184.541 312.867 184.541 313.617V318H183.82ZM181.623 317.314C182.229 317.314 182.703 317.148 183.047 316.816C183.395 316.484 183.568 316.02 183.568 315.422V314.842L182.596 314.883C181.822 314.91 181.264 315.031 180.92 315.246C180.58 315.457 180.41 315.787 180.41 316.236C180.41 316.588 180.516 316.855 180.727 317.039C180.941 317.223 181.24 317.314 181.623 317.314ZM185.531 311.578H186.574L187.98 315.24C188.289 316.076 188.48 316.68 188.555 317.051H188.602C188.652 316.852 188.758 316.512 188.918 316.031C189.082 315.547 189.613 314.062 190.512 311.578H191.555L188.795 318.891C188.521 319.613 188.201 320.125 187.834 320.426C187.471 320.73 187.023 320.883 186.492 320.883C186.195 320.883 185.902 320.85 185.613 320.783V320.004C185.828 320.051 186.068 320.074 186.334 320.074C187.002 320.074 187.479 319.699 187.764 318.949L188.121 318.035L185.531 311.578Z" fill="#8A94A6"/>
<path d="M201.93 320.256C201.562 320.256 201.273 320.203 201.062 320.098V319.248C201.34 319.326 201.629 319.365 201.93 319.365C202.316 319.365 202.609 319.248 202.809 319.014C203.012 318.779 203.113 318.441 203.113 318V309.434H204.109V317.918C204.109 318.66 203.922 319.234 203.547 319.641C203.172 320.051 202.633 320.256 201.93 320.256ZM207.156 311.578V315.744C207.156 316.268 207.275 316.658 207.514 316.916C207.752 317.174 208.125 317.303 208.633 317.303C209.305 317.303 209.795 317.119 210.104 316.752C210.416 316.385 210.572 315.785 210.572 314.953V311.578H211.545V318H210.742L210.602 317.139H210.549C210.35 317.455 210.072 317.697 209.717 317.865C209.365 318.033 208.963 318.117 208.51 318.117C207.729 318.117 207.143 317.932 206.752 317.561C206.365 317.189 206.172 316.596 206.172 315.779V311.578H207.156ZM218.008 318V313.846C218.008 313.322 217.889 312.932 217.65 312.674C217.412 312.416 217.039 312.287 216.531 312.287C215.859 312.287 215.367 312.469 215.055 312.832C214.742 313.195 214.586 313.795 214.586 314.631V318H213.613V311.578H214.404L214.562 312.457H214.609C214.809 312.141 215.088 311.896 215.447 311.725C215.807 311.549 216.207 311.461 216.648 311.461C217.422 311.461 218.004 311.648 218.395 312.023C218.785 312.395 218.98 312.99 218.98 313.811V318H218.008Z" fill="#8A94A6"/>
<path d="M234.93 320.256C234.562 320.256 234.273 320.203 234.062 320.098V319.248C234.34 319.326 234.629 319.365 234.93 319.365C235.316 319.365 235.609 319.248 235.809 319.014C236.012 318.779 236.113 318.441 236.113 318V309.434H237.109V317.918C237.109 318.66 236.922 319.234 236.547 319.641C236.172 320.051 235.633 320.256 234.93 320.256ZM240.156 311.578V315.744C240.156 316.268 240.275 316.658 240.514 316.916C240.752 317.174 241.125 317.303 241.633 317.303C242.305 317.303 242.795 317.119 243.104 316.752C243.416 316.385 243.572 315.785 243.572 314.953V311.578H244.545V318H243.742L243.602 317.139H243.549C243.35 317.455 243.072 317.697 242.717 317.865C242.365 318.033 241.963 318.117 241.51 318.117C240.729 318.117 240.143 317.932 239.752 317.561C239.365 317.189 239.172 316.596 239.172 315.779V311.578H240.156ZM247.586 318H246.613V308.883H247.586V318Z" fill="#8A94A6"/>
<path d="M145.562 318L144.496 315.275H141.062L140.008 318H139L142.387 309.398H143.225L146.594 318H145.562ZM144.186 314.379L143.189 311.725C143.061 311.389 142.928 310.977 142.791 310.488C142.705 310.863 142.582 311.275 142.422 311.725L141.414 314.379H144.186ZM150.613 318.117C150.195 318.117 149.812 318.041 149.465 317.889C149.121 317.732 148.832 317.494 148.598 317.174H148.527C148.574 317.549 148.598 317.904 148.598 318.24V320.883H147.625V311.578H148.416L148.551 312.457H148.598C148.848 312.105 149.139 311.852 149.471 311.695C149.803 311.539 150.184 311.461 150.613 311.461C151.465 311.461 152.121 311.752 152.582 312.334C153.047 312.916 153.279 313.732 153.279 314.783C153.279 315.838 153.043 316.658 152.57 317.244C152.102 317.826 151.449 318.117 150.613 318.117ZM150.473 312.287C149.816 312.287 149.342 312.469 149.049 312.832C148.756 313.195 148.605 313.773 148.598 314.566V314.783C148.598 315.686 148.748 316.332 149.049 316.723C149.35 317.109 149.832 317.303 150.496 317.303C151.051 317.303 151.484 317.078 151.797 316.629C152.113 316.18 152.271 315.561 152.271 314.771C152.271 313.971 152.113 313.357 151.797 312.932C151.484 312.502 151.043 312.287 150.473 312.287ZM157.914 311.461C158.199 311.461 158.455 311.484 158.682 311.531L158.547 312.434C158.281 312.375 158.047 312.346 157.844 312.346C157.324 312.346 156.879 312.557 156.508 312.979C156.141 313.4 155.957 313.926 155.957 314.555V318H154.984V311.578H155.787L155.898 312.768H155.945C156.184 312.35 156.471 312.027 156.807 311.801C157.143 311.574 157.512 311.461 157.914 311.461Z" fill="#8A94A6"/>
<path d="M111.969 318L109.062 310.406H109.016C109.07 311.008 109.098 311.723 109.098 312.551V318H108.178V309.434H109.678L112.391 316.5H112.438L115.174 309.434H116.662V318H115.666V312.48C115.666 311.848 115.693 311.16 115.748 310.418H115.701L112.771 318H111.969ZM122.82 318L122.627 317.086H122.58C122.26 317.488 121.939 317.762 121.619 317.906C121.303 318.047 120.906 318.117 120.43 318.117C119.793 318.117 119.293 317.953 118.93 317.625C118.57 317.297 118.391 316.83 118.391 316.225C118.391 314.928 119.428 314.248 121.502 314.186L122.592 314.15V313.752C122.592 313.248 122.482 312.877 122.264 312.639C122.049 312.396 121.703 312.275 121.227 312.275C120.691 312.275 120.086 312.439 119.41 312.768L119.111 312.023C119.428 311.852 119.773 311.717 120.148 311.619C120.527 311.521 120.906 311.473 121.285 311.473C122.051 311.473 122.617 311.643 122.984 311.982C123.355 312.322 123.541 312.867 123.541 313.617V318H122.82ZM120.623 317.314C121.229 317.314 121.703 317.148 122.047 316.816C122.395 316.484 122.568 316.02 122.568 315.422V314.842L121.596 314.883C120.822 314.91 120.264 315.031 119.92 315.246C119.58 315.457 119.41 315.787 119.41 316.236C119.41 316.588 119.516 316.855 119.727 317.039C119.941 317.223 120.24 317.314 120.623 317.314ZM128.48 311.461C128.766 311.461 129.021 311.484 129.248 311.531L129.113 312.434C128.848 312.375 128.613 312.346 128.41 312.346C127.891 312.346 127.445 312.557 127.074 312.979C126.707 313.4 126.523 313.926 126.523 314.555V318H125.551V311.578H126.354L126.465 312.768H126.512C126.75 312.35 127.037 312.027 127.373 311.801C127.709 311.574 128.078 311.461 128.48 311.461Z" fill="#8A94A6"/>
<path d="M79.1738 318H78.1777V309.434H82.9531V310.318H79.1738V313.453H82.7246V314.338H79.1738V318ZM86.9434 318.117C85.9941 318.117 85.2441 317.828 84.6934 317.25C84.1465 316.672 83.873 315.869 83.873 314.842C83.873 313.807 84.127 312.984 84.6348 312.375C85.1465 311.766 85.832 311.461 86.6914 311.461C87.4961 311.461 88.1328 311.727 88.6016 312.258C89.0703 312.785 89.3047 313.482 89.3047 314.35V314.965H84.8809C84.9004 315.719 85.0898 316.291 85.4492 316.682C85.8125 317.072 86.3223 317.268 86.9785 317.268C87.6699 317.268 88.3535 317.123 89.0293 316.834V317.701C88.6855 317.85 88.3594 317.955 88.0508 318.018C87.7461 318.084 87.377 318.117 86.9434 318.117ZM86.6797 312.275C86.1641 312.275 85.752 312.443 85.4434 312.779C85.1387 313.115 84.959 313.58 84.9043 314.174H88.2617C88.2617 313.561 88.125 313.092 87.8516 312.768C87.5781 312.439 87.1875 312.275 86.6797 312.275ZM93.957 311.473C94.8008 311.473 95.4551 311.762 95.9199 312.34C96.3887 312.914 96.623 313.729 96.623 314.783C96.623 315.838 96.3867 316.658 95.9141 317.244C95.4453 317.826 94.793 318.117 93.957 318.117C93.5391 318.117 93.1562 318.041 92.8086 317.889C92.4648 317.732 92.1758 317.494 91.9414 317.174H91.8711L91.666 318H90.9688V308.883H91.9414V311.098C91.9414 311.594 91.9258 312.039 91.8945 312.434H91.9414C92.3945 311.793 93.0664 311.473 93.957 311.473ZM93.8164 312.287C93.1523 312.287 92.6738 312.479 92.3809 312.861C92.0879 313.24 91.9414 313.881 91.9414 314.783C91.9414 315.686 92.0918 316.332 92.3926 316.723C92.6934 317.109 93.1758 317.303 93.8398 317.303C94.4375 317.303 94.8828 317.086 95.1758 316.652C95.4688 316.215 95.6152 315.588 95.6152 314.771C95.6152 313.936 95.4688 313.312 95.1758 312.902C94.8828 312.492 94.4297 312.287 93.8164 312.287Z" fill="#8A94A6"/>
<path d="M46.9297 320.256C46.5625 320.256 46.2734 320.203 46.0625 320.098V319.248C46.3398 319.326 46.6289 319.365 46.9297 319.365C47.3164 319.365 47.6094 319.248 47.8086 319.014C48.0117 318.779 48.1133 318.441 48.1133 318V309.434H49.1094V317.918C49.1094 318.66 48.9219 319.234 48.5469 319.641C48.1719 320.051 47.6328 320.256 46.9297 320.256ZM55.1914 318L54.998 317.086H54.9512C54.6309 317.488 54.3105 317.762 53.9902 317.906C53.6738 318.047 53.2773 318.117 52.8008 318.117C52.1641 318.117 51.6641 317.953 51.3008 317.625C50.9414 317.297 50.7617 316.83 50.7617 316.225C50.7617 314.928 51.7988 314.248 53.873 314.186L54.9629 314.15V313.752C54.9629 313.248 54.8535 312.877 54.6348 312.639C54.4199 312.396 54.0742 312.275 53.5977 312.275C53.0625 312.275 52.457 312.439 51.7812 312.768L51.4824 312.023C51.7988 311.852 52.1445 311.717 52.5195 311.619C52.8984 311.521 53.2773 311.473 53.6562 311.473C54.4219 311.473 54.9883 311.643 55.3555 311.982C55.7266 312.322 55.9121 312.867 55.9121 313.617V318H55.1914ZM52.9941 317.314C53.5996 317.314 54.0742 317.148 54.418 316.816C54.7656 316.484 54.9395 316.02 54.9395 315.422V314.842L53.9668 314.883C53.1934 314.91 52.6348 315.031 52.291 315.246C51.9512 315.457 51.7812 315.787 51.7812 316.236C51.7812 316.588 51.8867 316.855 52.0977 317.039C52.3125 317.223 52.6113 317.314 52.9941 317.314ZM62.3164 318V313.846C62.3164 313.322 62.1973 312.932 61.959 312.674C61.7207 312.416 61.3477 312.287 60.8398 312.287C60.168 312.287 59.6758 312.469 59.3633 312.832C59.0508 313.195 58.8945 313.795 58.8945 314.631V318H57.9219V311.578H58.7129L58.8711 312.457H58.918C59.1172 312.141 59.3965 311.896 59.7559 311.725C60.1152 311.549 60.5156 311.461 60.957 311.461C61.7305 311.461 62.3125 311.648 62.7031 312.023C63.0938 312.395 63.2891 312.99 63.2891 313.811V318H62.3164Z" fill="#8A94A6"/>
<path d="M118.098 79.583H117.085V301.583H118.098V79.583Z" fill="#33393F"/>
<path d="M149.111 79.583H148.098V301.583H149.111V79.583Z" fill="#33393F"/>
<path d="M180.123 79.583H179.11V301.583H180.123V79.583Z" fill="#33393F"/>
<path d="M211.136 79.583H210.123V301.583H211.136V79.583Z" fill="#33393F"/>
<path d="M242.149 79.583H241.136V301.583H242.149V79.583Z" fill="#33393F"/>
<path d="M273.161 79.583H272.148V301.583H273.161V79.583Z" fill="#33393F"/>
<path d="M304.174 79.583H303.161V301.583H304.174V79.583Z" fill="#33393F"/>
<path d="M328.187 79.583H327.174V301.583H328.187V79.583Z" fill="#33393F"/>
<path d="M327 301H32V302H327V301Z" fill="#33393F"/>
<path d="M328 245.5H33V246.5H328V245.5Z" fill="#33393F"/>
<path d="M328 190H33V191H328V190Z" fill="#33393F"/>
<path d="M328 134.5H33V135.5H328V134.5Z" fill="#33393F"/>
<path d="M328 79H33V80H328V79Z" fill="#33393F"/>
<path d="M179.845 253.18L254.38 249.928L292.68 188.428L255.065 125.699H180.53L161.655 161.992L141.545 187.066L142.232 235.854L179.845 253.18Z" fill="#45D879" fill-opacity="0.7"/>
<path d="M180.531 282.214L209.496 213.367L238.78 187.067L229.709 144.159L179.843 96.214L141.543 144.158L66.323 187.744L105.308 253.179L180.531 282.214Z" fill="#906BFF" fill-opacity="0.7"/>
<g filter="url(#filter0_d)">
<path d="M178.074 270.085L172.165 264.177H142.111C141.581 264.177 141.072 263.966 140.697 263.591C140.322 263.216 140.111 262.707 140.111 262.177V236.177C140.111 235.647 140.322 235.138 140.697 234.763C141.072 234.388 141.581 234.177 142.111 234.177H217.111C217.642 234.177 218.15 234.388 218.525 234.763C218.9 235.138 219.111 235.647 219.111 236.177V262.177C219.111 262.707 218.9 263.216 218.525 263.591C218.15 263.966 217.642 264.177 217.111 264.177H186.811L180.902 270.085C180.716 270.271 180.496 270.418 180.253 270.519C180.01 270.619 179.75 270.671 179.488 270.671C179.225 270.671 178.965 270.619 178.722 270.519C178.479 270.418 178.259 270.271 178.073 270.085H178.074Z" fill="white"/>
</g>
<g filter="url(#filter1_d)">
<path d="M179.611 287.584C183.753 287.584 187.111 284.226 187.111 280.084C187.111 275.942 183.753 272.584 179.611 272.584C175.469 272.584 172.111 275.942 172.111 280.084C172.111 284.226 175.469 287.584 179.611 287.584Z" fill="white"/>
</g>
<g filter="url(#filter2_d)">
<path d="M179.614 282.52C180.963 282.52 182.057 281.426 182.057 280.077C182.057 278.728 180.963 277.634 179.614 277.634C178.265 277.634 177.171 278.728 177.171 280.077C177.171 281.426 178.265 282.52 179.614 282.52Z" fill="#906BFF"/>
</g>
<path d="M155.264 247.768C156.166 247.768 156.875 247.992 157.391 248.441C157.91 248.887 158.17 249.498 158.17 250.275C158.17 251.162 157.887 251.857 157.32 252.361C156.758 252.865 155.98 253.117 154.988 253.117C154.023 253.117 153.287 252.963 152.779 252.654V251.717C153.053 251.893 153.393 252.031 153.799 252.133C154.205 252.23 154.605 252.279 155 252.279C155.688 252.279 156.221 252.117 156.6 251.793C156.982 251.469 157.174 251 157.174 250.387C157.174 249.191 156.441 248.594 154.977 248.594C154.605 248.594 154.109 248.65 153.488 248.764L152.984 248.441L153.307 244.434H157.566V245.33H154.139L153.922 247.902C154.371 247.812 154.818 247.768 155.264 247.768ZM165.488 251.031H164.217V253H163.285V251.031H159.119V250.182L163.186 244.387H164.217V250.146H165.488V251.031ZM163.285 250.146V247.299C163.285 246.74 163.305 246.109 163.344 245.406H163.297C163.109 245.781 162.934 246.092 162.77 246.338L160.092 250.146H163.285ZM173.041 253H172.092V246.895C172.092 246.387 172.107 245.906 172.139 245.453C172.057 245.535 171.965 245.621 171.863 245.711C171.762 245.801 171.297 246.182 170.469 246.854L169.953 246.186L172.221 244.434H173.041V253ZM181.936 253H176.305V252.162L178.561 249.895C179.248 249.199 179.701 248.703 179.92 248.406C180.139 248.109 180.303 247.82 180.412 247.539C180.521 247.258 180.576 246.955 180.576 246.631C180.576 246.174 180.438 245.812 180.16 245.547C179.883 245.277 179.498 245.143 179.006 245.143C178.65 245.143 178.312 245.201 177.992 245.318C177.676 245.436 177.322 245.648 176.932 245.957L176.416 245.295C177.205 244.639 178.064 244.311 178.994 244.311C179.799 244.311 180.43 244.518 180.887 244.932C181.344 245.342 181.572 245.895 181.572 246.59C181.572 247.133 181.42 247.67 181.115 248.201C180.811 248.732 180.24 249.404 179.404 250.217L177.529 252.051V252.098H181.936V253ZM188.803 253H183.172V252.162L185.428 249.895C186.115 249.199 186.568 248.703 186.787 248.406C187.006 248.109 187.17 247.82 187.279 247.539C187.389 247.258 187.443 246.955 187.443 246.631C187.443 246.174 187.305 245.812 187.027 245.547C186.75 245.277 186.365 245.143 185.873 245.143C185.518 245.143 185.18 245.201 184.859 245.318C184.543 245.436 184.189 245.648 183.799 245.957L183.283 245.295C184.072 244.639 184.932 244.311 185.861 244.311C186.666 244.311 187.297 244.518 187.754 244.932C188.211 245.342 188.439 245.895 188.439 246.59C188.439 247.133 188.287 247.67 187.982 248.201C187.678 248.732 187.107 249.404 186.271 250.217L184.396 252.051V252.098H188.803V253ZM191.504 251.605L191.592 251.74C191.49 252.131 191.344 252.584 191.152 253.1C190.961 253.619 190.762 254.102 190.555 254.547H189.822C189.928 254.141 190.043 253.639 190.168 253.041C190.297 252.443 190.387 251.965 190.438 251.605H191.504ZM198.658 248.705C198.658 250.186 198.424 251.291 197.955 252.021C197.49 252.752 196.777 253.117 195.816 253.117C194.895 253.117 194.193 252.744 193.713 251.998C193.232 251.248 192.992 250.15 192.992 248.705C192.992 247.213 193.225 246.105 193.689 245.383C194.154 244.66 194.863 244.299 195.816 244.299C196.746 244.299 197.451 244.676 197.932 245.43C198.416 246.184 198.658 247.275 198.658 248.705ZM193.977 248.705C193.977 249.951 194.123 250.859 194.416 251.43C194.709 251.996 195.176 252.279 195.816 252.279C196.465 252.279 196.934 251.992 197.223 251.418C197.516 250.84 197.662 249.936 197.662 248.705C197.662 247.475 197.516 246.574 197.223 246.004C196.934 245.43 196.465 245.143 195.816 245.143C195.176 245.143 194.709 245.426 194.416 245.992C194.123 246.555 193.977 247.459 193.977 248.705ZM205.525 248.705C205.525 250.186 205.291 251.291 204.822 252.021C204.357 252.752 203.645 253.117 202.684 253.117C201.762 253.117 201.061 252.744 200.58 251.998C200.1 251.248 199.859 250.15 199.859 248.705C199.859 247.213 200.092 246.105 200.557 245.383C201.021 244.66 201.73 244.299 202.684 244.299C203.613 244.299 204.318 244.676 204.799 245.43C205.283 246.184 205.525 247.275 205.525 248.705ZM200.844 248.705C200.844 249.951 200.99 250.859 201.283 251.43C201.576 251.996 202.043 252.279 202.684 252.279C203.332 252.279 203.801 251.992 204.09 251.418C204.383 250.84 204.529 249.936 204.529 248.705C204.529 247.475 204.383 246.574 204.09 246.004C203.801 245.43 203.332 245.143 202.684 245.143C202.043 245.143 201.576 245.426 201.283 245.992C200.99 246.555 200.844 247.459 200.844 248.705Z" fill="#0E254D"/>
<path d="M174.945 41H169.374V31.0059H174.945V32.0381H170.536V35.2578H174.679V36.2832H170.536V39.9609H174.945V41ZM178.801 37.165L176.196 33.5078H177.488L179.464 36.3789L181.433 33.5078H182.711L180.106 37.165L182.848 41H181.562L179.464 37.9648L177.345 41H176.06L178.801 37.165ZM187.332 41.1367C186.247 41.1367 185.407 40.804 184.81 40.1387C184.217 39.4688 183.921 38.5231 183.921 37.3018C183.921 36.0485 184.222 35.0801 184.823 34.3965C185.429 33.7129 186.291 33.3711 187.407 33.3711C187.767 33.3711 188.127 33.4098 188.487 33.4873C188.847 33.5648 189.13 33.6559 189.335 33.7607L188.986 34.7246C188.736 34.6243 188.462 34.5423 188.166 34.4785C187.87 34.4102 187.608 34.376 187.38 34.376C185.858 34.376 185.097 35.3467 185.097 37.2881C185.097 38.2087 185.281 38.915 185.65 39.4072C186.024 39.8994 186.576 40.1455 187.305 40.1455C187.929 40.1455 188.569 40.0111 189.226 39.7422V40.7471C188.724 41.0068 188.093 41.1367 187.332 41.1367Z" fill="white"/>
<path opacity="0.6" d="M159 36C159 33.2386 156.761 31 154 31C151.239 31 149 33.2386 149 36C149 38.7614 151.239 41 154 41C156.761 41 159 38.7614 159 36Z" fill="#906BFF" fill-opacity="0.7"/>
<path d="M244.082 31.0059H245.333L241.73 41H240.582L237 31.0059H238.23L240.527 37.4727C240.792 38.2155 241.001 38.9378 241.156 39.6396C241.32 38.9014 241.535 38.1654 241.799 37.4316L244.082 31.0059ZM250.029 33.3848C251.014 33.3848 251.777 33.722 252.319 34.3965C252.866 35.0664 253.14 36.0166 253.14 37.2471C253.14 38.4775 252.864 39.4346 252.312 40.1182C251.766 40.7972 251.005 41.1367 250.029 41.1367C249.542 41.1367 249.095 41.0479 248.689 40.8701C248.288 40.6878 247.951 40.4098 247.678 40.0361H247.596L247.356 41H246.543V30.3633H247.678V32.9473C247.678 33.526 247.66 34.0456 247.623 34.5059H247.678C248.206 33.7585 248.99 33.3848 250.029 33.3848ZM249.865 34.335C249.09 34.335 248.532 34.5583 248.19 35.0049C247.849 35.4469 247.678 36.1943 247.678 37.2471C247.678 38.2998 247.853 39.054 248.204 39.5098C248.555 39.9609 249.118 40.1865 249.893 40.1865C250.59 40.1865 251.109 39.9336 251.451 39.4277C251.793 38.9173 251.964 38.1859 251.964 37.2334C251.964 36.2581 251.793 35.5312 251.451 35.0527C251.109 34.5742 250.581 34.335 249.865 34.335ZM259.736 41L259.511 39.9336H259.456C259.082 40.403 258.709 40.722 258.335 40.8906C257.966 41.0547 257.503 41.1367 256.947 41.1367C256.204 41.1367 255.621 40.9453 255.197 40.5625C254.778 40.1797 254.568 39.6351 254.568 38.9287C254.568 37.4157 255.778 36.6227 258.198 36.5498L259.47 36.5088V36.0439C259.47 35.4561 259.342 35.0231 259.087 34.7451C258.836 34.4626 258.433 34.3213 257.877 34.3213C257.253 34.3213 256.546 34.5127 255.758 34.8955L255.409 34.0273C255.778 33.8268 256.182 33.6696 256.619 33.5557C257.061 33.4417 257.503 33.3848 257.945 33.3848C258.839 33.3848 259.499 33.583 259.928 33.9795C260.361 34.376 260.577 35.0117 260.577 35.8867V41H259.736ZM257.173 40.2002C257.879 40.2002 258.433 40.0065 258.834 39.6191C259.24 39.2318 259.442 38.6895 259.442 37.9922V37.3154L258.308 37.3633C257.405 37.3952 256.754 37.5365 256.353 37.7871C255.956 38.0332 255.758 38.4183 255.758 38.9424C255.758 39.3525 255.881 39.6647 256.127 39.8789C256.378 40.0931 256.726 40.2002 257.173 40.2002Z" fill="white"/>
<path opacity="0.6" d="M228 36C228 33.2386 225.761 31 223 31C220.239 31 218 33.2386 218 36C218 38.7614 220.239 41 223 41C225.761 41 228 38.7614 228 36Z" fill="#45D879" fill-opacity="0.7"/>
<path d="M310.082 31.0059H311.333L307.73 41H306.582L303 31.0059H304.23L306.527 37.4727C306.792 38.2155 307.001 38.9378 307.156 39.6396C307.32 38.9014 307.535 38.1654 307.799 37.4316L310.082 31.0059ZM316.029 33.3848C317.014 33.3848 317.777 33.722 318.319 34.3965C318.866 35.0664 319.14 36.0166 319.14 37.2471C319.14 38.4775 318.864 39.4346 318.312 40.1182C317.766 40.7972 317.005 41.1367 316.029 41.1367C315.542 41.1367 315.095 41.0479 314.689 40.8701C314.288 40.6878 313.951 40.4098 313.678 40.0361H313.596L313.356 41H312.543V30.3633H313.678V32.9473C313.678 33.526 313.66 34.0456 313.623 34.5059H313.678C314.206 33.7585 314.99 33.3848 316.029 33.3848ZM315.865 34.335C315.09 34.335 314.532 34.5583 314.19 35.0049C313.849 35.4469 313.678 36.1943 313.678 37.2471C313.678 38.2998 313.853 39.054 314.204 39.5098C314.555 39.9609 315.118 40.1865 315.893 40.1865C316.59 40.1865 317.109 39.9336 317.451 39.4277C317.793 38.9173 317.964 38.1859 317.964 37.2334C317.964 36.2581 317.793 35.5312 317.451 35.0527C317.109 34.5742 316.581 34.335 315.865 34.335ZM325.736 41L325.511 39.9336H325.456C325.082 40.403 324.709 40.722 324.335 40.8906C323.966 41.0547 323.503 41.1367 322.947 41.1367C322.204 41.1367 321.621 40.9453 321.197 40.5625C320.778 40.1797 320.568 39.6351 320.568 38.9287C320.568 37.4157 321.778 36.6227 324.198 36.5498L325.47 36.5088V36.0439C325.47 35.4561 325.342 35.0231 325.087 34.7451C324.836 34.4626 324.433 34.3213 323.877 34.3213C323.253 34.3213 322.546 34.5127 321.758 34.8955L321.409 34.0273C321.778 33.8268 322.182 33.6696 322.619 33.5557C323.061 33.4417 323.503 33.3848 323.945 33.3848C324.839 33.3848 325.499 33.583 325.928 33.9795C326.361 34.376 326.577 35.0117 326.577 35.8867V41H325.736ZM323.173 40.2002C323.879 40.2002 324.433 40.0065 324.834 39.6191C325.24 39.2318 325.442 38.6895 325.442 37.9922V37.3154L324.308 37.3633C323.405 37.3952 322.754 37.5365 322.353 37.7871C321.956 38.0332 321.758 38.4183 321.758 38.9424C321.758 39.3525 321.881 39.6647 322.127 39.8789C322.378 40.0931 322.726 40.2002 323.173 40.2002Z" fill="white"/>
<path opacity="0.6" d="M294 36C294 33.2386 291.761 31 289 31C286.239 31 284 33.2386 284 36C284 38.7614 286.239 41 289 41C291.761 41 294 38.7614 294 36Z" fill="#298BFE" fill-opacity="0.7"/>
<defs>
<filter id="filter0_d" x="75.1111" y="219.177" width="209" height="166.494" filterUnits="userSpaceOnUse" color-interpolation-filters="sRGB">
<feFlood flood-opacity="0" result="BackgroundImageFix"/>
<feColorMatrix in="SourceAlpha" type="matrix" values="0 0 0 0 0 0 0 0 0 0 0 0 0 0 0 0 0 0 127 0"/>
<feOffset dy="50"/>
<feGaussianBlur stdDeviation="32.5"/>
<feColorMatrix type="matrix" values="0 0 0 0 0.0392157 0 0 0 0 0.0862745 0 0 0 0 0.27451 0 0 0 0.102 0"/>
<feBlend mode="normal" in2="BackgroundImageFix" result="effect1_dropShadow"/>
<feBlend mode="normal" in="SourceGraphic" in2="effect1_dropShadow" result="shape"/>
</filter>
<filter id="filter1_d" x="107.111" y="257.584" width="145" height="145" filterUnits="userSpaceOnUse" color-interpolation-filters="sRGB">
<feFlood flood-opacity="0" result="BackgroundImageFix"/>
<feColorMatrix in="SourceAlpha" type="matrix" values="0 0 0 0 0 0 0 0 0 0 0 0 0 0 0 0 0 0 127 0"/>
<feOffset dy="50"/>
<feGaussianBlur stdDeviation="32.5"/>
<feColorMatrix type="matrix" values="0 0 0 0 0.0392157 0 0 0 0 0.0862745 0 0 0 0 0.27451 0 0 0 0.102 0"/>
<feBlend mode="normal" in2="BackgroundImageFix" result="effect1_dropShadow"/>
<feBlend mode="normal" in="SourceGraphic" in2="effect1_dropShadow" result="shape"/>
</filter>
<filter id="filter2_d" x="112.171" y="262.634" width="134.886" height="134.886" filterUnits="userSpaceOnUse" color-interpolation-filters="sRGB">
<feFlood flood-opacity="0" result="BackgroundImageFix"/>
<feColorMatrix in="SourceAlpha" type="matrix" values="0 0 0 0 0 0 0 0 0 0 0 0 0 0 0 0 0 0 127 0"/>
<feOffset dy="50"/>
<feGaussianBlur stdDeviation="32.5"/>
<feColorMatrix type="matrix" values="0 0 0 0 0.0392157 0 0 0 0 0.0862745 0 0 0 0 0.27451 0 0 0 0.102 0"/>
<feBlend mode="normal" in2="BackgroundImageFix" result="effect1_dropShadow"/>
<feBlend mode="normal" in="SourceGraphic" in2="effect1_dropShadow" result="shape"/>
</filter>
</defs>
</svg>
