<svg width="361" height="354" viewBox="0 0 361 354" fill="none" xmlns="http://www.w3.org/2000/svg">
<rect opacity="0.7" width="361" height="354" rx="8.40864" fill="white" fill-opacity="0.02"/>
<path d="M54.6562 313L53.4121 309.821H49.4062L48.1758 313H47L50.9512 302.965H51.9287L55.8594 313H54.6562ZM53.0498 308.775L51.8877 305.679C51.7373 305.287 51.5824 304.806 51.4229 304.236C51.3226 304.674 51.179 305.155 50.9922 305.679L49.8164 308.775H53.0498ZM60.5488 313.137C60.0612 313.137 59.6146 313.048 59.209 312.87C58.8079 312.688 58.4707 312.41 58.1973 312.036H58.1152C58.1699 312.474 58.1973 312.888 58.1973 313.28V316.363H57.0625V305.508H57.9854L58.1426 306.533H58.1973C58.4889 306.123 58.8285 305.827 59.2158 305.645C59.6032 305.462 60.0475 305.371 60.5488 305.371C61.5423 305.371 62.3079 305.711 62.8457 306.39C63.388 307.069 63.6592 308.021 63.6592 309.247C63.6592 310.478 63.3835 311.435 62.832 312.118C62.2852 312.797 61.5241 313.137 60.5488 313.137ZM60.3848 306.335C59.6191 306.335 59.0654 306.547 58.7236 306.971C58.3818 307.395 58.2064 308.069 58.1973 308.994V309.247C58.1973 310.3 58.3727 311.054 58.7236 311.51C59.0745 311.961 59.6374 312.187 60.4121 312.187C61.0592 312.187 61.5651 311.924 61.9297 311.4C62.2988 310.876 62.4834 310.154 62.4834 309.233C62.4834 308.299 62.2988 307.584 61.9297 307.087C61.5651 306.586 61.0501 306.335 60.3848 306.335ZM69.1348 313.137C68.6471 313.137 68.2005 313.048 67.7949 312.87C67.3939 312.688 67.0566 312.41 66.7832 312.036H66.7012C66.7559 312.474 66.7832 312.888 66.7832 313.28V316.363H65.6484V305.508H66.5713L66.7285 306.533H66.7832C67.0749 306.123 67.4144 305.827 67.8018 305.645C68.1891 305.462 68.6335 305.371 69.1348 305.371C70.1283 305.371 70.8939 305.711 71.4316 306.39C71.974 307.069 72.2451 308.021 72.2451 309.247C72.2451 310.478 71.9694 311.435 71.418 312.118C70.8711 312.797 70.11 313.137 69.1348 313.137ZM68.9707 306.335C68.2051 306.335 67.6514 306.547 67.3096 306.971C66.9678 307.395 66.7923 308.069 66.7832 308.994V309.247C66.7832 310.3 66.9587 311.054 67.3096 311.51C67.6605 311.961 68.2233 312.187 68.998 312.187C69.6452 312.187 70.151 311.924 70.5156 311.4C70.8848 310.876 71.0693 310.154 71.0693 309.233C71.0693 308.299 70.8848 307.584 70.5156 307.087C70.151 306.586 69.6361 306.335 68.9707 306.335ZM77.6523 305.371C77.985 305.371 78.2835 305.398 78.5479 305.453L78.3906 306.506C78.0807 306.438 77.8073 306.403 77.5703 306.403C76.9642 306.403 76.4447 306.649 76.0117 307.142C75.5833 307.634 75.3691 308.247 75.3691 308.98V313H74.2344V305.508H75.1709L75.3008 306.896H75.3555C75.6335 306.408 75.9684 306.032 76.3604 305.768C76.7523 305.503 77.1829 305.371 77.6523 305.371ZM86.416 309.247C86.416 310.468 86.1084 311.423 85.4932 312.111C84.8779 312.795 84.028 313.137 82.9434 313.137C82.2734 313.137 81.6787 312.979 81.1592 312.665C80.6396 312.351 80.2386 311.899 79.9561 311.312C79.6735 310.724 79.5322 310.035 79.5322 309.247C79.5322 308.026 79.8376 307.076 80.4482 306.396C81.0589 305.713 81.9066 305.371 82.9912 305.371C84.0394 305.371 84.8711 305.72 85.4863 306.417C86.1061 307.114 86.416 308.058 86.416 309.247ZM80.708 309.247C80.708 310.204 80.8994 310.933 81.2822 311.435C81.665 311.936 82.2279 312.187 82.9707 312.187C83.7135 312.187 84.2764 311.938 84.6592 311.441C85.0465 310.94 85.2402 310.209 85.2402 309.247C85.2402 308.295 85.0465 307.572 84.6592 307.08C84.2764 306.583 83.709 306.335 82.957 306.335C82.2142 306.335 81.6536 306.579 81.2754 307.066C80.8971 307.554 80.708 308.281 80.708 309.247ZM93.0195 313L92.7939 311.934H92.7393C92.3656 312.403 91.9919 312.722 91.6182 312.891C91.249 313.055 90.7865 313.137 90.2305 313.137C89.4876 313.137 88.9043 312.945 88.4805 312.562C88.0612 312.18 87.8516 311.635 87.8516 310.929C87.8516 309.416 89.0615 308.623 91.4814 308.55L92.7529 308.509V308.044C92.7529 307.456 92.6253 307.023 92.3701 306.745C92.1195 306.463 91.7161 306.321 91.1602 306.321C90.5358 306.321 89.8294 306.513 89.041 306.896L88.6924 306.027C89.0615 305.827 89.4648 305.67 89.9023 305.556C90.3444 305.442 90.7865 305.385 91.2285 305.385C92.1217 305.385 92.7826 305.583 93.2109 305.979C93.6439 306.376 93.8604 307.012 93.8604 307.887V313H93.0195ZM90.4561 312.2C91.1624 312.2 91.7161 312.007 92.1172 311.619C92.5228 311.232 92.7256 310.689 92.7256 309.992V309.315L91.5908 309.363C90.6885 309.395 90.0368 309.536 89.6357 309.787C89.2393 310.033 89.041 310.418 89.041 310.942C89.041 311.353 89.1641 311.665 89.4102 311.879C89.6608 312.093 90.0094 312.2 90.4561 312.2ZM99.1992 313.137C98.1146 313.137 97.2738 312.804 96.6768 312.139C96.0843 311.469 95.7881 310.523 95.7881 309.302C95.7881 308.049 96.0889 307.08 96.6904 306.396C97.2965 305.713 98.1579 305.371 99.2744 305.371C99.6344 305.371 99.9945 305.41 100.354 305.487C100.715 305.565 100.997 305.656 101.202 305.761L100.854 306.725C100.603 306.624 100.329 306.542 100.033 306.479C99.737 306.41 99.4749 306.376 99.2471 306.376C97.7249 306.376 96.9639 307.347 96.9639 309.288C96.9639 310.209 97.1484 310.915 97.5176 311.407C97.8913 311.899 98.4427 312.146 99.1719 312.146C99.7962 312.146 100.437 312.011 101.093 311.742V312.747C100.591 313.007 99.9603 313.137 99.1992 313.137ZM108.004 313V308.153C108.004 307.543 107.865 307.087 107.587 306.786C107.309 306.485 106.874 306.335 106.281 306.335C105.493 306.335 104.916 306.549 104.552 306.978C104.192 307.406 104.012 308.108 104.012 309.083V313H102.877V302.363H104.012V305.583C104.012 305.97 103.993 306.292 103.957 306.547H104.025C104.249 306.187 104.565 305.904 104.976 305.699C105.39 305.49 105.862 305.385 106.391 305.385C107.307 305.385 107.993 305.604 108.448 306.041C108.909 306.474 109.139 307.164 109.139 308.112V313H108.004Z" fill="white"/>
<path opacity="0.4" d="M38 307C38 304.239 35.7614 302 33 302C30.2386 302 28 304.239 28 307C28 309.761 30.2386 312 33 312C35.7614 312 38 309.761 38 307Z" fill="#E72D2D"/>
<path d="M127.374 102V92.0059H128.536V100.947H132.945V102H127.374ZM139.084 102L138.858 100.934H138.804C138.43 101.403 138.056 101.722 137.683 101.891C137.313 102.055 136.851 102.137 136.295 102.137C135.552 102.137 134.969 101.945 134.545 101.562C134.126 101.18 133.916 100.635 133.916 99.9287C133.916 98.4157 135.126 97.6227 137.546 97.5498L138.817 97.5088V97.0439C138.817 96.4561 138.69 96.0231 138.435 95.7451C138.184 95.4626 137.781 95.3213 137.225 95.3213C136.6 95.3213 135.894 95.5127 135.105 95.8955L134.757 95.0273C135.126 94.8268 135.529 94.6696 135.967 94.5557C136.409 94.4417 136.851 94.3848 137.293 94.3848C138.186 94.3848 138.847 94.583 139.275 94.9795C139.708 95.376 139.925 96.0117 139.925 96.8867V102H139.084ZM136.521 101.2C137.227 101.2 137.781 101.007 138.182 100.619C138.587 100.232 138.79 99.6895 138.79 98.9922V98.3154L137.655 98.3633C136.753 98.3952 136.101 98.5365 135.7 98.7871C135.304 99.0332 135.105 99.4183 135.105 99.9424C135.105 100.353 135.229 100.665 135.475 100.879C135.725 101.093 136.074 101.2 136.521 101.2ZM147.396 102V97.1533C147.396 96.5426 147.257 96.0869 146.979 95.7861C146.701 95.4854 146.266 95.335 145.674 95.335C144.89 95.335 144.316 95.5469 143.951 95.9707C143.587 96.3945 143.404 97.0941 143.404 98.0693V102H142.27V94.5078H143.192L143.377 95.5332H143.432C143.664 95.1641 143.99 94.8792 144.409 94.6787C144.828 94.4736 145.296 94.3711 145.811 94.3711C146.713 94.3711 147.392 94.5898 147.848 95.0273C148.303 95.4603 148.531 96.1553 148.531 97.1123V102H147.396ZM155.969 100.995H155.907C155.383 101.756 154.599 102.137 153.556 102.137C152.576 102.137 151.812 101.802 151.266 101.132C150.723 100.462 150.452 99.5094 150.452 98.2744C150.452 97.0394 150.726 96.0801 151.272 95.3965C151.819 94.7129 152.58 94.3711 153.556 94.3711C154.572 94.3711 155.351 94.7402 155.894 95.4785H155.982L155.935 94.9385L155.907 94.4121V91.3633H157.042V102H156.119L155.969 100.995ZM153.699 101.187C154.474 101.187 155.035 100.977 155.381 100.558C155.732 100.134 155.907 99.4525 155.907 98.5137V98.2744C155.907 97.2126 155.729 96.4561 155.374 96.0049C155.023 95.5492 154.46 95.3213 153.686 95.3213C153.02 95.3213 152.51 95.5811 152.154 96.1006C151.803 96.6156 151.628 97.3447 151.628 98.2881C151.628 99.2451 151.803 99.9674 152.154 100.455C152.505 100.943 153.02 101.187 153.699 101.187ZM160.59 102H159.455V94.5078H160.59V102ZM159.359 92.4775C159.359 92.2178 159.423 92.0286 159.551 91.9102C159.678 91.7871 159.838 91.7256 160.029 91.7256C160.212 91.7256 160.369 91.7871 160.501 91.9102C160.633 92.0332 160.699 92.2223 160.699 92.4775C160.699 92.7327 160.633 92.9242 160.501 93.0518C160.369 93.1748 160.212 93.2363 160.029 93.2363C159.838 93.2363 159.678 93.1748 159.551 93.0518C159.423 92.9242 159.359 92.7327 159.359 92.4775ZM168.123 102V97.1533C168.123 96.5426 167.984 96.0869 167.706 95.7861C167.428 95.4854 166.993 95.335 166.4 95.335C165.617 95.335 165.042 95.5469 164.678 95.9707C164.313 96.3945 164.131 97.0941 164.131 98.0693V102H162.996V94.5078H163.919L164.104 95.5332H164.158C164.391 95.1641 164.716 94.8792 165.136 94.6787C165.555 94.4736 166.022 94.3711 166.537 94.3711C167.439 94.3711 168.118 94.5898 168.574 95.0273C169.03 95.4603 169.258 96.1553 169.258 97.1123V102H168.123ZM177.728 94.5078V95.2256L176.34 95.3896C176.467 95.5492 176.581 95.7588 176.682 96.0186C176.782 96.2738 176.832 96.5632 176.832 96.8867C176.832 97.6204 176.581 98.2061 176.08 98.6436C175.579 99.0811 174.891 99.2998 174.016 99.2998C173.792 99.2998 173.583 99.2816 173.387 99.2451C172.904 99.5003 172.662 99.8216 172.662 100.209C172.662 100.414 172.746 100.567 172.915 100.667C173.084 100.763 173.373 100.811 173.783 100.811H175.109C175.921 100.811 176.543 100.981 176.976 101.323C177.413 101.665 177.632 102.162 177.632 102.813C177.632 103.643 177.299 104.274 176.634 104.707C175.968 105.145 174.998 105.363 173.722 105.363C172.742 105.363 171.985 105.181 171.452 104.816C170.924 104.452 170.659 103.937 170.659 103.271C170.659 102.816 170.805 102.422 171.097 102.089C171.388 101.756 171.799 101.531 172.327 101.412C172.136 101.326 171.974 101.191 171.842 101.009C171.714 100.826 171.65 100.615 171.65 100.373C171.65 100.1 171.723 99.8604 171.869 99.6553C172.015 99.4502 172.245 99.252 172.56 99.0605C172.172 98.901 171.855 98.6299 171.609 98.2471C171.368 97.8643 171.247 97.4268 171.247 96.9346C171.247 96.1143 171.493 95.4831 171.985 95.041C172.478 94.5944 173.175 94.3711 174.077 94.3711C174.469 94.3711 174.822 94.4167 175.137 94.5078H177.728ZM171.753 103.258C171.753 103.663 171.924 103.971 172.266 104.181C172.607 104.39 173.097 104.495 173.735 104.495C174.688 104.495 175.392 104.352 175.848 104.064C176.308 103.782 176.538 103.397 176.538 102.909C176.538 102.504 176.413 102.221 176.162 102.062C175.911 101.907 175.44 101.829 174.747 101.829H173.387C172.872 101.829 172.471 101.952 172.184 102.198C171.896 102.444 171.753 102.798 171.753 103.258ZM172.368 96.9072C172.368 97.4313 172.516 97.8278 172.812 98.0967C173.109 98.3656 173.521 98.5 174.05 98.5C175.157 98.5 175.711 97.9622 175.711 96.8867C175.711 95.7611 175.15 95.1982 174.029 95.1982C173.496 95.1982 173.086 95.3418 172.799 95.6289C172.512 95.916 172.368 96.3421 172.368 96.9072Z" fill="white"/>
<path d="M116 96C116 93.2386 113.761 91 111 91C108.239 91 106 93.2386 106 96C106 98.7614 108.239 101 111 101C113.761 101 116 98.7614 116 96Z" fill="#8A94A6"/>
<path d="M257.45 159H256.288V150.038H253.123V149.006H260.615V150.038H257.45V159ZM266.562 159L266.337 157.934H266.282C265.909 158.403 265.535 158.722 265.161 158.891C264.792 159.055 264.329 159.137 263.773 159.137C263.031 159.137 262.447 158.945 262.023 158.562C261.604 158.18 261.395 157.635 261.395 156.929C261.395 155.416 262.604 154.623 265.024 154.55L266.296 154.509V154.044C266.296 153.456 266.168 153.023 265.913 152.745C265.662 152.463 265.259 152.321 264.703 152.321C264.079 152.321 263.372 152.513 262.584 152.896L262.235 152.027C262.604 151.827 263.008 151.67 263.445 151.556C263.887 151.442 264.329 151.385 264.771 151.385C265.665 151.385 266.326 151.583 266.754 151.979C267.187 152.376 267.403 153.012 267.403 153.887V159H266.562ZM263.999 158.2C264.705 158.2 265.259 158.007 265.66 157.619C266.066 157.232 266.269 156.689 266.269 155.992V155.315L265.134 155.363C264.231 155.395 263.58 155.536 263.179 155.787C262.782 156.033 262.584 156.418 262.584 156.942C262.584 157.353 262.707 157.665 262.953 157.879C263.204 158.093 263.552 158.2 263.999 158.2ZM270.869 155.165C271.065 154.887 271.364 154.522 271.765 154.071L274.185 151.508H275.531L272.496 154.7L275.743 159H274.369L271.724 155.459L270.869 156.197V159H269.748V148.363H270.869V154.003C270.869 154.254 270.851 154.641 270.814 155.165H270.869ZM280.269 159.137C279.161 159.137 278.286 158.799 277.644 158.125C277.006 157.451 276.687 156.514 276.687 155.315C276.687 154.108 276.983 153.148 277.575 152.438C278.172 151.727 278.972 151.371 279.975 151.371C280.913 151.371 281.656 151.681 282.203 152.301C282.75 152.916 283.023 153.729 283.023 154.741V155.459H277.862C277.885 156.339 278.106 157.006 278.525 157.462C278.949 157.918 279.544 158.146 280.31 158.146C281.116 158.146 281.914 157.977 282.702 157.64V158.651C282.301 158.825 281.921 158.948 281.561 159.021C281.205 159.098 280.774 159.137 280.269 159.137ZM279.961 152.321C279.359 152.321 278.879 152.517 278.519 152.909C278.163 153.301 277.953 153.843 277.89 154.536H281.807C281.807 153.821 281.647 153.274 281.328 152.896C281.009 152.513 280.553 152.321 279.961 152.321ZM297.447 153.989C297.447 155.589 297.042 156.847 296.23 157.763C295.424 158.679 294.3 159.137 292.86 159.137C291.388 159.137 290.251 158.688 289.449 157.79C288.652 156.888 288.253 155.616 288.253 153.976C288.253 152.349 288.654 151.089 289.456 150.195C290.258 149.298 291.397 148.849 292.874 148.849C294.31 148.849 295.431 149.304 296.237 150.216C297.044 151.127 297.447 152.385 297.447 153.989ZM289.483 153.989C289.483 155.343 289.771 156.37 290.345 157.072C290.924 157.77 291.762 158.118 292.86 158.118C293.968 158.118 294.804 157.77 295.369 157.072C295.934 156.375 296.217 155.347 296.217 153.989C296.217 152.645 295.934 151.626 295.369 150.934C294.809 150.236 293.977 149.888 292.874 149.888C291.767 149.888 290.924 150.239 290.345 150.94C289.771 151.638 289.483 152.654 289.483 153.989ZM307.633 152.39H305.726V159H304.591V152.39H303.251V151.877L304.591 151.467V151.05C304.591 149.209 305.395 148.288 307.004 148.288C307.4 148.288 307.865 148.368 308.398 148.527L308.104 149.437C307.667 149.295 307.293 149.225 306.983 149.225C306.555 149.225 306.238 149.368 306.033 149.655C305.828 149.938 305.726 150.394 305.726 151.022V151.508H307.633V152.39ZM302.889 152.39H300.981V159H299.847V152.39H298.507V151.877L299.847 151.467V151.05C299.847 149.209 300.651 148.288 302.26 148.288C302.656 148.288 303.121 148.368 303.654 148.527L303.36 149.437C302.923 149.295 302.549 149.225 302.239 149.225C301.811 149.225 301.494 149.368 301.289 149.655C301.084 149.938 300.981 150.394 300.981 151.022V151.508H302.889V152.39Z" fill="white"/>
<path opacity="0.6" d="M240 154C240 151.239 237.761 149 235 149C232.239 149 230 151.239 230 154C230 156.761 232.239 159 235 159C237.761 159 240 156.761 240 154Z" fill="#298BFE"/>
<path d="M265.374 226V216.006H266.536V226H265.374ZM274.24 226V221.153C274.24 220.543 274.101 220.087 273.823 219.786C273.545 219.485 273.11 219.335 272.518 219.335C271.734 219.335 271.16 219.547 270.795 219.971C270.43 220.395 270.248 221.094 270.248 222.069V226H269.113V218.508H270.036L270.221 219.533H270.275C270.508 219.164 270.834 218.879 271.253 218.679C271.672 218.474 272.139 218.371 272.654 218.371C273.557 218.371 274.236 218.59 274.691 219.027C275.147 219.46 275.375 220.155 275.375 221.112V226H274.24ZM278.848 226H277.713V218.508H278.848V226ZM277.617 216.478C277.617 216.218 277.681 216.029 277.809 215.91C277.936 215.787 278.096 215.726 278.287 215.726C278.469 215.726 278.627 215.787 278.759 215.91C278.891 216.033 278.957 216.222 278.957 216.478C278.957 216.733 278.891 216.924 278.759 217.052C278.627 217.175 278.469 217.236 278.287 217.236C278.096 217.236 277.936 217.175 277.809 217.052C277.681 216.924 277.617 216.733 277.617 216.478ZM283.674 225.2C283.874 225.2 284.068 225.187 284.255 225.159C284.442 225.127 284.59 225.095 284.699 225.063V225.932C284.576 225.991 284.394 226.039 284.152 226.075C283.915 226.116 283.701 226.137 283.51 226.137C282.061 226.137 281.336 225.373 281.336 223.847V219.39H280.263V218.843L281.336 218.371L281.814 216.771H282.471V218.508H284.645V219.39H282.471V223.799C282.471 224.25 282.578 224.596 282.792 224.838C283.006 225.079 283.3 225.2 283.674 225.2ZM287.338 226H286.203V218.508H287.338V226ZM286.107 216.478C286.107 216.218 286.171 216.029 286.299 215.91C286.426 215.787 286.586 215.726 286.777 215.726C286.96 215.726 287.117 215.787 287.249 215.91C287.381 216.033 287.447 216.222 287.447 216.478C287.447 216.733 287.381 216.924 287.249 217.052C287.117 217.175 286.96 217.236 286.777 217.236C286.586 217.236 286.426 217.175 286.299 217.052C286.171 216.924 286.107 216.733 286.107 216.478ZM294.352 226L294.126 224.934H294.071C293.698 225.403 293.324 225.722 292.95 225.891C292.581 226.055 292.118 226.137 291.562 226.137C290.82 226.137 290.236 225.945 289.812 225.562C289.393 225.18 289.184 224.635 289.184 223.929C289.184 222.416 290.394 221.623 292.813 221.55L294.085 221.509V221.044C294.085 220.456 293.957 220.023 293.702 219.745C293.451 219.463 293.048 219.321 292.492 219.321C291.868 219.321 291.161 219.513 290.373 219.896L290.024 219.027C290.394 218.827 290.797 218.67 291.234 218.556C291.676 218.442 292.118 218.385 292.561 218.385C293.454 218.385 294.115 218.583 294.543 218.979C294.976 219.376 295.192 220.012 295.192 220.887V226H294.352ZM291.788 225.2C292.494 225.2 293.048 225.007 293.449 224.619C293.855 224.232 294.058 223.689 294.058 222.992V222.315L292.923 222.363C292.021 222.395 291.369 222.536 290.968 222.787C290.571 223.033 290.373 223.418 290.373 223.942C290.373 224.353 290.496 224.665 290.742 224.879C290.993 225.093 291.341 225.2 291.788 225.2ZM298.672 226H297.537V215.363H298.672V226ZM309.165 216.901C308.067 216.901 307.199 217.268 306.561 218.002C305.927 218.731 305.61 219.731 305.61 221.003C305.61 222.311 305.916 223.323 306.526 224.038C307.142 224.749 308.017 225.104 309.151 225.104C309.849 225.104 310.644 224.979 311.537 224.729V225.747C310.844 226.007 309.99 226.137 308.974 226.137C307.502 226.137 306.365 225.69 305.562 224.797C304.765 223.904 304.366 222.634 304.366 220.989C304.366 219.959 304.558 219.057 304.94 218.282C305.328 217.507 305.884 216.91 306.608 216.491C307.338 216.072 308.194 215.862 309.179 215.862C310.227 215.862 311.143 216.054 311.927 216.437L311.435 217.435C310.678 217.079 309.922 216.901 309.165 216.901ZM314.682 226H313.547V215.363H314.682V226ZM318.223 226H317.088V218.508H318.223V226ZM316.992 216.478C316.992 216.218 317.056 216.029 317.184 215.91C317.311 215.787 317.471 215.726 317.662 215.726C317.844 215.726 318.002 215.787 318.134 215.91C318.266 216.033 318.332 216.222 318.332 216.478C318.332 216.733 318.266 216.924 318.134 217.052C318.002 217.175 317.844 217.236 317.662 217.236C317.471 217.236 317.311 217.175 317.184 217.052C317.056 216.924 316.992 216.733 316.992 216.478ZM330.179 226V221.126C330.179 220.529 330.051 220.082 329.796 219.786C329.541 219.485 329.144 219.335 328.606 219.335C327.9 219.335 327.378 219.538 327.041 219.943C326.704 220.349 326.535 220.973 326.535 221.816V226H325.4V221.126C325.4 220.529 325.273 220.082 325.018 219.786C324.762 219.485 324.364 219.335 323.821 219.335C323.11 219.335 322.589 219.549 322.256 219.978C321.928 220.401 321.764 221.099 321.764 222.069V226H320.629V218.508H321.552L321.736 219.533H321.791C322.005 219.169 322.306 218.884 322.693 218.679C323.085 218.474 323.523 218.371 324.006 218.371C325.177 218.371 325.943 218.795 326.303 219.643H326.357C326.581 219.251 326.904 218.941 327.328 218.713C327.752 218.485 328.235 218.371 328.777 218.371C329.625 218.371 330.258 218.59 330.678 219.027C331.102 219.46 331.313 220.155 331.313 221.112V226H330.179ZM337.145 218.385C338.129 218.385 338.892 218.722 339.435 219.396C339.981 220.066 340.255 221.017 340.255 222.247C340.255 223.478 339.979 224.435 339.428 225.118C338.881 225.797 338.12 226.137 337.145 226.137C336.657 226.137 336.21 226.048 335.805 225.87C335.404 225.688 335.066 225.41 334.793 225.036H334.711L334.472 226H333.658V215.363H334.793V217.947C334.793 218.526 334.775 219.046 334.738 219.506H334.793C335.322 218.758 336.105 218.385 337.145 218.385ZM336.98 219.335C336.206 219.335 335.647 219.558 335.306 220.005C334.964 220.447 334.793 221.194 334.793 222.247C334.793 223.3 334.968 224.054 335.319 224.51C335.67 224.961 336.233 225.187 337.008 225.187C337.705 225.187 338.225 224.934 338.566 224.428C338.908 223.917 339.079 223.186 339.079 222.233C339.079 221.258 338.908 220.531 338.566 220.053C338.225 219.574 337.696 219.335 336.98 219.335Z" fill="white"/>
<path d="M255 221C255 218.239 252.761 216 250 216C247.239 216 245 218.239 245 221C245 223.761 247.239 226 250 226C252.761 226 255 223.761 255 221Z" fill="#FFD630"/>
<path d="M232.45 289H231.288V280.038H228.123V279.006H235.615V280.038H232.45V289ZM238.021 281.508V286.368C238.021 286.979 238.16 287.435 238.438 287.735C238.716 288.036 239.152 288.187 239.744 288.187C240.528 288.187 241.1 287.972 241.46 287.544C241.825 287.116 242.007 286.416 242.007 285.445V281.508H243.142V289H242.205L242.041 287.995H241.979C241.747 288.364 241.424 288.647 241.009 288.843C240.599 289.039 240.129 289.137 239.601 289.137C238.689 289.137 238.006 288.92 237.55 288.487C237.099 288.054 236.873 287.362 236.873 286.409V281.508H238.021ZM248.973 281.371C249.305 281.371 249.604 281.398 249.868 281.453L249.711 282.506C249.401 282.438 249.128 282.403 248.891 282.403C248.285 282.403 247.765 282.649 247.332 283.142C246.904 283.634 246.689 284.247 246.689 284.98V289H245.555V281.508H246.491L246.621 282.896H246.676C246.954 282.408 247.289 282.032 247.681 281.768C248.073 281.503 248.503 281.371 248.973 281.371ZM254.756 281.385C255.74 281.385 256.504 281.722 257.046 282.396C257.593 283.066 257.866 284.017 257.866 285.247C257.866 286.478 257.59 287.435 257.039 288.118C256.492 288.797 255.731 289.137 254.756 289.137C254.268 289.137 253.822 289.048 253.416 288.87C253.015 288.688 252.678 288.41 252.404 288.036H252.322L252.083 289H251.27V278.363H252.404V280.947C252.404 281.526 252.386 282.046 252.35 282.506H252.404C252.933 281.758 253.717 281.385 254.756 281.385ZM254.592 282.335C253.817 282.335 253.259 282.558 252.917 283.005C252.575 283.447 252.404 284.194 252.404 285.247C252.404 286.3 252.58 287.054 252.931 287.51C253.282 287.961 253.844 288.187 254.619 288.187C255.316 288.187 255.836 287.934 256.178 287.428C256.52 286.917 256.69 286.186 256.69 285.233C256.69 284.258 256.52 283.531 256.178 283.053C255.836 282.574 255.307 282.335 254.592 282.335ZM260.922 281.508V286.368C260.922 286.979 261.061 287.435 261.339 287.735C261.617 288.036 262.052 288.187 262.645 288.187C263.428 288.187 264 287.972 264.36 287.544C264.725 287.116 264.907 286.416 264.907 285.445V281.508H266.042V289H265.105L264.941 287.995H264.88C264.647 288.364 264.324 288.647 263.909 288.843C263.499 289.039 263.03 289.137 262.501 289.137C261.59 289.137 260.906 288.92 260.45 288.487C259.999 288.054 259.773 287.362 259.773 286.409V281.508H260.922ZM269.59 289H268.455V278.363H269.59V289ZM275.161 289.137C274.054 289.137 273.179 288.799 272.536 288.125C271.898 287.451 271.579 286.514 271.579 285.315C271.579 284.108 271.875 283.148 272.468 282.438C273.065 281.727 273.865 281.371 274.867 281.371C275.806 281.371 276.549 281.681 277.096 282.301C277.643 282.916 277.916 283.729 277.916 284.741V285.459H272.755C272.778 286.339 272.999 287.006 273.418 287.462C273.842 287.918 274.437 288.146 275.202 288.146C276.009 288.146 276.806 287.977 277.595 287.64V288.651C277.194 288.825 276.813 288.948 276.453 289.021C276.098 289.098 275.667 289.137 275.161 289.137ZM274.854 282.321C274.252 282.321 273.771 282.517 273.411 282.909C273.056 283.301 272.846 283.843 272.782 284.536H276.699C276.699 283.821 276.54 283.274 276.221 282.896C275.902 282.513 275.446 282.321 274.854 282.321ZM284.984 289V284.153C284.984 283.543 284.845 283.087 284.567 282.786C284.289 282.485 283.854 282.335 283.262 282.335C282.478 282.335 281.904 282.547 281.539 282.971C281.174 283.395 280.992 284.094 280.992 285.069V289H279.857V281.508H280.78L280.965 282.533H281.02C281.252 282.164 281.578 281.879 281.997 281.679C282.416 281.474 282.883 281.371 283.398 281.371C284.301 281.371 284.98 281.59 285.436 282.027C285.891 282.46 286.119 283.155 286.119 284.112V289H284.984ZM291.451 289.137C290.367 289.137 289.526 288.804 288.929 288.139C288.336 287.469 288.04 286.523 288.04 285.302C288.04 284.049 288.341 283.08 288.942 282.396C289.549 281.713 290.41 281.371 291.526 281.371C291.886 281.371 292.246 281.41 292.606 281.487C292.966 281.565 293.249 281.656 293.454 281.761L293.105 282.725C292.855 282.624 292.581 282.542 292.285 282.479C291.989 282.41 291.727 282.376 291.499 282.376C289.977 282.376 289.216 283.347 289.216 285.288C289.216 286.209 289.4 286.915 289.77 287.407C290.143 287.899 290.695 288.146 291.424 288.146C292.048 288.146 292.688 288.011 293.345 287.742V288.747C292.843 289.007 292.212 289.137 291.451 289.137ZM298.294 289.137C297.187 289.137 296.312 288.799 295.669 288.125C295.031 287.451 294.712 286.514 294.712 285.315C294.712 284.108 295.008 283.148 295.601 282.438C296.198 281.727 296.997 281.371 298 281.371C298.939 281.371 299.682 281.681 300.229 282.301C300.775 282.916 301.049 283.729 301.049 284.741V285.459H295.888C295.91 286.339 296.132 287.006 296.551 287.462C296.975 287.918 297.569 288.146 298.335 288.146C299.142 288.146 299.939 287.977 300.728 287.64V288.651C300.326 288.825 299.946 288.948 299.586 289.021C299.23 289.098 298.8 289.137 298.294 289.137ZM297.986 282.321C297.385 282.321 296.904 282.517 296.544 282.909C296.188 283.301 295.979 283.843 295.915 284.536H299.832C299.832 283.821 299.673 283.274 299.354 282.896C299.035 282.513 298.579 282.321 297.986 282.321Z" fill="white"/>
<path opacity="0.6" d="M219 282C219 279.239 216.761 277 214 277C211.239 277 209 279.239 209 282C209 284.761 211.239 287 214 287C216.761 287 219 284.761 219 282Z" fill="#906BFF"/>
<g opacity="0.6" filter="url(#filter0_d)">
<path d="M201.814 237.067C193.511 250.159 180.4 259.469 165.303 262.994L152.115 206.858L201.814 237.067Z" fill="#906BFF"/>
</g>
<g opacity="0.6" filter="url(#filter1_d)">
<path d="M144.404 136.412C156.866 135.025 169.472 136.952 180.951 141.998C192.429 147.044 202.373 155.03 209.776 165.149C217.177 175.277 221.778 187.177 223.115 199.649L152.037 207.517L144.404 136.412Z" fill="#298BFE"/>
</g>
<g filter="url(#filter2_d)">
<path d="M222.855 190.236C225.021 199.479 225.337 209.058 223.785 218.423C222.233 227.788 218.844 236.754 213.812 244.803L152.122 206.854L222.855 190.236Z" fill="#FFD630"/>
</g>
<g filter="url(#filter3_d)">
<path d="M86.6048 166.123C93.702 154.606 103.713 145.167 115.626 138.759C127.54 132.35 140.933 129.199 154.454 129.624C167.983 130.062 181.158 134.057 192.65 141.209L152.123 206.864L86.6048 166.123Z" fill="#8A94A6"/>
</g>
<g opacity="0.4" filter="url(#filter4_d)">
<path d="M171.042 287.413C156.913 290.725 142.161 290.255 128.271 286.051C114.381 281.846 101.845 274.056 91.9244 263.464C81.9838 252.86 75.0021 239.832 71.6779 225.683C68.3537 211.534 68.8036 196.76 72.9825 182.839C75.0625 175.913 78.0411 169.29 81.8421 163.138L152.1 206.789L171.042 287.413Z" fill="#E72D2D"/>
</g>
<path d="M28.9297 45H21.7666V32.1504H28.9297V33.4775H23.2607V37.6172H28.5869V38.9355H23.2607V43.6641H28.9297V45ZM33.6758 45L30.0195 35.3672H31.584L33.6582 41.0801C34.127 42.416 34.4023 43.2832 34.4844 43.6816H34.5547C34.6191 43.3711 34.8213 42.7295 35.1611 41.7568C35.5068 40.7783 36.2773 38.6484 37.4727 35.3672H39.0371L35.3809 45H33.6758ZM44.6533 45.1758C43.2295 45.1758 42.1045 44.7422 41.2783 43.875C40.458 43.0078 40.0479 41.8037 40.0479 40.2627C40.0479 38.71 40.4287 37.4766 41.1904 36.5625C41.958 35.6484 42.9863 35.1914 44.2754 35.1914C45.4824 35.1914 46.4375 35.5898 47.1406 36.3867C47.8438 37.1777 48.1953 38.2236 48.1953 39.5244V40.4473H41.5596C41.5889 41.5781 41.873 42.4365 42.4121 43.0225C42.957 43.6084 43.7217 43.9014 44.7061 43.9014C45.7432 43.9014 46.7686 43.6846 47.7822 43.251V44.5518C47.2666 44.7744 46.7773 44.9326 46.3145 45.0264C45.8574 45.126 45.3037 45.1758 44.6533 45.1758ZM44.2578 36.4131C43.4844 36.4131 42.8662 36.665 42.4033 37.1689C41.9463 37.6729 41.6768 38.3701 41.5947 39.2607H46.6309C46.6309 38.3408 46.4258 37.6377 46.0156 37.1514C45.6055 36.6592 45.0195 36.4131 44.2578 36.4131ZM57.2832 45V38.7686C57.2832 37.9834 57.1045 37.3975 56.7471 37.0107C56.3896 36.624 55.8301 36.4307 55.0684 36.4307C54.0605 36.4307 53.3223 36.7031 52.8535 37.248C52.3848 37.793 52.1504 38.6924 52.1504 39.9463V45H50.6914V35.3672H51.8779L52.1152 36.6855H52.1855C52.4844 36.2109 52.9033 35.8447 53.4424 35.5869C53.9814 35.3232 54.582 35.1914 55.2441 35.1914C56.4043 35.1914 57.2773 35.4727 57.8633 36.0352C58.4492 36.5918 58.7422 37.4854 58.7422 38.7158V45H57.2832ZM64.8594 43.9717C65.1172 43.9717 65.3662 43.9541 65.6064 43.9189C65.8467 43.8779 66.0371 43.8369 66.1777 43.7959V44.9121C66.0195 44.9883 65.7852 45.0498 65.4746 45.0967C65.1699 45.1494 64.8945 45.1758 64.6484 45.1758C62.7852 45.1758 61.8535 44.1943 61.8535 42.2314V36.501H60.4736V35.7979L61.8535 35.1914L62.4688 33.1348H63.3125V35.3672H66.1074V36.501H63.3125V42.1699C63.3125 42.75 63.4502 43.1953 63.7256 43.5059C64.001 43.8164 64.3789 43.9717 64.8594 43.9717ZM74.3252 42.3721C74.3252 43.2686 73.9912 43.96 73.3232 44.4463C72.6553 44.9326 71.7178 45.1758 70.5107 45.1758C69.2334 45.1758 68.2373 44.9736 67.5225 44.5693V43.2158C67.9854 43.4502 68.4805 43.6348 69.0078 43.7695C69.541 43.9043 70.0537 43.9717 70.5459 43.9717C71.3076 43.9717 71.8936 43.8516 72.3037 43.6113C72.7139 43.3652 72.9189 42.9932 72.9189 42.4951C72.9189 42.1201 72.7549 41.8008 72.4268 41.5371C72.1045 41.2676 71.4717 40.9512 70.5283 40.5879C69.6318 40.2539 68.9932 39.9639 68.6123 39.7178C68.2373 39.4658 67.9561 39.1816 67.7686 38.8652C67.5869 38.5488 67.4961 38.1709 67.4961 37.7314C67.4961 36.9463 67.8154 36.3281 68.4541 35.877C69.0928 35.4199 69.9688 35.1914 71.082 35.1914C72.1191 35.1914 73.1328 35.4023 74.123 35.8242L73.6045 37.0107C72.6377 36.6123 71.7617 36.4131 70.9766 36.4131C70.2852 36.4131 69.7637 36.5215 69.4121 36.7383C69.0605 36.9551 68.8848 37.2539 68.8848 37.6348C68.8848 37.8926 68.9492 38.1123 69.0781 38.2939C69.2129 38.4756 69.4268 38.6484 69.7197 38.8125C70.0127 38.9766 70.5752 39.2139 71.4072 39.5244C72.5498 39.9404 73.3203 40.3594 73.7188 40.7812C74.123 41.2031 74.3252 41.7334 74.3252 42.3721ZM85.8652 35.209C87.1309 35.209 88.1123 35.6426 88.8096 36.5098C89.5127 37.3711 89.8643 38.5928 89.8643 40.1748C89.8643 41.7568 89.5098 42.9873 88.8008 43.8662C88.0977 44.7393 87.1191 45.1758 85.8652 45.1758C85.2383 45.1758 84.6641 45.0615 84.1426 44.833C83.627 44.5986 83.1934 44.2412 82.8418 43.7607H82.7363L82.4287 45H81.3828V31.3242H82.8418V34.6465C82.8418 35.3906 82.8184 36.0586 82.7715 36.6504H82.8418C83.5215 35.6895 84.5293 35.209 85.8652 35.209ZM85.6543 36.4307C84.6582 36.4307 83.9404 36.7178 83.501 37.292C83.0615 37.8604 82.8418 38.8213 82.8418 40.1748C82.8418 41.5283 83.0674 42.498 83.5186 43.084C83.9697 43.6641 84.6934 43.9541 85.6895 43.9541C86.5859 43.9541 87.2539 43.6289 87.6934 42.9785C88.1328 42.3223 88.3525 41.3818 88.3525 40.1572C88.3525 38.9033 88.1328 37.9688 87.6934 37.3535C87.2539 36.7383 86.5742 36.4307 85.6543 36.4307ZM90.8926 35.3672H92.457L94.5664 40.8604C95.0293 42.1143 95.3164 43.0195 95.4277 43.5762H95.498C95.5742 43.2773 95.7324 42.7676 95.9727 42.0469C96.2188 41.3203 97.0156 39.0938 98.3633 35.3672H99.9277L95.7881 46.3359C95.3779 47.4199 94.8975 48.1875 94.3467 48.6387C93.8018 49.0957 93.1309 49.3242 92.334 49.3242C91.8887 49.3242 91.4492 49.2744 91.0156 49.1748V48.0059C91.3379 48.0762 91.6982 48.1113 92.0967 48.1113C93.0986 48.1113 93.8135 47.5488 94.2412 46.4238L94.7773 45.0527L90.8926 35.3672ZM107.882 45H106.388V32.1504H113.551V33.4775H107.882V38.1797H113.208V39.5068H107.882V45ZM116.926 45H115.467V31.3242H116.926V45ZM121.479 45H120.02V35.3672H121.479V45ZM119.896 32.7568C119.896 32.4229 119.979 32.1797 120.143 32.0273C120.307 31.8691 120.512 31.79 120.758 31.79C120.992 31.79 121.194 31.8691 121.364 32.0273C121.534 32.1855 121.619 32.4287 121.619 32.7568C121.619 33.085 121.534 33.3311 121.364 33.4951C121.194 33.6533 120.992 33.7324 120.758 33.7324C120.512 33.7324 120.307 33.6533 120.143 33.4951C119.979 33.3311 119.896 33.085 119.896 32.7568ZM132.456 35.3672V36.29L130.672 36.501C130.836 36.7061 130.982 36.9756 131.111 37.3096C131.24 37.6377 131.305 38.0098 131.305 38.4258C131.305 39.3691 130.982 40.1221 130.338 40.6846C129.693 41.2471 128.809 41.5283 127.684 41.5283C127.396 41.5283 127.127 41.5049 126.875 41.458C126.254 41.7861 125.943 42.1992 125.943 42.6973C125.943 42.9609 126.052 43.1572 126.269 43.2861C126.485 43.4092 126.857 43.4707 127.385 43.4707H129.09C130.133 43.4707 130.933 43.6904 131.489 44.1299C132.052 44.5693 132.333 45.208 132.333 46.0459C132.333 47.1123 131.905 47.9238 131.05 48.4805C130.194 49.043 128.946 49.3242 127.306 49.3242C126.046 49.3242 125.073 49.0898 124.388 48.6211C123.708 48.1523 123.368 47.4902 123.368 46.6348C123.368 46.0488 123.556 45.542 123.931 45.1143C124.306 44.6865 124.833 44.3965 125.513 44.2441C125.267 44.1328 125.059 43.96 124.889 43.7256C124.725 43.4912 124.643 43.2188 124.643 42.9082C124.643 42.5566 124.736 42.249 124.924 41.9854C125.111 41.7217 125.407 41.4668 125.812 41.2207C125.313 41.0156 124.906 40.667 124.59 40.1748C124.279 39.6826 124.124 39.1201 124.124 38.4873C124.124 37.4326 124.44 36.6211 125.073 36.0527C125.706 35.4785 126.603 35.1914 127.763 35.1914C128.267 35.1914 128.721 35.25 129.125 35.3672H132.456ZM124.774 46.6172C124.774 47.1387 124.994 47.5342 125.434 47.8037C125.873 48.0732 126.503 48.208 127.323 48.208C128.548 48.208 129.453 48.0234 130.039 47.6543C130.631 47.291 130.927 46.7959 130.927 46.1689C130.927 45.6475 130.766 45.2842 130.443 45.0791C130.121 44.8799 129.515 44.7803 128.624 44.7803H126.875C126.213 44.7803 125.697 44.9385 125.328 45.2549C124.959 45.5713 124.774 46.0254 124.774 46.6172ZM125.565 38.4521C125.565 39.126 125.756 39.6357 126.137 39.9814C126.518 40.3271 127.048 40.5 127.728 40.5C129.151 40.5 129.863 39.8086 129.863 38.4258C129.863 36.9785 129.143 36.2549 127.701 36.2549C127.016 36.2549 126.488 36.4395 126.119 36.8086C125.75 37.1777 125.565 37.7256 125.565 38.4521ZM141.025 45V38.7686C141.025 37.9834 140.847 37.3975 140.489 37.0107C140.132 36.624 139.572 36.4307 138.811 36.4307C137.797 36.4307 137.056 36.7061 136.587 37.2568C136.124 37.8076 135.893 38.71 135.893 39.9639V45H134.434V31.3242H135.893V35.4639C135.893 35.9619 135.869 36.375 135.822 36.7031H135.91C136.197 36.2402 136.604 35.877 137.132 35.6133C137.665 35.3438 138.271 35.209 138.951 35.209C140.129 35.209 141.011 35.4902 141.597 36.0527C142.188 36.6094 142.484 37.4971 142.484 38.7158V45H141.025ZM148.602 43.9717C148.859 43.9717 149.108 43.9541 149.349 43.9189C149.589 43.8779 149.779 43.8369 149.92 43.7959V44.9121C149.762 44.9883 149.527 45.0498 149.217 45.0967C148.912 45.1494 148.637 45.1758 148.391 45.1758C146.527 45.1758 145.596 44.1943 145.596 42.2314V36.501H144.216V35.7979L145.596 35.1914L146.211 33.1348H147.055V35.3672H149.85V36.501H147.055V42.1699C147.055 42.75 147.192 43.1953 147.468 43.5059C147.743 43.8164 148.121 43.9717 148.602 43.9717ZM164.896 35.8945C164.896 37.1953 164.451 38.1973 163.561 38.9004C162.676 39.5977 161.407 39.9463 159.755 39.9463H158.243V45H156.749V32.1504H160.08C163.291 32.1504 164.896 33.3984 164.896 35.8945ZM158.243 38.6631H159.588C160.912 38.6631 161.87 38.4492 162.462 38.0215C163.054 37.5938 163.35 36.9082 163.35 35.9648C163.35 35.1152 163.071 34.4824 162.515 34.0664C161.958 33.6504 161.091 33.4424 159.913 33.4424H158.243V38.6631ZM173.967 45V38.7686C173.967 37.9834 173.788 37.3975 173.431 37.0107C173.073 36.624 172.514 36.4307 171.752 36.4307C170.738 36.4307 169.997 36.7061 169.528 37.2568C169.065 37.8076 168.834 38.71 168.834 39.9639V45H167.375V31.3242H168.834V35.4639C168.834 35.9619 168.811 36.375 168.764 36.7031H168.852C169.139 36.2402 169.546 35.877 170.073 35.6133C170.606 35.3438 171.213 35.209 171.893 35.209C173.07 35.209 173.952 35.4902 174.538 36.0527C175.13 36.6094 175.426 37.4971 175.426 38.7158V45H173.967ZM184.355 45L184.065 43.6289H183.995C183.515 44.2324 183.034 44.6426 182.554 44.8594C182.079 45.0703 181.484 45.1758 180.77 45.1758C179.814 45.1758 179.064 44.9297 178.52 44.4375C177.98 43.9453 177.711 43.2451 177.711 42.3369C177.711 40.3916 179.267 39.3721 182.378 39.2783L184.013 39.2256V38.6279C184.013 37.8721 183.849 37.3154 183.521 36.958C183.198 36.5947 182.68 36.4131 181.965 36.4131C181.162 36.4131 180.254 36.6592 179.24 37.1514L178.792 36.0352C179.267 35.7773 179.785 35.5752 180.348 35.4287C180.916 35.2822 181.484 35.209 182.053 35.209C183.201 35.209 184.051 35.4639 184.602 35.9736C185.158 36.4834 185.437 37.3008 185.437 38.4258V45H184.355ZM181.06 43.9717C181.968 43.9717 182.68 43.7227 183.195 43.2246C183.717 42.7266 183.978 42.0293 183.978 41.1328V40.2627L182.519 40.3242C181.358 40.3652 180.521 40.5469 180.005 40.8691C179.495 41.1855 179.24 41.6807 179.24 42.3545C179.24 42.8818 179.398 43.2832 179.715 43.5586C180.037 43.834 180.485 43.9717 181.06 43.9717ZM194.665 42.3721C194.665 43.2686 194.331 43.96 193.663 44.4463C192.995 44.9326 192.058 45.1758 190.851 45.1758C189.573 45.1758 188.577 44.9736 187.862 44.5693V43.2158C188.325 43.4502 188.82 43.6348 189.348 43.7695C189.881 43.9043 190.394 43.9717 190.886 43.9717C191.647 43.9717 192.233 43.8516 192.644 43.6113C193.054 43.3652 193.259 42.9932 193.259 42.4951C193.259 42.1201 193.095 41.8008 192.767 41.5371C192.444 41.2676 191.812 40.9512 190.868 40.5879C189.972 40.2539 189.333 39.9639 188.952 39.7178C188.577 39.4658 188.296 39.1816 188.108 38.8652C187.927 38.5488 187.836 38.1709 187.836 37.7314C187.836 36.9463 188.155 36.3281 188.794 35.877C189.433 35.4199 190.309 35.1914 191.422 35.1914C192.459 35.1914 193.473 35.4023 194.463 35.8242L193.944 37.0107C192.978 36.6123 192.102 36.4131 191.316 36.4131C190.625 36.4131 190.104 36.5215 189.752 36.7383C189.4 36.9551 189.225 37.2539 189.225 37.6348C189.225 37.8926 189.289 38.1123 189.418 38.2939C189.553 38.4756 189.767 38.6484 190.06 38.8125C190.353 38.9766 190.915 39.2139 191.747 39.5244C192.89 39.9404 193.66 40.3594 194.059 40.7812C194.463 41.2031 194.665 41.7334 194.665 42.3721ZM201.116 45.1758C199.692 45.1758 198.567 44.7422 197.741 43.875C196.921 43.0078 196.511 41.8037 196.511 40.2627C196.511 38.71 196.892 37.4766 197.653 36.5625C198.421 35.6484 199.449 35.1914 200.738 35.1914C201.945 35.1914 202.9 35.5898 203.604 36.3867C204.307 37.1777 204.658 38.2236 204.658 39.5244V40.4473H198.022C198.052 41.5781 198.336 42.4365 198.875 43.0225C199.42 43.6084 200.185 43.9014 201.169 43.9014C202.206 43.9014 203.231 43.6846 204.245 43.251V44.5518C203.729 44.7744 203.24 44.9326 202.777 45.0264C202.32 45.126 201.767 45.1758 201.116 45.1758ZM200.721 36.4131C199.947 36.4131 199.329 36.665 198.866 37.1689C198.409 37.6729 198.14 38.3701 198.058 39.2607H203.094C203.094 38.3408 202.889 37.6377 202.479 37.1514C202.068 36.6592 201.482 36.4131 200.721 36.4131Z" fill="white"/>
<defs>
<filter id="filter0_d" x="144.924" y="197.373" width="67.9422" height="80.0021" filterUnits="userSpaceOnUse" color-interpolation-filters="sRGB">
<feFlood flood-opacity="0" result="BackgroundImageFix"/>
<feColorMatrix in="SourceAlpha" type="matrix" values="0 0 0 0 0 0 0 0 0 0 0 0 0 0 0 0 0 0 127 0"/>
<feOffset dy="7.19027"/>
<feGaussianBlur stdDeviation="3.59513"/>
<feColorMatrix type="matrix" values="0 0 0 0 0.0392157 0 0 0 0 0.0862745 0 0 0 0 0.27451 0 0 0 0.102 0"/>
<feBlend mode="normal" in2="BackgroundImageFix" result="effect1_dropShadow"/>
<feBlend mode="normal" in="SourceGraphic" in2="effect1_dropShadow" result="shape"/>
</filter>
<filter id="filter1_d" x="105.49" y="120.058" width="137.954" height="133.458" filterUnits="userSpaceOnUse" color-interpolation-filters="sRGB">
<feFlood flood-opacity="0" result="BackgroundImageFix"/>
<feColorMatrix in="SourceAlpha" type="matrix" values="0 0 0 0 0 0 0 0 0 0 0 0 0 0 0 0 0 0 127 0"/>
<feOffset dy="7.19027"/>
<feGaussianBlur stdDeviation="3.59513"/>
<feColorMatrix type="matrix" values="0 0 0 0 0.0392157 0 0 0 0 0.0862745 0 0 0 0 0.27451 0 0 0 0.102 0"/>
<feBlend mode="normal" in2="BackgroundImageFix" result="effect1_dropShadow"/>
<feBlend mode="normal" in="SourceGraphic" in2="effect1_dropShadow" result="shape"/>
</filter>
<filter id="filter2_d" x="144.932" y="190.236" width="96.7898" height="80.6975" filterUnits="userSpaceOnUse" color-interpolation-filters="sRGB">
<feFlood flood-opacity="0" result="BackgroundImageFix"/>
<feColorMatrix in="SourceAlpha" type="matrix" values="0 0 0 0 0 0 0 0 0 0 0 0 0 0 0 0 0 0 127 0"/>
<feOffset dy="7.19027"/>
<feGaussianBlur stdDeviation="3.59513"/>
<feColorMatrix type="matrix" values="0 0 0 0 0.0392157 0 0 0 0 0.0862745 0 0 0 0 0.27451 0 0 0 0.102 0"/>
<feBlend mode="normal" in2="BackgroundImageFix" result="effect1_dropShadow"/>
<feBlend mode="normal" in="SourceGraphic" in2="effect1_dropShadow" result="shape"/>
</filter>
<filter id="filter3_d" x="74.2365" y="119.169" width="138.102" height="114.532" filterUnits="userSpaceOnUse" color-interpolation-filters="sRGB">
<feFlood flood-opacity="0" result="BackgroundImageFix"/>
<feColorMatrix in="SourceAlpha" type="matrix" values="0 0 0 0 0 0 0 0 0 0 0 0 0 0 0 0 0 0 127 0"/>
<feOffset dy="7.19027"/>
<feGaussianBlur stdDeviation="3.59513"/>
<feColorMatrix type="matrix" values="0 0 0 0 0.0392157 0 0 0 0 0.0862745 0 0 0 0 0.27451 0 0 0 0.102 0"/>
<feBlend mode="normal" in2="BackgroundImageFix" result="effect1_dropShadow"/>
<feBlend mode="normal" in="SourceGraphic" in2="effect1_dropShadow" result="shape"/>
</filter>
<filter id="filter4_d" x="51.0937" y="149.779" width="127.139" height="170.91" filterUnits="userSpaceOnUse" color-interpolation-filters="sRGB">
<feFlood flood-opacity="0" result="BackgroundImageFix"/>
<feColorMatrix in="SourceAlpha" type="matrix" values="0 0 0 0 0 0 0 0 0 0 0 0 0 0 0 0 0 0 127 0"/>
<feOffset dy="7.19027"/>
<feGaussianBlur stdDeviation="3.59513"/>
<feColorMatrix type="matrix" values="0 0 0 0 0.0392157 0 0 0 0 0.0862745 0 0 0 0 0.27451 0 0 0 0.102 0"/>
<feBlend mode="normal" in2="BackgroundImageFix" result="effect1_dropShadow"/>
<feBlend mode="normal" in="SourceGraphic" in2="effect1_dropShadow" result="shape"/>
</filter>
</defs>
</svg>
