<svg width="767" height="347" viewBox="0 0 767 347" fill="none" xmlns="http://www.w3.org/2000/svg">
<rect opacity="0.7" width="767" height="347" rx="3.97619" fill="white" fill-opacity="0.02"/>
<path d="M71.9238 282H66.293V281.162L68.5488 278.895C69.2363 278.199 69.6895 277.703 69.9082 277.406C70.127 277.109 70.291 276.82 70.4004 276.539C70.5098 276.258 70.5645 275.955 70.5645 275.631C70.5645 275.174 70.4258 274.812 70.1484 274.547C69.8711 274.277 69.4863 274.143 68.9941 274.143C68.6387 274.143 68.3008 274.201 67.9805 274.318C67.6641 274.436 67.3105 274.648 66.9199 274.957L66.4043 274.295C67.1934 273.639 68.0527 273.311 68.9824 273.311C69.7871 273.311 70.418 273.518 70.875 273.932C71.332 274.342 71.5605 274.895 71.5605 275.59C71.5605 276.133 71.4082 276.67 71.1035 277.201C70.7988 277.732 70.2285 278.404 69.3926 279.217L67.5176 281.051V281.098H71.9238V282ZM78.8379 277.705C78.8379 279.186 78.6035 280.291 78.1348 281.021C77.6699 281.752 76.957 282.117 75.9961 282.117C75.0742 282.117 74.373 281.744 73.8926 280.998C73.4121 280.248 73.1719 279.15 73.1719 277.705C73.1719 276.213 73.4043 275.105 73.8691 274.383C74.334 273.66 75.043 273.299 75.9961 273.299C76.9258 273.299 77.6309 273.676 78.1113 274.43C78.5957 275.184 78.8379 276.275 78.8379 277.705ZM74.1562 277.705C74.1562 278.951 74.3027 279.859 74.5957 280.43C74.8887 280.996 75.3555 281.279 75.9961 281.279C76.6445 281.279 77.1133 280.992 77.4023 280.418C77.6953 279.84 77.8418 278.936 77.8418 277.705C77.8418 276.475 77.6953 275.574 77.4023 275.004C77.1133 274.43 76.6445 274.143 75.9961 274.143C75.3555 274.143 74.8887 274.426 74.5957 274.992C74.3027 275.555 74.1562 276.459 74.1562 277.705ZM83.6309 282H82.6816V275.895C82.6816 275.387 82.6973 274.906 82.7285 274.453C82.6465 274.535 82.5547 274.621 82.4531 274.711C82.3516 274.801 81.8867 275.182 81.0586 275.854L80.543 275.186L82.8105 273.434H83.6309V282ZM87.9785 282L91.5293 274.33H86.8594V273.434H92.5605V274.213L89.0566 282H87.9785ZM74.6016 298L73.5352 295.275H70.1016L69.0469 298H68.0391L71.4258 289.398H72.2637L75.6328 298H74.6016ZM73.2246 294.379L72.2285 291.725C72.0996 291.389 71.9668 290.977 71.8301 290.488C71.7441 290.863 71.6211 291.275 71.4609 291.725L70.4531 294.379H73.2246ZM79.6523 298.117C79.2344 298.117 78.8516 298.041 78.5039 297.889C78.1602 297.732 77.8711 297.494 77.6367 297.174H77.5664C77.6133 297.549 77.6367 297.904 77.6367 298.24V300.883H76.6641V291.578H77.4551L77.5898 292.457H77.6367C77.8867 292.105 78.1777 291.852 78.5098 291.695C78.8418 291.539 79.2227 291.461 79.6523 291.461C80.5039 291.461 81.1602 291.752 81.6211 292.334C82.0859 292.916 82.3184 293.732 82.3184 294.783C82.3184 295.838 82.082 296.658 81.6094 297.244C81.1406 297.826 80.4883 298.117 79.6523 298.117ZM79.5117 292.287C78.8555 292.287 78.3809 292.469 78.0879 292.832C77.7949 293.195 77.6445 293.773 77.6367 294.566V294.783C77.6367 295.686 77.7871 296.332 78.0879 296.723C78.3887 297.109 78.8711 297.303 79.5352 297.303C80.0898 297.303 80.5234 297.078 80.8359 296.629C81.1523 296.18 81.3105 295.561 81.3105 294.771C81.3105 293.971 81.1523 293.357 80.8359 292.932C80.5234 292.502 80.082 292.287 79.5117 292.287ZM86.9531 291.461C87.2383 291.461 87.4941 291.484 87.7207 291.531L87.5859 292.434C87.3203 292.375 87.0859 292.346 86.8828 292.346C86.3633 292.346 85.918 292.557 85.5469 292.979C85.1797 293.4 84.9961 293.926 84.9961 294.555V298H84.0234V291.578H84.8262L84.9375 292.768H84.9844C85.2227 292.35 85.5098 292.027 85.8457 291.801C86.1816 291.574 86.5508 291.461 86.9531 291.461ZM89.8945 298H88.9219V291.578H89.8945V298ZM88.8398 289.838C88.8398 289.615 88.8945 289.453 89.0039 289.352C89.1133 289.246 89.25 289.193 89.4141 289.193C89.5703 289.193 89.7051 289.246 89.8184 289.352C89.9316 289.457 89.9883 289.619 89.9883 289.838C89.9883 290.057 89.9316 290.221 89.8184 290.33C89.7051 290.436 89.5703 290.488 89.4141 290.488C89.25 290.488 89.1133 290.436 89.0039 290.33C88.8945 290.221 88.8398 290.057 88.8398 289.838ZM92.9297 298H91.957V288.883H92.9297V298Z" fill="white"/>
<path d="M154.924 282H149.293V281.162L151.549 278.895C152.236 278.199 152.689 277.703 152.908 277.406C153.127 277.109 153.291 276.82 153.4 276.539C153.51 276.258 153.564 275.955 153.564 275.631C153.564 275.174 153.426 274.812 153.148 274.547C152.871 274.277 152.486 274.143 151.994 274.143C151.639 274.143 151.301 274.201 150.98 274.318C150.664 274.436 150.311 274.648 149.92 274.957L149.404 274.295C150.193 273.639 151.053 273.311 151.982 273.311C152.787 273.311 153.418 273.518 153.875 273.932C154.332 274.342 154.561 274.895 154.561 275.59C154.561 276.133 154.408 276.67 154.104 277.201C153.799 277.732 153.229 278.404 152.393 279.217L150.518 281.051V281.098H154.924V282ZM161.838 277.705C161.838 279.186 161.604 280.291 161.135 281.021C160.67 281.752 159.957 282.117 158.996 282.117C158.074 282.117 157.373 281.744 156.893 280.998C156.412 280.248 156.172 279.15 156.172 277.705C156.172 276.213 156.404 275.105 156.869 274.383C157.334 273.66 158.043 273.299 158.996 273.299C159.926 273.299 160.631 273.676 161.111 274.43C161.596 275.184 161.838 276.275 161.838 277.705ZM157.156 277.705C157.156 278.951 157.303 279.859 157.596 280.43C157.889 280.996 158.355 281.279 158.996 281.279C159.645 281.279 160.113 280.992 160.402 280.418C160.695 279.84 160.842 278.936 160.842 277.705C160.842 276.475 160.695 275.574 160.402 275.004C160.113 274.43 159.645 274.143 158.996 274.143C158.355 274.143 157.889 274.426 157.596 274.992C157.303 275.555 157.156 276.459 157.156 277.705ZM166.631 282H165.682V275.895C165.682 275.387 165.697 274.906 165.729 274.453C165.646 274.535 165.555 274.621 165.453 274.711C165.352 274.801 164.887 275.182 164.059 275.854L163.543 275.186L165.811 273.434H166.631V282ZM170.979 282L174.529 274.33H169.859V273.434H175.561V274.213L172.057 282H170.979ZM151.584 300.256C151.217 300.256 150.928 300.203 150.717 300.098V299.248C150.994 299.326 151.283 299.365 151.584 299.365C151.971 299.365 152.264 299.248 152.463 299.014C152.666 298.779 152.768 298.441 152.768 298V289.434H153.764V297.918C153.764 298.66 153.576 299.234 153.201 299.641C152.826 300.051 152.287 300.256 151.584 300.256ZM156.811 291.578V295.744C156.811 296.268 156.93 296.658 157.168 296.916C157.406 297.174 157.779 297.303 158.287 297.303C158.959 297.303 159.449 297.119 159.758 296.752C160.07 296.385 160.227 295.785 160.227 294.953V291.578H161.199V298H160.396L160.256 297.139H160.203C160.004 297.455 159.727 297.697 159.371 297.865C159.02 298.033 158.617 298.117 158.164 298.117C157.383 298.117 156.797 297.932 156.406 297.561C156.02 297.189 155.826 296.596 155.826 295.779V291.578H156.811ZM167.662 298V293.846C167.662 293.322 167.543 292.932 167.305 292.674C167.066 292.416 166.693 292.287 166.186 292.287C165.514 292.287 165.021 292.469 164.709 292.832C164.396 293.195 164.24 293.795 164.24 294.631V298H163.268V291.578H164.059L164.217 292.457H164.264C164.463 292.141 164.742 291.896 165.102 291.725C165.461 291.549 165.861 291.461 166.303 291.461C167.076 291.461 167.658 291.648 168.049 292.023C168.439 292.395 168.635 292.99 168.635 293.811V298H167.662ZM173.352 298.117C172.402 298.117 171.652 297.828 171.102 297.25C170.555 296.672 170.281 295.869 170.281 294.842C170.281 293.807 170.535 292.984 171.043 292.375C171.555 291.766 172.24 291.461 173.1 291.461C173.904 291.461 174.541 291.727 175.01 292.258C175.479 292.785 175.713 293.482 175.713 294.35V294.965H171.289C171.309 295.719 171.498 296.291 171.857 296.682C172.221 297.072 172.73 297.268 173.387 297.268C174.078 297.268 174.762 297.123 175.438 296.834V297.701C175.094 297.85 174.768 297.955 174.459 298.018C174.154 298.084 173.785 298.117 173.352 298.117ZM173.088 292.275C172.572 292.275 172.16 292.443 171.852 292.779C171.547 293.115 171.367 293.58 171.312 294.174H174.67C174.67 293.561 174.533 293.092 174.26 292.768C173.986 292.439 173.596 292.275 173.088 292.275Z" fill="white"/>
<path d="M249.982 282H244.352V281.162L246.607 278.895C247.295 278.199 247.748 277.703 247.967 277.406C248.186 277.109 248.35 276.82 248.459 276.539C248.568 276.258 248.623 275.955 248.623 275.631C248.623 275.174 248.484 274.812 248.207 274.547C247.93 274.277 247.545 274.143 247.053 274.143C246.697 274.143 246.359 274.201 246.039 274.318C245.723 274.436 245.369 274.648 244.979 274.957L244.463 274.295C245.252 273.639 246.111 273.311 247.041 273.311C247.846 273.311 248.477 273.518 248.934 273.932C249.391 274.342 249.619 274.895 249.619 275.59C249.619 276.133 249.467 276.67 249.162 277.201C248.857 277.732 248.287 278.404 247.451 279.217L245.576 281.051V281.098H249.982V282ZM256.896 277.705C256.896 279.186 256.662 280.291 256.193 281.021C255.729 281.752 255.016 282.117 254.055 282.117C253.133 282.117 252.432 281.744 251.951 280.998C251.471 280.248 251.23 279.15 251.23 277.705C251.23 276.213 251.463 275.105 251.928 274.383C252.393 273.66 253.102 273.299 254.055 273.299C254.984 273.299 255.689 273.676 256.17 274.43C256.654 275.184 256.896 276.275 256.896 277.705ZM252.215 277.705C252.215 278.951 252.361 279.859 252.654 280.43C252.947 280.996 253.414 281.279 254.055 281.279C254.703 281.279 255.172 280.992 255.461 280.418C255.754 279.84 255.9 278.936 255.9 277.705C255.9 276.475 255.754 275.574 255.461 275.004C255.172 274.43 254.703 274.143 254.055 274.143C253.414 274.143 252.947 274.426 252.654 274.992C252.361 275.555 252.215 276.459 252.215 277.705ZM261.689 282H260.74V275.895C260.74 275.387 260.756 274.906 260.787 274.453C260.705 274.535 260.613 274.621 260.512 274.711C260.41 274.801 259.945 275.182 259.117 275.854L258.602 275.186L260.869 273.434H261.689V282ZM266.037 282L269.588 274.33H264.918V273.434H270.619V274.213L267.115 282H266.037ZM249.156 300.256C248.789 300.256 248.5 300.203 248.289 300.098V299.248C248.566 299.326 248.855 299.365 249.156 299.365C249.543 299.365 249.836 299.248 250.035 299.014C250.238 298.779 250.34 298.441 250.34 298V289.434H251.336V297.918C251.336 298.66 251.148 299.234 250.773 299.641C250.398 300.051 249.859 300.256 249.156 300.256ZM254.383 291.578V295.744C254.383 296.268 254.502 296.658 254.74 296.916C254.979 297.174 255.352 297.303 255.859 297.303C256.531 297.303 257.021 297.119 257.33 296.752C257.643 296.385 257.799 295.785 257.799 294.953V291.578H258.771V298H257.969L257.828 297.139H257.775C257.576 297.455 257.299 297.697 256.943 297.865C256.592 298.033 256.189 298.117 255.736 298.117C254.955 298.117 254.369 297.932 253.979 297.561C253.592 297.189 253.398 296.596 253.398 295.779V291.578H254.383ZM261.812 298H260.84V288.883H261.812V298ZM262.855 291.578H263.898L265.305 295.24C265.613 296.076 265.805 296.68 265.879 297.051H265.926C265.977 296.852 266.082 296.512 266.242 296.031C266.406 295.547 266.938 294.062 267.836 291.578H268.879L266.119 298.891C265.846 299.613 265.525 300.125 265.158 300.426C264.795 300.73 264.348 300.883 263.816 300.883C263.52 300.883 263.227 300.85 262.938 300.783V300.004C263.152 300.051 263.393 300.074 263.658 300.074C264.326 300.074 264.803 299.699 265.088 298.949L265.445 298.035L262.855 291.578Z" fill="white"/>
<path d="M354.424 282H348.793V281.162L351.049 278.895C351.736 278.199 352.189 277.703 352.408 277.406C352.627 277.109 352.791 276.82 352.9 276.539C353.01 276.258 353.064 275.955 353.064 275.631C353.064 275.174 352.926 274.812 352.648 274.547C352.371 274.277 351.986 274.143 351.494 274.143C351.139 274.143 350.801 274.201 350.48 274.318C350.164 274.436 349.811 274.648 349.42 274.957L348.904 274.295C349.693 273.639 350.553 273.311 351.482 273.311C352.287 273.311 352.918 273.518 353.375 273.932C353.832 274.342 354.061 274.895 354.061 275.59C354.061 276.133 353.908 276.67 353.604 277.201C353.299 277.732 352.729 278.404 351.893 279.217L350.018 281.051V281.098H354.424V282ZM361.338 277.705C361.338 279.186 361.104 280.291 360.635 281.021C360.17 281.752 359.457 282.117 358.496 282.117C357.574 282.117 356.873 281.744 356.393 280.998C355.912 280.248 355.672 279.15 355.672 277.705C355.672 276.213 355.904 275.105 356.369 274.383C356.834 273.66 357.543 273.299 358.496 273.299C359.426 273.299 360.131 273.676 360.611 274.43C361.096 275.184 361.338 276.275 361.338 277.705ZM356.656 277.705C356.656 278.951 356.803 279.859 357.096 280.43C357.389 280.996 357.855 281.279 358.496 281.279C359.145 281.279 359.613 280.992 359.902 280.418C360.195 279.84 360.342 278.936 360.342 277.705C360.342 276.475 360.195 275.574 359.902 275.004C359.613 274.43 359.145 274.143 358.496 274.143C357.855 274.143 357.389 274.426 357.096 274.992C356.803 275.555 356.656 276.459 356.656 277.705ZM366.131 282H365.182V275.895C365.182 275.387 365.197 274.906 365.229 274.453C365.146 274.535 365.055 274.621 364.953 274.711C364.852 274.801 364.387 275.182 363.559 275.854L363.043 275.186L365.311 273.434H366.131V282ZM370.479 282L374.029 274.33H369.359V273.434H375.061V274.213L371.557 282H370.479ZM350.621 298L349.555 295.275H346.121L345.066 298H344.059L347.445 289.398H348.283L351.652 298H350.621ZM349.244 294.379L348.248 291.725C348.119 291.389 347.986 290.977 347.85 290.488C347.764 290.863 347.641 291.275 347.48 291.725L346.473 294.379H349.244ZM353.598 291.578V295.744C353.598 296.268 353.717 296.658 353.955 296.916C354.193 297.174 354.566 297.303 355.074 297.303C355.746 297.303 356.236 297.119 356.545 296.752C356.857 296.385 357.014 295.785 357.014 294.953V291.578H357.986V298H357.184L357.043 297.139H356.99C356.791 297.455 356.514 297.697 356.158 297.865C355.807 298.033 355.404 298.117 354.951 298.117C354.17 298.117 353.584 297.932 353.193 297.561C352.807 297.189 352.613 296.596 352.613 295.779V291.578H353.598ZM365.311 291.578V292.193L364.121 292.334C364.23 292.471 364.328 292.65 364.414 292.873C364.5 293.092 364.543 293.34 364.543 293.617C364.543 294.246 364.328 294.748 363.898 295.123C363.469 295.498 362.879 295.686 362.129 295.686C361.938 295.686 361.758 295.67 361.59 295.639C361.176 295.857 360.969 296.133 360.969 296.465C360.969 296.641 361.041 296.771 361.186 296.857C361.33 296.939 361.578 296.98 361.93 296.98H363.066C363.762 296.98 364.295 297.127 364.666 297.42C365.041 297.713 365.229 298.139 365.229 298.697C365.229 299.408 364.943 299.949 364.373 300.32C363.803 300.695 362.971 300.883 361.877 300.883C361.037 300.883 360.389 300.727 359.932 300.414C359.479 300.102 359.252 299.66 359.252 299.09C359.252 298.699 359.377 298.361 359.627 298.076C359.877 297.791 360.229 297.598 360.682 297.496C360.518 297.422 360.379 297.307 360.266 297.15C360.156 296.994 360.102 296.812 360.102 296.605C360.102 296.371 360.164 296.166 360.289 295.99C360.414 295.814 360.611 295.645 360.881 295.48C360.549 295.344 360.277 295.111 360.066 294.783C359.859 294.455 359.756 294.08 359.756 293.658C359.756 292.955 359.967 292.414 360.389 292.035C360.811 291.652 361.408 291.461 362.182 291.461C362.518 291.461 362.82 291.5 363.09 291.578H365.311ZM360.189 299.078C360.189 299.426 360.336 299.689 360.629 299.869C360.922 300.049 361.342 300.139 361.889 300.139C362.705 300.139 363.309 300.016 363.699 299.77C364.094 299.527 364.291 299.197 364.291 298.779C364.291 298.432 364.184 298.189 363.969 298.053C363.754 297.92 363.35 297.854 362.756 297.854H361.59C361.148 297.854 360.805 297.959 360.559 298.17C360.312 298.381 360.189 298.684 360.189 299.078ZM360.717 293.635C360.717 294.084 360.844 294.424 361.098 294.654C361.352 294.885 361.705 295 362.158 295C363.107 295 363.582 294.539 363.582 293.617C363.582 292.652 363.102 292.17 362.141 292.17C361.684 292.17 361.332 292.293 361.086 292.539C360.84 292.785 360.717 293.15 360.717 293.635ZM367.543 291.578V295.744C367.543 296.268 367.662 296.658 367.9 296.916C368.139 297.174 368.512 297.303 369.02 297.303C369.691 297.303 370.182 297.119 370.49 296.752C370.803 296.385 370.959 295.785 370.959 294.953V291.578H371.932V298H371.129L370.988 297.139H370.936C370.736 297.455 370.459 297.697 370.104 297.865C369.752 298.033 369.35 298.117 368.896 298.117C368.115 298.117 367.529 297.932 367.139 297.561C366.752 297.189 366.559 296.596 366.559 295.779V291.578H367.543ZM378.143 296.248C378.143 296.846 377.92 297.307 377.475 297.631C377.029 297.955 376.404 298.117 375.6 298.117C374.748 298.117 374.084 297.982 373.607 297.713V296.811C373.916 296.967 374.246 297.09 374.598 297.18C374.953 297.27 375.295 297.314 375.623 297.314C376.131 297.314 376.521 297.234 376.795 297.074C377.068 296.91 377.205 296.662 377.205 296.33C377.205 296.08 377.096 295.867 376.877 295.691C376.662 295.512 376.24 295.301 375.611 295.059C375.014 294.836 374.588 294.643 374.334 294.479C374.084 294.311 373.896 294.121 373.771 293.91C373.65 293.699 373.59 293.447 373.59 293.154C373.59 292.631 373.803 292.219 374.229 291.918C374.654 291.613 375.238 291.461 375.98 291.461C376.672 291.461 377.348 291.602 378.008 291.883L377.662 292.674C377.018 292.408 376.434 292.275 375.91 292.275C375.449 292.275 375.102 292.348 374.867 292.492C374.633 292.637 374.516 292.836 374.516 293.09C374.516 293.262 374.559 293.408 374.645 293.529C374.734 293.65 374.877 293.766 375.072 293.875C375.268 293.984 375.643 294.143 376.197 294.35C376.959 294.627 377.473 294.906 377.738 295.188C378.008 295.469 378.143 295.822 378.143 296.248ZM381.805 297.314C381.977 297.314 382.143 297.303 382.303 297.279C382.463 297.252 382.59 297.225 382.684 297.197V297.941C382.578 297.992 382.422 298.033 382.215 298.064C382.012 298.1 381.828 298.117 381.664 298.117C380.422 298.117 379.801 297.463 379.801 296.154V292.334H378.881V291.865L379.801 291.461L380.211 290.09H380.773V291.578H382.637V292.334H380.773V296.113C380.773 296.5 380.865 296.797 381.049 297.004C381.232 297.211 381.484 297.314 381.805 297.314Z" fill="white"/>
<path d="M467.482 282H461.852V281.162L464.107 278.895C464.795 278.199 465.248 277.703 465.467 277.406C465.686 277.109 465.85 276.82 465.959 276.539C466.068 276.258 466.123 275.955 466.123 275.631C466.123 275.174 465.984 274.812 465.707 274.547C465.43 274.277 465.045 274.143 464.553 274.143C464.197 274.143 463.859 274.201 463.539 274.318C463.223 274.436 462.869 274.648 462.479 274.957L461.963 274.295C462.752 273.639 463.611 273.311 464.541 273.311C465.346 273.311 465.977 273.518 466.434 273.932C466.891 274.342 467.119 274.895 467.119 275.59C467.119 276.133 466.967 276.67 466.662 277.201C466.357 277.732 465.787 278.404 464.951 279.217L463.076 281.051V281.098H467.482V282ZM474.396 277.705C474.396 279.186 474.162 280.291 473.693 281.021C473.229 281.752 472.516 282.117 471.555 282.117C470.633 282.117 469.932 281.744 469.451 280.998C468.971 280.248 468.73 279.15 468.73 277.705C468.73 276.213 468.963 275.105 469.428 274.383C469.893 273.66 470.602 273.299 471.555 273.299C472.484 273.299 473.189 273.676 473.67 274.43C474.154 275.184 474.396 276.275 474.396 277.705ZM469.715 277.705C469.715 278.951 469.861 279.859 470.154 280.43C470.447 280.996 470.914 281.279 471.555 281.279C472.203 281.279 472.672 280.992 472.961 280.418C473.254 279.84 473.4 278.936 473.4 277.705C473.4 276.475 473.254 275.574 472.961 275.004C472.672 274.43 472.203 274.143 471.555 274.143C470.914 274.143 470.447 274.426 470.154 274.992C469.861 275.555 469.715 276.459 469.715 277.705ZM479.189 282H478.24V275.895C478.24 275.387 478.256 274.906 478.287 274.453C478.205 274.535 478.113 274.621 478.012 274.711C477.91 274.801 477.445 275.182 476.617 275.854L476.102 275.186L478.369 273.434H479.189V282ZM483.537 282L487.088 274.33H482.418V273.434H488.119V274.213L484.615 282H483.537ZM450.098 295.721C450.098 296.475 449.824 297.062 449.277 297.484C448.73 297.906 447.988 298.117 447.051 298.117C446.035 298.117 445.254 297.986 444.707 297.725V296.764C445.059 296.912 445.441 297.029 445.855 297.115C446.27 297.201 446.68 297.244 447.086 297.244C447.75 297.244 448.25 297.119 448.586 296.869C448.922 296.615 449.09 296.264 449.09 295.814C449.09 295.518 449.029 295.275 448.908 295.088C448.791 294.896 448.592 294.721 448.311 294.561C448.033 294.4 447.609 294.219 447.039 294.016C446.242 293.73 445.672 293.393 445.328 293.002C444.988 292.611 444.818 292.102 444.818 291.473C444.818 290.812 445.066 290.287 445.562 289.896C446.059 289.506 446.715 289.311 447.531 289.311C448.383 289.311 449.166 289.467 449.881 289.779L449.57 290.646C448.863 290.35 448.176 290.201 447.508 290.201C446.98 290.201 446.568 290.314 446.271 290.541C445.975 290.768 445.826 291.082 445.826 291.484C445.826 291.781 445.881 292.025 445.99 292.217C446.1 292.404 446.283 292.578 446.541 292.738C446.803 292.895 447.201 293.068 447.736 293.26C448.635 293.58 449.252 293.924 449.588 294.291C449.928 294.658 450.098 295.135 450.098 295.721ZM454.416 298.117C453.467 298.117 452.717 297.828 452.166 297.25C451.619 296.672 451.346 295.869 451.346 294.842C451.346 293.807 451.6 292.984 452.107 292.375C452.619 291.766 453.305 291.461 454.164 291.461C454.969 291.461 455.605 291.727 456.074 292.258C456.543 292.785 456.777 293.482 456.777 294.35V294.965H452.354C452.373 295.719 452.562 296.291 452.922 296.682C453.285 297.072 453.795 297.268 454.451 297.268C455.143 297.268 455.826 297.123 456.502 296.834V297.701C456.158 297.85 455.832 297.955 455.523 298.018C455.219 298.084 454.85 298.117 454.416 298.117ZM454.152 292.275C453.637 292.275 453.225 292.443 452.916 292.779C452.611 293.115 452.432 293.58 452.377 294.174H455.734C455.734 293.561 455.598 293.092 455.324 292.768C455.051 292.439 454.66 292.275 454.152 292.275ZM461.43 298.117C461.012 298.117 460.629 298.041 460.281 297.889C459.938 297.732 459.648 297.494 459.414 297.174H459.344C459.391 297.549 459.414 297.904 459.414 298.24V300.883H458.441V291.578H459.232L459.367 292.457H459.414C459.664 292.105 459.955 291.852 460.287 291.695C460.619 291.539 461 291.461 461.43 291.461C462.281 291.461 462.938 291.752 463.398 292.334C463.863 292.916 464.096 293.732 464.096 294.783C464.096 295.838 463.859 296.658 463.387 297.244C462.918 297.826 462.266 298.117 461.43 298.117ZM461.289 292.287C460.633 292.287 460.158 292.469 459.865 292.832C459.572 293.195 459.422 293.773 459.414 294.566V294.783C459.414 295.686 459.564 296.332 459.865 296.723C460.166 297.109 460.648 297.303 461.312 297.303C461.867 297.303 462.301 297.078 462.613 296.629C462.93 296.18 463.088 295.561 463.088 294.771C463.088 293.971 462.93 293.357 462.613 292.932C462.301 292.502 461.859 292.287 461.289 292.287ZM467.875 297.314C468.047 297.314 468.213 297.303 468.373 297.279C468.533 297.252 468.66 297.225 468.754 297.197V297.941C468.648 297.992 468.492 298.033 468.285 298.064C468.082 298.1 467.898 298.117 467.734 298.117C466.492 298.117 465.871 297.463 465.871 296.154V292.334H464.951V291.865L465.871 291.461L466.281 290.09H466.844V291.578H468.707V292.334H466.844V296.113C466.844 296.5 466.936 296.797 467.119 297.004C467.303 297.211 467.555 297.314 467.875 297.314ZM472.756 298.117C471.807 298.117 471.057 297.828 470.506 297.25C469.959 296.672 469.686 295.869 469.686 294.842C469.686 293.807 469.939 292.984 470.447 292.375C470.959 291.766 471.645 291.461 472.504 291.461C473.309 291.461 473.945 291.727 474.414 292.258C474.883 292.785 475.117 293.482 475.117 294.35V294.965H470.693C470.713 295.719 470.902 296.291 471.262 296.682C471.625 297.072 472.135 297.268 472.791 297.268C473.482 297.268 474.166 297.123 474.842 296.834V297.701C474.498 297.85 474.172 297.955 473.863 298.018C473.559 298.084 473.189 298.117 472.756 298.117ZM472.492 292.275C471.977 292.275 471.564 292.443 471.256 292.779C470.951 293.115 470.771 293.58 470.717 294.174H474.074C474.074 293.561 473.938 293.092 473.664 292.768C473.391 292.439 473 292.275 472.492 292.275ZM484.967 298V293.822C484.967 293.311 484.857 292.928 484.639 292.674C484.42 292.416 484.08 292.287 483.619 292.287C483.014 292.287 482.566 292.461 482.277 292.809C481.988 293.156 481.844 293.691 481.844 294.414V298H480.871V293.822C480.871 293.311 480.762 292.928 480.543 292.674C480.324 292.416 479.982 292.287 479.518 292.287C478.908 292.287 478.461 292.471 478.176 292.838C477.895 293.201 477.754 293.799 477.754 294.631V298H476.781V291.578H477.572L477.73 292.457H477.777C477.961 292.145 478.219 291.9 478.551 291.725C478.887 291.549 479.262 291.461 479.676 291.461C480.68 291.461 481.336 291.824 481.645 292.551H481.691C481.883 292.215 482.16 291.949 482.523 291.754C482.887 291.559 483.301 291.461 483.766 291.461C484.492 291.461 485.035 291.648 485.395 292.023C485.758 292.395 485.939 292.99 485.939 293.811V298H484.967ZM490.938 291.473C491.781 291.473 492.436 291.762 492.9 292.34C493.369 292.914 493.604 293.729 493.604 294.783C493.604 295.838 493.367 296.658 492.895 297.244C492.426 297.826 491.773 298.117 490.938 298.117C490.52 298.117 490.137 298.041 489.789 297.889C489.445 297.732 489.156 297.494 488.922 297.174H488.852L488.646 298H487.949V288.883H488.922V291.098C488.922 291.594 488.906 292.039 488.875 292.434H488.922C489.375 291.793 490.047 291.473 490.938 291.473ZM490.797 292.287C490.133 292.287 489.654 292.479 489.361 292.861C489.068 293.24 488.922 293.881 488.922 294.783C488.922 295.686 489.072 296.332 489.373 296.723C489.674 297.109 490.156 297.303 490.82 297.303C491.418 297.303 491.863 297.086 492.156 296.652C492.449 296.215 492.596 295.588 492.596 294.771C492.596 293.936 492.449 293.312 492.156 292.902C491.863 292.492 491.41 292.287 490.797 292.287ZM498.021 298.117C497.072 298.117 496.322 297.828 495.771 297.25C495.225 296.672 494.951 295.869 494.951 294.842C494.951 293.807 495.205 292.984 495.713 292.375C496.225 291.766 496.91 291.461 497.77 291.461C498.574 291.461 499.211 291.727 499.68 292.258C500.148 292.785 500.383 293.482 500.383 294.35V294.965H495.959C495.979 295.719 496.168 296.291 496.527 296.682C496.891 297.072 497.4 297.268 498.057 297.268C498.748 297.268 499.432 297.123 500.107 296.834V297.701C499.764 297.85 499.438 297.955 499.129 298.018C498.824 298.084 498.455 298.117 498.021 298.117ZM497.758 292.275C497.242 292.275 496.83 292.443 496.521 292.779C496.217 293.115 496.037 293.58 495.982 294.174H499.34C499.34 293.561 499.203 293.092 498.93 292.768C498.656 292.439 498.266 292.275 497.758 292.275ZM504.977 291.461C505.262 291.461 505.518 291.484 505.744 291.531L505.609 292.434C505.344 292.375 505.109 292.346 504.906 292.346C504.387 292.346 503.941 292.557 503.57 292.979C503.203 293.4 503.02 293.926 503.02 294.555V298H502.047V291.578H502.85L502.961 292.768H503.008C503.246 292.35 503.533 292.027 503.869 291.801C504.205 291.574 504.574 291.461 504.977 291.461Z" fill="white"/>
<path d="M576.982 282H571.352V281.162L573.607 278.895C574.295 278.199 574.748 277.703 574.967 277.406C575.186 277.109 575.35 276.82 575.459 276.539C575.568 276.258 575.623 275.955 575.623 275.631C575.623 275.174 575.484 274.812 575.207 274.547C574.93 274.277 574.545 274.143 574.053 274.143C573.697 274.143 573.359 274.201 573.039 274.318C572.723 274.436 572.369 274.648 571.979 274.957L571.463 274.295C572.252 273.639 573.111 273.311 574.041 273.311C574.846 273.311 575.477 273.518 575.934 273.932C576.391 274.342 576.619 274.895 576.619 275.59C576.619 276.133 576.467 276.67 576.162 277.201C575.857 277.732 575.287 278.404 574.451 279.217L572.576 281.051V281.098H576.982V282ZM583.896 277.705C583.896 279.186 583.662 280.291 583.193 281.021C582.729 281.752 582.016 282.117 581.055 282.117C580.133 282.117 579.432 281.744 578.951 280.998C578.471 280.248 578.23 279.15 578.23 277.705C578.23 276.213 578.463 275.105 578.928 274.383C579.393 273.66 580.102 273.299 581.055 273.299C581.984 273.299 582.689 273.676 583.17 274.43C583.654 275.184 583.896 276.275 583.896 277.705ZM579.215 277.705C579.215 278.951 579.361 279.859 579.654 280.43C579.947 280.996 580.414 281.279 581.055 281.279C581.703 281.279 582.172 280.992 582.461 280.418C582.754 279.84 582.9 278.936 582.9 277.705C582.9 276.475 582.754 275.574 582.461 275.004C582.172 274.43 581.703 274.143 581.055 274.143C580.414 274.143 579.947 274.426 579.654 274.992C579.361 275.555 579.215 276.459 579.215 277.705ZM588.689 282H587.74V275.895C587.74 275.387 587.756 274.906 587.787 274.453C587.705 274.535 587.613 274.621 587.512 274.711C587.41 274.801 586.945 275.182 586.117 275.854L585.602 275.186L587.869 273.434H588.689V282ZM593.037 282L596.588 274.33H591.918V273.434H597.619V274.213L594.115 282H593.037ZM570.332 293.705C570.332 295.076 569.984 296.154 569.289 296.939C568.598 297.725 567.635 298.117 566.4 298.117C565.139 298.117 564.164 297.732 563.477 296.963C562.793 296.189 562.451 295.1 562.451 293.693C562.451 292.299 562.795 291.219 563.482 290.453C564.17 289.684 565.146 289.299 566.412 289.299C567.643 289.299 568.604 289.689 569.295 290.471C569.986 291.252 570.332 292.33 570.332 293.705ZM563.506 293.705C563.506 294.865 563.752 295.746 564.244 296.348C564.74 296.945 565.459 297.244 566.4 297.244C567.35 297.244 568.066 296.945 568.551 296.348C569.035 295.75 569.277 294.869 569.277 293.705C569.277 292.553 569.035 291.68 568.551 291.086C568.07 290.488 567.357 290.189 566.412 290.189C565.463 290.189 564.74 290.49 564.244 291.092C563.752 291.689 563.506 292.561 563.506 293.705ZM574.668 298.117C573.738 298.117 573.018 297.832 572.506 297.262C571.998 296.688 571.744 295.877 571.744 294.83C571.744 293.756 572.002 292.926 572.518 292.34C573.037 291.754 573.775 291.461 574.732 291.461C575.041 291.461 575.35 291.494 575.658 291.561C575.967 291.627 576.209 291.705 576.385 291.795L576.086 292.621C575.871 292.535 575.637 292.465 575.383 292.41C575.129 292.352 574.904 292.322 574.709 292.322C573.404 292.322 572.752 293.154 572.752 294.818C572.752 295.607 572.91 296.213 573.227 296.635C573.547 297.057 574.02 297.268 574.645 297.268C575.18 297.268 575.729 297.152 576.291 296.922V297.783C575.861 298.006 575.32 298.117 574.668 298.117ZM579.895 297.314C580.066 297.314 580.232 297.303 580.393 297.279C580.553 297.252 580.68 297.225 580.773 297.197V297.941C580.668 297.992 580.512 298.033 580.305 298.064C580.102 298.1 579.918 298.117 579.754 298.117C578.512 298.117 577.891 297.463 577.891 296.154V292.334H576.971V291.865L577.891 291.461L578.301 290.09H578.863V291.578H580.727V292.334H578.863V296.113C578.863 296.5 578.955 296.797 579.139 297.004C579.322 297.211 579.574 297.314 579.895 297.314ZM587.605 294.783C587.605 295.83 587.342 296.648 586.814 297.238C586.287 297.824 585.559 298.117 584.629 298.117C584.055 298.117 583.545 297.982 583.1 297.713C582.654 297.443 582.311 297.057 582.068 296.553C581.826 296.049 581.705 295.459 581.705 294.783C581.705 293.736 581.967 292.922 582.49 292.34C583.014 291.754 583.74 291.461 584.67 291.461C585.568 291.461 586.281 291.76 586.809 292.357C587.34 292.955 587.605 293.764 587.605 294.783ZM582.713 294.783C582.713 295.604 582.877 296.229 583.205 296.658C583.533 297.088 584.016 297.303 584.652 297.303C585.289 297.303 585.771 297.09 586.1 296.664C586.432 296.234 586.598 295.607 586.598 294.783C586.598 293.967 586.432 293.348 586.1 292.926C585.771 292.5 585.285 292.287 584.641 292.287C584.004 292.287 583.523 292.496 583.199 292.914C582.875 293.332 582.713 293.955 582.713 294.783ZM592.305 291.473C593.148 291.473 593.803 291.762 594.268 292.34C594.736 292.914 594.971 293.729 594.971 294.783C594.971 295.838 594.734 296.658 594.262 297.244C593.793 297.826 593.141 298.117 592.305 298.117C591.887 298.117 591.504 298.041 591.156 297.889C590.812 297.732 590.523 297.494 590.289 297.174H590.219L590.014 298H589.316V288.883H590.289V291.098C590.289 291.594 590.273 292.039 590.242 292.434H590.289C590.742 291.793 591.414 291.473 592.305 291.473ZM592.164 292.287C591.5 292.287 591.021 292.479 590.729 292.861C590.436 293.24 590.289 293.881 590.289 294.783C590.289 295.686 590.439 296.332 590.74 296.723C591.041 297.109 591.523 297.303 592.188 297.303C592.785 297.303 593.23 297.086 593.523 296.652C593.816 296.215 593.963 295.588 593.963 294.771C593.963 293.936 593.816 293.312 593.523 292.902C593.23 292.492 592.777 292.287 592.164 292.287ZM599.389 298.117C598.439 298.117 597.689 297.828 597.139 297.25C596.592 296.672 596.318 295.869 596.318 294.842C596.318 293.807 596.572 292.984 597.08 292.375C597.592 291.766 598.277 291.461 599.137 291.461C599.941 291.461 600.578 291.727 601.047 292.258C601.516 292.785 601.75 293.482 601.75 294.35V294.965H597.326C597.346 295.719 597.535 296.291 597.895 296.682C598.258 297.072 598.768 297.268 599.424 297.268C600.115 297.268 600.799 297.123 601.475 296.834V297.701C601.131 297.85 600.805 297.955 600.496 298.018C600.191 298.084 599.822 298.117 599.389 298.117ZM599.125 292.275C598.609 292.275 598.197 292.443 597.889 292.779C597.584 293.115 597.404 293.58 597.35 294.174H600.707C600.707 293.561 600.57 293.092 600.297 292.768C600.023 292.439 599.633 292.275 599.125 292.275ZM606.344 291.461C606.629 291.461 606.885 291.484 607.111 291.531L606.977 292.434C606.711 292.375 606.477 292.346 606.273 292.346C605.754 292.346 605.309 292.557 604.938 292.979C604.57 293.4 604.387 293.926 604.387 294.555V298H603.414V291.578H604.217L604.328 292.768H604.375C604.613 292.35 604.9 292.027 605.236 291.801C605.572 291.574 605.941 291.461 606.344 291.461Z" fill="white"/>
<path d="M683.982 282H678.352V281.162L680.607 278.895C681.295 278.199 681.748 277.703 681.967 277.406C682.186 277.109 682.35 276.82 682.459 276.539C682.568 276.258 682.623 275.955 682.623 275.631C682.623 275.174 682.484 274.812 682.207 274.547C681.93 274.277 681.545 274.143 681.053 274.143C680.697 274.143 680.359 274.201 680.039 274.318C679.723 274.436 679.369 274.648 678.979 274.957L678.463 274.295C679.252 273.639 680.111 273.311 681.041 273.311C681.846 273.311 682.477 273.518 682.934 273.932C683.391 274.342 683.619 274.895 683.619 275.59C683.619 276.133 683.467 276.67 683.162 277.201C682.857 277.732 682.287 278.404 681.451 279.217L679.576 281.051V281.098H683.982V282ZM690.896 277.705C690.896 279.186 690.662 280.291 690.193 281.021C689.729 281.752 689.016 282.117 688.055 282.117C687.133 282.117 686.432 281.744 685.951 280.998C685.471 280.248 685.23 279.15 685.23 277.705C685.23 276.213 685.463 275.105 685.928 274.383C686.393 273.66 687.102 273.299 688.055 273.299C688.984 273.299 689.689 273.676 690.17 274.43C690.654 275.184 690.896 276.275 690.896 277.705ZM686.215 277.705C686.215 278.951 686.361 279.859 686.654 280.43C686.947 280.996 687.414 281.279 688.055 281.279C688.703 281.279 689.172 280.992 689.461 280.418C689.754 279.84 689.9 278.936 689.9 277.705C689.9 276.475 689.754 275.574 689.461 275.004C689.172 274.43 688.703 274.143 688.055 274.143C687.414 274.143 686.947 274.426 686.654 274.992C686.361 275.555 686.215 276.459 686.215 277.705ZM695.689 282H694.74V275.895C694.74 275.387 694.756 274.906 694.787 274.453C694.705 274.535 694.613 274.621 694.512 274.711C694.41 274.801 693.945 275.182 693.117 275.854L692.602 275.186L694.869 273.434H695.689V282ZM700.037 282L703.588 274.33H698.918V273.434H704.619V274.213L701.115 282H700.037ZM670.459 293.635C670.459 295.049 670.074 296.131 669.305 296.881C668.539 297.627 667.436 298 665.994 298H663.621V289.434H666.246C667.578 289.434 668.613 289.803 669.352 290.541C670.09 291.279 670.459 292.311 670.459 293.635ZM669.404 293.67C669.404 292.553 669.123 291.711 668.561 291.145C668.002 290.578 667.17 290.295 666.064 290.295H664.617V297.139H665.83C667.018 297.139 667.91 296.848 668.508 296.266C669.105 295.68 669.404 294.814 669.404 293.67ZM674.941 298.117C673.992 298.117 673.242 297.828 672.691 297.25C672.145 296.672 671.871 295.869 671.871 294.842C671.871 293.807 672.125 292.984 672.633 292.375C673.145 291.766 673.83 291.461 674.689 291.461C675.494 291.461 676.131 291.727 676.6 292.258C677.068 292.785 677.303 293.482 677.303 294.35V294.965H672.879C672.898 295.719 673.088 296.291 673.447 296.682C673.811 297.072 674.32 297.268 674.977 297.268C675.668 297.268 676.352 297.123 677.027 296.834V297.701C676.684 297.85 676.357 297.955 676.049 298.018C675.744 298.084 675.375 298.117 674.941 298.117ZM674.678 292.275C674.162 292.275 673.75 292.443 673.441 292.779C673.137 293.115 672.957 293.58 672.902 294.174H676.26C676.26 293.561 676.123 293.092 675.85 292.768C675.576 292.439 675.186 292.275 674.678 292.275ZM681.533 298.117C680.604 298.117 679.883 297.832 679.371 297.262C678.863 296.688 678.609 295.877 678.609 294.83C678.609 293.756 678.867 292.926 679.383 292.34C679.902 291.754 680.641 291.461 681.598 291.461C681.906 291.461 682.215 291.494 682.523 291.561C682.832 291.627 683.074 291.705 683.25 291.795L682.951 292.621C682.736 292.535 682.502 292.465 682.248 292.41C681.994 292.352 681.77 292.322 681.574 292.322C680.27 292.322 679.617 293.154 679.617 294.818C679.617 295.607 679.775 296.213 680.092 296.635C680.412 297.057 680.885 297.268 681.51 297.268C682.045 297.268 682.594 297.152 683.156 296.922V297.783C682.727 298.006 682.186 298.117 681.533 298.117ZM687.398 298.117C686.449 298.117 685.699 297.828 685.148 297.25C684.602 296.672 684.328 295.869 684.328 294.842C684.328 293.807 684.582 292.984 685.09 292.375C685.602 291.766 686.287 291.461 687.146 291.461C687.951 291.461 688.588 291.727 689.057 292.258C689.525 292.785 689.76 293.482 689.76 294.35V294.965H685.336C685.355 295.719 685.545 296.291 685.904 296.682C686.268 297.072 686.777 297.268 687.434 297.268C688.125 297.268 688.809 297.123 689.484 296.834V297.701C689.141 297.85 688.814 297.955 688.506 298.018C688.201 298.084 687.832 298.117 687.398 298.117ZM687.135 292.275C686.619 292.275 686.207 292.443 685.898 292.779C685.594 293.115 685.414 293.58 685.359 294.174H688.717C688.717 293.561 688.58 293.092 688.307 292.768C688.033 292.439 687.643 292.275 687.135 292.275ZM699.609 298V293.822C699.609 293.311 699.5 292.928 699.281 292.674C699.062 292.416 698.723 292.287 698.262 292.287C697.656 292.287 697.209 292.461 696.92 292.809C696.631 293.156 696.486 293.691 696.486 294.414V298H695.514V293.822C695.514 293.311 695.404 292.928 695.186 292.674C694.967 292.416 694.625 292.287 694.16 292.287C693.551 292.287 693.104 292.471 692.818 292.838C692.537 293.201 692.396 293.799 692.396 294.631V298H691.424V291.578H692.215L692.373 292.457H692.42C692.604 292.145 692.861 291.9 693.193 291.725C693.529 291.549 693.904 291.461 694.318 291.461C695.322 291.461 695.979 291.824 696.287 292.551H696.334C696.525 292.215 696.803 291.949 697.166 291.754C697.529 291.559 697.943 291.461 698.408 291.461C699.135 291.461 699.678 291.648 700.037 292.023C700.4 292.395 700.582 292.99 700.582 293.811V298H699.609ZM705.58 291.473C706.424 291.473 707.078 291.762 707.543 292.34C708.012 292.914 708.246 293.729 708.246 294.783C708.246 295.838 708.01 296.658 707.537 297.244C707.068 297.826 706.416 298.117 705.58 298.117C705.162 298.117 704.779 298.041 704.432 297.889C704.088 297.732 703.799 297.494 703.564 297.174H703.494L703.289 298H702.592V288.883H703.564V291.098C703.564 291.594 703.549 292.039 703.518 292.434H703.564C704.018 291.793 704.689 291.473 705.58 291.473ZM705.439 292.287C704.775 292.287 704.297 292.479 704.004 292.861C703.711 293.24 703.564 293.881 703.564 294.783C703.564 295.686 703.715 296.332 704.016 296.723C704.316 297.109 704.799 297.303 705.463 297.303C706.061 297.303 706.506 297.086 706.799 296.652C707.092 296.215 707.238 295.588 707.238 294.771C707.238 293.936 707.092 293.312 706.799 292.902C706.506 292.492 706.053 292.287 705.439 292.287ZM712.664 298.117C711.715 298.117 710.965 297.828 710.414 297.25C709.867 296.672 709.594 295.869 709.594 294.842C709.594 293.807 709.848 292.984 710.355 292.375C710.867 291.766 711.553 291.461 712.412 291.461C713.217 291.461 713.854 291.727 714.322 292.258C714.791 292.785 715.025 293.482 715.025 294.35V294.965H710.602C710.621 295.719 710.811 296.291 711.17 296.682C711.533 297.072 712.043 297.268 712.699 297.268C713.391 297.268 714.074 297.123 714.75 296.834V297.701C714.406 297.85 714.08 297.955 713.771 298.018C713.467 298.084 713.098 298.117 712.664 298.117ZM712.4 292.275C711.885 292.275 711.473 292.443 711.164 292.779C710.859 293.115 710.68 293.58 710.625 294.174H713.982C713.982 293.561 713.846 293.092 713.572 292.768C713.299 292.439 712.908 292.275 712.4 292.275ZM719.619 291.461C719.904 291.461 720.16 291.484 720.387 291.531L720.252 292.434C719.986 292.375 719.752 292.346 719.549 292.346C719.029 292.346 718.584 292.557 718.213 292.979C717.846 293.4 717.662 293.926 717.662 294.555V298H716.689V291.578H717.492L717.604 292.768H717.65C717.889 292.35 718.176 292.027 718.512 291.801C718.848 291.574 719.217 291.461 719.619 291.461Z" fill="white"/>
<rect x="78" y="81.9096" width="639" height="0.795238" fill="#33393F"/>
<rect x="78" y="122.467" width="639" height="0.795238" fill="#33393F"/>
<rect x="78" y="163.024" width="639" height="0.795238" fill="#33393F"/>
<rect x="78" y="203.581" width="639" height="0.795238" fill="#33393F"/>
<rect x="78" y="244.138" width="639" height="0.795238" fill="#33393F"/>
<g filter="url(#filter0_d)">
<path fill-rule="evenodd" clip-rule="evenodd" d="M466.695 134.395C464.499 134.395 462.719 136.175 462.719 138.371V162.229C462.719 164.425 464.499 166.205 466.695 166.205H491.908L494.045 168.845C494.204 169.041 494.504 169.041 494.663 168.845L496.799 166.205H522.362C524.558 166.205 526.338 164.425 526.338 162.229V138.371C526.338 136.175 524.558 134.395 522.362 134.395H466.695Z" fill="#1F2327"/>
</g>
<path d="M488.104 153.938H482.678V152.862L485.239 150.133C485.59 149.749 485.85 149.413 486.016 149.127C486.187 148.841 486.272 148.569 486.272 148.312C486.272 147.96 486.183 147.685 486.005 147.485C485.828 147.282 485.574 147.181 485.244 147.181C484.889 147.181 484.608 147.304 484.402 147.551C484.199 147.793 484.097 148.114 484.097 148.513H482.521C482.521 148.031 482.635 147.59 482.863 147.192C483.095 146.793 483.421 146.481 483.842 146.257C484.262 146.028 484.739 145.914 485.272 145.914C486.087 145.914 486.719 146.11 487.169 146.501C487.622 146.893 487.848 147.445 487.848 148.159C487.848 148.551 487.747 148.949 487.544 149.355C487.341 149.761 486.993 150.234 486.5 150.774L484.701 152.671H488.104V153.938ZM490.67 149.285H491.507C491.906 149.285 492.201 149.185 492.393 148.986C492.585 148.786 492.681 148.522 492.681 148.192C492.681 147.873 492.585 147.625 492.393 147.447C492.205 147.27 491.944 147.181 491.61 147.181C491.309 147.181 491.057 147.264 490.855 147.431C490.652 147.594 490.55 147.808 490.55 148.072H488.979C488.979 147.659 489.09 147.29 489.311 146.963C489.535 146.634 489.847 146.376 490.246 146.191C490.648 146.007 491.09 145.914 491.572 145.914C492.409 145.914 493.065 146.115 493.54 146.518C494.015 146.916 494.252 147.467 494.252 148.17C494.252 148.533 494.142 148.866 493.921 149.171C493.699 149.475 493.41 149.709 493.051 149.872C493.497 150.031 493.828 150.27 494.046 150.589C494.267 150.908 494.377 151.285 494.377 151.72C494.377 152.423 494.12 152.987 493.605 153.411C493.094 153.835 492.417 154.047 491.572 154.047C490.782 154.047 490.135 153.838 489.631 153.422C489.131 153.005 488.881 152.454 488.881 151.769H490.452C490.452 152.066 490.563 152.309 490.784 152.497C491.009 152.686 491.284 152.78 491.61 152.78C491.983 152.78 492.275 152.682 492.485 152.487C492.699 152.287 492.806 152.025 492.806 151.698C492.806 150.908 492.371 150.513 491.501 150.513H490.67V149.285ZM500.112 150.959H501.009V152.226H500.112V153.938H498.541V152.226H495.296L495.225 151.236L498.525 146.023H500.112V150.959ZM496.791 150.959H498.541V148.165L498.438 148.344L496.791 150.959ZM502.091 150.046L502.548 146.023H506.984V147.333H503.836L503.64 149.035C504.014 148.835 504.411 148.736 504.831 148.736C505.585 148.736 506.176 148.969 506.603 149.437C507.031 149.904 507.245 150.559 507.245 151.399C507.245 151.91 507.136 152.369 506.918 152.775C506.705 153.177 506.397 153.49 505.994 153.715C505.592 153.936 505.117 154.047 504.57 154.047C504.092 154.047 503.648 153.951 503.238 153.759C502.829 153.563 502.504 153.289 502.265 152.938C502.03 152.586 501.905 152.186 501.89 151.736H503.445C503.477 152.066 503.592 152.323 503.787 152.508C503.987 152.69 504.246 152.78 504.565 152.78C504.92 152.78 505.193 152.653 505.385 152.4C505.578 152.142 505.674 151.78 505.674 151.312C505.674 150.863 505.563 150.519 505.342 150.279C505.121 150.04 504.807 149.921 504.402 149.921C504.028 149.921 503.726 150.019 503.494 150.214L503.341 150.356L502.091 150.046Z" fill="white"/>
<path d="M607.129 37C610.995 37 614.129 33.866 614.129 30C614.129 26.134 610.995 23 607.129 23C603.263 23 600.129 26.134 600.129 30C600.129 33.866 603.263 37 607.129 37Z" fill="#1CD1A1"/>
<path d="M607.127 35.4443C610.133 35.4443 612.571 33.0067 612.571 29.9999C612.571 26.993 610.133 24.5554 607.127 24.5554C604.12 24.5554 601.682 26.993 601.682 29.9999C601.682 33.0067 604.12 35.4443 607.127 35.4443Z" stroke="#1CD1A1" stroke-width="2" stroke-miterlimit="10"/>
<g filter="url(#filter1_d)">
<path d="M593.174 54H592.178V45.4336H596.953V46.3184H593.174V49.4531H596.725V50.3379H593.174V54ZM599.203 54H598.23V44.8828H599.203V54ZM602.238 54H601.266V47.5781H602.238V54ZM601.184 45.8379C601.184 45.6152 601.238 45.4531 601.348 45.3516C601.457 45.2461 601.594 45.1934 601.758 45.1934C601.914 45.1934 602.049 45.2461 602.162 45.3516C602.275 45.457 602.332 45.6191 602.332 45.8379C602.332 46.0566 602.275 46.2207 602.162 46.3301C602.049 46.4355 601.914 46.4883 601.758 46.4883C601.594 46.4883 601.457 46.4355 601.348 46.3301C601.238 46.2207 601.184 46.0566 601.184 45.8379ZM609.557 47.5781V48.1934L608.367 48.334C608.477 48.4707 608.574 48.6504 608.66 48.873C608.746 49.0918 608.789 49.3398 608.789 49.6172C608.789 50.2461 608.574 50.748 608.145 51.123C607.715 51.498 607.125 51.6855 606.375 51.6855C606.184 51.6855 606.004 51.6699 605.836 51.6387C605.422 51.8574 605.215 52.1328 605.215 52.4648C605.215 52.6406 605.287 52.7715 605.432 52.8574C605.576 52.9395 605.824 52.9805 606.176 52.9805H607.312C608.008 52.9805 608.541 53.127 608.912 53.4199C609.287 53.7129 609.475 54.1387 609.475 54.6973C609.475 55.4082 609.189 55.9492 608.619 56.3203C608.049 56.6953 607.217 56.8828 606.123 56.8828C605.283 56.8828 604.635 56.7266 604.178 56.4141C603.725 56.1016 603.498 55.6602 603.498 55.0898C603.498 54.6992 603.623 54.3613 603.873 54.0762C604.123 53.791 604.475 53.5977 604.928 53.4961C604.764 53.4219 604.625 53.3066 604.512 53.1504C604.402 52.9941 604.348 52.8125 604.348 52.6055C604.348 52.3711 604.41 52.166 604.535 51.9902C604.66 51.8145 604.857 51.6445 605.127 51.4805C604.795 51.3438 604.523 51.1113 604.312 50.7832C604.105 50.4551 604.002 50.0801 604.002 49.6582C604.002 48.9551 604.213 48.4141 604.635 48.0352C605.057 47.6523 605.654 47.4609 606.428 47.4609C606.764 47.4609 607.066 47.5 607.336 47.5781H609.557ZM604.436 55.0781C604.436 55.4258 604.582 55.6895 604.875 55.8691C605.168 56.0488 605.588 56.1387 606.135 56.1387C606.951 56.1387 607.555 56.0156 607.945 55.7695C608.34 55.5273 608.537 55.1973 608.537 54.7793C608.537 54.4316 608.43 54.1895 608.215 54.0527C608 53.9199 607.596 53.8535 607.002 53.8535H605.836C605.395 53.8535 605.051 53.959 604.805 54.1699C604.559 54.3809 604.436 54.6836 604.436 55.0781ZM604.963 49.6348C604.963 50.084 605.09 50.4238 605.344 50.6543C605.598 50.8848 605.951 51 606.404 51C607.354 51 607.828 50.5391 607.828 49.6172C607.828 48.6523 607.348 48.1699 606.387 48.1699C605.93 48.1699 605.578 48.293 605.332 48.5391C605.086 48.7852 604.963 49.1504 604.963 49.6348ZM615.27 54V49.8457C615.27 49.3223 615.15 48.9316 614.912 48.6738C614.674 48.416 614.301 48.2871 613.793 48.2871C613.117 48.2871 612.623 48.4707 612.311 48.8379C612.002 49.2051 611.848 49.8066 611.848 50.6426V54H610.875V44.8828H611.848V47.6426C611.848 47.9746 611.832 48.25 611.801 48.4688H611.859C612.051 48.1602 612.322 47.918 612.674 47.7422C613.029 47.5625 613.434 47.4727 613.887 47.4727C614.672 47.4727 615.26 47.6602 615.65 48.0352C616.045 48.4062 616.242 48.998 616.242 49.8105V54H615.27ZM620.32 53.3145C620.492 53.3145 620.658 53.3027 620.818 53.2793C620.979 53.252 621.105 53.2246 621.199 53.1973V53.9414C621.094 53.9922 620.938 54.0332 620.73 54.0645C620.527 54.0996 620.344 54.1172 620.18 54.1172C618.938 54.1172 618.316 53.4629 618.316 52.1543V48.334H617.396V47.8652L618.316 47.4609L618.727 46.0898H619.289V47.5781H621.152V48.334H619.289V52.1133C619.289 52.5 619.381 52.7969 619.564 53.0039C619.748 53.2109 620 53.3145 620.32 53.3145Z" fill="white"/>
</g>
<path d="M699.129 37C702.995 37 706.129 33.866 706.129 30C706.129 26.134 702.995 23 699.129 23C695.263 23 692.129 26.134 692.129 30C692.129 33.866 695.263 37 699.129 37Z" fill="#DE5753"/>
<path d="M699.127 35.4443C702.133 35.4443 704.571 33.0067 704.571 29.9999C704.571 26.993 702.133 24.5554 699.127 24.5554C696.12 24.5554 693.682 26.993 693.682 29.9999C693.682 33.0067 696.12 35.4443 699.127 35.4443Z" stroke="#DE5753" stroke-width="2" stroke-miterlimit="10"/>
<g filter="url(#filter2_d)">
<path d="M688.953 54H684.178V45.4336H688.953V46.3184H685.174V49.0781H688.725V49.957H685.174V53.1094H688.953V54ZM692.117 54L689.68 47.5781H690.723L692.105 51.3867C692.418 52.2773 692.602 52.8555 692.656 53.1211H692.703C692.746 52.9141 692.881 52.4863 693.107 51.8379C693.338 51.1855 693.852 49.7656 694.648 47.5781H695.691L693.254 54H692.117ZM699.436 54.1172C698.486 54.1172 697.736 53.8281 697.186 53.25C696.639 52.6719 696.365 51.8691 696.365 50.8418C696.365 49.8066 696.619 48.9844 697.127 48.375C697.639 47.7656 698.324 47.4609 699.184 47.4609C699.988 47.4609 700.625 47.7266 701.094 48.2578C701.562 48.7852 701.797 49.4824 701.797 50.3496V50.9648H697.373C697.393 51.7188 697.582 52.291 697.941 52.6816C698.305 53.0723 698.814 53.2676 699.471 53.2676C700.162 53.2676 700.846 53.123 701.521 52.834V53.7012C701.178 53.8496 700.852 53.9551 700.543 54.0176C700.238 54.084 699.869 54.1172 699.436 54.1172ZM699.172 48.2754C698.656 48.2754 698.244 48.4434 697.936 48.7793C697.631 49.1152 697.451 49.5801 697.396 50.1738H700.754C700.754 49.5605 700.617 49.0918 700.344 48.7676C700.07 48.4395 699.68 48.2754 699.172 48.2754ZM707.855 54V49.8457C707.855 49.3223 707.736 48.9316 707.498 48.6738C707.26 48.416 706.887 48.2871 706.379 48.2871C705.707 48.2871 705.215 48.4688 704.902 48.832C704.59 49.1953 704.434 49.7949 704.434 50.6309V54H703.461V47.5781H704.252L704.41 48.457H704.457C704.656 48.1406 704.936 47.8965 705.295 47.7246C705.654 47.5488 706.055 47.4609 706.496 47.4609C707.27 47.4609 707.852 47.6484 708.242 48.0234C708.633 48.3945 708.828 48.9902 708.828 49.8105V54H707.855ZM712.906 53.3145C713.078 53.3145 713.244 53.3027 713.404 53.2793C713.564 53.252 713.691 53.2246 713.785 53.1973V53.9414C713.68 53.9922 713.523 54.0332 713.316 54.0645C713.113 54.0996 712.93 54.1172 712.766 54.1172C711.523 54.1172 710.902 53.4629 710.902 52.1543V48.334H709.982V47.8652L710.902 47.4609L711.312 46.0898H711.875V47.5781H713.738V48.334H711.875V52.1133C711.875 52.5 711.967 52.7969 712.15 53.0039C712.334 53.2109 712.586 53.3145 712.906 53.3145Z" fill="white"/>
</g>
<path opacity="0.1" d="M71.2095 322.867C69.8919 322.867 68.8237 321.799 68.8237 320.481C68.8237 319.163 69.8919 318.095 71.2094 318.095L705.809 318.095C707.127 318.095 708.195 319.163 708.195 320.481C708.195 321.799 707.127 322.867 705.809 322.867L71.2095 322.867Z" fill="white"/>
<path opacity="0.7" d="M71.5 323C70.1193 323 69 321.881 69 320.5C69 319.119 70.1193 318 71.5 318H290.5C291.881 318 293 319.119 293 320.5C293 321.881 291.881 323 290.5 323H71.5Z" fill="white"/>
<path d="M77.8237 164.217L162.119 102.96L259.536 189.664L378.026 122.467L494.528 190.857L607.055 221.076L714.809 221.076" stroke="#29CB97" stroke-width="0.795238"/>
<path d="M87.3667 225.076L171.662 163.819L268.681 207.955L387.569 183.326L485.781 212.726L593.138 189.664L714.412 189.664" stroke="#DE5753" stroke-width="0.795238"/>
<rect x="488.167" y="184.495" width="12.7238" height="12.7238" rx="6.3619" fill="white" stroke="#1CD1A1" stroke-width="3.18095"/>
<path opacity="0.1" d="M479.021 190.857C479.021 182.293 485.964 175.35 494.529 175.35C503.093 175.35 510.036 182.293 510.036 190.857C510.036 199.422 503.093 206.364 494.529 206.364C485.964 206.364 479.021 199.422 479.021 190.857Z" fill="url(#paint0_radial)" stroke="#1CD1A1" stroke-width="0.795238"/>
<path d="M28.1895 252H27.2402V245.895C27.2402 245.387 27.2559 244.906 27.2871 244.453C27.2051 244.535 27.1133 244.621 27.0117 244.711C26.9102 244.801 26.4453 245.182 25.6172 245.854L25.1016 245.186L27.3691 243.434H28.1895V252ZM37.1309 247.705C37.1309 249.186 36.8965 250.291 36.4277 251.021C35.9629 251.752 35.25 252.117 34.2891 252.117C33.3672 252.117 32.666 251.744 32.1855 250.998C31.7051 250.248 31.4648 249.15 31.4648 247.705C31.4648 246.213 31.6973 245.105 32.1621 244.383C32.627 243.66 33.3359 243.299 34.2891 243.299C35.2188 243.299 35.9238 243.676 36.4043 244.43C36.8887 245.184 37.1309 246.275 37.1309 247.705ZM32.4492 247.705C32.4492 248.951 32.5957 249.859 32.8887 250.43C33.1816 250.996 33.6484 251.279 34.2891 251.279C34.9375 251.279 35.4062 250.992 35.6953 250.418C35.9883 249.84 36.1348 248.936 36.1348 247.705C36.1348 246.475 35.9883 245.574 35.6953 245.004C35.4062 244.43 34.9375 244.143 34.2891 244.143C33.6484 244.143 33.1816 244.426 32.8887 244.992C32.5957 245.555 32.4492 246.459 32.4492 247.705ZM43.998 247.705C43.998 249.186 43.7637 250.291 43.2949 251.021C42.8301 251.752 42.1172 252.117 41.1562 252.117C40.2344 252.117 39.5332 251.744 39.0527 250.998C38.5723 250.248 38.332 249.15 38.332 247.705C38.332 246.213 38.5645 245.105 39.0293 244.383C39.4941 243.66 40.2031 243.299 41.1562 243.299C42.0859 243.299 42.791 243.676 43.2715 244.43C43.7559 245.184 43.998 246.275 43.998 247.705ZM39.3164 247.705C39.3164 248.951 39.4629 249.859 39.7559 250.43C40.0488 250.996 40.5156 251.279 41.1562 251.279C41.8047 251.279 42.2734 250.992 42.5625 250.418C42.8555 249.84 43.002 248.936 43.002 247.705C43.002 246.475 42.8555 245.574 42.5625 245.004C42.2734 244.43 41.8047 244.143 41.1562 244.143C40.5156 244.143 40.0488 244.426 39.7559 244.992C39.4629 245.555 39.3164 246.459 39.3164 247.705Z" fill="white"/>
<path d="M27.2637 205.768C28.166 205.768 28.875 205.992 29.3906 206.441C29.9102 206.887 30.1699 207.498 30.1699 208.275C30.1699 209.162 29.8867 209.857 29.3203 210.361C28.7578 210.865 27.9805 211.117 26.9883 211.117C26.0234 211.117 25.2871 210.963 24.7793 210.654V209.717C25.0527 209.893 25.3926 210.031 25.7988 210.133C26.2051 210.23 26.6055 210.279 27 210.279C27.6875 210.279 28.2207 210.117 28.5996 209.793C28.9824 209.469 29.1738 209 29.1738 208.387C29.1738 207.191 28.4414 206.594 26.9766 206.594C26.6055 206.594 26.1094 206.65 25.4883 206.764L24.9844 206.441L25.3066 202.434H29.5664V203.33H26.1387L25.9219 205.902C26.3711 205.812 26.8184 205.768 27.2637 205.768ZM37.1309 206.705C37.1309 208.186 36.8965 209.291 36.4277 210.021C35.9629 210.752 35.25 211.117 34.2891 211.117C33.3672 211.117 32.666 210.744 32.1855 209.998C31.7051 209.248 31.4648 208.15 31.4648 206.705C31.4648 205.213 31.6973 204.105 32.1621 203.383C32.627 202.66 33.3359 202.299 34.2891 202.299C35.2188 202.299 35.9238 202.676 36.4043 203.43C36.8887 204.184 37.1309 205.275 37.1309 206.705ZM32.4492 206.705C32.4492 207.951 32.5957 208.859 32.8887 209.43C33.1816 209.996 33.6484 210.279 34.2891 210.279C34.9375 210.279 35.4062 209.992 35.6953 209.418C35.9883 208.84 36.1348 207.936 36.1348 206.705C36.1348 205.475 35.9883 204.574 35.6953 204.004C35.4062 203.43 34.9375 203.143 34.2891 203.143C33.6484 203.143 33.1816 203.426 32.8887 203.992C32.5957 204.555 32.4492 205.459 32.4492 206.705ZM43.998 206.705C43.998 208.186 43.7637 209.291 43.2949 210.021C42.8301 210.752 42.1172 211.117 41.1562 211.117C40.2344 211.117 39.5332 210.744 39.0527 209.998C38.5723 209.248 38.332 208.15 38.332 206.705C38.332 205.213 38.5645 204.105 39.0293 203.383C39.4941 202.66 40.2031 202.299 41.1562 202.299C42.0859 202.299 42.791 202.676 43.2715 203.43C43.7559 204.184 43.998 205.275 43.998 206.705ZM39.3164 206.705C39.3164 207.951 39.4629 208.859 39.7559 209.43C40.0488 209.996 40.5156 210.279 41.1562 210.279C41.8047 210.279 42.2734 209.992 42.5625 209.418C42.8555 208.84 43.002 207.936 43.002 206.705C43.002 205.475 42.8555 204.574 42.5625 204.004C42.2734 203.43 41.8047 203.143 41.1562 203.143C40.5156 203.143 40.0488 203.426 39.7559 203.992C39.4629 204.555 39.3164 205.459 39.3164 206.705Z" fill="white"/>
<path d="M24.2637 124.768C25.166 124.768 25.875 124.992 26.3906 125.441C26.9102 125.887 27.1699 126.498 27.1699 127.275C27.1699 128.162 26.8867 128.857 26.3203 129.361C25.7578 129.865 24.9805 130.117 23.9883 130.117C23.0234 130.117 22.2871 129.963 21.7793 129.654V128.717C22.0527 128.893 22.3926 129.031 22.7988 129.133C23.2051 129.23 23.6055 129.279 24 129.279C24.6875 129.279 25.2207 129.117 25.5996 128.793C25.9824 128.469 26.1738 128 26.1738 127.387C26.1738 126.191 25.4414 125.594 23.9766 125.594C23.6055 125.594 23.1094 125.65 22.4883 125.764L21.9844 125.441L22.3066 121.434H26.5664V122.33H23.1387L22.9219 124.902C23.3711 124.812 23.8184 124.768 24.2637 124.768ZM34.1309 125.705C34.1309 127.186 33.8965 128.291 33.4277 129.021C32.9629 129.752 32.25 130.117 31.2891 130.117C30.3672 130.117 29.666 129.744 29.1855 128.998C28.7051 128.248 28.4648 127.15 28.4648 125.705C28.4648 124.213 28.6973 123.105 29.1621 122.383C29.627 121.66 30.3359 121.299 31.2891 121.299C32.2188 121.299 32.9238 121.676 33.4043 122.43C33.8887 123.184 34.1309 124.275 34.1309 125.705ZM29.4492 125.705C29.4492 126.951 29.5957 127.859 29.8887 128.43C30.1816 128.996 30.6484 129.279 31.2891 129.279C31.9375 129.279 32.4062 128.992 32.6953 128.418C32.9883 127.84 33.1348 126.936 33.1348 125.705C33.1348 124.475 32.9883 123.574 32.6953 123.004C32.4062 122.43 31.9375 122.143 31.2891 122.143C30.6484 122.143 30.1816 122.426 29.8887 122.992C29.5957 123.555 29.4492 124.459 29.4492 125.705ZM40.998 125.705C40.998 127.186 40.7637 128.291 40.2949 129.021C39.8301 129.752 39.1172 130.117 38.1562 130.117C37.2344 130.117 36.5332 129.744 36.0527 128.998C35.5723 128.248 35.332 127.15 35.332 125.705C35.332 124.213 35.5645 123.105 36.0293 122.383C36.4941 121.66 37.2031 121.299 38.1562 121.299C39.0859 121.299 39.791 121.676 40.2715 122.43C40.7559 123.184 40.998 124.275 40.998 125.705ZM36.3164 125.705C36.3164 126.951 36.4629 127.859 36.7559 128.43C37.0488 128.996 37.5156 129.279 38.1562 129.279C38.8047 129.279 39.2734 128.992 39.5625 128.418C39.8555 127.84 40.002 126.936 40.002 125.705C40.002 124.475 39.8555 123.574 39.5625 123.004C39.2734 122.43 38.8047 122.143 38.1562 122.143C37.5156 122.143 37.0488 122.426 36.7559 122.992C36.4629 123.555 36.3164 124.459 36.3164 125.705ZM47.8652 125.705C47.8652 127.186 47.6309 128.291 47.1621 129.021C46.6973 129.752 45.9844 130.117 45.0234 130.117C44.1016 130.117 43.4004 129.744 42.9199 128.998C42.4395 128.248 42.1992 127.15 42.1992 125.705C42.1992 124.213 42.4316 123.105 42.8965 122.383C43.3613 121.66 44.0703 121.299 45.0234 121.299C45.9531 121.299 46.6582 121.676 47.1387 122.43C47.623 123.184 47.8652 124.275 47.8652 125.705ZM43.1836 125.705C43.1836 126.951 43.3301 127.859 43.623 128.43C43.916 128.996 44.3828 129.279 45.0234 129.279C45.6719 129.279 46.1406 128.992 46.4297 128.418C46.7227 127.84 46.8691 126.936 46.8691 125.705C46.8691 124.475 46.7227 123.574 46.4297 123.004C46.1406 122.43 45.6719 122.143 45.0234 122.143C44.3828 122.143 43.916 122.426 43.623 122.992C43.3301 123.555 43.1836 124.459 43.1836 125.705Z" fill="white"/>
<path d="M25.1895 171H24.2402V164.895C24.2402 164.387 24.2559 163.906 24.2871 163.453C24.2051 163.535 24.1133 163.621 24.0117 163.711C23.9102 163.801 23.4453 164.182 22.6172 164.854L22.1016 164.186L24.3691 162.434H25.1895V171ZM34.1309 166.705C34.1309 168.186 33.8965 169.291 33.4277 170.021C32.9629 170.752 32.25 171.117 31.2891 171.117C30.3672 171.117 29.666 170.744 29.1855 169.998C28.7051 169.248 28.4648 168.15 28.4648 166.705C28.4648 165.213 28.6973 164.105 29.1621 163.383C29.627 162.66 30.3359 162.299 31.2891 162.299C32.2188 162.299 32.9238 162.676 33.4043 163.43C33.8887 164.184 34.1309 165.275 34.1309 166.705ZM29.4492 166.705C29.4492 167.951 29.5957 168.859 29.8887 169.43C30.1816 169.996 30.6484 170.279 31.2891 170.279C31.9375 170.279 32.4062 169.992 32.6953 169.418C32.9883 168.84 33.1348 167.936 33.1348 166.705C33.1348 165.475 32.9883 164.574 32.6953 164.004C32.4062 163.43 31.9375 163.143 31.2891 163.143C30.6484 163.143 30.1816 163.426 29.8887 163.992C29.5957 164.555 29.4492 165.459 29.4492 166.705ZM40.998 166.705C40.998 168.186 40.7637 169.291 40.2949 170.021C39.8301 170.752 39.1172 171.117 38.1562 171.117C37.2344 171.117 36.5332 170.744 36.0527 169.998C35.5723 169.248 35.332 168.15 35.332 166.705C35.332 165.213 35.5645 164.105 36.0293 163.383C36.4941 162.66 37.2031 162.299 38.1562 162.299C39.0859 162.299 39.791 162.676 40.2715 163.43C40.7559 164.184 40.998 165.275 40.998 166.705ZM36.3164 166.705C36.3164 167.951 36.4629 168.859 36.7559 169.43C37.0488 169.996 37.5156 170.279 38.1562 170.279C38.8047 170.279 39.2734 169.992 39.5625 169.418C39.8555 168.84 40.002 167.936 40.002 166.705C40.002 165.475 39.8555 164.574 39.5625 164.004C39.2734 163.43 38.8047 163.143 38.1562 163.143C37.5156 163.143 37.0488 163.426 36.7559 163.992C36.4629 164.555 36.3164 165.459 36.3164 166.705ZM47.8652 166.705C47.8652 168.186 47.6309 169.291 47.1621 170.021C46.6973 170.752 45.9844 171.117 45.0234 171.117C44.1016 171.117 43.4004 170.744 42.9199 169.998C42.4395 169.248 42.1992 168.15 42.1992 166.705C42.1992 165.213 42.4316 164.105 42.8965 163.383C43.3613 162.66 44.0703 162.299 45.0234 162.299C45.9531 162.299 46.6582 162.676 47.1387 163.43C47.623 164.184 47.8652 165.275 47.8652 166.705ZM43.1836 166.705C43.1836 167.951 43.3301 168.859 43.623 169.43C43.916 169.996 44.3828 170.279 45.0234 170.279C45.6719 170.279 46.1406 169.992 46.4297 169.418C46.7227 168.84 46.8691 167.936 46.8691 166.705C46.8691 165.475 46.7227 164.574 46.4297 164.004C46.1406 163.43 45.6719 163.143 45.0234 163.143C44.3828 163.143 43.916 163.426 43.623 163.992C43.3301 164.555 43.1836 165.459 43.1836 166.705Z" fill="white"/>
<path d="M19.1895 89H18.2402V82.8945C18.2402 82.3867 18.2559 81.9062 18.2871 81.4531C18.2051 81.5352 18.1133 81.6211 18.0117 81.7109C17.9102 81.8008 17.4453 82.1816 16.6172 82.8535L16.1016 82.1855L18.3691 80.4336H19.1895V89ZM28.1309 84.7051C28.1309 86.1855 27.8965 87.291 27.4277 88.0215C26.9629 88.752 26.25 89.1172 25.2891 89.1172C24.3672 89.1172 23.666 88.7441 23.1855 87.998C22.7051 87.248 22.4648 86.1504 22.4648 84.7051C22.4648 83.2129 22.6973 82.1055 23.1621 81.3828C23.627 80.6602 24.3359 80.2988 25.2891 80.2988C26.2188 80.2988 26.9238 80.6758 27.4043 81.4297C27.8887 82.1836 28.1309 83.2754 28.1309 84.7051ZM23.4492 84.7051C23.4492 85.9512 23.5957 86.8594 23.8887 87.4297C24.1816 87.9961 24.6484 88.2793 25.2891 88.2793C25.9375 88.2793 26.4062 87.9922 26.6953 87.418C26.9883 86.8398 27.1348 85.9355 27.1348 84.7051C27.1348 83.4746 26.9883 82.5742 26.6953 82.0039C26.4062 81.4297 25.9375 81.1426 25.2891 81.1426C24.6484 81.1426 24.1816 81.4258 23.8887 81.9922C23.5957 82.5547 23.4492 83.459 23.4492 84.7051ZM30.7852 87.6055L30.873 87.7402C30.7715 88.1309 30.625 88.584 30.4336 89.0996C30.2422 89.6191 30.043 90.1016 29.8359 90.5469H29.1035C29.209 90.1406 29.3242 89.6387 29.4492 89.041C29.5781 88.4434 29.668 87.9648 29.7188 87.6055H30.7852ZM37.9395 84.7051C37.9395 86.1855 37.7051 87.291 37.2363 88.0215C36.7715 88.752 36.0586 89.1172 35.0977 89.1172C34.1758 89.1172 33.4746 88.7441 32.9941 87.998C32.5137 87.248 32.2734 86.1504 32.2734 84.7051C32.2734 83.2129 32.5059 82.1055 32.9707 81.3828C33.4355 80.6602 34.1445 80.2988 35.0977 80.2988C36.0273 80.2988 36.7324 80.6758 37.2129 81.4297C37.6973 82.1836 37.9395 83.2754 37.9395 84.7051ZM33.2578 84.7051C33.2578 85.9512 33.4043 86.8594 33.6973 87.4297C33.9902 87.9961 34.457 88.2793 35.0977 88.2793C35.7461 88.2793 36.2148 87.9922 36.5039 87.418C36.7969 86.8398 36.9434 85.9355 36.9434 84.7051C36.9434 83.4746 36.7969 82.5742 36.5039 82.0039C36.2148 81.4297 35.7461 81.1426 35.0977 81.1426C34.457 81.1426 33.9902 81.4258 33.6973 81.9922C33.4043 82.5547 33.2578 83.459 33.2578 84.7051ZM44.8066 84.7051C44.8066 86.1855 44.5723 87.291 44.1035 88.0215C43.6387 88.752 42.9258 89.1172 41.9648 89.1172C41.043 89.1172 40.3418 88.7441 39.8613 87.998C39.3809 87.248 39.1406 86.1504 39.1406 84.7051C39.1406 83.2129 39.373 82.1055 39.8379 81.3828C40.3027 80.6602 41.0117 80.2988 41.9648 80.2988C42.8945 80.2988 43.5996 80.6758 44.0801 81.4297C44.5645 82.1836 44.8066 83.2754 44.8066 84.7051ZM40.125 84.7051C40.125 85.9512 40.2715 86.8594 40.5645 87.4297C40.8574 87.9961 41.3242 88.2793 41.9648 88.2793C42.6133 88.2793 43.082 87.9922 43.3711 87.418C43.6641 86.8398 43.8105 85.9355 43.8105 84.7051C43.8105 83.4746 43.6641 82.5742 43.3711 82.0039C43.082 81.4297 42.6133 81.1426 41.9648 81.1426C41.3242 81.1426 40.8574 81.4258 40.5645 81.9922C40.2715 82.5547 40.125 83.459 40.125 84.7051ZM51.6738 84.7051C51.6738 86.1855 51.4395 87.291 50.9707 88.0215C50.5059 88.752 49.793 89.1172 48.832 89.1172C47.9102 89.1172 47.209 88.7441 46.7285 87.998C46.248 87.248 46.0078 86.1504 46.0078 84.7051C46.0078 83.2129 46.2402 82.1055 46.7051 81.3828C47.1699 80.6602 47.8789 80.2988 48.832 80.2988C49.7617 80.2988 50.4668 80.6758 50.9473 81.4297C51.4316 82.1836 51.6738 83.2754 51.6738 84.7051ZM46.9922 84.7051C46.9922 85.9512 47.1387 86.8594 47.4316 87.4297C47.7246 87.9961 48.1914 88.2793 48.832 88.2793C49.4805 88.2793 49.9492 87.9922 50.2383 87.418C50.5312 86.8398 50.6777 85.9355 50.6777 84.7051C50.6777 83.4746 50.5312 82.5742 50.2383 82.0039C49.9492 81.4297 49.4805 81.1426 48.832 81.1426C48.1914 81.1426 47.7246 81.4258 47.4316 81.9922C47.1387 82.5547 46.9922 83.459 46.9922 84.7051Z" fill="white"/>
<rect x="376.038" y="120.876" width="3.18095" height="3.18095" rx="1.59048" fill="white" stroke="#1CD1A1" stroke-width="3.18095"/>
<rect x="258.343" y="187.676" width="3.18095" height="3.18095" rx="1.59048" fill="white" stroke="#1CD1A1" stroke-width="3.18095"/>
<rect x="160.528" y="101.791" width="3.18095" height="3.18095" rx="1.59048" fill="white" stroke="#1CD1A1" stroke-width="3.18095"/>
<rect x="76.2333" y="162.229" width="3.18095" height="3.18095" rx="1.59048" fill="white" stroke="#1CD1A1" stroke-width="3.18095"/>
<rect x="605.067" y="219.486" width="3.18095" height="3.18095" rx="1.59048" fill="white" stroke="#1CD1A1" stroke-width="3.18095"/>
<rect x="712.424" y="219.486" width="3.18095" height="3.18095" rx="1.59048" fill="white" stroke="#1CD1A1" stroke-width="3.18095"/>
<path d="M25.9375 40H19.5703V28.5781H25.9375V29.7578H20.8984V33.4375H25.6328V34.6094H20.8984V38.8125H25.9375V40ZM30.1562 40L26.9062 31.4375H28.2969L30.1406 36.5156C30.5573 37.7031 30.8021 38.474 30.875 38.8281H30.9375C30.9948 38.5521 31.1745 37.9818 31.4766 37.1172C31.7839 36.2474 32.4688 34.3542 33.5312 31.4375H34.9219L31.6719 40H30.1562ZM39.9141 40.1562C38.6484 40.1562 37.6484 39.7708 36.9141 39C36.1849 38.2292 35.8203 37.1589 35.8203 35.7891C35.8203 34.4089 36.1589 33.3125 36.8359 32.5C37.5182 31.6875 38.4323 31.2812 39.5781 31.2812C40.651 31.2812 41.5 31.6354 42.125 32.3438C42.75 33.0469 43.0625 33.9766 43.0625 35.1328V35.9531H37.1641C37.1901 36.9583 37.4427 37.7214 37.9219 38.2422C38.4062 38.763 39.0859 39.0234 39.9609 39.0234C40.8828 39.0234 41.7943 38.8307 42.6953 38.4453V39.6016C42.237 39.7995 41.8021 39.9401 41.3906 40.0234C40.9844 40.112 40.4922 40.1562 39.9141 40.1562ZM39.5625 32.3672C38.875 32.3672 38.3255 32.5911 37.9141 33.0391C37.5078 33.487 37.2682 34.1068 37.1953 34.8984H41.6719C41.6719 34.0807 41.4896 33.4557 41.125 33.0234C40.7604 32.5859 40.2396 32.3672 39.5625 32.3672ZM51.1406 40V34.4609C51.1406 33.763 50.9818 33.2422 50.6641 32.8984C50.3464 32.5547 49.849 32.3828 49.1719 32.3828C48.276 32.3828 47.6198 32.625 47.2031 33.1094C46.7865 33.5938 46.5781 34.3932 46.5781 35.5078V40H45.2812V31.4375H46.3359L46.5469 32.6094H46.6094C46.875 32.1875 47.2474 31.862 47.7266 31.6328C48.2057 31.3984 48.7396 31.2812 49.3281 31.2812C50.3594 31.2812 51.1354 31.5312 51.6562 32.0312C52.1771 32.526 52.4375 33.3203 52.4375 34.4141V40H51.1406ZM57.875 39.0859C58.1042 39.0859 58.3255 39.0703 58.5391 39.0391C58.7526 39.0026 58.9219 38.9661 59.0469 38.9297V39.9219C58.9062 39.9896 58.6979 40.0443 58.4219 40.0859C58.151 40.1328 57.9062 40.1562 57.6875 40.1562C56.0312 40.1562 55.2031 39.2839 55.2031 37.5391V32.4453H53.9766V31.8203L55.2031 31.2812L55.75 29.4531H56.5V31.4375H58.9844V32.4453H56.5V37.4844C56.5 38 56.6224 38.3958 56.8672 38.6719C57.112 38.9479 57.4479 39.0859 57.875 39.0859ZM66.7812 30.8516C66.7812 31.2109 66.875 31.5547 67.0625 31.8828C67.25 32.2057 67.5703 32.5964 68.0234 33.0547C68.6953 32.6641 69.1615 32.3047 69.4219 31.9766C69.6875 31.6432 69.8203 31.2604 69.8203 30.8281C69.8203 30.4271 69.6849 30.1016 69.4141 29.8516C69.1484 29.5964 68.7917 29.4688 68.3438 29.4688C67.8802 29.4688 67.5026 29.5938 67.2109 29.8438C66.9245 30.0938 66.7812 30.4297 66.7812 30.8516ZM67.9922 38.9922C69.2474 38.9922 70.2891 38.5911 71.1172 37.7891L67.7031 34.4766C67.125 34.8307 66.7161 35.125 66.4766 35.3594C66.237 35.5885 66.0599 35.8359 65.9453 36.1016C65.8307 36.3672 65.7734 36.6693 65.7734 37.0078C65.7734 37.6172 65.974 38.1016 66.375 38.4609C66.7812 38.8151 67.3203 38.9922 67.9922 38.9922ZM64.4297 37.0391C64.4297 36.362 64.6094 35.763 64.9688 35.2422C65.3333 34.7214 65.9844 34.1953 66.9219 33.6641C66.4792 33.1693 66.1771 32.7943 66.0156 32.5391C65.8594 32.2839 65.7344 32.0182 65.6406 31.7422C65.5469 31.4661 65.5 31.1797 65.5 30.8828C65.5 30.1016 65.7552 29.4922 66.2656 29.0547C66.776 28.6172 67.487 28.3984 68.3984 28.3984C69.2422 28.3984 69.9062 28.6172 70.3906 29.0547C70.875 29.487 71.1172 30.0911 71.1172 30.8672C71.1172 31.4245 70.9401 31.9401 70.5859 32.4141C70.2318 32.8828 69.6458 33.3594 68.8281 33.8438L72.0078 36.8984C72.2995 36.5755 72.5312 36.1979 72.7031 35.7656C72.8802 35.3281 73.0286 34.8516 73.1484 34.3359H74.4609C74.1068 35.8255 73.5729 36.9557 72.8594 37.7266L75.1953 40H73.4062L71.9609 38.6094C71.3464 39.1615 70.7214 39.5573 70.0859 39.7969C69.4505 40.0365 68.7422 40.1562 67.9609 40.1562C66.8411 40.1562 65.9714 39.8802 65.3516 39.3281C64.737 38.776 64.4297 38.013 64.4297 37.0391ZM82.2891 40H80.9609V28.5781H87.3281V29.7578H82.2891V33.9375H87.0234V35.1172H82.2891V40ZM90.3281 40H89.0312V27.8438H90.3281V40ZM94.375 40H93.0781V31.4375H94.375V40ZM92.9688 29.1172C92.9688 28.8203 93.0417 28.6042 93.1875 28.4688C93.3333 28.3281 93.5156 28.2578 93.7344 28.2578C93.9427 28.2578 94.1224 28.3281 94.2734 28.4688C94.4245 28.6094 94.5 28.8255 94.5 29.1172C94.5 29.4089 94.4245 29.6276 94.2734 29.7734C94.1224 29.9141 93.9427 29.9844 93.7344 29.9844C93.5156 29.9844 93.3333 29.9141 93.1875 29.7734C93.0417 29.6276 92.9688 29.4089 92.9688 29.1172ZM104.133 31.4375V32.2578L102.547 32.4453C102.693 32.6276 102.823 32.8672 102.938 33.1641C103.052 33.4557 103.109 33.7865 103.109 34.1562C103.109 34.9948 102.823 35.6641 102.25 36.1641C101.677 36.6641 100.891 36.9141 99.8906 36.9141C99.6354 36.9141 99.3958 36.8932 99.1719 36.8516C98.6198 37.1432 98.3438 37.5104 98.3438 37.9531C98.3438 38.1875 98.4401 38.362 98.6328 38.4766C98.8255 38.5859 99.1562 38.6406 99.625 38.6406H101.141C102.068 38.6406 102.779 38.8359 103.273 39.2266C103.773 39.6172 104.023 40.1849 104.023 40.9297C104.023 41.8776 103.643 42.599 102.883 43.0938C102.122 43.5938 101.013 43.8438 99.5547 43.8438C98.4349 43.8438 97.5703 43.6354 96.9609 43.2188C96.3568 42.8021 96.0547 42.2135 96.0547 41.4531C96.0547 40.9323 96.2214 40.4818 96.5547 40.1016C96.888 39.7214 97.3568 39.4635 97.9609 39.3281C97.7422 39.2292 97.5573 39.0755 97.4062 38.8672C97.2604 38.6589 97.1875 38.4167 97.1875 38.1406C97.1875 37.8281 97.2708 37.5547 97.4375 37.3203C97.6042 37.0859 97.8672 36.8594 98.2266 36.6406C97.7839 36.4583 97.4219 36.1484 97.1406 35.7109C96.8646 35.2734 96.7266 34.7734 96.7266 34.2109C96.7266 33.2734 97.0078 32.5521 97.5703 32.0469C98.1328 31.5365 98.9297 31.2812 99.9609 31.2812C100.409 31.2812 100.812 31.3333 101.172 31.4375H104.133ZM97.3047 41.4375C97.3047 41.901 97.5 42.2526 97.8906 42.4922C98.2812 42.7318 98.8411 42.8516 99.5703 42.8516C100.659 42.8516 101.464 42.6875 101.984 42.3594C102.51 42.0365 102.773 41.5964 102.773 41.0391C102.773 40.5755 102.63 40.2526 102.344 40.0703C102.057 39.8932 101.518 39.8047 100.727 39.8047H99.1719C98.5833 39.8047 98.125 39.9453 97.7969 40.2266C97.4688 40.5078 97.3047 40.9115 97.3047 41.4375ZM98.0078 34.1797C98.0078 34.7786 98.1771 35.2318 98.5156 35.5391C98.8542 35.8464 99.3255 36 99.9297 36C101.195 36 101.828 35.3854 101.828 34.1562C101.828 32.8698 101.188 32.2266 99.9062 32.2266C99.2969 32.2266 98.8281 32.3906 98.5 32.7188C98.1719 33.0469 98.0078 33.5339 98.0078 34.1797ZM111.75 40V34.4609C111.75 33.763 111.591 33.2422 111.273 32.8984C110.956 32.5547 110.458 32.3828 109.781 32.3828C108.88 32.3828 108.221 32.6276 107.805 33.1172C107.393 33.6068 107.188 34.4089 107.188 35.5234V40H105.891V27.8438H107.188V31.5234C107.188 31.9661 107.167 32.3333 107.125 32.625H107.203C107.458 32.2135 107.82 31.8906 108.289 31.6562C108.763 31.4167 109.302 31.2969 109.906 31.2969C110.953 31.2969 111.737 31.5469 112.258 32.0469C112.784 32.5417 113.047 33.3307 113.047 34.4141V40H111.75ZM118.484 39.0859C118.714 39.0859 118.935 39.0703 119.148 39.0391C119.362 39.0026 119.531 38.9661 119.656 38.9297V39.9219C119.516 39.9896 119.307 40.0443 119.031 40.0859C118.76 40.1328 118.516 40.1562 118.297 40.1562C116.641 40.1562 115.812 39.2839 115.812 37.5391V32.4453H114.586V31.8203L115.812 31.2812L116.359 29.4531H117.109V31.4375H119.594V32.4453H117.109V37.4844C117.109 38 117.232 38.3958 117.477 38.6719C117.721 38.9479 118.057 39.0859 118.484 39.0859ZM130.617 29.6016C129.362 29.6016 128.37 30.0208 127.641 30.8594C126.917 31.6927 126.555 32.8359 126.555 34.2891C126.555 35.7839 126.904 36.9401 127.602 37.7578C128.305 38.5703 129.305 38.9766 130.602 38.9766C131.398 38.9766 132.307 38.8333 133.328 38.5469V39.7109C132.536 40.0078 131.56 40.1562 130.398 40.1562C128.716 40.1562 127.417 39.6458 126.5 38.625C125.589 37.6042 125.133 36.1536 125.133 34.2734C125.133 33.0964 125.352 32.0651 125.789 31.1797C126.232 30.2943 126.867 29.612 127.695 29.1328C128.529 28.6536 129.508 28.4141 130.633 28.4141C131.831 28.4141 132.878 28.6328 133.773 29.0703L133.211 30.2109C132.346 29.8047 131.482 29.6016 130.617 29.6016ZM143.016 35.7109C143.016 37.1068 142.664 38.1979 141.961 38.9844C141.258 39.7656 140.286 40.1562 139.047 40.1562C138.281 40.1562 137.602 39.9766 137.008 39.6172C136.414 39.2578 135.956 38.7422 135.633 38.0703C135.31 37.3984 135.148 36.612 135.148 35.7109C135.148 34.3151 135.497 33.2292 136.195 32.4531C136.893 31.6719 137.862 31.2812 139.102 31.2812C140.299 31.2812 141.25 31.6797 141.953 32.4766C142.661 33.2734 143.016 34.3516 143.016 35.7109ZM136.492 35.7109C136.492 36.8047 136.711 37.638 137.148 38.2109C137.586 38.7839 138.229 39.0703 139.078 39.0703C139.927 39.0703 140.57 38.7865 141.008 38.2188C141.451 37.6458 141.672 36.8099 141.672 35.7109C141.672 34.6224 141.451 33.7969 141.008 33.2344C140.57 32.6667 139.922 32.3828 139.062 32.3828C138.214 32.3828 137.573 32.6615 137.141 33.2188C136.708 33.776 136.492 34.6068 136.492 35.7109ZM146.516 31.4375V36.9922C146.516 37.6901 146.674 38.2109 146.992 38.5547C147.31 38.8984 147.807 39.0703 148.484 39.0703C149.38 39.0703 150.034 38.8255 150.445 38.3359C150.862 37.8464 151.07 37.0469 151.07 35.9375V31.4375H152.367V40H151.297L151.109 38.8516H151.039C150.773 39.2734 150.404 39.5964 149.93 39.8203C149.461 40.0443 148.924 40.1562 148.32 40.1562C147.279 40.1562 146.497 39.9089 145.977 39.4141C145.461 38.9193 145.203 38.1276 145.203 37.0391V31.4375H146.516ZM160.984 40V34.4609C160.984 33.763 160.826 33.2422 160.508 32.8984C160.19 32.5547 159.693 32.3828 159.016 32.3828C158.12 32.3828 157.464 32.625 157.047 33.1094C156.63 33.5938 156.422 34.3932 156.422 35.5078V40H155.125V31.4375H156.18L156.391 32.6094H156.453C156.719 32.1875 157.091 31.862 157.57 31.6328C158.049 31.3984 158.583 31.2812 159.172 31.2812C160.203 31.2812 160.979 31.5312 161.5 32.0312C162.021 32.526 162.281 33.3203 162.281 34.4141V40H160.984ZM167.719 39.0859C167.948 39.0859 168.169 39.0703 168.383 39.0391C168.596 39.0026 168.766 38.9661 168.891 38.9297V39.9219C168.75 39.9896 168.542 40.0443 168.266 40.0859C167.995 40.1328 167.75 40.1562 167.531 40.1562C165.875 40.1562 165.047 39.2839 165.047 37.5391V32.4453H163.82V31.8203L165.047 31.2812L165.594 29.4531H166.344V31.4375H168.828V32.4453H166.344V37.4844C166.344 38 166.466 38.3958 166.711 38.6719C166.956 38.9479 167.292 39.0859 167.719 39.0859Z" fill="white"/>
<defs>
<filter id="filter0_d" x="454.767" y="130.419" width="79.5238" height="50.5016" filterUnits="userSpaceOnUse" color-interpolation-filters="sRGB">
<feFlood flood-opacity="0" result="BackgroundImageFix"/>
<feColorMatrix in="SourceAlpha" type="matrix" values="0 0 0 0 0 0 0 0 0 0 0 0 0 0 0 0 0 0 127 0"/>
<feOffset dy="3.97619"/>
<feGaussianBlur stdDeviation="3.97619"/>
<feColorMatrix type="matrix" values="0 0 0 0 0 0 0 0 0 0 0 0 0 0 0 0 0 0 0.01 0"/>
<feBlend mode="normal" in2="BackgroundImageFix" result="effect1_dropShadow"/>
<feBlend mode="normal" in="SourceGraphic" in2="effect1_dropShadow" result="shape"/>
</filter>
<filter id="filter1_d" x="586.178" y="41.8828" width="41.0215" height="24" filterUnits="userSpaceOnUse" color-interpolation-filters="sRGB">
<feFlood flood-opacity="0" result="BackgroundImageFix"/>
<feColorMatrix in="SourceAlpha" type="matrix" values="0 0 0 0 0 0 0 0 0 0 0 0 0 0 0 0 0 0 127 0"/>
<feOffset dy="3"/>
<feGaussianBlur stdDeviation="3"/>
<feColorMatrix type="matrix" values="0 0 0 0 0 0 0 0 0 0 0 0 0 0 0 0 0 0 0.161 0"/>
<feBlend mode="normal" in2="BackgroundImageFix" result="effect1_dropShadow"/>
<feBlend mode="normal" in="SourceGraphic" in2="effect1_dropShadow" result="shape"/>
</filter>
<filter id="filter2_d" x="678.178" y="42.4336" width="41.6074" height="20.6836" filterUnits="userSpaceOnUse" color-interpolation-filters="sRGB">
<feFlood flood-opacity="0" result="BackgroundImageFix"/>
<feColorMatrix in="SourceAlpha" type="matrix" values="0 0 0 0 0 0 0 0 0 0 0 0 0 0 0 0 0 0 127 0"/>
<feOffset dy="3"/>
<feGaussianBlur stdDeviation="3"/>
<feColorMatrix type="matrix" values="0 0 0 0 0 0 0 0 0 0 0 0 0 0 0 0 0 0 0.161 0"/>
<feBlend mode="normal" in2="BackgroundImageFix" result="effect1_dropShadow"/>
<feBlend mode="normal" in="SourceGraphic" in2="effect1_dropShadow" result="shape"/>
</filter>
<radialGradient id="paint0_radial" cx="0" cy="0" r="1" gradientUnits="userSpaceOnUse" gradientTransform="translate(494.529 190.857) rotate(90) scale(15.9048)">
<stop stop-color="#1CD1A1"/>
<stop offset="1" stop-color="#4072EE" stop-opacity="0.2"/>
</radialGradient>
</defs>
</svg>
