<svg width="148" height="160" viewBox="0 0 148 160" fill="none" xmlns="http://www.w3.org/2000/svg">
<rect opacity="0.7" width="147.992" height="159.764" rx="8.40864" fill="white" fill-opacity="0.02"/>
<path d="M52.689 122H45.5259V109.15H52.689V110.478H47.0201V114.617H52.3462V115.936H47.0201V120.664H52.689V122ZM57.4351 122L53.7789 112.367H55.3433L57.4175 118.08C57.8863 119.416 58.1617 120.283 58.2437 120.682H58.314C58.3785 120.371 58.5806 119.729 58.9205 118.757C59.2662 117.778 60.0367 115.648 61.232 112.367H62.7964L59.1402 122H57.4351ZM68.4126 122.176C66.9888 122.176 65.8638 121.742 65.0376 120.875C64.2173 120.008 63.8072 118.804 63.8072 117.263C63.8072 115.71 64.188 114.477 64.9498 113.562C65.7173 112.648 66.7457 112.191 68.0347 112.191C69.2417 112.191 70.1968 112.59 70.9 113.387C71.6031 114.178 71.9546 115.224 71.9546 116.524V117.447H65.3189C65.3482 118.578 65.6324 119.437 66.1714 120.022C66.7164 120.608 67.481 120.901 68.4654 120.901C69.5025 120.901 70.5279 120.685 71.5416 120.251V121.552C71.0259 121.774 70.5367 121.933 70.0738 122.026C69.6167 122.126 69.063 122.176 68.4126 122.176ZM68.0171 113.413C67.2437 113.413 66.6255 113.665 66.1626 114.169C65.7056 114.673 65.4361 115.37 65.3541 116.261H70.3902C70.3902 115.341 70.1851 114.638 69.775 114.151C69.3648 113.659 68.7789 113.413 68.0171 113.413ZM81.0425 122V115.769C81.0425 114.983 80.8638 114.397 80.5064 114.011C80.149 113.624 79.5894 113.431 78.8277 113.431C77.8199 113.431 77.0816 113.703 76.6128 114.248C76.1441 114.793 75.9097 115.692 75.9097 116.946V122H74.4507V112.367H75.6373L75.8746 113.686H75.9449C76.2437 113.211 76.6626 112.845 77.2017 112.587C77.7408 112.323 78.3414 112.191 79.0035 112.191C80.1636 112.191 81.0367 112.473 81.6226 113.035C82.2085 113.592 82.5015 114.485 82.5015 115.716V122H81.0425ZM88.6187 120.972C88.8765 120.972 89.1255 120.954 89.3658 120.919C89.606 120.878 89.7964 120.837 89.9371 120.796V121.912C89.7789 121.988 89.5445 122.05 89.2339 122.097C88.9292 122.149 88.6539 122.176 88.4078 122.176C86.5445 122.176 85.6128 121.194 85.6128 119.231V113.501H84.233V112.798L85.6128 112.191L86.2281 110.135H87.0718V112.367H89.8667V113.501H87.0718V119.17C87.0718 119.75 87.2095 120.195 87.4849 120.506C87.7603 120.816 88.1382 120.972 88.6187 120.972ZM98.0845 119.372C98.0845 120.269 97.7505 120.96 97.0826 121.446C96.4146 121.933 95.4771 122.176 94.2701 122.176C92.9927 122.176 91.9966 121.974 91.2818 121.569V120.216C91.7447 120.45 92.2398 120.635 92.7671 120.77C93.3003 120.904 93.813 120.972 94.3052 120.972C95.0669 120.972 95.6529 120.852 96.063 120.611C96.4732 120.365 96.6783 119.993 96.6783 119.495C96.6783 119.12 96.5142 118.801 96.1861 118.537C95.8638 118.268 95.231 117.951 94.2876 117.588C93.3912 117.254 92.7525 116.964 92.3716 116.718C91.9966 116.466 91.7154 116.182 91.5279 115.865C91.3462 115.549 91.2554 115.171 91.2554 114.731C91.2554 113.946 91.5748 113.328 92.2134 112.877C92.8521 112.42 93.7281 112.191 94.8414 112.191C95.8785 112.191 96.8921 112.402 97.8824 112.824L97.3638 114.011C96.397 113.612 95.521 113.413 94.7359 113.413C94.0445 113.413 93.523 113.521 93.1714 113.738C92.8199 113.955 92.6441 114.254 92.6441 114.635C92.6441 114.893 92.7085 115.112 92.8374 115.294C92.9722 115.476 93.1861 115.648 93.479 115.812C93.772 115.977 94.3345 116.214 95.1665 116.524C96.3091 116.94 97.0796 117.359 97.4781 117.781C97.8824 118.203 98.0845 118.733 98.0845 119.372ZM44.3879 140.098C44.0396 140.098 43.7206 140.034 43.4309 139.907C43.1444 139.777 42.9036 139.578 42.7083 139.312H42.6497C42.6887 139.624 42.7083 139.92 42.7083 140.2V142.402H41.8977V134.648H42.5569L42.6692 135.381H42.7083C42.9166 135.088 43.1591 134.876 43.4358 134.746C43.7125 134.616 44.0299 134.551 44.3879 134.551C45.0976 134.551 45.6444 134.793 46.0286 135.278C46.4159 135.763 46.6096 136.444 46.6096 137.319C46.6096 138.198 46.4127 138.882 46.0188 139.37C45.6282 139.855 45.0846 140.098 44.3879 140.098ZM44.2708 135.239C43.7239 135.239 43.3284 135.391 43.0842 135.693C42.8401 135.996 42.7148 136.478 42.7083 137.139V137.319C42.7083 138.071 42.8336 138.61 43.0842 138.936C43.3349 139.258 43.7369 139.419 44.2903 139.419C44.7525 139.419 45.1139 139.232 45.3743 138.857C45.6379 138.483 45.7698 137.967 45.7698 137.31C45.7698 136.642 45.6379 136.131 45.3743 135.776C45.1139 135.418 44.746 135.239 44.2708 135.239ZM50.2913 140.098C49.5002 140.098 48.8752 139.857 48.4163 139.375C47.9605 138.893 47.7327 138.224 47.7327 137.368C47.7327 136.506 47.9443 135.82 48.3674 135.312C48.7939 134.805 49.3652 134.551 50.0813 134.551C50.7519 134.551 51.2825 134.772 51.6731 135.215C52.0637 135.654 52.259 136.235 52.259 136.958V137.471H48.5725C48.5888 138.099 48.7467 138.576 49.0461 138.901C49.3489 139.227 49.7737 139.39 50.3206 139.39C50.8967 139.39 51.4664 139.269 52.0295 139.028V139.751C51.7431 139.875 51.4713 139.963 51.2141 140.015C50.9602 140.07 50.6526 140.098 50.2913 140.098ZM50.0715 135.229C49.6418 135.229 49.2984 135.369 49.0413 135.649C48.7874 135.929 48.6376 136.317 48.592 136.812H51.3899C51.3899 136.3 51.276 135.91 51.0481 135.64C50.8202 135.366 50.4947 135.229 50.0715 135.229ZM56.0872 134.551C56.3248 134.551 56.538 134.57 56.7268 134.609L56.6145 135.361C56.3931 135.312 56.1978 135.288 56.0286 135.288C55.5956 135.288 55.2245 135.464 54.9153 135.815C54.6093 136.167 54.4563 136.605 54.4563 137.129V140H53.6458V134.648H54.3147L54.4075 135.64H54.4465C54.6451 135.291 54.8844 135.023 55.1643 134.834C55.4443 134.645 55.7519 134.551 56.0872 134.551ZM64.9348 140L64.0461 137.729H61.1848L60.3059 140H59.4661L62.2883 132.832H62.9866L65.7942 140H64.9348ZM63.7874 136.982L62.9573 134.771C62.8499 134.491 62.7392 134.147 62.6252 133.74C62.5536 134.053 62.4511 134.396 62.3176 134.771L61.4778 136.982H63.7874ZM67.4641 140H66.6536V134.648H67.4641V140ZM66.5852 133.198C66.5852 133.013 66.6308 132.878 66.7219 132.793C66.8131 132.705 66.927 132.661 67.0637 132.661C67.1939 132.661 67.3062 132.705 67.4006 132.793C67.495 132.881 67.5422 133.016 67.5422 133.198C67.5422 133.381 67.495 133.517 67.4006 133.608C67.3062 133.696 67.1939 133.74 67.0637 133.74C66.927 133.74 66.8131 133.696 66.7219 133.608C66.6308 133.517 66.5852 133.381 66.5852 133.198ZM71.6243 134.551C71.8619 134.551 72.0751 134.57 72.2639 134.609L72.1516 135.361C71.9303 135.312 71.7349 135.288 71.5657 135.288C71.1327 135.288 70.7616 135.464 70.4524 135.815C70.1464 136.167 69.9934 136.605 69.9934 137.129V140H69.1829V134.648H69.8518L69.9446 135.64H69.9836C70.1822 135.291 70.4215 135.023 70.7014 134.834C70.9814 134.645 71.289 134.551 71.6243 134.551ZM75.4036 140.098C74.6288 140.098 74.0282 139.86 73.6018 139.385C73.1786 138.906 72.967 138.231 72.967 137.358C72.967 136.463 73.1819 135.771 73.6116 135.283C74.0445 134.795 74.6597 134.551 75.4573 134.551C75.7144 134.551 75.9716 134.578 76.2288 134.634C76.4859 134.689 76.6877 134.754 76.8342 134.829L76.5852 135.518C76.4062 135.446 76.2109 135.387 75.9993 135.342C75.7877 135.293 75.6005 135.269 75.4377 135.269C74.3505 135.269 73.8069 135.962 73.8069 137.349C73.8069 138.006 73.9387 138.511 74.2024 138.862C74.4693 139.214 74.8632 139.39 75.384 139.39C75.83 139.39 76.2874 139.294 76.7561 139.102V139.819C76.398 140.005 75.9472 140.098 75.4036 140.098ZM80.4719 134.551C80.7096 134.551 80.9228 134.57 81.1116 134.609L80.9993 135.361C80.7779 135.312 80.5826 135.288 80.4133 135.288C79.9804 135.288 79.6093 135.464 79.3 135.815C78.9941 136.167 78.8411 136.605 78.8411 137.129V140H78.0305V134.648H78.6995L78.7922 135.64H78.8313C79.0299 135.291 79.2691 135.023 79.5491 134.834C79.829 134.645 80.1366 134.551 80.4719 134.551ZM85.4036 140L85.2424 139.238H85.2034C84.9364 139.574 84.6695 139.801 84.4026 139.922C84.1389 140.039 83.8085 140.098 83.4114 140.098C82.8808 140.098 82.4641 139.961 82.1614 139.688C81.8619 139.414 81.7122 139.025 81.7122 138.521C81.7122 137.44 82.5764 136.873 84.3049 136.821L85.2131 136.792V136.46C85.2131 136.04 85.122 135.731 84.9397 135.532C84.7607 135.33 84.4726 135.229 84.0754 135.229C83.6295 135.229 83.1249 135.366 82.5618 135.64L82.3127 135.02C82.5764 134.876 82.8645 134.764 83.177 134.683C83.4928 134.601 83.8085 134.561 84.1243 134.561C84.7623 134.561 85.2343 134.702 85.5403 134.985C85.8495 135.269 86.0042 135.723 86.0042 136.348V140H85.4036ZM83.5725 139.429C84.0771 139.429 84.4726 139.29 84.759 139.014C85.0487 138.737 85.1936 138.35 85.1936 137.852V137.368L84.3831 137.402C83.7385 137.425 83.273 137.526 82.9866 137.705C82.7034 137.881 82.5618 138.156 82.5618 138.53C82.5618 138.823 82.6497 139.046 82.8254 139.199C83.0045 139.352 83.2535 139.429 83.5725 139.429ZM90.0911 135.278H88.7288V140H87.9182V135.278H86.9612V134.912L87.9182 134.619V134.321C87.9182 133.006 88.4928 132.349 89.6418 132.349C89.925 132.349 90.2571 132.406 90.6379 132.52L90.428 133.169C90.1155 133.068 89.8486 133.018 89.6272 133.018C89.3212 133.018 89.095 133.12 88.9485 133.325C88.802 133.527 88.7288 133.853 88.7288 134.302V134.648H90.0911V135.278ZM92.7961 139.429C92.9394 139.429 93.0777 139.419 93.2112 139.399C93.3446 139.377 93.4504 139.354 93.5286 139.331V139.951C93.4407 139.993 93.3105 140.028 93.1379 140.054C92.9687 140.083 92.8157 140.098 92.679 140.098C91.6438 140.098 91.1262 139.552 91.1262 138.462V135.278H90.3596V134.888L91.1262 134.551L91.468 133.408H91.9368V134.648H93.4895V135.278H91.9368V138.428C91.9368 138.75 92.0133 138.997 92.1663 139.17C92.3193 139.342 92.5292 139.429 92.7961 139.429ZM98.929 139.429C99.0722 139.429 99.2105 139.419 99.344 139.399C99.4775 139.377 99.5833 139.354 99.6614 139.331V139.951C99.5735 139.993 99.4433 140.028 99.2708 140.054C99.1015 140.083 98.9485 140.098 98.8118 140.098C97.7766 140.098 97.259 139.552 97.259 138.462V135.278H96.4924V134.888L97.259 134.551L97.6008 133.408H98.0696V134.648H99.6223V135.278H98.0696V138.428C98.0696 138.75 98.1461 138.997 98.2991 139.17C98.4521 139.342 98.662 139.429 98.929 139.429ZM103.226 140.098C102.878 140.098 102.559 140.034 102.269 139.907C101.982 139.777 101.741 139.578 101.546 139.312H101.488C101.527 139.624 101.546 139.92 101.546 140.2V142.402H100.736V134.648H101.395L101.507 135.381H101.546C101.754 135.088 101.997 134.876 102.274 134.746C102.55 134.616 102.868 134.551 103.226 134.551C103.935 134.551 104.482 134.793 104.866 135.278C105.254 135.763 105.448 136.444 105.448 137.319C105.448 138.198 105.251 138.882 104.857 139.37C104.466 139.855 103.922 140.098 103.226 140.098ZM103.109 135.239C102.562 135.239 102.166 135.391 101.922 135.693C101.678 135.996 101.553 136.478 101.546 137.139V137.319C101.546 138.071 101.671 138.61 101.922 138.936C102.173 139.258 102.575 139.419 103.128 139.419C103.59 139.419 103.952 139.232 104.212 138.857C104.476 138.483 104.608 137.967 104.608 137.31C104.608 136.642 104.476 136.131 104.212 135.776C103.952 135.418 103.584 135.239 103.109 135.239Z" fill="white"/>
<path fill-rule="evenodd" clip-rule="evenodd" d="M73.9447 20.1812C73.8745 20.1812 73.8043 20.1813 73.7341 20.1816L73.7369 21.0224C73.8061 21.0222 73.8754 21.0221 73.9447 21.0221C74.0141 21.0221 74.0834 21.0222 74.1527 21.0224L74.1554 20.1816C74.0852 20.1813 74.015 20.1812 73.9447 20.1812ZM71.2194 20.2387C71.0804 20.2445 70.9415 20.2509 70.8027 20.2576L70.8436 21.0975C70.9806 21.0908 71.1177 21.0846 71.2549 21.0788L71.2194 20.2387ZM77.0868 20.2576C76.948 20.2509 76.8091 20.2445 76.6701 20.2387L76.6346 21.0788C76.7718 21.0846 76.9089 21.0908 77.0459 21.0975L77.0868 20.2576ZM68.292 20.4295C68.1532 20.4417 68.0146 20.4544 67.876 20.4675L67.9554 21.3047C68.0921 21.2917 68.229 21.2792 68.3659 21.2671L68.292 20.4295ZM80.0135 20.4675C79.875 20.4544 79.7363 20.4417 79.5975 20.4295L79.5236 21.2671C79.6605 21.2792 79.7974 21.2917 79.9341 21.3047L80.0135 20.4675ZM65.3768 20.7545C65.2386 20.7731 65.1005 20.7922 64.9625 20.8118L65.0805 21.6443C65.2166 21.6251 65.3529 21.6062 65.4893 21.5878L65.3768 20.7545ZM82.927 20.8118C82.789 20.7922 82.6509 20.7731 82.5127 20.7545L82.4002 21.5878C82.5367 21.6062 82.6729 21.6251 82.8091 21.6443L82.927 20.8118ZM62.48 21.2138C62.3426 21.2389 62.2054 21.2643 62.0684 21.2903L62.2248 22.1165C62.36 22.0909 62.4953 22.0657 62.6309 22.041L62.48 21.2138ZM85.8211 21.2903C85.6841 21.2643 85.5469 21.2389 85.4095 21.2138L85.2587 22.041C85.3942 22.0657 85.5295 22.0909 85.6647 22.1165L85.8211 21.2903ZM59.6076 21.8069C59.4715 21.8383 59.3356 21.8702 59.1998 21.9025L59.3944 22.7205C59.5283 22.6887 59.6625 22.6572 59.7967 22.6262L59.6076 21.8069ZM88.6897 21.9025C88.5539 21.8702 88.418 21.8384 88.2819 21.8069L88.0928 22.6262C88.227 22.6572 88.3612 22.6887 88.4951 22.7205L88.6897 21.9025ZM56.766 22.5329C56.6314 22.5707 56.4971 22.6088 56.3629 22.6474L56.5953 23.4555C56.7277 23.4174 56.8603 23.3798 56.993 23.3426L56.766 22.5329ZM91.5266 22.6474C91.3924 22.6088 91.2581 22.5707 91.1235 22.5329L90.8965 23.3426C91.0292 23.3798 91.1618 23.4174 91.2942 23.4555L91.5266 22.6474ZM53.9612 23.3904C53.8285 23.4343 53.696 23.4787 53.5637 23.5236L53.8335 24.32C53.9641 24.2757 54.0948 24.2319 54.2257 24.1886L53.9612 23.3904ZM94.3258 23.5236C94.1935 23.4787 94.061 23.4343 93.9283 23.3904L93.6638 24.1886C93.7947 24.2319 93.9254 24.2757 94.056 24.32L94.3258 23.5236ZM51.1994 24.3775C51.0689 24.4276 50.9386 24.4781 50.8085 24.529L51.115 25.312C51.2434 25.2617 51.372 25.2119 51.5008 25.1625L51.1994 24.3775ZM97.081 24.529C96.9509 24.4781 96.8206 24.4276 96.6901 24.3775L96.3887 25.1625C96.5175 25.2119 96.6461 25.2618 96.7745 25.312L97.081 24.529ZM48.4865 25.4919C48.3584 25.548 48.2306 25.6046 48.103 25.6615L48.4456 26.4294C48.5715 26.3732 48.6976 26.3175 48.824 26.2621L48.4865 25.4919ZM99.7865 25.6615C99.6589 25.6046 99.5311 25.5481 99.403 25.4919L99.0655 26.2621C99.1918 26.3175 99.318 26.3732 99.4439 26.4294L99.7865 25.6615ZM45.8282 26.7312C45.7029 26.7932 45.5779 26.8556 45.453 26.9184L45.8309 27.6696C45.9541 27.6076 46.0775 27.5461 46.2011 27.4849L45.8282 26.7312ZM102.436 26.9184C102.312 26.8556 102.187 26.7932 102.061 26.7312L101.688 27.4849C101.812 27.5461 101.935 27.6076 102.059 27.6696L102.436 26.9184ZM43.2303 28.0924C43.108 28.1602 42.986 28.2283 42.8641 28.2968L43.2764 29.0297C43.3966 28.9621 43.517 28.8949 43.6377 28.828L43.2303 28.0924ZM105.025 28.2968C104.904 28.2283 104.781 28.1602 104.659 28.0924L104.252 28.828C104.372 28.8949 104.493 28.9621 104.613 29.0297L105.025 28.2968ZM40.6981 29.5724C40.5791 29.6457 40.4603 29.7194 40.3418 29.7935L40.7875 30.5065C40.9045 30.4334 41.0217 30.3607 41.1391 30.2884L40.6981 29.5724ZM107.548 29.7935C107.429 29.7194 107.31 29.6457 107.191 29.5724L106.75 30.2884C106.868 30.3607 106.985 30.4334 107.102 30.5065L107.548 29.7935ZM38.237 31.1677C38.1215 31.2465 38.0063 31.3255 37.8913 31.405L38.3694 32.0967C38.4828 32.0183 38.5966 31.9403 38.7105 31.8626L38.237 31.1677ZM109.998 31.405C109.883 31.3256 109.768 31.2465 109.652 31.1678L109.179 31.8626C109.293 31.9403 109.407 32.0183 109.52 32.0967L109.998 31.405ZM35.852 32.8748C35.7403 32.9588 35.6288 33.0431 35.5176 33.1277L36.0271 33.7967C36.1368 33.7132 36.2468 33.63 36.357 33.5471L35.852 32.8748ZM112.372 33.1277C112.261 33.0431 112.149 32.9588 112.037 32.8748L111.532 33.5471C111.643 33.63 111.753 33.7132 111.862 33.7967L112.372 33.1277ZM33.5481 34.6899C33.4403 34.7788 33.3329 34.8681 33.2257 34.9578L33.7654 35.6027C33.8711 35.5142 33.9771 35.426 34.0835 35.3382L33.5481 34.6899ZM114.664 34.9578C114.557 34.8681 114.449 34.7788 114.341 34.6899L113.806 35.3382C113.912 35.426 114.018 35.5142 114.124 35.6027L114.664 34.9578ZM31.3299 36.6089C31.2264 36.7027 31.1232 36.7968 31.0203 36.8913L31.589 37.5107C31.6905 37.4174 31.7924 37.3246 31.8945 37.232L31.3299 36.6089ZM116.869 36.8913C116.766 36.7968 116.663 36.7027 116.56 36.6089L115.995 37.232C116.097 37.3246 116.199 37.4175 116.3 37.5107L116.869 36.8913ZM29.2023 38.6277C29.1032 38.7262 29.0044 38.8249 28.906 38.924L29.5025 39.5166C29.5997 39.4188 29.6971 39.3214 29.7949 39.2242L29.2023 38.6277ZM118.984 38.924C118.885 38.8249 118.786 38.7262 118.687 38.6277L118.095 39.2243C118.192 39.3214 118.29 39.4189 118.387 39.5166L118.984 38.924ZM27.1696 40.7421C27.0751 40.8449 26.9809 40.9481 26.8872 41.0517L27.5103 41.6163C27.6028 41.5141 27.6957 41.4123 27.7889 41.3107L27.1696 40.7421ZM121.002 41.0517C120.909 40.9482 120.814 40.8449 120.72 40.7421L120.101 41.3108C120.194 41.4123 120.287 41.5141 120.379 41.6163L121.002 41.0517ZM25.2361 42.9475C25.1464 43.0546 25.0571 43.1621 24.9681 43.2698L25.6165 43.8052C25.7043 43.6989 25.7924 43.5929 25.8809 43.4871L25.2361 42.9475ZM122.921 43.2698C122.832 43.1621 122.743 43.0546 122.653 42.9475L122.009 43.4871C122.097 43.5929 122.185 43.6989 122.273 43.8052L122.921 43.2698ZM23.406 45.2394C23.3213 45.3505 23.237 45.462 23.1531 45.5737L23.8254 46.0788C23.9082 45.9685 23.9914 45.8585 24.075 45.7488L23.406 45.2394ZM124.736 45.5737C124.652 45.462 124.568 45.3506 124.484 45.2394L123.815 45.7488C123.898 45.8585 123.981 45.9685 124.064 46.0788L124.736 45.5737ZM21.6833 47.613C21.6038 47.728 21.5247 47.8432 21.446 47.9587L22.1409 48.4323C22.2185 48.3183 22.2966 48.2046 22.375 48.0911L21.6833 47.613ZM126.443 47.9587C126.365 47.8432 126.286 47.728 126.206 47.6131L125.514 48.0911C125.593 48.2046 125.671 48.3183 125.749 48.4323L126.443 47.9587ZM20.0718 50.0636C19.9977 50.1821 19.924 50.3008 19.8507 50.4199L20.5666 50.8608C20.639 50.7434 20.7117 50.6262 20.7848 50.5093L20.0718 50.0636ZM128.039 50.4199C127.965 50.3009 127.892 50.1821 127.818 50.0636L127.105 50.5093C127.178 50.6262 127.251 50.7434 127.323 50.8609L128.039 50.4199ZM18.5751 52.5859C18.5066 52.7077 18.4384 52.8297 18.3707 52.952L19.1063 53.3594C19.1731 53.2388 19.2403 53.1183 19.308 52.9981L18.5751 52.5859ZM129.519 52.9521C129.451 52.8298 129.383 52.7077 129.314 52.5859L128.582 52.9981C128.649 53.1183 128.716 53.2388 128.783 53.3595L129.519 52.9521ZM17.1967 55.1747C17.1339 55.2996 17.0715 55.4247 17.0095 55.55L17.7631 55.9229C17.8243 55.7992 17.8859 55.6758 17.9479 55.5526L17.1967 55.1747ZM130.788 55.3641C130.756 55.3009 130.725 55.2378 130.693 55.1747L129.942 55.5526C129.985 55.6389 130.028 55.7253 130.071 55.8118C130.09 55.8488 130.108 55.8858 130.126 55.9229L130.88 55.55C130.849 55.488 130.819 55.426 130.788 55.3641ZM15.9398 57.8247C15.8828 57.9523 15.8263 58.0802 15.7702 58.2082L16.5403 58.5457C16.5957 58.4194 16.6515 58.2932 16.7077 58.1673L15.9398 57.8247ZM132.119 58.2082C132.063 58.0802 132.007 57.9523 131.95 57.8247L131.182 58.1673C131.238 58.2933 131.294 58.4194 131.349 58.5457L132.119 58.2082ZM14.8073 60.5302C14.7563 60.6603 14.7058 60.7906 14.6557 60.9211L15.4407 61.2225C15.4902 61.0937 15.54 60.9651 15.5903 60.8368L14.8073 60.5302ZM133.234 60.9212C133.184 60.7906 133.133 60.6603 133.082 60.5302L132.299 60.8368C132.349 60.9651 132.399 61.0937 132.449 61.2225L133.234 60.9212ZM13.8018 63.2855C13.757 63.4178 13.7126 63.5503 13.6686 63.683L14.4668 63.9474C14.5102 63.8165 14.554 63.6858 14.5982 63.5553L13.8018 63.2855ZM134.221 63.683C134.196 63.609 134.172 63.5352 134.147 63.4613L134.088 63.2855L133.291 63.5553C133.335 63.6858 133.379 63.8165 133.423 63.9475L134.221 63.683ZM12.9257 66.0846C12.8871 66.2188 12.8489 66.3532 12.8112 66.4877L13.6208 66.7148C13.658 66.582 13.6957 66.4494 13.7338 66.317L12.9257 66.0846ZM135.078 66.4877C135.041 66.3532 135.002 66.2188 134.964 66.0846L134.156 66.317C134.181 66.4044 134.206 66.4918 134.231 66.5793C134.243 66.6244 134.256 66.6696 134.269 66.7148L135.078 66.4877ZM12.1808 68.9215C12.1485 69.0573 12.1166 69.1932 12.0852 69.3293L12.9045 69.5185C12.9355 69.3842 12.9669 69.2501 12.9988 69.1161L12.1808 68.9215ZM135.737 69.0415C135.728 69.0015 135.718 68.9615 135.709 68.9215L134.891 69.1161C134.923 69.2501 134.954 69.3842 134.985 69.5185L135.804 69.3294C135.782 69.2333 135.76 69.1374 135.737 69.0415ZM11.5685 71.7901C11.5426 71.9272 11.5171 72.0644 11.4921 72.2017L12.3193 72.3526C12.344 72.2171 12.3692 72.0817 12.3947 71.9465L11.5685 71.7901ZM136.397 72.2017C136.372 72.0644 136.347 71.9272 136.321 71.7902L135.495 71.9465C135.512 72.0394 135.53 72.1324 135.547 72.2254C135.555 72.2678 135.562 72.3102 135.57 72.3526L136.397 72.2017ZM11.09 74.6843C11.0705 74.8222 11.0514 74.9603 11.0328 75.0986L11.8661 75.211C11.8845 75.0746 11.9033 74.9383 11.9226 74.8022L11.09 74.6843ZM136.857 75.0986C136.838 74.9603 136.819 74.8222 136.799 74.6843L135.967 74.8022C135.986 74.9383 136.005 75.0746 136.023 75.211L136.857 75.0986ZM10.7458 77.5977C10.7327 77.7363 10.72 77.8749 10.7077 78.0137L11.5453 78.0877C11.5574 77.9507 11.5699 77.8138 11.5829 77.6771L10.7458 77.5977ZM137.182 78.0138C137.17 77.875 137.157 77.7363 137.144 77.5977L136.307 77.6771C136.32 77.8139 136.332 77.9507 136.344 78.0877L137.182 78.0138ZM10.5359 80.5244C10.5291 80.6632 10.5228 80.8021 10.5169 80.9411L11.357 80.9766C11.3628 80.8394 11.3691 80.7023 11.3757 80.5653L10.5359 80.5244ZM137.373 80.9412C137.367 80.8021 137.36 80.6632 137.354 80.5244L136.514 80.5654C136.52 80.7023 136.527 80.8394 136.532 80.9767L137.373 80.9412ZM10.4598 83.4558C10.4596 83.526 10.4595 83.5962 10.4595 83.6665C10.4595 83.7367 10.4596 83.8069 10.4598 83.8771L11.3007 83.8744C11.3004 83.8051 11.3003 83.7358 11.3003 83.6665C11.3003 83.5971 11.3004 83.5278 11.3007 83.4586L10.4598 83.4558ZM137.43 83.6665L137.43 83.5838L137.43 83.4559L136.589 83.4586C136.589 83.5279 136.589 83.5972 136.589 83.6665C136.589 83.7358 136.589 83.8051 136.589 83.8744L137.43 83.8771C137.43 83.8069 137.43 83.7367 137.43 83.6665ZM10.5169 86.3918C10.5228 86.5308 10.5291 86.6697 10.5359 86.8085L11.3757 86.7676C11.3691 86.6306 11.3628 86.4935 11.357 86.3563L10.5169 86.3918ZM137.354 86.8086C137.36 86.6698 137.367 86.5309 137.373 86.3918L136.532 86.3563C136.527 86.4936 136.52 86.6306 136.514 86.7676L137.354 86.8086ZM10.7077 89.3192C10.72 89.458 10.7327 89.5967 10.7458 89.7352L11.5829 89.6558C11.5699 89.5191 11.5574 89.3823 11.5453 89.2453L10.7077 89.3192ZM137.144 89.7352C137.155 89.6177 137.166 89.5 137.176 89.3823L137.182 89.3192L136.344 89.2453C136.332 89.3823 136.32 89.5191 136.307 89.6559L137.144 89.7352ZM11.0328 92.2344C11.0514 92.3726 11.0705 92.5107 11.09 92.6487L11.9226 92.5308C11.9033 92.3946 11.8845 92.2584 11.8661 92.122L11.0328 92.2344ZM136.799 92.6487C136.819 92.5107 136.838 92.3727 136.857 92.2344L136.023 92.122C136.005 92.2584 135.986 92.3947 135.967 92.5308L136.799 92.6487ZM11.4921 95.1313C11.5171 95.2686 11.5426 95.4058 11.5685 95.5428L12.3947 95.3865C12.3691 95.2512 12.344 95.1159 12.3193 94.9804L11.4921 95.1313ZM136.371 95.2774C136.38 95.2287 136.389 95.18 136.397 95.1313L135.57 94.9804C135.545 95.1159 135.52 95.2513 135.495 95.3865L136.321 95.5428C136.338 95.4544 136.354 95.3659 136.371 95.2774ZM12.0852 98.0036C12.1166 98.1397 12.1485 98.2757 12.1808 98.4114L12.9988 98.2169C12.9669 98.0829 12.9355 97.9488 12.9045 97.8145L12.0852 98.0036ZM135.709 98.4114C135.726 98.3371 135.744 98.2626 135.761 98.1881L135.804 98.0036L134.985 97.8145C134.972 97.8725 134.958 97.9305 134.945 97.9885C134.927 98.0647 134.909 98.1408 134.891 98.2169L135.709 98.4114ZM12.8112 100.845C12.8489 100.98 12.8871 101.114 12.9257 101.248L13.7338 101.016C13.6957 100.884 13.658 100.751 13.6208 100.618L12.8112 100.845ZM134.964 101.248C135.002 101.114 135.041 100.98 135.078 100.845L134.269 100.618L134.217 100.801C134.207 100.836 134.197 100.871 134.187 100.906C134.177 100.942 134.166 100.979 134.156 101.016L134.964 101.248ZM13.6686 103.65C13.7126 103.783 13.757 103.915 13.8018 104.047L14.5982 103.778C14.554 103.647 14.5102 103.516 14.4668 103.386L13.6686 103.65ZM134.088 104.047L134.134 103.911C134.163 103.824 134.192 103.737 134.221 103.65L133.423 103.386C133.379 103.516 133.335 103.647 133.291 103.778L134.088 104.047ZM14.6557 106.412C14.7058 106.542 14.7563 106.673 14.8073 106.803L15.5903 106.496C15.54 106.368 15.4902 106.239 15.4407 106.11L14.6557 106.412ZM133.082 106.803C133.133 106.673 133.184 106.542 133.234 106.412L132.449 106.11C132.399 106.239 132.349 106.368 132.299 106.496L133.082 106.803ZM15.7702 109.125C15.8263 109.253 15.8828 109.381 15.9398 109.508L16.7077 109.166C16.6515 109.04 16.5957 108.914 16.5403 108.787L15.7702 109.125ZM131.95 109.508C132.007 109.381 132.063 109.253 132.119 109.125L131.349 108.787C131.294 108.914 131.238 109.04 131.182 109.166L131.95 109.508ZM17.0095 111.783C17.0715 111.908 17.1339 112.033 17.1967 112.158L17.9479 111.78C17.8859 111.657 17.8243 111.534 17.7631 111.41L17.0095 111.783ZM130.693 112.158C130.756 112.033 130.818 111.908 130.88 111.783L130.126 111.41C130.065 111.534 130.004 111.657 129.942 111.78L130.693 112.158ZM18.3707 114.381C18.4384 114.503 18.5066 114.625 18.5751 114.747L19.3079 114.335C19.2403 114.215 19.1731 114.094 19.1063 113.974L18.3707 114.381ZM129.314 114.747C129.383 114.625 129.451 114.503 129.519 114.381L128.783 113.974C128.716 114.094 128.649 114.215 128.582 114.335L129.314 114.747ZM19.8507 116.913C19.924 117.032 19.9977 117.151 20.0717 117.269L20.7848 116.824C20.7117 116.707 20.639 116.59 20.5666 116.472L19.8507 116.913ZM127.818 117.269C127.892 117.151 127.965 117.032 128.039 116.913L127.323 116.472C127.251 116.59 127.178 116.707 127.105 116.824L127.818 117.269ZM21.446 119.374C21.5247 119.49 21.6038 119.605 21.6833 119.72L22.375 119.242C22.2966 119.128 22.2185 119.015 22.1409 118.901L21.446 119.374ZM126.206 119.72C126.286 119.605 126.365 119.49 126.443 119.374L125.749 118.901C125.671 119.015 125.593 119.128 125.514 119.242L126.206 119.72ZM23.1531 121.759C23.237 121.871 23.3213 121.982 23.406 122.094L24.075 121.584C23.9914 121.474 23.9082 121.364 23.8254 121.254L23.1531 121.759ZM124.483 122.094L124.556 121.998C124.616 121.919 124.676 121.839 124.736 121.759L124.064 121.254C124.004 121.334 123.945 121.413 123.885 121.492L123.815 121.584L124.483 122.094ZM24.9681 124.063C25.0571 124.171 25.1464 124.278 25.2361 124.385L25.8809 123.846C25.7924 123.74 25.7043 123.634 25.6165 123.528L24.9681 124.063ZM122.653 124.385C122.743 124.278 122.832 124.171 122.921 124.063L122.273 123.528C122.185 123.634 122.097 123.74 122.009 123.846L122.653 124.385ZM26.8871 126.281C26.9809 126.385 27.0751 126.488 27.1695 126.591L27.7889 126.022C27.6957 125.921 27.6028 125.819 27.5103 125.717L26.8871 126.281ZM120.72 126.591L120.832 126.469C120.889 126.407 120.946 126.344 121.002 126.281L120.379 125.717C120.334 125.766 120.289 125.816 120.244 125.866C120.222 125.889 120.201 125.913 120.179 125.936C120.153 125.965 120.127 125.994 120.101 126.022L120.72 126.591ZM28.906 128.409C29.0044 128.508 29.1032 128.607 29.2023 128.705L29.7949 128.109C29.6971 128.012 29.5996 127.914 29.5025 127.816L28.906 128.409ZM118.687 128.705L118.768 128.625C118.792 128.601 118.817 128.576 118.841 128.552C118.888 128.504 118.936 128.457 118.983 128.409L118.387 127.816C118.29 127.914 118.192 128.012 118.095 128.109L118.687 128.705ZM31.0203 130.442C31.1232 130.536 31.2264 130.63 31.3299 130.724L31.8945 130.101C31.7924 130.008 31.6905 129.916 31.589 129.822L31.0203 130.442ZM116.726 130.573C116.774 130.529 116.821 130.485 116.869 130.442L116.3 129.822C116.199 129.916 116.097 130.008 115.995 130.101L116.56 130.724C116.615 130.674 116.671 130.623 116.726 130.573ZM33.2257 132.375C33.3329 132.465 33.4403 132.554 33.5481 132.643L34.0835 131.995C33.9771 131.907 33.8711 131.819 33.7654 131.73L33.2257 132.375ZM114.341 132.643C114.449 132.554 114.557 132.465 114.664 132.375L114.124 131.73C114.018 131.819 113.912 131.907 113.806 131.995L114.341 132.643Z" fill="#9499C3"/>
<rect x="10.459" y="83.2743" width="4.20432" height="0.840864" fill="#9499C3"/>
<rect x="133.225" y="83.2743" width="4.20432" height="0.840864" fill="#9499C3"/>
<rect width="4.20432" height="0.840864" transform="matrix(-0.819152 -0.573576 -0.573576 0.819152 128.058 116.907)" fill="#9499C3"/>
<path fill-rule="evenodd" clip-rule="evenodd" d="M14.4967 89.1603C16.0265 105.457 24.1643 119.887 36.2592 129.797L33.6402 133.085C20.5836 122.409 11.8181 106.803 10.2747 89.1603H14.4967Z" fill="#66C8D4"/>
<rect x="19.3911" y="116.932" width="4.47536" height="0.840864" transform="rotate(-35 19.3911 116.932)" fill="#1A1C48"/>
<rect x="12.9816" y="89.1603" width="4.20432" height="0.840864" fill="#66C8D4"/>
<path d="M48.9662 59L47.8997 56.2754H44.4662L43.4115 59H42.4037L45.7904 50.3984H46.6283L49.9974 59H48.9662ZM47.5892 55.3789L46.5931 52.7246C46.4642 52.3887 46.3314 51.9766 46.1947 51.4883C46.1087 51.8633 45.9857 52.2754 45.8255 52.7246L44.8177 55.3789H47.5892ZM52.0013 59H51.0287V49.8828H52.0013V59ZM55.0365 59H54.0638V49.8828H55.0365V59ZM65.7474 59L64.681 56.2754H61.2474L60.1927 59H59.1849L62.5716 50.3984H63.4095L66.7787 59H65.7474ZM64.3704 55.3789L63.3744 52.7246C63.2454 52.3887 63.1126 51.9766 62.9759 51.4883C62.89 51.8633 62.7669 52.2754 62.6068 52.7246L61.599 55.3789H64.3704ZM68.7826 59H67.8099V52.5781H68.7826V59ZM67.7279 50.8379C67.7279 50.6152 67.7826 50.4531 67.8919 50.3516C68.0013 50.2461 68.138 50.1934 68.3021 50.1934C68.4583 50.1934 68.5931 50.2461 68.7064 50.3516C68.8197 50.457 68.8763 50.6191 68.8763 50.8379C68.8763 51.0566 68.8197 51.2207 68.7064 51.3301C68.5931 51.4355 68.4583 51.4883 68.3021 51.4883C68.138 51.4883 68.0013 51.4355 67.8919 51.3301C67.7826 51.2207 67.7279 51.0566 67.7279 50.8379ZM73.7747 52.4609C74.0599 52.4609 74.3158 52.4844 74.5423 52.5312L74.4076 53.4336C74.1419 53.375 73.9076 53.3457 73.7044 53.3457C73.1849 53.3457 72.7396 53.5566 72.3685 53.9785C72.0013 54.4004 71.8177 54.9258 71.8177 55.5547V59H70.8451V52.5781H71.6478L71.7591 53.7676H71.806C72.0443 53.3496 72.3314 53.0273 72.6673 52.8008C73.0033 52.5742 73.3724 52.4609 73.7747 52.4609ZM78.3099 59.1172C77.3802 59.1172 76.6595 58.832 76.1478 58.2617C75.64 57.6875 75.3861 56.877 75.3861 55.8301C75.3861 54.7559 75.6439 53.9258 76.1595 53.3398C76.679 52.7539 77.4173 52.4609 78.3744 52.4609C78.6829 52.4609 78.9915 52.4941 79.3001 52.5605C79.6087 52.627 79.8509 52.7051 80.0267 52.7949L79.7279 53.6211C79.513 53.5352 79.2787 53.4648 79.0247 53.4102C78.7708 53.3516 78.5462 53.3223 78.3509 53.3223C77.0462 53.3223 76.3939 54.1543 76.3939 55.8184C76.3939 56.6074 76.5521 57.2129 76.8685 57.6348C77.1888 58.0566 77.6615 58.2676 78.2865 58.2676C78.8216 58.2676 79.3704 58.1523 79.9329 57.9219V58.7832C79.5033 59.0059 78.9622 59.1172 78.3099 59.1172ZM84.3919 52.4609C84.6771 52.4609 84.9329 52.4844 85.1595 52.5312L85.0247 53.4336C84.7591 53.375 84.5247 53.3457 84.3216 53.3457C83.8021 53.3457 83.3568 53.5566 82.9857 53.9785C82.6185 54.4004 82.4349 54.9258 82.4349 55.5547V59H81.4622V52.5781H82.265L82.3763 53.7676H82.4232C82.6615 53.3496 82.9486 53.0273 83.2845 52.8008C83.6204 52.5742 83.9896 52.4609 84.3919 52.4609ZM90.3099 59L90.1165 58.0859H90.0697C89.7494 58.4883 89.429 58.7617 89.1087 58.9062C88.7923 59.0469 88.3958 59.1172 87.9193 59.1172C87.2826 59.1172 86.7826 58.9531 86.4193 58.625C86.0599 58.2969 85.8802 57.8301 85.8802 57.2246C85.8802 55.9277 86.9173 55.248 88.9915 55.1855L90.0814 55.1504V54.752C90.0814 54.248 89.972 53.877 89.7533 53.6387C89.5384 53.3965 89.1927 53.2754 88.7162 53.2754C88.181 53.2754 87.5755 53.4395 86.8997 53.7676L86.6009 53.0234C86.9173 52.8516 87.263 52.7168 87.638 52.6191C88.0169 52.5215 88.3958 52.4727 88.7747 52.4727C89.5404 52.4727 90.1068 52.6426 90.474 52.9824C90.8451 53.3223 91.0306 53.8672 91.0306 54.6172V59H90.3099ZM88.1126 58.3145C88.7181 58.3145 89.1927 58.1484 89.5365 57.8164C89.8841 57.4844 90.0579 57.0195 90.0579 56.4219V55.8418L89.0853 55.8828C88.3119 55.9102 87.7533 56.0312 87.4095 56.2461C87.0697 56.457 86.8997 56.7871 86.8997 57.2363C86.8997 57.5879 87.0052 57.8555 87.2162 58.0391C87.431 58.2227 87.7298 58.3145 88.1126 58.3145ZM95.9349 53.334H94.3001V59H93.3275V53.334H92.179V52.8945L93.3275 52.543V52.1855C93.3275 50.6074 94.0169 49.8184 95.3958 49.8184C95.7357 49.8184 96.1341 49.8867 96.5912 50.0234L96.3392 50.8027C95.9642 50.6816 95.6439 50.6211 95.3783 50.6211C95.0111 50.6211 94.7396 50.7441 94.5638 50.9902C94.388 51.2324 94.3001 51.623 94.3001 52.1621V52.5781H95.9349V53.334ZM99.181 58.3145C99.3529 58.3145 99.5189 58.3027 99.679 58.2793C99.8392 58.252 99.9662 58.2246 100.06 58.1973V58.9414C99.9544 58.9922 99.7982 59.0332 99.5912 59.0645C99.388 59.0996 99.2044 59.1172 99.0404 59.1172C97.7982 59.1172 97.1771 58.4629 97.1771 57.1543V53.334H96.2572V52.8652L97.1771 52.4609L97.5872 51.0898H98.1497V52.5781H100.013V53.334H98.1497V57.1133C98.1497 57.5 98.2415 57.7969 98.4251 58.0039C98.6087 58.2109 98.8607 58.3145 99.181 58.3145ZM105.492 57.248C105.492 57.8457 105.269 58.3066 104.824 58.6309C104.378 58.9551 103.753 59.1172 102.949 59.1172C102.097 59.1172 101.433 58.9824 100.956 58.7129V57.8105C101.265 57.9668 101.595 58.0898 101.947 58.1797C102.302 58.2695 102.644 58.3145 102.972 58.3145C103.48 58.3145 103.87 58.2344 104.144 58.0742C104.417 57.9102 104.554 57.6621 104.554 57.3301C104.554 57.0801 104.445 56.8672 104.226 56.6914C104.011 56.5117 103.589 56.3008 102.96 56.0586C102.363 55.8359 101.937 55.6426 101.683 55.4785C101.433 55.3105 101.245 55.1211 101.12 54.9102C100.999 54.6992 100.939 54.4473 100.939 54.1543C100.939 53.6309 101.152 53.2188 101.577 52.918C102.003 52.6133 102.587 52.4609 103.329 52.4609C104.021 52.4609 104.697 52.6016 105.357 52.8828L105.011 53.6738C104.367 53.4082 103.783 53.2754 103.259 53.2754C102.798 53.2754 102.451 53.3477 102.216 53.4922C101.982 53.6367 101.865 53.8359 101.865 54.0898C101.865 54.2617 101.908 54.4082 101.993 54.5293C102.083 54.6504 102.226 54.7656 102.421 54.875C102.617 54.9844 102.992 55.1426 103.546 55.3496C104.308 55.627 104.822 55.9062 105.087 56.1875C105.357 56.4688 105.492 56.8223 105.492 57.248Z" fill="white"/>
<path d="M64.5953 80.3111C64.5953 81.5374 64.2493 82.5403 63.5573 83.3199C62.8741 84.0994 61.9019 84.6206 60.6406 84.8833V84.9885C62.1822 85.1812 63.3252 85.6717 64.0697 86.46C64.8143 87.2483 65.1865 88.2818 65.1865 89.5607C65.1865 91.3913 64.5515 92.8015 63.2814 93.7913C62.0114 94.7723 60.207 95.2628 57.8684 95.2628C56.8523 95.2628 55.9195 95.1839 55.0699 95.0263C54.229 94.8774 53.41 94.6102 52.613 94.2248V92.1489C53.4451 92.5606 54.3297 92.8759 55.2669 93.0949C56.2129 93.3051 57.1063 93.4102 57.9472 93.4102C61.2669 93.4102 62.9267 92.1095 62.9267 89.5081C62.9267 87.1782 61.0961 86.0133 57.4348 86.0133H55.5429V84.1345H57.4611C58.9589 84.1345 60.1457 83.806 61.0216 83.1491C61.8975 82.4834 62.3355 81.5637 62.3355 80.39C62.3355 79.4528 62.0114 78.717 61.3632 78.1827C60.7238 77.6484 59.8523 77.3813 58.7486 77.3813C57.9078 77.3813 57.1151 77.4951 56.3706 77.7229C55.6261 77.9506 54.7764 78.371 53.8217 78.9842L52.7181 77.5126C53.5064 76.8908 54.4129 76.4046 55.4377 76.0543C56.4713 75.6952 57.5574 75.5156 58.6961 75.5156C60.5618 75.5156 62.0114 75.9448 63.0449 76.8032C64.0785 77.6528 64.5953 78.8221 64.5953 80.3111ZM74.4492 75.5156C76.201 75.5156 77.5893 75.9229 78.6141 76.7375C79.6389 77.5521 80.1513 78.6776 80.1513 80.1141C80.1513 81.06 79.8578 81.9228 79.271 82.7024C78.6841 83.4819 77.7469 84.1914 76.4594 84.8308C78.0185 85.5753 79.1265 86.3592 79.7834 87.1826C80.4403 87.9972 80.7688 88.9431 80.7688 90.0205C80.7688 91.6146 80.2126 92.8891 79.1002 93.8438C77.9878 94.7898 76.4637 95.2628 74.528 95.2628C72.4784 95.2628 70.9018 94.8161 69.7981 93.9226C68.6945 93.0205 68.1427 91.746 68.1427 90.0993C68.1427 87.9008 69.4828 86.1884 72.1631 84.9622C70.9543 84.279 70.0872 83.5432 69.5616 82.7549C69.0361 81.9578 68.7733 81.0688 68.7733 80.0878C68.7733 78.6951 69.2857 77.5871 70.3105 76.7638C71.3441 75.9316 72.7236 75.5156 74.4492 75.5156ZM70.2974 90.1519C70.2974 91.203 70.6609 92.0219 71.3879 92.6088C72.1236 93.1956 73.1528 93.4891 74.4754 93.4891C75.7805 93.4891 76.7966 93.1825 77.5236 92.5694C78.2506 91.9562 78.6141 91.1154 78.6141 90.0468C78.6141 89.1972 78.2725 88.4439 77.5893 87.787C76.9061 87.1213 75.7148 86.4775 74.0156 85.8556C72.7105 86.4162 71.7645 87.0381 71.1777 87.7213C70.5908 88.3957 70.2974 89.2059 70.2974 90.1519ZM74.4229 77.2893C73.328 77.2893 72.4696 77.5521 71.8477 78.0776C71.2258 78.6031 70.9149 79.3039 70.9149 80.1798C70.9149 80.9856 71.1733 81.6776 71.6901 82.2556C72.2069 82.8337 73.1616 83.4118 74.5543 83.9899C75.8068 83.4644 76.6915 82.8994 77.2082 82.2951C77.7338 81.6907 77.9966 80.9856 77.9966 80.1798C77.9966 79.2951 77.6769 78.5944 77.0374 78.0776C76.4068 77.5521 75.5353 77.2893 74.4229 77.2893ZM96.2197 85.3695C96.2197 88.6891 95.6941 91.1679 94.643 92.8059C93.6007 94.4438 92.0022 95.2628 89.8475 95.2628C87.7804 95.2628 86.2081 94.4263 85.1308 92.7533C84.0534 91.0716 83.5147 88.6103 83.5147 85.3695C83.5147 82.0235 84.0359 79.5404 85.0782 77.9199C86.1205 76.2995 87.7103 75.4893 89.8475 75.4893C91.9321 75.4893 93.5131 76.3346 94.5905 78.025C95.6766 79.7155 96.2197 82.1637 96.2197 85.3695ZM85.722 85.3695C85.722 88.1636 86.0505 90.2001 86.7074 91.4789C87.3643 92.7489 88.411 93.384 89.8475 93.384C91.3015 93.384 92.3526 92.7402 93.0007 91.4526C93.6577 90.1563 93.9861 88.1286 93.9861 85.3695C93.9861 82.6104 93.6577 80.5914 93.0007 79.3126C92.3526 78.025 91.3015 77.3813 89.8475 77.3813C88.411 77.3813 87.3643 78.0163 86.7074 79.2863C86.0505 80.5476 85.722 82.5754 85.722 85.3695Z" fill="white"/>
</svg>
