<svg width="148" height="160" viewBox="0 0 148 160" fill="none" xmlns="http://www.w3.org/2000/svg">
<path fill-rule="evenodd" clip-rule="evenodd" d="M74.6014 20.1813C74.5311 20.1813 74.4609 20.1814 74.3907 20.1816L74.3935 21.0225C74.4627 21.0223 74.532 21.0221 74.6014 21.0221C74.6707 21.0221 74.74 21.0223 74.8093 21.0225L74.812 20.1816C74.7418 20.1814 74.6716 20.1813 74.6014 20.1813ZM71.876 20.2387C71.737 20.2446 71.5981 20.2509 71.4593 20.2577L71.5002 21.0975C71.6372 21.0909 71.7743 21.0846 71.9115 21.0788L71.876 20.2387ZM77.7434 20.2577C77.6046 20.2509 77.4657 20.2446 77.3267 20.2387L77.2912 21.0788C77.4284 21.0846 77.5655 21.0909 77.7025 21.0976L77.7434 20.2577ZM68.9487 20.4295C68.8098 20.4418 68.6712 20.4545 68.5326 20.4676L68.612 21.3047C68.7487 21.2917 68.8856 21.2792 69.0226 21.2671L68.9487 20.4295ZM80.6701 20.4676C80.5316 20.4545 80.3929 20.4418 80.2541 20.4295L80.1802 21.2671C80.3172 21.2792 80.454 21.2918 80.5907 21.3047L80.6701 20.4676ZM66.0335 20.7546C65.8952 20.7732 65.7571 20.7923 65.6192 20.8118L65.7371 21.6444C65.8732 21.6251 66.0095 21.6063 66.1459 21.5879L66.0335 20.7546ZM83.5836 20.8118C83.4456 20.7923 83.3075 20.7732 83.1693 20.7546L83.0569 21.5879C83.1933 21.6063 83.3295 21.6251 83.4657 21.6444L83.5836 20.8118ZM63.1366 21.2139C62.9992 21.2389 62.8621 21.2644 62.725 21.2903L62.8814 22.1165C63.0166 22.091 63.152 22.0658 63.2875 22.0411L63.1366 21.2139ZM86.4777 21.2903C86.3407 21.2644 86.2035 21.2389 86.0661 21.2139L85.9153 22.0411C86.0508 22.0658 86.1861 22.091 86.3214 22.1165L86.4777 21.2903ZM60.2642 21.807C60.1281 21.8384 59.9922 21.8703 59.8564 21.9026L60.051 22.7206C60.1849 22.6887 60.3191 22.6573 60.4534 22.6263L60.2642 21.807ZM89.3463 21.9026C89.2105 21.8703 89.0746 21.8384 88.9385 21.807L88.7494 22.6263C88.8837 22.6573 89.0178 22.6887 89.1517 22.7206L89.3463 21.9026ZM57.4226 22.533C57.288 22.5707 57.1537 22.6089 57.0195 22.6475L57.2519 23.4556C57.3843 23.4175 57.5169 23.3798 57.6496 23.3426L57.4226 22.533ZM92.1833 22.6475C92.0491 22.6089 91.9147 22.5707 91.7801 22.533L91.5531 23.3426C91.6858 23.3798 91.8184 23.4175 91.9508 23.4556L92.1833 22.6475ZM54.6178 23.3904C54.4852 23.4344 54.3527 23.4788 54.2204 23.5236L54.4902 24.32C54.6207 24.2758 54.7514 24.232 54.8823 24.1886L54.6178 23.3904ZM94.9824 23.5236C94.8501 23.4788 94.7176 23.4344 94.5849 23.3904L94.3204 24.1886C94.4513 24.232 94.582 24.2758 94.7126 24.32L94.9824 23.5236ZM51.856 24.3775C51.7255 24.4276 51.5952 24.4781 51.4651 24.5291L51.7717 25.3121C51.9 25.2618 52.0286 25.212 52.1574 25.1625L51.856 24.3775ZM97.7376 24.5291C97.6075 24.4781 97.4772 24.4276 97.3467 24.3775L97.0453 25.1625C97.1741 25.212 97.3027 25.2618 97.4311 25.3121L97.7376 24.5291ZM49.1431 25.492C49.015 25.5481 48.8872 25.6046 48.7596 25.6616L49.1022 26.4295C49.2281 26.3733 49.3543 26.3175 49.4806 26.2621L49.1431 25.492ZM100.443 25.6616C100.316 25.6046 100.188 25.5481 100.06 25.492L99.7221 26.2621C99.8485 26.3175 99.9746 26.3733 100.101 26.4295L100.443 25.6616ZM46.4849 26.7313C46.3595 26.7933 46.2345 26.8557 46.1096 26.9185L46.4875 27.6697C46.6107 27.6077 46.7341 27.5461 46.8578 27.4849L46.4849 26.7313ZM103.093 26.9185C102.968 26.8557 102.843 26.7933 102.718 26.7313L102.345 27.4849C102.469 27.5461 102.592 27.6077 102.715 27.6697L103.093 26.9185ZM43.8869 28.0925C43.7646 28.1602 43.6426 28.2284 43.5208 28.2969L43.933 29.0297C44.0532 28.9621 44.1736 28.8949 44.2943 28.8281L43.8869 28.0925ZM105.682 28.2969C105.56 28.2284 105.438 28.1602 105.316 28.0925L104.908 28.8281C105.029 28.8949 105.15 28.9621 105.27 29.0298L105.682 28.2969ZM41.3548 29.5725C41.2357 29.6458 41.117 29.7195 40.9985 29.7936L41.4441 30.5066C41.5611 30.4335 41.6783 30.3608 41.7957 30.2884L41.3548 29.5725ZM108.204 29.7936C108.086 29.7195 107.967 29.6458 107.848 29.5725L107.407 30.2884C107.524 30.3608 107.642 30.4335 107.759 30.5066L108.204 29.7936ZM38.8936 31.1678C38.7781 31.2465 38.6629 31.3256 38.5479 31.4051L39.026 32.0968C39.1395 32.0184 39.2532 31.9403 39.3672 31.8627L38.8936 31.1678ZM110.655 31.4051C110.54 31.3256 110.425 31.2465 110.309 31.1678L109.836 31.8627C109.95 31.9403 110.063 32.0184 110.177 32.0968L110.655 31.4051ZM36.5086 32.8749C36.3969 32.9588 36.2854 33.0431 36.1743 33.1278L36.6837 33.7968C36.7934 33.7132 36.9034 33.63 37.0136 33.5472L36.5086 32.8749ZM113.028 33.1278C112.917 33.0431 112.806 32.9588 112.694 32.8749L112.189 33.5472C112.299 33.63 112.409 33.7132 112.519 33.7968L113.028 33.1278ZM34.2047 34.6899C34.0969 34.7789 33.9895 34.8682 33.8823 34.9579L34.422 35.6027C34.5277 35.5142 34.6338 35.4261 34.7401 35.3383L34.2047 34.6899ZM115.32 34.9579C115.213 34.8682 115.106 34.7789 114.998 34.6899L114.463 35.3383C114.569 35.4261 114.675 35.5142 114.781 35.6027L115.32 34.9579ZM31.9865 36.6089C31.883 36.7027 31.7798 36.7969 31.6769 36.8913L32.2456 37.5107C32.3472 37.4175 32.449 37.3246 32.5512 37.2321L31.9865 36.6089ZM117.526 36.8914C117.423 36.7969 117.32 36.7028 117.216 36.609L116.652 37.2321C116.754 37.3246 116.856 37.4175 116.957 37.5107L117.526 36.8914ZM29.8589 38.6278C29.7598 38.7262 29.661 38.825 29.5626 38.9241L30.1591 39.5167C30.2563 39.4189 30.3537 39.3214 30.4515 39.2243L29.8589 38.6278ZM119.64 38.9241C119.542 38.825 119.443 38.7262 119.344 38.6278L118.751 39.2243C118.849 39.3215 118.946 39.4189 119.044 39.5167L119.64 38.9241ZM27.8262 40.7421C27.7317 40.845 27.6376 40.9482 27.5438 41.0517L28.1669 41.6163C28.2594 41.5142 28.3523 41.4123 28.4456 41.3108L27.8262 40.7421ZM121.659 41.0517C121.565 40.9482 121.471 40.845 121.377 40.7421L120.757 41.3108C120.85 41.4123 120.943 41.5142 121.036 41.6163L121.659 41.0517ZM25.8927 42.9475C25.803 43.0547 25.7137 43.1621 25.6247 43.2699L26.2731 43.8053C26.3609 43.6989 26.4491 43.5929 26.5375 43.4872L25.8927 42.9475ZM123.578 43.2699C123.489 43.1621 123.4 43.0547 123.31 42.9475L122.665 43.4872C122.754 43.5929 122.842 43.6989 122.93 43.8053L123.578 43.2699ZM24.0626 45.2394C23.9779 45.3506 23.8936 45.4621 23.8097 45.5738L24.482 46.0788C24.5649 45.9686 24.648 45.8586 24.7316 45.7489L24.0626 45.2394ZM125.393 45.5738C125.309 45.4621 125.225 45.3506 125.14 45.2394L124.471 45.7489C124.555 45.8586 124.638 45.9686 124.721 46.0788L125.393 45.5738ZM22.3399 47.6131C22.2604 47.7281 22.1813 47.8433 22.1026 47.9588L22.7975 48.4323C22.8752 48.3184 22.9532 48.2046 23.0316 48.0912L22.3399 47.6131ZM127.1 47.9588C127.021 47.8433 126.942 47.7281 126.863 47.6131L126.171 48.0912C126.25 48.2046 126.328 48.3184 126.405 48.4323L127.1 47.9588ZM20.7284 50.0636C20.6543 50.1821 20.5806 50.3009 20.5073 50.4199L21.2233 50.8609C21.2956 50.7434 21.3683 50.6263 21.4414 50.5093L20.7284 50.0636ZM128.695 50.4199C128.622 50.3009 128.548 50.1821 128.474 50.0636L127.761 50.5093C127.834 50.6263 127.907 50.7435 127.979 50.8609L128.695 50.4199ZM19.2317 52.5859C19.1632 52.7077 19.0951 52.8298 19.0273 52.9521L19.7629 53.3595C19.8297 53.2388 19.897 53.1184 19.9646 52.9982L19.2317 52.5859ZM130.175 52.9521C130.108 52.8298 130.04 52.7078 129.971 52.5859L129.238 52.9982C129.306 53.1184 129.373 53.2388 129.44 53.3595L130.175 52.9521ZM17.8533 55.1748C17.7905 55.2996 17.7281 55.4247 17.6661 55.55L18.4198 55.9229C18.4809 55.7993 18.5425 55.6759 18.6045 55.5527L17.8533 55.1748ZM131.444 55.3642C131.413 55.301 131.381 55.2379 131.349 55.1748L130.598 55.5527C130.642 55.639 130.685 55.7253 130.728 55.8118C130.746 55.8489 130.765 55.8859 130.783 55.9229L131.537 55.55C131.506 55.488 131.475 55.4261 131.444 55.3642ZM16.5964 57.8248C16.5395 57.9524 16.4829 58.0802 16.4268 58.2083L17.197 58.5458C17.2523 58.4194 17.3081 58.2933 17.3643 58.1674L16.5964 57.8248ZM132.776 58.2083C132.72 58.0802 132.663 57.9524 132.606 57.8248L131.838 58.1674C131.895 58.2933 131.95 58.4194 132.006 58.5458L132.776 58.2083ZM15.4639 60.5303C15.413 60.6604 15.3624 60.7907 15.3123 60.9212L16.0973 61.2226C16.1468 61.0938 16.1966 60.9652 16.2469 60.8368L15.4639 60.5303ZM133.89 60.9212C133.84 60.7907 133.79 60.6604 133.739 60.5303L132.956 60.8368C133.006 60.9652 133.056 61.0938 133.105 61.2226L133.89 60.9212ZM14.4584 63.2855C14.4136 63.4178 14.3692 63.5503 14.3253 63.683L15.1234 63.9475C15.1668 63.8166 15.2106 63.6859 15.2548 63.5553L14.4584 63.2855ZM134.877 63.683C134.853 63.6091 134.828 63.5352 134.804 63.4614L134.744 63.2855L133.948 63.5553C133.992 63.6859 134.036 63.8166 134.079 63.9475L134.877 63.683ZM13.5823 66.0846C13.5437 66.2188 13.5055 66.3532 13.4678 66.4878L14.2774 66.7148C14.3147 66.5821 14.3523 66.4495 14.3904 66.3171L13.5823 66.0846ZM135.735 66.4878C135.697 66.3532 135.659 66.2189 135.62 66.0847L134.812 66.3171C134.837 66.4044 134.862 66.4919 134.887 66.5793C134.9 66.6245 134.913 66.6697 134.925 66.7148L135.735 66.4878ZM12.8374 68.9216C12.8051 69.0574 12.7732 69.1933 12.7418 69.3294L13.5611 69.5185C13.5921 69.3842 13.6236 69.2501 13.6554 69.1161L12.8374 68.9216ZM136.394 69.0415C136.384 69.0015 136.375 68.9616 136.365 68.9216L135.547 69.1162C135.579 69.2501 135.611 69.3843 135.642 69.5186L136.461 69.3294C136.439 69.2334 136.416 69.1374 136.394 69.0415ZM12.2252 71.7902C12.1992 71.9272 12.1737 72.0644 12.1487 72.2018L12.9759 72.3526C13.0006 72.2171 13.0258 72.0818 13.0514 71.9466L12.2252 71.7902ZM137.054 72.2018C137.029 72.0644 137.003 71.9272 136.978 71.7902L136.151 71.9466C136.169 72.0395 136.186 72.1324 136.203 72.2255C136.211 72.2679 136.219 72.3102 136.227 72.3527L137.054 72.2018ZM11.7467 74.6843C11.7271 74.8223 11.708 74.9604 11.6894 75.0986L12.5227 75.211C12.5411 75.0746 12.5599 74.9384 12.5792 74.8022L11.7467 74.6843ZM137.513 75.0986C137.495 74.9604 137.476 74.8223 137.456 74.6843L136.624 74.8023C136.643 74.9384 136.662 75.0747 136.68 75.2111L137.513 75.0986ZM11.4024 77.5978C11.3893 77.7363 11.3766 77.875 11.3643 78.0138L12.202 78.0877C12.214 77.9507 12.2266 77.8139 12.2395 77.6772L11.4024 77.5978ZM137.838 78.0138C137.826 77.875 137.813 77.7364 137.8 77.5978L136.963 77.6772C136.976 77.8139 136.989 77.9508 137.001 78.0877L137.838 78.0138ZM11.1925 80.5245C11.1857 80.6633 11.1794 80.8022 11.1735 80.9412L12.0137 80.9767C12.0195 80.8395 12.0257 80.7024 12.0324 80.5654L11.1925 80.5245ZM138.029 80.9412C138.023 80.8022 138.017 80.6633 138.01 80.5245L137.17 80.5654C137.177 80.7024 137.183 80.8395 137.189 80.9767L138.029 80.9412ZM11.1164 83.4559C11.1162 83.5261 11.1161 83.5963 11.1161 83.6665C11.1161 83.7368 11.1162 83.807 11.1164 83.8772L11.9573 83.8744C11.9571 83.8052 11.957 83.7359 11.957 83.6665C11.957 83.5972 11.9571 83.5279 11.9573 83.4586L11.1164 83.4559ZM138.087 83.6665L138.087 83.5839L138.086 83.4559L137.245 83.4587C137.246 83.5279 137.246 83.5972 137.246 83.6665C137.246 83.7359 137.246 83.8052 137.245 83.8745L138.086 83.8772C138.087 83.807 138.087 83.7368 138.087 83.6665ZM11.1735 86.3919C11.1794 86.5309 11.1857 86.6698 11.1925 86.8086L12.0324 86.7677C12.0257 86.6307 12.0194 86.4936 12.0137 86.3564L11.1735 86.3919ZM138.01 86.8086C138.017 86.6698 138.023 86.5309 138.029 86.3919L137.189 86.3564C137.183 86.4936 137.177 86.6307 137.17 86.7677L138.01 86.8086ZM11.3643 89.3193C11.3766 89.4581 11.3893 89.5967 11.4024 89.7353L12.2395 89.6559C12.2266 89.5192 12.214 89.3823 12.2019 89.2453L11.3643 89.3193ZM137.8 89.7353C137.811 89.6178 137.822 89.5001 137.833 89.3824L137.838 89.3193L137.001 89.2454C136.989 89.3823 136.976 89.5192 136.963 89.6559L137.8 89.7353ZM11.6894 92.2344C11.708 92.3727 11.7271 92.5108 11.7467 92.6487L12.5792 92.5308C12.5599 92.3947 12.5411 92.2584 12.5227 92.122L11.6894 92.2344ZM137.456 92.6488C137.476 92.5108 137.495 92.3727 137.513 92.2345L136.68 92.122C136.662 92.2585 136.643 92.3947 136.623 92.5309L137.456 92.6488ZM12.1487 95.1313C12.1737 95.2687 12.1992 95.4058 12.2252 95.5429L13.0514 95.3865C13.0258 95.2513 13.0006 95.1159 12.9759 94.9804L12.1487 95.1313ZM137.027 95.2774C137.036 95.2288 137.045 95.1801 137.054 95.1313L136.227 94.9805C136.202 95.116 136.177 95.2513 136.151 95.3865L136.978 95.5429C136.994 95.4545 137.011 95.366 137.027 95.2774ZM12.7418 98.0037C12.7732 98.1398 12.8051 98.2757 12.8374 98.4115L13.6554 98.2169C13.6236 98.083 13.5921 97.9488 13.5611 97.8145L12.7418 98.0037ZM136.365 98.4115C136.383 98.3371 136.401 98.2627 136.418 98.1882L136.461 98.0037L135.642 97.8146C135.628 97.8726 135.615 97.9306 135.601 97.9886C135.583 98.0647 135.565 98.1409 135.547 98.2169L136.365 98.4115ZM13.4678 100.845C13.5055 100.98 13.5437 101.114 13.5823 101.248L14.3904 101.016C14.3523 100.884 14.3147 100.751 14.2774 100.618L13.4678 100.845ZM135.62 101.248C135.659 101.114 135.697 100.98 135.735 100.845L134.925 100.618L134.874 100.801C134.864 100.836 134.854 100.871 134.844 100.906C134.833 100.942 134.823 100.979 134.812 101.016L135.62 101.248ZM14.3252 103.65C14.3692 103.783 14.4136 103.915 14.4584 104.048L15.2548 103.778C15.2106 103.647 15.1668 103.516 15.1234 103.386L14.3252 103.65ZM134.744 104.048L134.791 103.911C134.82 103.824 134.849 103.737 134.877 103.65L134.079 103.386C134.036 103.517 133.992 103.647 133.948 103.778L134.744 104.048ZM15.3123 106.412C15.3624 106.542 15.413 106.673 15.4639 106.803L16.2469 106.496C16.1966 106.368 16.1468 106.239 16.0973 106.111L15.3123 106.412ZM133.739 106.803C133.79 106.673 133.84 106.542 133.89 106.412L133.105 106.111C133.056 106.239 133.006 106.368 132.956 106.496L133.739 106.803ZM16.4268 109.125C16.4829 109.253 16.5395 109.381 16.5964 109.508L17.3643 109.166C17.3081 109.04 17.2523 108.914 17.197 108.787L16.4268 109.125ZM132.606 109.508C132.663 109.381 132.72 109.253 132.776 109.125L132.006 108.787C131.95 108.914 131.895 109.04 131.838 109.166L132.606 109.508ZM17.6661 111.783C17.7281 111.908 17.7905 112.033 17.8533 112.158L18.6045 111.78C18.5425 111.657 18.4809 111.534 18.4198 111.41L17.6661 111.783ZM131.349 112.158C131.412 112.033 131.475 111.908 131.537 111.783L130.783 111.41C130.722 111.534 130.66 111.657 130.598 111.78L131.349 112.158ZM19.0273 114.381C19.095 114.503 19.1632 114.625 19.2317 114.747L19.9646 114.335C19.897 114.215 19.8297 114.094 19.7629 113.974L19.0273 114.381ZM129.971 114.747C130.04 114.625 130.108 114.503 130.175 114.381L129.44 113.974C129.373 114.094 129.306 114.215 129.238 114.335L129.971 114.747ZM20.5073 116.913C20.5806 117.032 20.6543 117.151 20.7284 117.269L21.4414 116.824C21.3683 116.707 21.2956 116.59 21.2232 116.472L20.5073 116.913ZM128.474 117.269C128.548 117.151 128.622 117.032 128.695 116.913L127.979 116.472C127.907 116.59 127.834 116.707 127.761 116.824L128.474 117.269ZM22.1026 119.374C22.1813 119.49 22.2604 119.605 22.3399 119.72L23.0316 119.242C22.9532 119.128 22.8752 119.015 22.7975 118.901L22.1026 119.374ZM126.863 119.72C126.942 119.605 127.021 119.49 127.1 119.374L126.405 118.901C126.328 119.015 126.25 119.128 126.171 119.242L126.863 119.72ZM23.8097 121.759C23.8936 121.871 23.9779 121.982 24.0626 122.094L24.7316 121.584C24.648 121.475 24.5648 121.365 24.482 121.254L23.8097 121.759ZM125.14 122.094L125.212 121.998C125.273 121.919 125.333 121.839 125.393 121.759L124.721 121.254C124.661 121.334 124.601 121.413 124.541 121.492L124.471 121.584L125.14 122.094ZM25.6247 124.063C25.7137 124.171 25.803 124.278 25.8927 124.386L26.5375 123.846C26.4491 123.74 26.3609 123.634 26.2731 123.528L25.6247 124.063ZM123.31 124.386C123.4 124.278 123.489 124.171 123.578 124.063L122.93 123.528C122.842 123.634 122.754 123.74 122.665 123.846L123.31 124.386ZM27.5438 126.281C27.6376 126.385 27.7317 126.488 27.8262 126.591L28.4456 126.022C28.3523 125.921 28.2594 125.819 28.1669 125.717L27.5438 126.281ZM121.377 126.591L121.488 126.469C121.545 126.407 121.602 126.344 121.659 126.281L121.036 125.717C120.991 125.766 120.946 125.816 120.9 125.866C120.879 125.889 120.858 125.913 120.836 125.936C120.81 125.965 120.784 125.994 120.757 126.022L121.377 126.591ZM29.5626 128.409C29.661 128.508 29.7598 128.607 29.8589 128.705L30.4515 128.109C30.3537 128.012 30.2563 127.914 30.1591 127.816L29.5626 128.409ZM119.344 128.705L119.424 128.625C119.449 128.601 119.473 128.577 119.497 128.552C119.545 128.505 119.593 128.457 119.64 128.409L119.044 127.816C118.946 127.914 118.849 128.012 118.751 128.109L119.344 128.705ZM31.6769 130.442C31.7798 130.536 31.883 130.63 31.9865 130.724L32.5512 130.101C32.449 130.008 32.3472 129.916 32.2456 129.822L31.6769 130.442ZM117.382 130.573C117.43 130.529 117.478 130.486 117.526 130.442L116.957 129.822C116.856 129.916 116.754 130.008 116.652 130.101L117.216 130.724C117.272 130.674 117.327 130.623 117.382 130.573ZM33.8823 132.375C33.9895 132.465 34.0969 132.554 34.2047 132.643L34.7401 131.995C34.6338 131.907 34.5277 131.819 34.422 131.73L33.8823 132.375ZM114.998 132.643C115.106 132.554 115.213 132.465 115.32 132.375L114.781 131.73C114.675 131.819 114.569 131.907 114.463 131.995L114.998 132.643Z" fill="#E72D2D"/>
<rect x="11.1156" y="83.2744" width="4.20432" height="0.840864" fill="#E72D2D"/>
<rect x="133.882" y="83.2744" width="4.20432" height="0.840864" fill="#E72D2D"/>
<rect width="4.20432" height="0.840864" transform="matrix(-0.819152 -0.573576 -0.573576 0.819152 128.714 116.907)" fill="#E72D2D"/>
<path fill-rule="evenodd" clip-rule="evenodd" d="M26.2304 118.468C29.2861 122.682 32.8808 126.491 36.9158 129.797L34.2968 133.085C29.9825 129.558 26.1367 125.492 22.8652 120.992L26.2304 118.468Z" fill="#E72D2D"/>
<rect x="20.0477" y="116.932" width="4.20432" height="0.840864" transform="rotate(-35 20.0477 116.932)" fill="#E72D2D"/>
<rect x="24.9955" y="119.401" width="4.02335" height="0.881085" transform="rotate(-37.0934 24.9955 119.401)" fill="#E72D2D"/>
<rect opacity="0.7" width="147.992" height="159.764" rx="8.40864" fill="white" fill-opacity="0.02"/>
<path d="M46.5938 52.9297C46.5938 53.7969 46.2969 54.4648 45.7031 54.9336C45.1133 55.3984 44.2676 55.6309 43.166 55.6309H42.1582V59H41.1621V50.4336H43.3828C45.5234 50.4336 46.5938 51.2656 46.5938 52.9297ZM42.1582 54.7754H43.0547C43.9375 54.7754 44.5762 54.6328 44.9707 54.3477C45.3652 54.0625 45.5625 53.6055 45.5625 52.9766C45.5625 52.4102 45.377 51.9883 45.0059 51.7109C44.6348 51.4336 44.0566 51.2949 43.2715 51.2949H42.1582V54.7754ZM50.959 59.1172C50.0098 59.1172 49.2598 58.8281 48.709 58.25C48.1621 57.6719 47.8887 56.8691 47.8887 55.8418C47.8887 54.8066 48.1426 53.9844 48.6504 53.375C49.1621 52.7656 49.8477 52.4609 50.707 52.4609C51.5117 52.4609 52.1484 52.7266 52.6172 53.2578C53.0859 53.7852 53.3203 54.4824 53.3203 55.3496V55.9648H48.8965C48.916 56.7188 49.1055 57.291 49.4648 57.6816C49.8281 58.0723 50.3379 58.2676 50.9941 58.2676C51.6855 58.2676 52.3691 58.123 53.0449 57.834V58.7012C52.7012 58.8496 52.375 58.9551 52.0664 59.0176C51.7617 59.084 51.3926 59.1172 50.959 59.1172ZM50.6953 53.2754C50.1797 53.2754 49.7676 53.4434 49.459 53.7793C49.1543 54.1152 48.9746 54.5801 48.9199 55.1738H52.2773C52.2773 54.5605 52.1406 54.0918 51.8672 53.7676C51.5938 53.4395 51.2031 53.2754 50.6953 53.2754ZM57.9141 52.4609C58.1992 52.4609 58.4551 52.4844 58.6816 52.5312L58.5469 53.4336C58.2812 53.375 58.0469 53.3457 57.8438 53.3457C57.3242 53.3457 56.8789 53.5566 56.5078 53.9785C56.1406 54.4004 55.957 54.9258 55.957 55.5547V59H54.9844V52.5781H55.7871L55.8984 53.7676H55.9453C56.1836 53.3496 56.4707 53.0273 56.8066 52.8008C57.1426 52.5742 57.5117 52.4609 57.9141 52.4609ZM67.8633 52.4492C67.8633 52.9961 67.709 53.4434 67.4004 53.791C67.0957 54.1387 66.6621 54.3711 66.0996 54.4883V54.5352C66.7871 54.6211 67.2969 54.8398 67.6289 55.1914C67.9609 55.543 68.127 56.0039 68.127 56.5742C68.127 57.3906 67.8438 58.0195 67.2773 58.4609C66.7109 58.8984 65.9062 59.1172 64.8633 59.1172C64.4102 59.1172 63.9941 59.082 63.6152 59.0117C63.2402 58.9453 62.875 58.8262 62.5195 58.6543V57.7285C62.8906 57.9121 63.2852 58.0527 63.7031 58.1504C64.125 58.2441 64.5234 58.291 64.8984 58.291C66.3789 58.291 67.1191 57.7109 67.1191 56.5508C67.1191 55.5117 66.3027 54.9922 64.6699 54.9922H63.8262V54.1543H64.6816C65.3496 54.1543 65.8789 54.0078 66.2695 53.7148C66.6602 53.418 66.8555 53.0078 66.8555 52.4844C66.8555 52.0664 66.7109 51.7383 66.4219 51.5C66.1367 51.2617 65.748 51.1426 65.2559 51.1426C64.8809 51.1426 64.5273 51.1934 64.1953 51.2949C63.8633 51.3965 63.4844 51.584 63.0586 51.8574L62.5664 51.2012C62.918 50.9238 63.3223 50.707 63.7793 50.5508C64.2402 50.3906 64.7246 50.3105 65.2324 50.3105C66.0645 50.3105 66.7109 50.502 67.1719 50.8848C67.6328 51.2637 67.8633 51.7852 67.8633 52.4492ZM76.9219 59L74.0156 51.4062H73.9688C74.0234 52.0078 74.0508 52.7227 74.0508 53.5508V59H73.1309V50.4336H74.6309L77.3438 57.5H77.3906L80.127 50.4336H81.6152V59H80.6191V53.4805C80.6191 52.8477 80.6465 52.1602 80.7012 51.418H80.6543L77.7246 59H76.9219ZM89.3672 55.7832C89.3672 56.8301 89.1035 57.6484 88.5762 58.2383C88.0488 58.8242 87.3203 59.1172 86.3906 59.1172C85.8164 59.1172 85.3066 58.9824 84.8613 58.7129C84.416 58.4434 84.0723 58.0566 83.8301 57.5527C83.5879 57.0488 83.4668 56.459 83.4668 55.7832C83.4668 54.7363 83.7285 53.9219 84.252 53.3398C84.7754 52.7539 85.502 52.4609 86.4316 52.4609C87.3301 52.4609 88.043 52.7598 88.5703 53.3574C89.1016 53.9551 89.3672 54.7637 89.3672 55.7832ZM84.4746 55.7832C84.4746 56.6035 84.6387 57.2285 84.9668 57.6582C85.2949 58.0879 85.7773 58.3027 86.4141 58.3027C87.0508 58.3027 87.5332 58.0898 87.8613 57.6641C88.1934 57.2344 88.3594 56.6074 88.3594 55.7832C88.3594 54.9668 88.1934 54.3477 87.8613 53.9258C87.5332 53.5 87.0469 53.2871 86.4023 53.2871C85.7656 53.2871 85.2852 53.4961 84.9609 53.9141C84.6367 54.332 84.4746 54.9551 84.4746 55.7832ZM95.4727 59V54.8457C95.4727 54.3223 95.3535 53.9316 95.1152 53.6738C94.877 53.416 94.5039 53.2871 93.9961 53.2871C93.3242 53.2871 92.832 53.4688 92.5195 53.832C92.207 54.1953 92.0508 54.7949 92.0508 55.6309V59H91.0781V52.5781H91.8691L92.0273 53.457H92.0742C92.2734 53.1406 92.5527 52.8965 92.9121 52.7246C93.2715 52.5488 93.6719 52.4609 94.1133 52.4609C94.8867 52.4609 95.4688 52.6484 95.8594 53.0234C96.25 53.3945 96.4453 53.9902 96.4453 54.8105V59H95.4727ZM100.523 58.3145C100.695 58.3145 100.861 58.3027 101.021 58.2793C101.182 58.252 101.309 58.2246 101.402 58.1973V58.9414C101.297 58.9922 101.141 59.0332 100.934 59.0645C100.73 59.0996 100.547 59.1172 100.383 59.1172C99.1406 59.1172 98.5195 58.4629 98.5195 57.1543V53.334H97.5996V52.8652L98.5195 52.4609L98.9297 51.0898H99.4922V52.5781H101.355V53.334H99.4922V57.1133C99.4922 57.5 99.584 57.7969 99.7676 58.0039C99.9512 58.2109 100.203 58.3145 100.523 58.3145ZM107.086 59V54.8457C107.086 54.3223 106.967 53.9316 106.729 53.6738C106.49 53.416 106.117 53.2871 105.609 53.2871C104.934 53.2871 104.439 53.4707 104.127 53.8379C103.818 54.2051 103.664 54.8066 103.664 55.6426V59H102.691V49.8828H103.664V52.6426C103.664 52.9746 103.648 53.25 103.617 53.4688H103.676C103.867 53.1602 104.139 52.918 104.49 52.7422C104.846 52.5625 105.25 52.4727 105.703 52.4727C106.488 52.4727 107.076 52.6602 107.467 53.0352C107.861 53.4062 108.059 53.998 108.059 54.8105V59H107.086Z" fill="white"/>
<path d="M57.3682 77.2607C57.3682 78.4912 57.021 79.4976 56.3267 80.2798C55.6411 81.062 54.6655 81.585 53.3999 81.8486V81.9541C54.9468 82.1475 56.0938 82.6396 56.8408 83.4307C57.5879 84.2217 57.9614 85.2588 57.9614 86.542C57.9614 88.3789 57.3242 89.7939 56.0498 90.7871C54.7754 91.7715 52.9648 92.2637 50.6182 92.2637C49.5986 92.2637 48.6626 92.1846 47.8101 92.0264C46.9663 91.877 46.1445 91.6089 45.3447 91.2222V89.1392C46.1797 89.5522 47.0674 89.8687 48.0078 90.0884C48.957 90.2993 49.8535 90.4048 50.6973 90.4048C54.0283 90.4048 55.6938 89.0996 55.6938 86.4893C55.6938 84.1514 53.8569 82.9824 50.1831 82.9824H48.2847V81.0972H50.2095C51.7124 81.0972 52.9033 80.7676 53.7822 80.1084C54.6611 79.4404 55.1006 78.5176 55.1006 77.3398C55.1006 76.3994 54.7754 75.6611 54.125 75.125C53.4834 74.5889 52.6089 74.3208 51.5015 74.3208C50.6577 74.3208 49.8623 74.4351 49.1152 74.6636C48.3682 74.8921 47.5156 75.314 46.5576 75.9292L45.4502 74.4526C46.2412 73.8286 47.1509 73.3408 48.1792 72.9893C49.2163 72.6289 50.3062 72.4487 51.4487 72.4487C53.3208 72.4487 54.7754 72.8794 55.8125 73.7407C56.8496 74.5933 57.3682 75.7666 57.3682 77.2607ZM73.5444 92H60.875V90.1147L65.9507 85.0127C67.4976 83.4482 68.5171 82.332 69.0093 81.6641C69.5015 80.9961 69.8706 80.3457 70.1167 79.7129C70.3628 79.0801 70.4858 78.3989 70.4858 77.6694C70.4858 76.6411 70.1738 75.8281 69.5498 75.2305C68.9258 74.624 68.0601 74.3208 66.9526 74.3208C66.1528 74.3208 65.3926 74.4526 64.6719 74.7163C63.96 74.98 63.1646 75.459 62.2856 76.1533L61.1255 74.6636C62.9009 73.187 64.8345 72.4487 66.9263 72.4487C68.7368 72.4487 70.1562 72.9146 71.1846 73.8462C72.2129 74.769 72.7271 76.0127 72.7271 77.5771C72.7271 78.7988 72.3843 80.0073 71.6987 81.2026C71.0132 82.3979 69.73 83.9097 67.8491 85.7378L63.6304 89.8643V89.9697H73.5444V92ZM88.2705 77.2607C88.2705 78.4912 87.9233 79.4976 87.229 80.2798C86.5435 81.062 85.5679 81.585 84.3022 81.8486V81.9541C85.8491 82.1475 86.9961 82.6396 87.7432 83.4307C88.4902 84.2217 88.8638 85.2588 88.8638 86.542C88.8638 88.3789 88.2266 89.7939 86.9521 90.7871C85.6777 91.7715 83.8672 92.2637 81.5205 92.2637C80.501 92.2637 79.5649 92.1846 78.7124 92.0264C77.8687 91.877 77.0469 91.6089 76.2471 91.2222V89.1392C77.082 89.5522 77.9697 89.8687 78.9102 90.0884C79.8594 90.2993 80.7559 90.4048 81.5996 90.4048C84.9307 90.4048 86.5962 89.0996 86.5962 86.4893C86.5962 84.1514 84.7593 82.9824 81.0854 82.9824H79.187V81.0972H81.1118C82.6147 81.0972 83.8057 80.7676 84.6846 80.1084C85.5635 79.4404 86.0029 78.5176 86.0029 77.3398C86.0029 76.3994 85.6777 75.6611 85.0273 75.125C84.3857 74.5889 83.5112 74.3208 82.4038 74.3208C81.5601 74.3208 80.7646 74.4351 80.0176 74.6636C79.2705 74.8921 78.418 75.314 77.46 75.9292L76.3525 74.4526C77.1436 73.8286 78.0532 73.3408 79.0815 72.9893C80.1187 72.6289 81.2085 72.4487 82.3511 72.4487C84.2231 72.4487 85.6777 72.8794 86.7148 73.7407C87.752 74.5933 88.2705 75.7666 88.2705 77.2607ZM105.356 87.5703H102.496V92H100.399V87.5703H91.0259V85.6587L100.175 72.6201H102.496V85.5796H105.356V87.5703ZM100.399 85.5796V79.1724C100.399 77.9155 100.443 76.4961 100.531 74.9141H100.426C100.004 75.7578 99.6084 76.4565 99.2393 77.0103L93.2144 85.5796H100.399Z" fill="white"/>
<path d="M55.8574 121H48.6943V108.15H55.8574V109.478H50.1885V113.617H55.5146V114.936H50.1885V119.664H55.8574V121ZM60.6035 121L56.9473 111.367H58.5117L60.5859 117.08C61.0547 118.416 61.3301 119.283 61.4121 119.682H61.4824C61.5469 119.371 61.749 118.729 62.0889 117.757C62.4346 116.778 63.2051 114.648 64.4004 111.367H65.9648L62.3086 121H60.6035ZM71.5811 121.176C70.1572 121.176 69.0322 120.742 68.2061 119.875C67.3857 119.008 66.9756 117.804 66.9756 116.263C66.9756 114.71 67.3564 113.477 68.1182 112.562C68.8857 111.648 69.9141 111.191 71.2031 111.191C72.4102 111.191 73.3652 111.59 74.0684 112.387C74.7715 113.178 75.123 114.224 75.123 115.524V116.447H68.4873C68.5166 117.578 68.8008 118.437 69.3398 119.022C69.8848 119.608 70.6494 119.901 71.6338 119.901C72.6709 119.901 73.6963 119.685 74.71 119.251V120.552C74.1943 120.774 73.7051 120.933 73.2422 121.026C72.7852 121.126 72.2314 121.176 71.5811 121.176ZM71.1855 112.413C70.4121 112.413 69.7939 112.665 69.3311 113.169C68.874 113.673 68.6045 114.37 68.5225 115.261H73.5586C73.5586 114.341 73.3535 113.638 72.9434 113.151C72.5332 112.659 71.9473 112.413 71.1855 112.413ZM84.2109 121V114.769C84.2109 113.983 84.0322 113.397 83.6748 113.011C83.3174 112.624 82.7578 112.431 81.9961 112.431C80.9883 112.431 80.25 112.703 79.7812 113.248C79.3125 113.793 79.0781 114.692 79.0781 115.946V121H77.6191V111.367H78.8057L79.043 112.686H79.1133C79.4121 112.211 79.8311 111.845 80.3701 111.587C80.9092 111.323 81.5098 111.191 82.1719 111.191C83.332 111.191 84.2051 111.473 84.791 112.035C85.377 112.592 85.6699 113.485 85.6699 114.716V121H84.2109ZM91.7871 119.972C92.0449 119.972 92.2939 119.954 92.5342 119.919C92.7744 119.878 92.9648 119.837 93.1055 119.796V120.912C92.9473 120.988 92.7129 121.05 92.4023 121.097C92.0977 121.149 91.8223 121.176 91.5762 121.176C89.7129 121.176 88.7812 120.194 88.7812 118.231V112.501H87.4014V111.798L88.7812 111.191L89.3965 109.135H90.2402V111.367H93.0352V112.501H90.2402V118.17C90.2402 118.75 90.3779 119.195 90.6533 119.506C90.9287 119.816 91.3066 119.972 91.7871 119.972ZM101.253 118.372C101.253 119.269 100.919 119.96 100.251 120.446C99.583 120.933 98.6455 121.176 97.4385 121.176C96.1611 121.176 95.165 120.974 94.4502 120.569V119.216C94.9131 119.45 95.4082 119.635 95.9355 119.77C96.4688 119.904 96.9814 119.972 97.4736 119.972C98.2354 119.972 98.8213 119.852 99.2314 119.611C99.6416 119.365 99.8467 118.993 99.8467 118.495C99.8467 118.12 99.6826 117.801 99.3545 117.537C99.0322 117.268 98.3994 116.951 97.4561 116.588C96.5596 116.254 95.9209 115.964 95.54 115.718C95.165 115.466 94.8838 115.182 94.6963 114.865C94.5146 114.549 94.4238 114.171 94.4238 113.731C94.4238 112.946 94.7432 112.328 95.3818 111.877C96.0205 111.42 96.8965 111.191 98.0098 111.191C99.0469 111.191 100.061 111.402 101.051 111.824L100.532 113.011C99.5654 112.612 98.6895 112.413 97.9043 112.413C97.2129 112.413 96.6914 112.521 96.3398 112.738C95.9883 112.955 95.8125 113.254 95.8125 113.635C95.8125 113.893 95.877 114.112 96.0059 114.294C96.1406 114.476 96.3545 114.648 96.6475 114.812C96.9404 114.977 97.5029 115.214 98.335 115.524C99.4775 115.94 100.248 116.359 100.646 116.781C101.051 117.203 101.253 117.733 101.253 118.372Z" fill="white"/>
</svg>
