<svg width="148" height="160" viewBox="0 0 148 160" fill="none" xmlns="http://www.w3.org/2000/svg">
<rect opacity="0.7" width="147.992" height="159.764" rx="8.40864" fill="white" fill-opacity="0.02"/>
<path fill-rule="evenodd" clip-rule="evenodd" d="M74.1291 20.1812C74.0588 20.1812 73.9886 20.1813 73.9184 20.1816L73.9212 21.0224C73.9904 21.0222 74.0597 21.0221 74.1291 21.0221C74.1984 21.0221 74.2677 21.0222 74.337 21.0224L74.3397 20.1816C74.2695 20.1813 74.1993 20.1812 74.1291 20.1812ZM71.4038 20.2387C71.2647 20.2445 71.1258 20.2509 70.987 20.2576L71.0279 21.0975C71.1649 21.0908 71.302 21.0846 71.4392 21.0788L71.4038 20.2387ZM77.2712 20.2576C77.1324 20.2509 76.9934 20.2445 76.8544 20.2387L76.8189 21.0788C76.9561 21.0846 77.0932 21.0908 77.2302 21.0975L77.2712 20.2576ZM68.4764 20.4295C68.3376 20.4417 68.1989 20.4544 68.0603 20.4675L68.1397 21.3047C68.2764 21.2917 68.4133 21.2792 68.5503 21.2671L68.4764 20.4295ZM80.1978 20.4675C80.0593 20.4544 79.9206 20.4417 79.7818 20.4295L79.7079 21.2671C79.8449 21.2792 79.9817 21.2917 80.1184 21.3047L80.1978 20.4675ZM65.5612 20.7545C65.4229 20.7731 65.2848 20.7922 65.1469 20.8118L65.2648 21.6443C65.4009 21.6251 65.5372 21.6062 65.6736 21.5878L65.5612 20.7545ZM83.1113 20.8118C82.9733 20.7922 82.8352 20.7731 82.697 20.7545L82.5846 21.5878C82.721 21.6062 82.8572 21.6251 82.9934 21.6443L83.1113 20.8118ZM62.6643 21.2138C62.527 21.2389 62.3898 21.2643 62.2527 21.2903L62.4091 22.1165C62.5443 22.0909 62.6797 22.0657 62.8152 22.041L62.6643 21.2138ZM86.0054 21.2903C85.8684 21.2643 85.7312 21.2389 85.5939 21.2138L85.443 22.041C85.5785 22.0657 85.7139 22.0909 85.8491 22.1165L86.0054 21.2903ZM59.7919 21.8069C59.6558 21.8383 59.5199 21.8702 59.3841 21.9025L59.5787 22.7205C59.7127 22.6887 59.8468 22.6572 59.9811 22.6262L59.7919 21.8069ZM88.874 21.9025C88.7383 21.8702 88.6023 21.8384 88.4662 21.8069L88.2771 22.6262C88.4114 22.6572 88.5455 22.6887 88.6795 22.7205L88.874 21.9025ZM56.9503 22.5329C56.8158 22.5707 56.6814 22.6088 56.5472 22.6474L56.7796 23.4555C56.912 23.4174 57.0446 23.3798 57.1774 23.3426L56.9503 22.5329ZM91.711 22.6474C91.5768 22.6088 91.4424 22.5707 91.3078 22.5329L91.0808 23.3426C91.2136 23.3798 91.3461 23.4174 91.4785 23.4555L91.711 22.6474ZM54.1456 23.3904C54.0129 23.4343 53.8804 23.4787 53.7481 23.5236L54.0179 24.32C54.1484 24.2757 54.2791 24.2319 54.41 24.1886L54.1456 23.3904ZM94.5101 23.5236C94.3778 23.4787 94.2453 23.4343 94.1126 23.3904L93.8481 24.1886C93.979 24.2319 94.1097 24.2757 94.2403 24.32L94.5101 23.5236ZM51.3837 24.3775C51.2532 24.4276 51.1229 24.4781 50.9928 24.529L51.2994 25.312C51.4277 25.2617 51.5563 25.2119 51.6851 25.1625L51.3837 24.3775ZM97.2653 24.529C97.1352 24.4781 97.0049 24.4276 96.8744 24.3775L96.5731 25.1625C96.7018 25.2119 96.8304 25.2618 96.9588 25.312L97.2653 24.529ZM48.6708 25.4919C48.5428 25.548 48.4149 25.6046 48.2873 25.6615L48.6299 26.4294C48.7558 26.3732 48.882 26.3175 49.0083 26.2621L48.6708 25.4919ZM99.9708 25.6615C99.8432 25.6046 99.7154 25.5481 99.5873 25.4919L99.2498 26.2621C99.3762 26.3175 99.5023 26.3732 99.6282 26.4294L99.9708 25.6615ZM46.0126 26.7312C45.8873 26.7932 45.7622 26.8556 45.6373 26.9184L46.0152 27.6696C46.1384 27.6076 46.2618 27.5461 46.3855 27.4849L46.0126 26.7312ZM102.621 26.9184C102.496 26.8556 102.371 26.7932 102.246 26.7312L101.873 27.4849C101.996 27.5461 102.12 27.6076 102.243 27.6696L102.621 26.9184ZM43.4146 28.0924C43.2923 28.1602 43.1703 28.2283 43.0485 28.2968L43.4607 29.0297C43.5809 28.9621 43.7014 28.8949 43.822 28.828L43.4146 28.0924ZM105.21 28.2968C105.088 28.2283 104.966 28.1602 104.844 28.0924L104.436 28.828C104.557 28.8949 104.677 28.9621 104.797 29.0297L105.21 28.2968ZM40.8825 29.5724C40.7634 29.6457 40.6447 29.7194 40.5262 29.7935L40.9718 30.5065C41.0888 30.4334 41.206 30.3607 41.3234 30.2884L40.8825 29.5724ZM107.732 29.7935C107.613 29.7194 107.495 29.6457 107.376 29.5724L106.935 30.2884C107.052 30.3607 107.169 30.4334 107.286 30.5065L107.732 29.7935ZM38.4213 31.1677C38.3058 31.2465 38.1906 31.3255 38.0756 31.405L38.5537 32.0967C38.6672 32.0183 38.7809 31.9403 38.8949 31.8626L38.4213 31.1677ZM110.183 31.405C110.068 31.3256 109.952 31.2465 109.837 31.1678L109.363 31.8626C109.477 31.9403 109.591 32.0183 109.704 32.0967L110.183 31.405ZM36.0363 32.8748C35.9246 32.9588 35.8131 33.0431 35.702 33.1277L36.2114 33.7967C36.3211 33.7132 36.4311 33.63 36.5414 33.5471L36.0363 32.8748ZM112.556 33.1277C112.445 33.0431 112.334 32.9588 112.222 32.8748L111.717 33.5471C111.827 33.63 111.937 33.7132 112.047 33.7967L112.556 33.1277ZM33.7324 34.6899C33.6247 34.7788 33.5172 34.8681 33.4101 34.9578L33.9497 35.6027C34.0554 35.5142 34.1615 35.426 34.2678 35.3382L33.7324 34.6899ZM114.848 34.9578C114.741 34.8681 114.633 34.7788 114.526 34.6899L113.99 35.3382C114.097 35.426 114.203 35.5142 114.308 35.6027L114.848 34.9578ZM31.5142 36.6089C31.4107 36.7027 31.3075 36.7968 31.2046 36.8913L31.7733 37.5107C31.8749 37.4174 31.9767 37.3246 32.0789 37.232L31.5142 36.6089ZM117.053 36.8913C116.951 36.7968 116.847 36.7027 116.744 36.6089L116.179 37.232C116.281 37.3246 116.383 37.4175 116.485 37.5107L117.053 36.8913ZM29.3866 38.6277C29.2875 38.7262 29.1887 38.8249 29.0903 38.924L29.6868 39.5166C29.784 39.4188 29.8814 39.3214 29.9792 39.2242L29.3866 38.6277ZM119.168 38.924C119.069 38.8249 118.971 38.7262 118.872 38.6277L118.279 39.2243C118.377 39.3214 118.474 39.4189 118.571 39.5166L119.168 38.924ZM27.3539 40.7421C27.2594 40.8449 27.1653 40.9481 27.0715 41.0517L27.6946 41.6163C27.7871 41.5141 27.88 41.4123 27.9733 41.3107L27.3539 40.7421ZM121.187 41.0517C121.093 40.9482 120.999 40.8449 120.904 40.7421L120.285 41.3108C120.378 41.4123 120.471 41.5141 120.564 41.6163L121.187 41.0517ZM25.4204 42.9475C25.3307 43.0546 25.2414 43.1621 25.1524 43.2698L25.8008 43.8052C25.8886 43.6989 25.9768 43.5929 26.0653 43.4871L25.4204 42.9475ZM123.106 43.2698C123.017 43.1621 122.927 43.0546 122.838 42.9475L122.193 43.4871C122.281 43.5929 122.37 43.6989 122.457 43.8052L123.106 43.2698ZM23.5903 45.2394C23.5057 45.3505 23.4214 45.462 23.3374 45.5737L24.0097 46.0788C24.0926 45.9685 24.1757 45.8585 24.2593 45.7488L23.5903 45.2394ZM124.921 45.5737C124.837 45.462 124.752 45.3506 124.668 45.2394L123.999 45.7488C124.082 45.8585 124.166 45.9685 124.248 46.0788L124.921 45.5737ZM21.8676 47.613C21.7881 47.728 21.7091 47.8432 21.6303 47.9587L22.3252 48.4323C22.4029 48.3183 22.4809 48.2046 22.5593 48.0911L21.8676 47.613ZM126.628 47.9587C126.549 47.8432 126.47 47.728 126.391 47.6131L125.699 48.0911C125.777 48.2046 125.855 48.3183 125.933 48.4323L126.628 47.9587ZM20.2561 50.0636C20.182 50.1821 20.1083 50.3008 20.035 50.4199L20.751 50.8608C20.8233 50.7434 20.896 50.6262 20.9691 50.5093L20.2561 50.0636ZM128.223 50.4199C128.15 50.3009 128.076 50.1821 128.002 50.0636L127.289 50.5093C127.362 50.6262 127.435 50.7434 127.507 50.8609L128.223 50.4199ZM18.7594 52.5859C18.6909 52.7077 18.6228 52.8297 18.555 52.952L19.2906 53.3594C19.3574 53.2388 19.4247 53.1183 19.4923 52.9981L18.7594 52.5859ZM129.703 52.9521C129.635 52.8298 129.567 52.7077 129.499 52.5859L128.766 52.9981C128.833 53.1183 128.901 53.2388 128.968 53.3595L129.703 52.9521ZM17.381 55.1747C17.3182 55.2996 17.2558 55.4247 17.1938 55.55L17.9475 55.9229C18.0087 55.7992 18.0702 55.6758 18.1322 55.5526L17.381 55.1747ZM130.972 55.3641C130.94 55.3009 130.909 55.2378 130.877 55.1747L130.126 55.5526C130.169 55.6389 130.213 55.7253 130.256 55.8118C130.274 55.8488 130.292 55.8858 130.311 55.9229L131.064 55.55C131.034 55.488 131.003 55.426 130.972 55.3641ZM16.1241 57.8247C16.0672 57.9523 16.0106 58.0802 15.9545 58.2082L16.7247 58.5457C16.78 58.4194 16.8358 58.2932 16.892 58.1673L16.1241 57.8247ZM132.304 58.2082C132.248 58.0802 132.191 57.9523 132.134 57.8247L131.366 58.1673C131.422 58.2933 131.478 58.4194 131.533 58.5457L132.304 58.2082ZM14.9916 60.5302C14.9407 60.6603 14.8901 60.7906 14.84 60.9211L15.6251 61.2225C15.6745 61.0937 15.7243 60.9651 15.7746 60.8368L14.9916 60.5302ZM133.418 60.9212C133.368 60.7906 133.317 60.6603 133.267 60.5302L132.484 60.8368C132.534 60.9651 132.584 61.0937 132.633 61.2225L133.418 60.9212ZM13.9861 63.2855C13.9413 63.4178 13.8969 63.5503 13.853 63.683L14.6511 63.9474C14.6945 63.8165 14.7383 63.6858 14.7826 63.5553L13.9861 63.2855ZM134.405 63.683C134.381 63.609 134.356 63.5352 134.331 63.4613L134.272 63.2855L133.476 63.5553C133.52 63.6858 133.564 63.8165 133.607 63.9475L134.405 63.683ZM13.11 66.0846C13.0714 66.2188 13.0332 66.3532 12.9955 66.4877L13.8051 66.7148C13.8424 66.582 13.88 66.4494 13.9181 66.317L13.11 66.0846ZM135.263 66.4877C135.225 66.3532 135.187 66.2188 135.148 66.0846L134.34 66.317C134.365 66.4044 134.39 66.4918 134.415 66.5793C134.428 66.6244 134.44 66.6696 134.453 66.7148L135.263 66.4877ZM12.3651 68.9215C12.3328 69.0573 12.3009 69.1932 12.2695 69.3293L13.0888 69.5185C13.1198 69.3842 13.1513 69.2501 13.1831 69.1161L12.3651 68.9215ZM135.921 69.0415C135.912 69.0015 135.903 68.9615 135.893 68.9215L135.075 69.1161C135.107 69.2501 135.138 69.3842 135.169 69.5185L135.989 69.3294C135.966 69.2333 135.944 69.1374 135.921 69.0415ZM11.7529 71.7901C11.7269 71.9272 11.7014 72.0644 11.6764 72.2017L12.5036 72.3526C12.5283 72.2171 12.5535 72.0817 12.5791 71.9465L11.7529 71.7901ZM136.582 72.2017C136.557 72.0644 136.531 71.9272 136.505 71.7902L135.679 71.9465C135.697 72.0394 135.714 72.1324 135.731 72.2254C135.739 72.2678 135.747 72.3102 135.755 72.3526L136.582 72.2017ZM11.2744 74.6843C11.2548 74.8222 11.2357 74.9603 11.2171 75.0986L12.0504 75.211C12.0688 75.0746 12.0876 74.9383 12.1069 74.8022L11.2744 74.6843ZM137.041 75.0986C137.022 74.9603 137.003 74.8222 136.984 74.6843L136.151 74.8022C136.17 74.9383 136.189 75.0746 136.208 75.211L137.041 75.0986ZM10.9301 77.5977C10.917 77.7363 10.9043 77.8749 10.8921 78.0137L11.7297 78.0877C11.7417 77.9507 11.7543 77.8138 11.7672 77.6771L10.9301 77.5977ZM137.366 78.0138C137.354 77.875 137.341 77.7363 137.328 77.5977L136.491 77.6771C136.504 77.8139 136.516 77.9507 136.528 78.0877L137.366 78.0138ZM10.7202 80.5244C10.7134 80.6632 10.7071 80.8021 10.7012 80.9411L11.5414 80.9766C11.5472 80.8394 11.5534 80.7023 11.5601 80.5653L10.7202 80.5244ZM137.557 80.9412C137.551 80.8021 137.545 80.6632 137.538 80.5244L136.698 80.5654C136.705 80.7023 136.711 80.8394 136.717 80.9767L137.557 80.9412ZM10.6441 83.4558C10.6439 83.526 10.6438 83.5962 10.6438 83.6665C10.6438 83.7367 10.6439 83.8069 10.6441 83.8771L11.485 83.8744C11.4848 83.8051 11.4847 83.7358 11.4847 83.6665C11.4847 83.5971 11.4848 83.5278 11.485 83.4586L10.6441 83.4558ZM137.614 83.6665L137.614 83.5838L137.614 83.4559L136.773 83.4586C136.773 83.5279 136.773 83.5972 136.773 83.6665C136.773 83.7358 136.773 83.8051 136.773 83.8744L137.614 83.8771C137.614 83.8069 137.614 83.7367 137.614 83.6665ZM10.7012 86.3918C10.7071 86.5308 10.7134 86.6697 10.7202 86.8085L11.5601 86.7676C11.5534 86.6306 11.5472 86.4935 11.5414 86.3563L10.7012 86.3918ZM137.538 86.8086C137.545 86.6698 137.551 86.5309 137.557 86.3918L136.717 86.3563C136.711 86.4936 136.705 86.6306 136.698 86.7676L137.538 86.8086ZM10.892 89.3192C10.9043 89.458 10.917 89.5967 10.9301 89.7352L11.7672 89.6558C11.7543 89.5191 11.7417 89.3823 11.7297 89.2453L10.892 89.3192ZM137.328 89.7352C137.339 89.6177 137.35 89.5 137.36 89.3823L137.366 89.3192L136.528 89.2453C136.516 89.3823 136.504 89.5191 136.491 89.6559L137.328 89.7352ZM11.2171 92.2344C11.2357 92.3726 11.2548 92.5107 11.2744 92.6487L12.1069 92.5308C12.0876 92.3946 12.0688 92.2584 12.0504 92.122L11.2171 92.2344ZM136.984 92.6487C137.003 92.5107 137.022 92.3727 137.041 92.2344L136.208 92.122C136.189 92.2584 136.17 92.3947 136.151 92.5308L136.984 92.6487ZM11.6764 95.1313C11.7014 95.2686 11.7269 95.4058 11.7529 95.5428L12.5791 95.3865C12.5535 95.2512 12.5283 95.1159 12.5036 94.9804L11.6764 95.1313ZM136.555 95.2774C136.564 95.2287 136.573 95.18 136.582 95.1313L135.755 94.9804C135.73 95.1159 135.705 95.2513 135.679 95.3865L136.505 95.5428C136.522 95.4544 136.539 95.3659 136.555 95.2774ZM12.2695 98.0036C12.3009 98.1397 12.3328 98.2757 12.3651 98.4114L13.1831 98.2169C13.1513 98.0829 13.1198 97.9488 13.0888 97.8145L12.2695 98.0036ZM135.893 98.4114C135.911 98.3371 135.928 98.2626 135.946 98.1881L135.989 98.0036L135.169 97.8145C135.156 97.8725 135.142 97.9305 135.129 97.9885C135.111 98.0647 135.093 98.1408 135.075 98.2169L135.893 98.4114ZM12.9955 100.845C13.0332 100.98 13.0714 101.114 13.11 101.248L13.9181 101.016C13.88 100.884 13.8424 100.751 13.8051 100.618L12.9955 100.845ZM135.148 101.248C135.187 101.114 135.225 100.98 135.263 100.845L134.453 100.618L134.401 100.801C134.392 100.836 134.382 100.871 134.372 100.906C134.361 100.942 134.351 100.979 134.34 101.016L135.148 101.248ZM13.853 103.65C13.8969 103.783 13.9413 103.915 13.9861 104.047L14.7825 103.778C14.7383 103.647 14.6945 103.516 14.6511 103.386L13.853 103.65ZM134.272 104.047L134.318 103.911C134.347 103.824 134.376 103.737 134.405 103.65L133.607 103.386C133.564 103.516 133.52 103.647 133.476 103.778L134.272 104.047ZM14.84 106.412C14.8901 106.542 14.9407 106.673 14.9916 106.803L15.7746 106.496C15.7243 106.368 15.6745 106.239 15.625 106.11L14.84 106.412ZM133.267 106.803C133.317 106.673 133.368 106.542 133.418 106.412L132.633 106.11C132.584 106.239 132.534 106.368 132.484 106.496L133.267 106.803ZM15.9545 109.125C16.0106 109.253 16.0672 109.381 16.1241 109.508L16.892 109.166C16.8358 109.04 16.78 108.914 16.7247 108.787L15.9545 109.125ZM132.134 109.508C132.191 109.381 132.247 109.253 132.304 109.125L131.533 108.787C131.478 108.914 131.422 109.04 131.366 109.166L132.134 109.508ZM17.1938 111.783C17.2558 111.908 17.3182 112.033 17.381 112.158L18.1322 111.78C18.0702 111.657 18.0086 111.534 17.9475 111.41L17.1938 111.783ZM130.877 112.158C130.94 112.033 131.002 111.908 131.064 111.783L130.311 111.41C130.249 111.534 130.188 111.657 130.126 111.78L130.877 112.158ZM18.555 114.381C18.6228 114.503 18.6909 114.625 18.7594 114.747L19.4923 114.335C19.4247 114.215 19.3574 114.094 19.2906 113.974L18.555 114.381ZM129.499 114.747C129.567 114.625 129.635 114.503 129.703 114.381L128.968 113.974C128.901 114.094 128.833 114.215 128.766 114.335L129.499 114.747ZM20.035 116.913C20.1083 117.032 20.182 117.151 20.2561 117.269L20.9691 116.824C20.896 116.707 20.8233 116.59 20.751 116.472L20.035 116.913ZM128.002 117.269C128.076 117.151 128.15 117.032 128.223 116.913L127.507 116.472C127.435 116.59 127.362 116.707 127.289 116.824L128.002 117.269ZM21.6303 119.374C21.709 119.49 21.7881 119.605 21.8676 119.72L22.5593 119.242C22.4809 119.128 22.4029 119.015 22.3252 118.901L21.6303 119.374ZM126.391 119.72C126.47 119.605 126.549 119.49 126.628 119.374L125.933 118.901C125.855 119.015 125.777 119.128 125.699 119.242L126.391 119.72ZM23.3374 121.759C23.4214 121.871 23.5056 121.982 23.5903 122.094L24.2593 121.584C24.1757 121.474 24.0926 121.364 24.0097 121.254L23.3374 121.759ZM124.668 122.094L124.74 121.998C124.801 121.919 124.861 121.839 124.921 121.759L124.248 121.254C124.189 121.334 124.129 121.413 124.069 121.492L123.999 121.584L124.668 122.094ZM25.1524 124.063C25.2414 124.171 25.3307 124.278 25.4204 124.385L26.0652 123.846C25.9768 123.74 25.8886 123.634 25.8008 123.528L25.1524 124.063ZM122.838 124.385C122.927 124.278 123.017 124.171 123.106 124.063L122.457 123.528C122.37 123.634 122.281 123.74 122.193 123.846L122.838 124.385ZM27.0715 126.281C27.1653 126.385 27.2594 126.488 27.3539 126.591L27.9733 126.022C27.88 125.921 27.7871 125.819 27.6946 125.717L27.0715 126.281ZM120.904 126.591L121.016 126.469C121.073 126.407 121.13 126.344 121.187 126.281L120.564 125.717C120.518 125.766 120.473 125.816 120.428 125.866C120.407 125.889 120.385 125.913 120.364 125.936C120.338 125.965 120.311 125.994 120.285 126.022L120.904 126.591ZM29.0903 128.409C29.1887 128.508 29.2875 128.607 29.3866 128.705L29.9792 128.109C29.8814 128.012 29.784 127.914 29.6868 127.816L29.0903 128.409ZM118.872 128.705L118.952 128.625C118.976 128.601 119.001 128.576 119.025 128.552C119.073 128.504 119.12 128.457 119.168 128.409L118.571 127.816C118.474 127.914 118.377 128.012 118.279 128.109L118.872 128.705ZM31.2046 130.442C31.3075 130.536 31.4107 130.63 31.5142 130.724L32.0789 130.101C31.9767 130.008 31.8749 129.916 31.7733 129.822L31.2046 130.442ZM116.91 130.573C116.958 130.529 117.006 130.485 117.053 130.442L116.485 129.822C116.383 129.916 116.281 130.008 116.179 130.101L116.744 130.724C116.799 130.674 116.855 130.623 116.91 130.573ZM33.4101 132.375C33.5172 132.465 33.6246 132.554 33.7324 132.643L34.2678 131.995C34.1615 131.907 34.0554 131.819 33.9497 131.73L33.4101 132.375ZM114.526 132.643C114.633 132.554 114.741 132.465 114.848 132.375L114.308 131.73C114.203 131.819 114.097 131.907 113.99 131.995L114.526 132.643Z" fill="#9499C3"/>
<rect x="133.409" y="83.2743" width="4.20432" height="0.840864" fill="#9499C3"/>
<rect width="4.20432" height="0.840864" transform="matrix(-0.819152 -0.573576 -0.573576 0.819152 128.242 116.907)" fill="#9499C3"/>
<path fill-rule="evenodd" clip-rule="evenodd" d="M15.0539 74.8611C14.6358 77.7014 14.4194 80.6056 14.4194 83.5588C14.4194 102.133 22.9797 118.765 36.4436 129.797L33.8245 133.085C19.4019 121.292 10.2151 103.484 10.2151 83.5588C10.2151 80.3875 10.4478 77.2699 10.8973 74.2216L15.0539 74.8611Z" fill="#298BFE"/>
<rect x="19.5754" y="116.932" width="4.47536" height="0.840864" transform="rotate(-35 19.5754 116.932)" fill="#1A1C48"/>
<rect x="13.1279" y="74.6025" width="4.20432" height="0.858001" transform="rotate(7.8066 13.1279 74.6025)" fill="#298BFE"/>
<rect x="9.61816" y="83.2743" width="5.04519" height="0.840864" fill="#1A1C48"/>
<path d="M46.5859 52.9297C46.5859 53.7969 46.2891 54.4648 45.6953 54.9336C45.1055 55.3984 44.2598 55.6309 43.1582 55.6309H42.1504V59H41.1543V50.4336H43.375C45.5156 50.4336 46.5859 51.2656 46.5859 52.9297ZM42.1504 54.7754H43.0469C43.9297 54.7754 44.5684 54.6328 44.9629 54.3477C45.3574 54.0625 45.5547 53.6055 45.5547 52.9766C45.5547 52.4102 45.3691 51.9883 44.998 51.7109C44.627 51.4336 44.0488 51.2949 43.2637 51.2949H42.1504V54.7754ZM50.9512 59.1172C50.002 59.1172 49.252 58.8281 48.7012 58.25C48.1543 57.6719 47.8809 56.8691 47.8809 55.8418C47.8809 54.8066 48.1348 53.9844 48.6426 53.375C49.1543 52.7656 49.8398 52.4609 50.6992 52.4609C51.5039 52.4609 52.1406 52.7266 52.6094 53.2578C53.0781 53.7852 53.3125 54.4824 53.3125 55.3496V55.9648H48.8887C48.9082 56.7188 49.0977 57.291 49.457 57.6816C49.8203 58.0723 50.3301 58.2676 50.9863 58.2676C51.6777 58.2676 52.3613 58.123 53.0371 57.834V58.7012C52.6934 58.8496 52.3672 58.9551 52.0586 59.0176C51.7539 59.084 51.3848 59.1172 50.9512 59.1172ZM50.6875 53.2754C50.1719 53.2754 49.7598 53.4434 49.4512 53.7793C49.1465 54.1152 48.9668 54.5801 48.9121 55.1738H52.2695C52.2695 54.5605 52.1328 54.0918 51.8594 53.7676C51.5859 53.4395 51.1953 53.2754 50.6875 53.2754ZM57.9062 52.4609C58.1914 52.4609 58.4473 52.4844 58.6738 52.5312L58.5391 53.4336C58.2734 53.375 58.0391 53.3457 57.8359 53.3457C57.3164 53.3457 56.8711 53.5566 56.5 53.9785C56.1328 54.4004 55.9492 54.9258 55.9492 55.5547V59H54.9766V52.5781H55.7793L55.8906 53.7676H55.9375C56.1758 53.3496 56.4629 53.0273 56.7988 52.8008C57.1348 52.5742 57.5039 52.4609 57.9062 52.4609ZM67.8555 52.4492C67.8555 52.9961 67.7012 53.4434 67.3926 53.791C67.0879 54.1387 66.6543 54.3711 66.0918 54.4883V54.5352C66.7793 54.6211 67.2891 54.8398 67.6211 55.1914C67.9531 55.543 68.1191 56.0039 68.1191 56.5742C68.1191 57.3906 67.8359 58.0195 67.2695 58.4609C66.7031 58.8984 65.8984 59.1172 64.8555 59.1172C64.4023 59.1172 63.9863 59.082 63.6074 59.0117C63.2324 58.9453 62.8672 58.8262 62.5117 58.6543V57.7285C62.8828 57.9121 63.2773 58.0527 63.6953 58.1504C64.1172 58.2441 64.5156 58.291 64.8906 58.291C66.3711 58.291 67.1113 57.7109 67.1113 56.5508C67.1113 55.5117 66.2949 54.9922 64.6621 54.9922H63.8184V54.1543H64.6738C65.3418 54.1543 65.8711 54.0078 66.2617 53.7148C66.6523 53.418 66.8477 53.0078 66.8477 52.4844C66.8477 52.0664 66.7031 51.7383 66.4141 51.5C66.1289 51.2617 65.7402 51.1426 65.248 51.1426C64.873 51.1426 64.5195 51.1934 64.1875 51.2949C63.8555 51.3965 63.4766 51.584 63.0508 51.8574L62.5586 51.2012C62.9102 50.9238 63.3145 50.707 63.7715 50.5508C64.2324 50.3906 64.7168 50.3105 65.2246 50.3105C66.0566 50.3105 66.7031 50.502 67.1641 50.8848C67.625 51.2637 67.8555 51.7852 67.8555 52.4492ZM76.9141 59L74.0078 51.4062H73.9609C74.0156 52.0078 74.043 52.7227 74.043 53.5508V59H73.123V50.4336H74.623L77.3359 57.5H77.3828L80.1191 50.4336H81.6074V59H80.6113V53.4805C80.6113 52.8477 80.6387 52.1602 80.6934 51.418H80.6465L77.7168 59H76.9141ZM89.3594 55.7832C89.3594 56.8301 89.0957 57.6484 88.5684 58.2383C88.041 58.8242 87.3125 59.1172 86.3828 59.1172C85.8086 59.1172 85.2988 58.9824 84.8535 58.7129C84.4082 58.4434 84.0645 58.0566 83.8223 57.5527C83.5801 57.0488 83.459 56.459 83.459 55.7832C83.459 54.7363 83.7207 53.9219 84.2441 53.3398C84.7676 52.7539 85.4941 52.4609 86.4238 52.4609C87.3223 52.4609 88.0352 52.7598 88.5625 53.3574C89.0938 53.9551 89.3594 54.7637 89.3594 55.7832ZM84.4668 55.7832C84.4668 56.6035 84.6309 57.2285 84.959 57.6582C85.2871 58.0879 85.7695 58.3027 86.4062 58.3027C87.043 58.3027 87.5254 58.0898 87.8535 57.6641C88.1855 57.2344 88.3516 56.6074 88.3516 55.7832C88.3516 54.9668 88.1855 54.3477 87.8535 53.9258C87.5254 53.5 87.0391 53.2871 86.3945 53.2871C85.7578 53.2871 85.2773 53.4961 84.9531 53.9141C84.6289 54.332 84.4668 54.9551 84.4668 55.7832ZM95.4648 59V54.8457C95.4648 54.3223 95.3457 53.9316 95.1074 53.6738C94.8691 53.416 94.4961 53.2871 93.9883 53.2871C93.3164 53.2871 92.8242 53.4688 92.5117 53.832C92.1992 54.1953 92.043 54.7949 92.043 55.6309V59H91.0703V52.5781H91.8613L92.0195 53.457H92.0664C92.2656 53.1406 92.5449 52.8965 92.9043 52.7246C93.2637 52.5488 93.6641 52.4609 94.1055 52.4609C94.8789 52.4609 95.4609 52.6484 95.8516 53.0234C96.2422 53.3945 96.4375 53.9902 96.4375 54.8105V59H95.4648ZM100.516 58.3145C100.688 58.3145 100.854 58.3027 101.014 58.2793C101.174 58.252 101.301 58.2246 101.395 58.1973V58.9414C101.289 58.9922 101.133 59.0332 100.926 59.0645C100.723 59.0996 100.539 59.1172 100.375 59.1172C99.1328 59.1172 98.5117 58.4629 98.5117 57.1543V53.334H97.5918V52.8652L98.5117 52.4609L98.9219 51.0898H99.4844V52.5781H101.348V53.334H99.4844V57.1133C99.4844 57.5 99.5762 57.7969 99.7598 58.0039C99.9434 58.2109 100.195 58.3145 100.516 58.3145ZM107.078 59V54.8457C107.078 54.3223 106.959 53.9316 106.721 53.6738C106.482 53.416 106.109 53.2871 105.602 53.2871C104.926 53.2871 104.432 53.4707 104.119 53.8379C103.811 54.2051 103.656 54.8066 103.656 55.6426V59H102.684V49.8828H103.656V52.6426C103.656 52.9746 103.641 53.25 103.609 53.4688H103.668C103.859 53.1602 104.131 52.918 104.482 52.7422C104.838 52.5625 105.242 52.4727 105.695 52.4727C106.48 52.4727 107.068 52.6602 107.459 53.0352C107.854 53.4062 108.051 53.998 108.051 54.8105V59H107.078Z" fill="white"/>
<path d="M65.0092 78.2607C65.0092 79.4912 64.6621 80.4976 63.9677 81.2798C63.2822 82.062 62.3066 82.585 61.041 82.8486V82.9541C62.5878 83.1475 63.7348 83.6396 64.4819 84.4307C65.229 85.2217 65.6025 86.2588 65.6025 87.542C65.6025 89.3789 64.9653 90.7939 63.6909 91.7871C62.4165 92.7715 60.6059 93.2637 58.2592 93.2637C57.2397 93.2637 56.3037 93.1846 55.4511 93.0264C54.6074 92.877 53.7856 92.6089 52.9858 92.2222V90.1392C53.8207 90.5522 54.7084 90.8687 55.6489 91.0884C56.5981 91.2993 57.4946 91.4048 58.3383 91.4048C61.6694 91.4048 63.3349 90.0996 63.3349 87.4893C63.3349 85.1514 61.498 83.9824 57.8242 83.9824H55.9257V82.0972H57.8505C59.3535 82.0972 60.5444 81.7676 61.4233 81.1084C62.3022 80.4404 62.7416 79.5176 62.7416 78.3398C62.7416 77.3994 62.4165 76.6611 61.7661 76.125C61.1245 75.5889 60.2499 75.3208 59.1425 75.3208C58.2988 75.3208 57.5034 75.4351 56.7563 75.6636C56.0092 75.8921 55.1567 76.314 54.1987 76.9292L53.0913 75.4526C53.8823 74.8286 54.7919 74.3408 55.8203 73.9893C56.8574 73.6289 57.9472 73.4487 59.0898 73.4487C60.9619 73.4487 62.4165 73.8794 63.4536 74.7407C64.4907 75.5933 65.0092 76.7666 65.0092 78.2607ZM74.541 81.2271C76.5712 81.2271 78.1665 81.7324 79.3266 82.7432C80.4956 83.7451 81.08 85.1206 81.08 86.8696C81.08 88.8647 80.4428 90.4292 79.1684 91.563C77.9028 92.6968 76.1538 93.2637 73.9213 93.2637C71.7504 93.2637 70.0937 92.9165 68.9511 92.2222V90.1128C69.5664 90.5083 70.331 90.8203 71.2451 91.0488C72.1591 91.2686 73.06 91.3784 73.9477 91.3784C75.4946 91.3784 76.6943 91.0137 77.5468 90.2842C78.4081 89.5547 78.8388 88.5 78.8388 87.1201C78.8388 84.4307 77.1909 83.0859 73.895 83.0859C73.06 83.0859 71.9438 83.2134 70.5463 83.4683L69.4125 82.7432L70.1376 73.7256H79.7221V75.7427H72.0097L71.5219 81.5303C72.5327 81.3281 73.539 81.2271 74.541 81.2271ZM96.7421 83.3364C96.7421 86.6675 96.2148 89.1548 95.1601 90.7983C94.1142 92.4419 92.5102 93.2637 90.3481 93.2637C88.2739 93.2637 86.6962 92.4243 85.6152 90.7456C84.5341 89.0581 83.9936 86.5884 83.9936 83.3364C83.9936 79.979 84.5165 77.4873 85.5624 75.8613C86.6083 74.2354 88.2036 73.4224 90.3481 73.4224C92.4399 73.4224 94.0263 74.2705 95.1074 75.9668C96.1972 77.6631 96.7421 80.1196 96.7421 83.3364ZM86.2084 83.3364C86.2084 86.1401 86.538 88.1836 87.1972 89.4668C87.8564 90.7412 88.9067 91.3784 90.3481 91.3784C91.8071 91.3784 92.8618 90.7324 93.5122 89.4404C94.1713 88.1396 94.5009 86.105 94.5009 83.3364C94.5009 80.5679 94.1713 78.542 93.5122 77.2588C92.8618 75.9668 91.8071 75.3208 90.3481 75.3208C88.9067 75.3208 87.8564 75.958 87.1972 77.2324C86.538 78.498 86.2084 80.5327 86.2084 83.3364Z" fill="white"/>
<path d="M55.8652 122H48.7021V109.15H55.8652V110.478H50.1963V114.617H55.5225V115.936H50.1963V120.664H55.8652V122ZM60.6113 122L56.9551 112.367H58.5195L60.5938 118.08C61.0625 119.416 61.3379 120.283 61.4199 120.682H61.4902C61.5547 120.371 61.7568 119.729 62.0967 118.757C62.4424 117.778 63.2129 115.648 64.4082 112.367H65.9727L62.3164 122H60.6113ZM71.5889 122.176C70.165 122.176 69.04 121.742 68.2139 120.875C67.3936 120.008 66.9834 118.804 66.9834 117.263C66.9834 115.71 67.3643 114.477 68.126 113.562C68.8936 112.648 69.9219 112.191 71.2109 112.191C72.418 112.191 73.373 112.59 74.0762 113.387C74.7793 114.178 75.1309 115.224 75.1309 116.524V117.447H68.4951C68.5244 118.578 68.8086 119.437 69.3477 120.022C69.8926 120.608 70.6572 120.901 71.6416 120.901C72.6787 120.901 73.7041 120.685 74.7178 120.251V121.552C74.2021 121.774 73.7129 121.933 73.25 122.026C72.793 122.126 72.2393 122.176 71.5889 122.176ZM71.1934 113.413C70.4199 113.413 69.8018 113.665 69.3389 114.169C68.8818 114.673 68.6123 115.37 68.5303 116.261H73.5664C73.5664 115.341 73.3613 114.638 72.9512 114.151C72.541 113.659 71.9551 113.413 71.1934 113.413ZM84.2188 122V115.769C84.2188 114.983 84.04 114.397 83.6826 114.011C83.3252 113.624 82.7656 113.431 82.0039 113.431C80.9961 113.431 80.2578 113.703 79.7891 114.248C79.3203 114.793 79.0859 115.692 79.0859 116.946V122H77.627V112.367H78.8135L79.0508 113.686H79.1211C79.4199 113.211 79.8389 112.845 80.3779 112.587C80.917 112.323 81.5176 112.191 82.1797 112.191C83.3398 112.191 84.2129 112.473 84.7988 113.035C85.3848 113.592 85.6777 114.485 85.6777 115.716V122H84.2188ZM91.7949 120.972C92.0527 120.972 92.3018 120.954 92.542 120.919C92.7822 120.878 92.9727 120.837 93.1133 120.796V121.912C92.9551 121.988 92.7207 122.05 92.4102 122.097C92.1055 122.149 91.8301 122.176 91.584 122.176C89.7207 122.176 88.7891 121.194 88.7891 119.231V113.501H87.4092V112.798L88.7891 112.191L89.4043 110.135H90.248V112.367H93.043V113.501H90.248V119.17C90.248 119.75 90.3857 120.195 90.6611 120.506C90.9365 120.816 91.3145 120.972 91.7949 120.972ZM101.261 119.372C101.261 120.269 100.927 120.96 100.259 121.446C99.5908 121.933 98.6533 122.176 97.4463 122.176C96.1689 122.176 95.1729 121.974 94.458 121.569V120.216C94.9209 120.45 95.416 120.635 95.9434 120.77C96.4766 120.904 96.9893 120.972 97.4814 120.972C98.2432 120.972 98.8291 120.852 99.2393 120.611C99.6494 120.365 99.8545 119.993 99.8545 119.495C99.8545 119.12 99.6904 118.801 99.3623 118.537C99.04 118.268 98.4072 117.951 97.4639 117.588C96.5674 117.254 95.9287 116.964 95.5479 116.718C95.1729 116.466 94.8916 116.182 94.7041 115.865C94.5225 115.549 94.4316 115.171 94.4316 114.731C94.4316 113.946 94.751 113.328 95.3896 112.877C96.0283 112.42 96.9043 112.191 98.0176 112.191C99.0547 112.191 100.068 112.402 101.059 112.824L100.54 114.011C99.5732 113.612 98.6973 113.413 97.9121 113.413C97.2207 113.413 96.6992 113.521 96.3477 113.738C95.9961 113.955 95.8203 114.254 95.8203 114.635C95.8203 114.893 95.8848 115.112 96.0137 115.294C96.1484 115.476 96.3623 115.648 96.6553 115.812C96.9482 115.977 97.5107 116.214 98.3428 116.524C99.4854 116.94 100.256 117.359 100.654 117.781C101.059 118.203 101.261 118.733 101.261 119.372ZM50.7656 140.098C50.4173 140.098 50.0983 140.034 49.8086 139.907C49.5221 139.777 49.2812 139.578 49.0859 139.312H49.0273C49.0664 139.624 49.0859 139.92 49.0859 140.2V142.402H48.2754V134.648H48.9346L49.0469 135.381H49.0859C49.2943 135.088 49.5368 134.876 49.8135 134.746C50.0902 134.616 50.4076 134.551 50.7656 134.551C51.4753 134.551 52.0221 134.793 52.4062 135.278C52.7936 135.763 52.9873 136.444 52.9873 137.319C52.9873 138.198 52.7904 138.882 52.3965 139.37C52.0059 139.855 51.4622 140.098 50.7656 140.098ZM50.6484 135.239C50.1016 135.239 49.7061 135.391 49.4619 135.693C49.2178 135.996 49.0924 136.478 49.0859 137.139V137.319C49.0859 138.071 49.2113 138.61 49.4619 138.936C49.7126 139.258 50.1146 139.419 50.668 139.419C51.1302 139.419 51.4915 139.232 51.752 138.857C52.0156 138.483 52.1475 137.967 52.1475 137.31C52.1475 136.642 52.0156 136.131 51.752 135.776C51.4915 135.418 51.1237 135.239 50.6484 135.239ZM56.6689 140.098C55.8779 140.098 55.2529 139.857 54.7939 139.375C54.3382 138.893 54.1104 138.224 54.1104 137.368C54.1104 136.506 54.3219 135.82 54.7451 135.312C55.1715 134.805 55.7428 134.551 56.459 134.551C57.1296 134.551 57.6602 134.772 58.0508 135.215C58.4414 135.654 58.6367 136.235 58.6367 136.958V137.471H54.9502C54.9665 138.099 55.1243 138.576 55.4238 138.901C55.7266 139.227 56.1514 139.39 56.6982 139.39C57.2744 139.39 57.8441 139.269 58.4072 139.028V139.751C58.1208 139.875 57.849 139.963 57.5918 140.015C57.3379 140.07 57.0303 140.098 56.6689 140.098ZM56.4492 135.229C56.0195 135.229 55.6761 135.369 55.4189 135.649C55.165 135.929 55.0153 136.317 54.9697 136.812H57.7676C57.7676 136.3 57.6536 135.91 57.4258 135.64C57.1979 135.366 56.8724 135.229 56.4492 135.229ZM62.4648 134.551C62.7025 134.551 62.9157 134.57 63.1045 134.609L62.9922 135.361C62.7708 135.312 62.5755 135.288 62.4062 135.288C61.9733 135.288 61.6022 135.464 61.293 135.815C60.987 136.167 60.834 136.605 60.834 137.129V140H60.0234V134.648H60.6924L60.7852 135.64H60.8242C61.0228 135.291 61.262 135.023 61.542 134.834C61.8219 134.645 62.1296 134.551 62.4648 134.551ZM69.335 140H68.5439V134.912C68.5439 134.489 68.557 134.089 68.583 133.711C68.5146 133.779 68.4382 133.851 68.3535 133.926C68.2689 134.001 67.8815 134.318 67.1914 134.878L66.7617 134.321L68.6514 132.861H69.335V140ZM76.7861 136.421C76.7861 137.655 76.5908 138.576 76.2002 139.185C75.8128 139.793 75.2188 140.098 74.418 140.098C73.6497 140.098 73.0654 139.787 72.665 139.165C72.2646 138.54 72.0645 137.625 72.0645 136.421C72.0645 135.177 72.2581 134.255 72.6455 133.652C73.0329 133.05 73.6237 132.749 74.418 132.749C75.1927 132.749 75.7803 133.063 76.1807 133.691C76.5843 134.32 76.7861 135.229 76.7861 136.421ZM72.8848 136.421C72.8848 137.459 73.0068 138.216 73.251 138.691C73.4951 139.163 73.8841 139.399 74.418 139.399C74.9583 139.399 75.349 139.16 75.5898 138.682C75.834 138.2 75.9561 137.446 75.9561 136.421C75.9561 135.396 75.834 134.645 75.5898 134.17C75.349 133.691 74.9583 133.452 74.418 133.452C73.8841 133.452 73.4951 133.688 73.251 134.16C73.0068 134.629 72.8848 135.382 72.8848 136.421ZM82.5088 136.421C82.5088 137.655 82.3135 138.576 81.9229 139.185C81.5355 139.793 80.9414 140.098 80.1406 140.098C79.3724 140.098 78.7881 139.787 78.3877 139.165C77.9873 138.54 77.7871 137.625 77.7871 136.421C77.7871 135.177 77.9808 134.255 78.3682 133.652C78.7555 133.05 79.3464 132.749 80.1406 132.749C80.9154 132.749 81.5029 133.063 81.9033 133.691C82.307 134.32 82.5088 135.229 82.5088 136.421ZM78.6074 136.421C78.6074 137.459 78.7295 138.216 78.9736 138.691C79.2178 139.163 79.6068 139.399 80.1406 139.399C80.681 139.399 81.0716 139.16 81.3125 138.682C81.5566 138.2 81.6787 137.446 81.6787 136.421C81.6787 135.396 81.5566 134.645 81.3125 134.17C81.0716 133.691 80.681 133.452 80.1406 133.452C79.6068 133.452 79.2178 133.688 78.9736 134.16C78.7295 134.629 78.6074 135.382 78.6074 136.421ZM87.4209 140H86.5908V132.861H90.5703V133.599H87.4209V136.211H90.3799V136.948H87.4209V140ZM92.4453 140H91.6348V132.402H92.4453V140ZM95.8926 139.429C96.0358 139.429 96.1742 139.419 96.3076 139.399C96.4411 139.377 96.5469 139.354 96.625 139.331V139.951C96.5371 139.993 96.4069 140.028 96.2344 140.054C96.0651 140.083 95.9121 140.098 95.7754 140.098C94.7402 140.098 94.2227 139.552 94.2227 138.462V135.278H93.4561V134.888L94.2227 134.551L94.5645 133.408H95.0332V134.648H96.5859V135.278H95.0332V138.428C95.0332 138.75 95.1097 138.997 95.2627 139.17C95.4157 139.342 95.6257 139.429 95.8926 139.429ZM101.151 138.54C101.151 139.038 100.966 139.422 100.595 139.692C100.224 139.963 99.7028 140.098 99.0322 140.098C98.3226 140.098 97.7692 139.985 97.3721 139.761V139.009C97.6292 139.139 97.9043 139.242 98.1973 139.316C98.4935 139.391 98.7783 139.429 99.0518 139.429C99.4749 139.429 99.8005 139.362 100.028 139.229C100.256 139.092 100.37 138.885 100.37 138.608C100.37 138.4 100.279 138.223 100.097 138.076C99.9176 137.926 99.5661 137.751 99.042 137.549C98.5439 137.363 98.1891 137.202 97.9775 137.065C97.7692 136.925 97.613 136.768 97.5088 136.592C97.4079 136.416 97.3574 136.206 97.3574 135.962C97.3574 135.526 97.5348 135.182 97.8896 134.932C98.2445 134.678 98.7311 134.551 99.3496 134.551C99.9258 134.551 100.489 134.668 101.039 134.902L100.751 135.562C100.214 135.34 99.7272 135.229 99.291 135.229C98.9069 135.229 98.6172 135.29 98.4219 135.41C98.2266 135.531 98.1289 135.697 98.1289 135.908C98.1289 136.051 98.1647 136.174 98.2363 136.274C98.3112 136.375 98.43 136.471 98.5928 136.562C98.7555 136.654 99.068 136.785 99.5303 136.958C100.165 137.189 100.593 137.422 100.814 137.656C101.039 137.891 101.151 138.185 101.151 138.54Z" fill="white"/>
</svg>
