<svg width="148" height="160" viewBox="0 0 148 160" fill="none" xmlns="http://www.w3.org/2000/svg">
<rect opacity="0.7" width="147.992" height="159.764" rx="8.40864" fill="white" fill-opacity="0.02"/>
<path fill-rule="evenodd" clip-rule="evenodd" d="M73.7604 20.1812C73.6902 20.1812 73.62 20.1813 73.5498 20.1815L73.5525 21.0224C73.6218 21.0221 73.6911 21.022 73.7604 21.022C73.8298 21.022 73.8991 21.0221 73.9683 21.0224L73.9711 20.1815C73.9009 20.1813 73.8307 20.1812 73.7604 20.1812ZM71.0351 20.2386C70.8961 20.2445 70.7572 20.2508 70.6184 20.2576L70.6593 21.0974C70.7963 21.0907 70.9334 21.0845 71.0706 21.0787L71.0351 20.2386ZM76.9025 20.2576C76.7637 20.2508 76.6248 20.2445 76.4858 20.2386L76.4503 21.0787C76.5875 21.0845 76.7246 21.0908 76.8616 21.0974L76.9025 20.2576ZM68.1077 20.4294C67.9689 20.4416 67.8302 20.4543 67.6917 20.4675L67.7711 21.3046C67.9078 21.2916 68.0446 21.2791 68.1816 21.267L68.1077 20.4294ZM79.8292 20.4675C79.6906 20.4543 79.552 20.4417 79.4132 20.4294L79.3392 21.267C79.4762 21.2791 79.6131 21.2916 79.7498 21.3046L79.8292 20.4675ZM65.1925 20.7544C65.0543 20.7731 64.9162 20.7922 64.7782 20.8117L64.8961 21.6443C65.0323 21.625 65.1685 21.6062 65.3049 21.5877L65.1925 20.7544ZM82.7426 20.8117C82.6047 20.7922 82.4666 20.7731 82.3283 20.7544L82.2159 21.5878C82.3523 21.6062 82.4886 21.625 82.6247 21.6443L82.7426 20.8117ZM62.2956 21.2137C62.1583 21.2388 62.0211 21.2643 61.8841 21.2902L62.0404 22.1164C62.1757 22.0908 62.311 22.0657 62.4465 22.041L62.2956 21.2137ZM85.6368 21.2902C85.4997 21.2643 85.3625 21.2388 85.2252 21.2137L85.0743 22.041C85.2098 22.0657 85.3452 22.0908 85.4804 22.1164L85.6368 21.2902ZM59.4233 21.8069C59.2872 21.8383 59.1512 21.8701 59.0155 21.9024L59.21 22.7205C59.344 22.6886 59.4781 22.6572 59.6124 22.6262L59.4233 21.8069ZM88.5054 21.9024C88.3696 21.8701 88.2337 21.8383 88.0976 21.8069L87.9084 22.6262C88.0427 22.6572 88.1768 22.6886 88.3108 22.7205L88.5054 21.9024ZM56.5817 22.5329C56.4471 22.5706 56.3127 22.6088 56.1785 22.6474L56.411 23.4555C56.5434 23.4174 56.6759 23.3797 56.8087 23.3425L56.5817 22.5329ZM91.3423 22.6474C91.2081 22.6088 91.0737 22.5706 90.9392 22.5329L90.7121 23.3425C90.8449 23.3797 90.9775 23.4174 91.1099 23.4555L91.3423 22.6474ZM53.7769 23.3903C53.6442 23.4343 53.5117 23.4787 53.3794 23.5235L53.6492 24.3199C53.7797 24.2757 53.9105 24.2319 54.0414 24.1885L53.7769 23.3903ZM94.1414 23.5235C94.0091 23.4787 93.8766 23.4343 93.7439 23.3903L93.4795 24.1885C93.6104 24.2319 93.7411 24.2757 93.8716 24.3199L94.1414 23.5235ZM51.0151 24.3774C50.8846 24.4275 50.7543 24.478 50.6242 24.529L50.9307 25.3119C51.0591 25.2617 51.1877 25.2118 51.3164 25.1624L51.0151 24.3774ZM96.8967 24.529C96.7666 24.478 96.6363 24.4275 96.5058 24.3774L96.2044 25.1624C96.3332 25.2118 96.4618 25.2617 96.5901 25.312L96.8967 24.529ZM48.3022 25.4919C48.1741 25.548 48.0463 25.6045 47.9187 25.6615L48.2613 26.4294C48.3872 26.3732 48.5133 26.3174 48.6397 26.262L48.3022 25.4919ZM99.6022 25.6615C99.4746 25.6045 99.3467 25.548 99.2187 25.4919L98.8812 26.262C99.0075 26.3174 99.1337 26.3732 99.2596 26.4294L99.6022 25.6615ZM45.6439 26.7312C45.5186 26.7932 45.3935 26.8556 45.2687 26.9184L45.6466 27.6695C45.7697 27.6076 45.8932 27.546 46.0168 27.4848L45.6439 26.7312ZM102.252 26.9184C102.127 26.8556 102.002 26.7932 101.877 26.7312L101.504 27.4848C101.628 27.546 101.751 27.6076 101.874 27.6695L102.252 26.9184ZM43.046 28.0924C42.9237 28.1601 42.8016 28.2282 42.6798 28.2968L43.0921 29.0296C43.2123 28.962 43.3327 28.8948 43.4534 28.828L43.046 28.0924ZM104.841 28.2968C104.719 28.2282 104.597 28.1601 104.475 28.0924L104.067 28.828C104.188 28.8948 104.309 28.962 104.429 29.0296L104.841 28.2968ZM40.5138 29.5723C40.3948 29.6457 40.276 29.7194 40.1575 29.7934L40.6032 30.5065C40.7201 30.4334 40.8373 30.3607 40.9548 30.2883L40.5138 29.5723ZM107.363 29.7934C107.245 29.7194 107.126 29.6457 107.007 29.5724L106.566 30.2883C106.684 30.3607 106.801 30.4334 106.918 30.5065L107.363 29.7934ZM38.0527 31.1677C37.9372 31.2464 37.8219 31.3255 37.707 31.4049L38.1851 32.0967C38.2985 32.0183 38.4122 31.9402 38.5262 31.8625L38.0527 31.1677ZM109.814 31.4049C109.699 31.3255 109.584 31.2464 109.468 31.1677L108.995 31.8625C109.109 31.9402 109.222 32.0183 109.336 32.0967L109.814 31.4049ZM35.6677 32.8748C35.5559 32.9587 35.4445 33.043 35.3333 33.1277L35.8428 33.7966C35.9525 33.7131 36.0624 33.6299 36.1727 33.5471L35.6677 32.8748ZM112.188 33.1277C112.076 33.043 111.965 32.9587 111.853 32.8748L111.348 33.5471C111.458 33.6299 111.568 33.7131 111.678 33.7966L112.188 33.1277ZM33.3637 34.6898C33.256 34.7788 33.1486 34.8681 33.0414 34.9577L33.5811 35.6026C33.6868 35.5141 33.7928 35.426 33.8991 35.3382L33.3637 34.6898ZM114.479 34.9578C114.372 34.8681 114.265 34.7788 114.157 34.6898L113.622 35.3382C113.728 35.426 113.834 35.5141 113.94 35.6026L114.479 34.9578ZM31.1456 36.6088C31.0421 36.7026 30.9389 36.7968 30.836 36.8912L31.4047 37.5106C31.5062 37.4174 31.6081 37.3245 31.7102 37.2319L31.1456 36.6088ZM116.685 36.8912C116.582 36.7968 116.479 36.7026 116.375 36.6088L115.811 37.2319C115.913 37.3245 116.015 37.4174 116.116 37.5106L116.685 36.8912ZM29.0179 38.6277C28.9189 38.7261 28.8201 38.8249 28.7217 38.9239L29.3182 39.5166C29.4153 39.4188 29.5128 39.3213 29.6106 39.2242L29.0179 38.6277ZM118.799 38.9239C118.701 38.8249 118.602 38.7261 118.503 38.6277L117.91 39.2242C118.008 39.3213 118.106 39.4188 118.203 39.5166L118.799 38.9239ZM26.9852 40.742C26.8908 40.8449 26.7966 40.9481 26.7028 41.0516L27.3259 41.6162C27.4185 41.5141 27.5114 41.4122 27.6046 41.3107L26.9852 40.742ZM120.818 41.0516C120.724 40.9481 120.63 40.8449 120.536 40.742L119.916 41.3107C120.009 41.4122 120.102 41.5141 120.195 41.6162L120.818 41.0516ZM25.0517 42.9474C24.9621 43.0546 24.8728 43.162 24.7838 43.2697L25.4322 43.8051C25.52 43.6988 25.6081 43.5928 25.6966 43.4871L25.0517 42.9474ZM122.737 43.2697C122.648 43.162 122.559 43.0546 122.469 42.9474L121.824 43.4871C121.913 43.5928 122.001 43.6988 122.089 43.8052L122.737 43.2697ZM23.2217 45.2393C23.137 45.3505 23.0527 45.4619 22.9688 45.5737L23.6411 46.0787C23.7239 45.9684 23.8071 45.8585 23.8906 45.7488L23.2217 45.2393ZM124.552 45.5737C124.468 45.4619 124.384 45.3505 124.299 45.2393L123.63 45.7488C123.714 45.8585 123.797 45.9684 123.88 46.0787L124.552 45.5737ZM21.4989 47.613C21.4195 47.7279 21.3404 47.8432 21.2617 47.9587L21.9565 48.4322C22.0342 48.3182 22.1123 48.2045 22.1907 48.0911L21.4989 47.613ZM126.259 47.9587C126.18 47.8432 126.101 47.7279 126.022 47.613L125.33 48.0911C125.409 48.2045 125.487 48.3182 125.564 48.4322L126.259 47.9587ZM19.8874 50.0635C19.8134 50.182 19.7397 50.3008 19.6664 50.4198L20.3823 50.8608C20.4547 50.7433 20.5274 50.6261 20.6005 50.5092L19.8874 50.0635ZM127.854 50.4198C127.781 50.3008 127.707 50.182 127.633 50.0635L126.92 50.5092C126.993 50.6261 127.066 50.7433 127.139 50.8608L127.854 50.4198ZM18.3908 52.5858C18.3222 52.7076 18.2541 52.8297 18.1864 52.952L18.922 53.3594C18.9888 53.2387 19.056 53.1183 19.1236 52.9981L18.3908 52.5858ZM129.334 52.952C129.267 52.8297 129.199 52.7076 129.13 52.5858L128.397 52.9981C128.465 53.1183 128.532 53.2387 128.599 53.3594L129.334 52.952ZM17.0124 55.1747C16.9496 55.2995 16.8872 55.4246 16.8252 55.5499L17.5788 55.9228C17.64 55.7992 17.7016 55.6757 17.7635 55.5525L17.0124 55.1747ZM130.603 55.364C130.572 55.3009 130.54 55.2377 130.508 55.1747L129.757 55.5526C129.801 55.6388 129.844 55.7252 129.887 55.8117C129.905 55.8487 129.924 55.8858 129.942 55.9228L130.696 55.5499C130.665 55.4879 130.634 55.4259 130.603 55.364ZM15.7555 57.8246C15.6985 57.9523 15.642 58.0801 15.5859 58.2082L16.356 58.5457C16.4114 58.4193 16.4672 58.2932 16.5234 58.1673L15.7555 57.8246ZM131.935 58.2082C131.879 58.0801 131.822 57.9523 131.765 57.8247L130.997 58.1673C131.054 58.2932 131.109 58.4193 131.165 58.5457L131.935 58.2082ZM14.623 60.5301C14.572 60.6602 14.5215 60.7906 14.4714 60.9211L15.2564 61.2224C15.3058 61.0936 15.3557 60.9651 15.4059 60.8367L14.623 60.5301ZM133.049 60.9211C132.999 60.7906 132.949 60.6603 132.898 60.5302L132.115 60.8367C132.165 60.9651 132.215 61.0937 132.264 61.2224L133.049 60.9211ZM13.6175 63.2854C13.5727 63.4177 13.5283 63.5502 13.4843 63.6829L14.2825 63.9474C14.3259 63.8165 14.3697 63.6857 14.4139 63.5552L13.6175 63.2854ZM134.037 63.6829C134.012 63.609 133.987 63.5351 133.963 63.4613L133.903 63.2854L133.107 63.5552C133.151 63.6858 133.195 63.8165 133.238 63.9474L134.037 63.6829ZM12.7414 66.0845C12.7028 66.2187 12.6646 66.3531 12.6269 66.4876L13.4365 66.7147C13.4737 66.5819 13.5114 66.4494 13.5495 66.3169L12.7414 66.0845ZM134.894 66.4877C134.856 66.3531 134.818 66.2187 134.779 66.0845L133.971 66.317C133.996 66.4043 134.021 66.4917 134.046 66.5792C134.059 66.6244 134.072 66.6695 134.084 66.7147L134.894 66.4877ZM11.9964 68.9215C11.9641 69.0572 11.9323 69.1932 11.9009 69.3293L12.7202 69.5184C12.7512 69.3841 12.7826 69.25 12.8145 69.116L11.9964 68.9215ZM135.553 69.0414C135.543 69.0014 135.534 68.9614 135.524 68.9215L134.706 69.116C134.738 69.25 134.77 69.3841 134.801 69.5184L135.62 69.3293C135.598 69.2333 135.575 69.1373 135.553 69.0414ZM11.3842 71.7901C11.3583 71.9271 11.3328 72.0643 11.3077 72.2016L12.135 72.3525C12.1597 72.217 12.1848 72.0816 12.2104 71.9464L11.3842 71.7901ZM136.213 72.2016C136.188 72.0643 136.163 71.9271 136.137 71.7901L135.31 71.9465C135.328 72.0393 135.345 72.1323 135.363 72.2254C135.37 72.2677 135.378 72.3101 135.386 72.3525L136.213 72.2016ZM10.9057 74.6842C10.8862 74.8222 10.8671 74.9603 10.8484 75.0985L11.6817 75.2109C11.7001 75.0745 11.719 74.9382 11.7383 74.8021L10.9057 74.6842ZM136.672 75.0985C136.654 74.9603 136.635 74.8222 136.615 74.6842L135.783 74.8021C135.802 74.9383 135.821 75.0745 135.839 75.2109L136.672 75.0985ZM10.5615 77.5977C10.5483 77.7362 10.5356 77.8749 10.5234 78.0137L11.361 78.0876C11.3731 77.9506 11.3856 77.8138 11.3986 77.6771L10.5615 77.5977ZM136.997 78.0137C136.985 77.8749 136.972 77.7362 136.959 77.5977L136.122 77.6771C136.135 77.8138 136.148 77.9506 136.16 78.0876L136.997 78.0137ZM10.3516 80.5243C10.3448 80.6631 10.3385 80.802 10.3326 80.9411L11.1727 80.9766C11.1785 80.8394 11.1847 80.7023 11.1914 80.5653L10.3516 80.5243ZM137.188 80.9411C137.182 80.8021 137.176 80.6632 137.169 80.5244L136.329 80.5653C136.336 80.7023 136.342 80.8394 136.348 80.9766L137.188 80.9411ZM10.2755 83.4558C10.2753 83.526 10.2751 83.5962 10.2751 83.6664C10.2751 83.7367 10.2753 83.8069 10.2755 83.877L11.1163 83.8743C11.1161 83.805 11.116 83.7357 11.116 83.6664C11.116 83.5971 11.1161 83.5278 11.1163 83.4585L10.2755 83.4558ZM137.246 83.6664L137.246 83.5838L137.245 83.4558L136.404 83.4585C136.405 83.5278 136.405 83.5971 136.405 83.6664C136.405 83.7358 136.405 83.8051 136.404 83.8743L137.245 83.8771C137.246 83.8069 137.246 83.7367 137.246 83.6664ZM10.3326 86.3917C10.3385 86.5308 10.3448 86.6697 10.3516 86.8085L11.1914 86.7675C11.1847 86.6306 11.1785 86.4935 11.1727 86.3562L10.3326 86.3917ZM137.169 86.8085C137.176 86.6697 137.182 86.5308 137.188 86.3918L136.348 86.3563C136.342 86.4935 136.336 86.6306 136.329 86.7676L137.169 86.8085ZM10.5234 89.3191C10.5356 89.4579 10.5483 89.5966 10.5615 89.7352L11.3986 89.6558C11.3856 89.519 11.3731 89.3822 11.361 89.2452L10.5234 89.3191ZM136.959 89.7352C136.97 89.6176 136.981 89.5 136.992 89.3822L136.997 89.3192L136.16 89.2452C136.148 89.3822 136.135 89.5191 136.122 89.6558L136.959 89.7352ZM10.8484 92.2343C10.8671 92.3726 10.8862 92.5107 10.9057 92.6486L11.7383 92.5307C11.719 92.3946 11.7001 92.2583 11.6817 92.1219L10.8484 92.2343ZM136.615 92.6486C136.635 92.5107 136.654 92.3726 136.672 92.2343L135.839 92.1219C135.821 92.2583 135.802 92.3946 135.783 92.5307L136.615 92.6486ZM11.3077 95.1312C11.3328 95.2685 11.3583 95.4057 11.3842 95.5427L12.2104 95.3864C12.1848 95.2512 12.1597 95.1158 12.135 94.9803L11.3077 95.1312ZM136.186 95.2773C136.195 95.2286 136.204 95.1799 136.213 95.1312L135.386 94.9803C135.361 95.1158 135.336 95.2512 135.31 95.3864L136.137 95.5428C136.153 95.4543 136.17 95.3659 136.186 95.2773ZM11.9009 98.0035C11.9323 98.1397 11.9641 98.2756 11.9964 98.4114L12.8145 98.2168C12.7826 98.0828 12.7512 97.9487 12.7202 97.8144L11.9009 98.0035ZM135.524 98.4114C135.542 98.337 135.56 98.2626 135.577 98.1881L135.62 98.0036L134.801 97.8144C134.787 97.8725 134.774 97.9305 134.76 97.9884C134.742 98.0646 134.724 98.1407 134.706 98.2168L135.524 98.4114ZM12.6269 100.845C12.6646 100.98 12.7028 101.114 12.7413 101.248L13.5495 101.016C13.5114 100.883 13.4737 100.751 13.4365 100.618L12.6269 100.845ZM134.779 101.248C134.818 101.114 134.856 100.98 134.894 100.845L134.084 100.618L134.033 100.801C134.023 100.836 134.013 100.871 134.003 100.906C133.992 100.942 133.982 100.979 133.971 101.016L134.779 101.248ZM13.4843 103.65C13.5283 103.783 13.5727 103.915 13.6175 104.047L14.4139 103.778C14.3697 103.647 14.3259 103.516 14.2825 103.385L13.4843 103.65ZM133.903 104.047L133.95 103.91C133.979 103.824 134.008 103.737 134.037 103.65L133.238 103.385C133.195 103.516 133.151 103.647 133.107 103.778L133.903 104.047ZM14.4714 106.412C14.5215 106.542 14.572 106.673 14.6229 106.803L15.4059 106.496C15.3557 106.368 15.3058 106.239 15.2564 106.11L14.4714 106.412ZM132.898 106.803C132.949 106.673 132.999 106.542 133.049 106.412L132.264 106.11C132.215 106.239 132.165 106.368 132.115 106.496L132.898 106.803ZM15.5859 109.125C15.642 109.253 15.6985 109.381 15.7554 109.508L16.5233 109.166C16.4672 109.04 16.4114 108.914 16.356 108.787L15.5859 109.125ZM131.765 109.508C131.822 109.381 131.879 109.253 131.935 109.125L131.165 108.787C131.109 108.914 131.054 109.04 130.997 109.166L131.765 109.508ZM16.8252 111.783C16.8872 111.908 16.9496 112.033 17.0124 112.158L17.7635 111.78C17.7016 111.657 17.64 111.534 17.5788 111.41L16.8252 111.783ZM130.508 112.158C130.571 112.033 130.634 111.908 130.696 111.783L129.942 111.41C129.881 111.534 129.819 111.657 129.757 111.78L130.508 112.158ZM18.1864 114.381C18.2541 114.503 18.3222 114.625 18.3908 114.747L19.1236 114.335C19.056 114.215 18.9888 114.094 18.9219 113.973L18.1864 114.381ZM129.13 114.747C129.199 114.625 129.267 114.503 129.334 114.381L128.599 113.973C128.532 114.094 128.465 114.215 128.397 114.335L129.13 114.747ZM19.6663 116.913C19.7397 117.032 19.8133 117.151 19.8874 117.269L20.6005 116.824C20.5274 116.707 20.4546 116.59 20.3823 116.472L19.6663 116.913ZM127.633 117.269C127.707 117.151 127.781 117.032 127.854 116.913L127.139 116.472C127.066 116.59 126.993 116.707 126.92 116.824L127.633 117.269ZM21.2617 119.374C21.3404 119.49 21.4195 119.605 21.4989 119.72L22.1907 119.242C22.1123 119.128 22.0342 119.015 21.9565 118.901L21.2617 119.374ZM126.022 119.72C126.101 119.605 126.18 119.49 126.259 119.374L125.564 118.901C125.487 119.015 125.409 119.128 125.33 119.242L126.022 119.72ZM22.9688 121.759C23.0527 121.871 23.137 121.982 23.2217 122.094L23.8906 121.584C23.8071 121.474 23.7239 121.364 23.6411 121.254L22.9688 121.759ZM124.299 122.094L124.372 121.998C124.432 121.919 124.492 121.839 124.552 121.759L123.88 121.254C123.82 121.333 123.76 121.413 123.7 121.492L123.63 121.584L124.299 122.094ZM24.7838 124.063C24.8728 124.171 24.9621 124.278 25.0517 124.385L25.6966 123.846C25.6081 123.74 25.52 123.634 25.4322 123.528L24.7838 124.063ZM122.469 124.385C122.559 124.278 122.648 124.171 122.737 124.063L122.089 123.528C122.001 123.634 121.913 123.74 121.824 123.846L122.469 124.385ZM26.7028 126.281C26.7966 126.385 26.8908 126.488 26.9852 126.591L27.6046 126.022C27.5114 125.921 27.4185 125.819 27.3259 125.717L26.7028 126.281ZM120.536 126.591L120.647 126.469C120.704 126.407 120.761 126.344 120.818 126.281L120.195 125.717C120.15 125.766 120.105 125.816 120.059 125.866C120.038 125.889 120.017 125.913 119.995 125.936C119.969 125.965 119.943 125.993 119.916 126.022L120.536 126.591ZM28.7217 128.409C28.8201 128.508 28.9188 128.607 29.0179 128.705L29.6106 128.109C29.5128 128.012 29.4153 127.914 29.3182 127.816L28.7217 128.409ZM118.503 128.705L118.583 128.625C118.608 128.601 118.632 128.576 118.657 128.552C118.704 128.504 118.752 128.457 118.799 128.409L118.203 127.816C118.106 127.914 118.008 128.012 117.91 128.109L118.503 128.705ZM30.836 130.442C30.9389 130.536 31.0421 130.63 31.1456 130.724L31.7102 130.101C31.6081 130.008 31.5062 129.915 31.4047 129.822L30.836 130.442ZM116.542 130.573C116.589 130.529 116.637 130.485 116.685 130.442L116.116 129.822C116.015 129.915 115.913 130.008 115.811 130.101L116.375 130.724C116.431 130.674 116.486 130.623 116.542 130.573ZM33.0414 132.375C33.1485 132.465 33.256 132.554 33.3637 132.643L33.8991 131.995C33.7928 131.907 33.6868 131.819 33.5811 131.73L33.0414 132.375ZM114.157 132.643C114.265 132.554 114.372 132.465 114.479 132.375L113.94 131.73C113.834 131.819 113.728 131.907 113.622 131.995L114.157 132.643Z" fill="#9499C3"/>
<rect x="10.2747" y="83.2742" width="4.20432" height="0.840864" fill="#9499C3"/>
<rect x="133.041" y="83.2742" width="4.20432" height="0.840864" fill="#9499C3"/>
<rect width="4.20432" height="0.840864" transform="matrix(-0.819152 -0.573576 -0.573576 0.819152 127.873 116.907)" fill="#9499C3"/>
<path fill-rule="evenodd" clip-rule="evenodd" d="M14.3124 89.1603C15.8422 105.457 23.98 119.887 36.0749 129.797L33.4559 133.085C20.3993 122.409 11.6337 106.803 10.0903 89.1603H14.3124Z" fill="#FFD630"/>
<rect x="19.2068" y="116.932" width="4.47536" height="0.840864" transform="rotate(-35 19.2068 116.932)" fill="#1A1C48"/>
<rect x="12.7974" y="89.1603" width="4.20432" height="0.840864" fill="#FFD630"/>
<path d="M46.0859 52.9297C46.0859 53.7969 45.7891 54.4648 45.1953 54.9336C44.6055 55.3984 43.7598 55.6309 42.6582 55.6309H41.6504V59H40.6543V50.4336H42.875C45.0156 50.4336 46.0859 51.2656 46.0859 52.9297ZM41.6504 54.7754H42.5469C43.4297 54.7754 44.0684 54.6328 44.4629 54.3477C44.8574 54.0625 45.0547 53.6055 45.0547 52.9766C45.0547 52.4102 44.8691 51.9883 44.498 51.7109C44.127 51.4336 43.5488 51.2949 42.7637 51.2949H41.6504V54.7754ZM50.4512 59.1172C49.502 59.1172 48.752 58.8281 48.2012 58.25C47.6543 57.6719 47.3809 56.8691 47.3809 55.8418C47.3809 54.8066 47.6348 53.9844 48.1426 53.375C48.6543 52.7656 49.3398 52.4609 50.1992 52.4609C51.0039 52.4609 51.6406 52.7266 52.1094 53.2578C52.5781 53.7852 52.8125 54.4824 52.8125 55.3496V55.9648H48.3887C48.4082 56.7188 48.5977 57.291 48.957 57.6816C49.3203 58.0723 49.8301 58.2676 50.4863 58.2676C51.1777 58.2676 51.8613 58.123 52.5371 57.834V58.7012C52.1934 58.8496 51.8672 58.9551 51.5586 59.0176C51.2539 59.084 50.8848 59.1172 50.4512 59.1172ZM50.1875 53.2754C49.6719 53.2754 49.2598 53.4434 48.9512 53.7793C48.6465 54.1152 48.4668 54.5801 48.4121 55.1738H51.7695C51.7695 54.5605 51.6328 54.0918 51.3594 53.7676C51.0859 53.4395 50.6953 53.2754 50.1875 53.2754ZM57.4062 52.4609C57.6914 52.4609 57.9473 52.4844 58.1738 52.5312L58.0391 53.4336C57.7734 53.375 57.5391 53.3457 57.3359 53.3457C56.8164 53.3457 56.3711 53.5566 56 53.9785C55.6328 54.4004 55.4492 54.9258 55.4492 55.5547V59H54.4766V52.5781H55.2793L55.3906 53.7676H55.4375C55.6758 53.3496 55.9629 53.0273 56.2988 52.8008C56.6348 52.5742 57.0039 52.4609 57.4062 52.4609ZM67.3555 52.4492C67.3555 52.9961 67.2012 53.4434 66.8926 53.791C66.5879 54.1387 66.1543 54.3711 65.5918 54.4883V54.5352C66.2793 54.6211 66.7891 54.8398 67.1211 55.1914C67.4531 55.543 67.6191 56.0039 67.6191 56.5742C67.6191 57.3906 67.3359 58.0195 66.7695 58.4609C66.2031 58.8984 65.3984 59.1172 64.3555 59.1172C63.9023 59.1172 63.4863 59.082 63.1074 59.0117C62.7324 58.9453 62.3672 58.8262 62.0117 58.6543V57.7285C62.3828 57.9121 62.7773 58.0527 63.1953 58.1504C63.6172 58.2441 64.0156 58.291 64.3906 58.291C65.8711 58.291 66.6113 57.7109 66.6113 56.5508C66.6113 55.5117 65.7949 54.9922 64.1621 54.9922H63.3184V54.1543H64.1738C64.8418 54.1543 65.3711 54.0078 65.7617 53.7148C66.1523 53.418 66.3477 53.0078 66.3477 52.4844C66.3477 52.0664 66.2031 51.7383 65.9141 51.5C65.6289 51.2617 65.2402 51.1426 64.748 51.1426C64.373 51.1426 64.0195 51.1934 63.6875 51.2949C63.3555 51.3965 62.9766 51.584 62.5508 51.8574L62.0586 51.2012C62.4102 50.9238 62.8145 50.707 63.2715 50.5508C63.7324 50.3906 64.2168 50.3105 64.7246 50.3105C65.5566 50.3105 66.2031 50.502 66.6641 50.8848C67.125 51.2637 67.3555 51.7852 67.3555 52.4492ZM76.4141 59L73.5078 51.4062H73.4609C73.5156 52.0078 73.543 52.7227 73.543 53.5508V59H72.623V50.4336H74.123L76.8359 57.5H76.8828L79.6191 50.4336H81.1074V59H80.1113V53.4805C80.1113 52.8477 80.1387 52.1602 80.1934 51.418H80.1465L77.2168 59H76.4141ZM88.8594 55.7832C88.8594 56.8301 88.5957 57.6484 88.0684 58.2383C87.541 58.8242 86.8125 59.1172 85.8828 59.1172C85.3086 59.1172 84.7988 58.9824 84.3535 58.7129C83.9082 58.4434 83.5645 58.0566 83.3223 57.5527C83.0801 57.0488 82.959 56.459 82.959 55.7832C82.959 54.7363 83.2207 53.9219 83.7441 53.3398C84.2676 52.7539 84.9941 52.4609 85.9238 52.4609C86.8223 52.4609 87.5352 52.7598 88.0625 53.3574C88.5938 53.9551 88.8594 54.7637 88.8594 55.7832ZM83.9668 55.7832C83.9668 56.6035 84.1309 57.2285 84.459 57.6582C84.7871 58.0879 85.2695 58.3027 85.9062 58.3027C86.543 58.3027 87.0254 58.0898 87.3535 57.6641C87.6855 57.2344 87.8516 56.6074 87.8516 55.7832C87.8516 54.9668 87.6855 54.3477 87.3535 53.9258C87.0254 53.5 86.5391 53.2871 85.8945 53.2871C85.2578 53.2871 84.7773 53.4961 84.4531 53.9141C84.1289 54.332 83.9668 54.9551 83.9668 55.7832ZM94.9648 59V54.8457C94.9648 54.3223 94.8457 53.9316 94.6074 53.6738C94.3691 53.416 93.9961 53.2871 93.4883 53.2871C92.8164 53.2871 92.3242 53.4688 92.0117 53.832C91.6992 54.1953 91.543 54.7949 91.543 55.6309V59H90.5703V52.5781H91.3613L91.5195 53.457H91.5664C91.7656 53.1406 92.0449 52.8965 92.4043 52.7246C92.7637 52.5488 93.1641 52.4609 93.6055 52.4609C94.3789 52.4609 94.9609 52.6484 95.3516 53.0234C95.7422 53.3945 95.9375 53.9902 95.9375 54.8105V59H94.9648ZM100.016 58.3145C100.188 58.3145 100.354 58.3027 100.514 58.2793C100.674 58.252 100.801 58.2246 100.895 58.1973V58.9414C100.789 58.9922 100.633 59.0332 100.426 59.0645C100.223 59.0996 100.039 59.1172 99.875 59.1172C98.6328 59.1172 98.0117 58.4629 98.0117 57.1543V53.334H97.0918V52.8652L98.0117 52.4609L98.4219 51.0898H98.9844V52.5781H100.848V53.334H98.9844V57.1133C98.9844 57.5 99.0762 57.7969 99.2598 58.0039C99.4434 58.2109 99.6953 58.3145 100.016 58.3145ZM106.578 59V54.8457C106.578 54.3223 106.459 53.9316 106.221 53.6738C105.982 53.416 105.609 53.2871 105.102 53.2871C104.426 53.2871 103.932 53.4707 103.619 53.8379C103.311 54.2051 103.156 54.8066 103.156 55.6426V59H102.184V49.8828H103.156V52.6426C103.156 52.9746 103.141 53.25 103.109 53.4688H103.168C103.359 53.1602 103.631 52.918 103.982 52.7422C104.338 52.5625 104.742 52.4727 105.195 52.4727C105.98 52.4727 106.568 52.6602 106.959 53.0352C107.354 53.4062 107.551 53.998 107.551 54.8105V59H106.578Z" fill="white"/>
<path d="M52.0239 93H49.8882V79.2627C49.8882 78.1201 49.9233 77.0391 49.9937 76.0195C49.8091 76.2041 49.6025 76.3975 49.374 76.5996C49.1455 76.8018 48.0996 77.6587 46.2363 79.1704L45.0762 77.6675L50.1782 73.7256H52.0239V93ZM72.0366 93H59.3672V91.1147L64.4429 86.0127C65.9897 84.4482 67.0093 83.332 67.5015 82.6641C67.9937 81.9961 68.3628 81.3457 68.6089 80.7129C68.855 80.0801 68.978 79.3989 68.978 78.6694C68.978 77.6411 68.666 76.8281 68.042 76.2305C67.418 75.624 66.5522 75.3208 65.4448 75.3208C64.645 75.3208 63.8848 75.4526 63.1641 75.7163C62.4521 75.98 61.6567 76.459 60.7778 77.1533L59.6177 75.6636C61.3931 74.187 63.3267 73.4487 65.4185 73.4487C67.229 73.4487 68.6484 73.9146 69.6768 74.8462C70.7051 75.769 71.2192 77.0127 71.2192 78.5771C71.2192 79.7988 70.8765 81.0073 70.1909 82.2026C69.5054 83.3979 68.2222 84.9097 66.3413 86.7378L62.1226 90.8643V90.9697H72.0366V93ZM88.3975 88.5703H85.5366V93H83.4404V88.5703H74.0669V86.6587L83.2163 73.6201H85.5366V86.5796H88.3975V88.5703ZM83.4404 86.5796V80.1724C83.4404 78.9155 83.4844 77.4961 83.5723 75.9141H83.4668C83.0449 76.7578 82.6494 77.4565 82.2803 78.0103L76.2554 86.5796H83.4404ZM90.4937 84.7603C90.4937 80.9722 91.2275 78.1421 92.6953 76.27C94.1719 74.3892 96.3516 73.4487 99.2344 73.4487C100.228 73.4487 101.01 73.5322 101.581 73.6992V75.5845C100.904 75.3647 100.131 75.2549 99.2607 75.2549C97.1953 75.2549 95.6177 75.9009 94.5278 77.1929C93.438 78.4761 92.8403 80.4976 92.7349 83.2573H92.8931C93.8599 81.7456 95.3892 80.9897 97.481 80.9897C99.2124 80.9897 100.575 81.5127 101.568 82.5586C102.57 83.6045 103.071 85.0239 103.071 86.8169C103.071 88.8208 102.521 90.3984 101.423 91.5498C100.333 92.6924 98.8564 93.2637 96.9932 93.2637C94.998 93.2637 93.416 92.5166 92.2471 91.0225C91.0781 89.5195 90.4937 87.4321 90.4937 84.7603ZM96.9668 91.4048C98.2148 91.4048 99.1816 91.0137 99.8672 90.2314C100.562 89.4404 100.909 88.3022 100.909 86.8169C100.909 85.5425 100.588 84.5405 99.9463 83.811C99.3047 83.0815 98.3467 82.7168 97.0723 82.7168C96.2812 82.7168 95.5562 82.8794 94.897 83.2046C94.2378 83.5298 93.7104 83.978 93.3149 84.5493C92.9282 85.1206 92.7349 85.7139 92.7349 86.3291C92.7349 87.2344 92.9106 88.0781 93.2622 88.8604C93.6138 89.6426 94.1104 90.2622 94.752 90.7192C95.4023 91.1763 96.1406 91.4048 96.9668 91.4048Z" fill="white"/>
<path d="M50.1201 122H48.626V109.15H55.7891V110.478H50.1201V115.18H55.4463V116.507H50.1201V122ZM59.1641 122H57.7051V108.324H59.1641V122ZM63.7168 122H62.2578V112.367H63.7168V122ZM62.1348 109.757C62.1348 109.423 62.2168 109.18 62.3809 109.027C62.5449 108.869 62.75 108.79 62.9961 108.79C63.2305 108.79 63.4326 108.869 63.6025 109.027C63.7725 109.186 63.8574 109.429 63.8574 109.757C63.8574 110.085 63.7725 110.331 63.6025 110.495C63.4326 110.653 63.2305 110.732 62.9961 110.732C62.75 110.732 62.5449 110.653 62.3809 110.495C62.2168 110.331 62.1348 110.085 62.1348 109.757ZM74.6943 112.367V113.29L72.9102 113.501C73.0742 113.706 73.2207 113.976 73.3496 114.31C73.4785 114.638 73.543 115.01 73.543 115.426C73.543 116.369 73.2207 117.122 72.5762 117.685C71.9316 118.247 71.0469 118.528 69.9219 118.528C69.6348 118.528 69.3652 118.505 69.1133 118.458C68.4922 118.786 68.1816 119.199 68.1816 119.697C68.1816 119.961 68.29 120.157 68.5068 120.286C68.7236 120.409 69.0957 120.471 69.623 120.471H71.3281C72.3711 120.471 73.1709 120.69 73.7275 121.13C74.29 121.569 74.5713 122.208 74.5713 123.046C74.5713 124.112 74.1436 124.924 73.2881 125.48C72.4326 126.043 71.1846 126.324 69.5439 126.324C68.2842 126.324 67.3115 126.09 66.626 125.621C65.9463 125.152 65.6064 124.49 65.6064 123.635C65.6064 123.049 65.7939 122.542 66.1689 122.114C66.5439 121.687 67.0713 121.396 67.751 121.244C67.5049 121.133 67.2969 120.96 67.127 120.726C66.9629 120.491 66.8809 120.219 66.8809 119.908C66.8809 119.557 66.9746 119.249 67.1621 118.985C67.3496 118.722 67.6455 118.467 68.0498 118.221C67.5518 118.016 67.1445 117.667 66.8281 117.175C66.5176 116.683 66.3623 116.12 66.3623 115.487C66.3623 114.433 66.6787 113.621 67.3115 113.053C67.9443 112.479 68.8408 112.191 70.001 112.191C70.5049 112.191 70.959 112.25 71.3633 112.367H74.6943ZM67.0127 123.617C67.0127 124.139 67.2324 124.534 67.6719 124.804C68.1113 125.073 68.7412 125.208 69.5615 125.208C70.7861 125.208 71.6914 125.023 72.2773 124.654C72.8691 124.291 73.165 123.796 73.165 123.169C73.165 122.647 73.0039 122.284 72.6816 122.079C72.3594 121.88 71.7529 121.78 70.8623 121.78H69.1133C68.4512 121.78 67.9355 121.938 67.5664 122.255C67.1973 122.571 67.0127 123.025 67.0127 123.617ZM67.8037 115.452C67.8037 116.126 67.9941 116.636 68.375 116.981C68.7559 117.327 69.2861 117.5 69.9658 117.5C71.3896 117.5 72.1016 116.809 72.1016 115.426C72.1016 113.979 71.3809 113.255 69.9395 113.255C69.2539 113.255 68.7266 113.439 68.3574 113.809C67.9883 114.178 67.8037 114.726 67.8037 115.452ZM83.2637 122V115.769C83.2637 114.983 83.085 114.397 82.7275 114.011C82.3701 113.624 81.8105 113.431 81.0488 113.431C80.0352 113.431 79.2939 113.706 78.8252 114.257C78.3623 114.808 78.1309 115.71 78.1309 116.964V122H76.6719V108.324H78.1309V112.464C78.1309 112.962 78.1074 113.375 78.0605 113.703H78.1484C78.4355 113.24 78.8428 112.877 79.3701 112.613C79.9033 112.344 80.5098 112.209 81.1895 112.209C82.3672 112.209 83.249 112.49 83.835 113.053C84.4268 113.609 84.7227 114.497 84.7227 115.716V122H83.2637ZM90.8398 120.972C91.0977 120.972 91.3467 120.954 91.5869 120.919C91.8271 120.878 92.0176 120.837 92.1582 120.796V121.912C92 121.988 91.7656 122.05 91.4551 122.097C91.1504 122.149 90.875 122.176 90.6289 122.176C88.7656 122.176 87.834 121.194 87.834 119.231V113.501H86.4541V112.798L87.834 112.191L88.4492 110.135H89.293V112.367H92.0879V113.501H89.293V119.17C89.293 119.75 89.4307 120.195 89.7061 120.506C89.9814 120.816 90.3594 120.972 90.8398 120.972ZM100.306 119.372C100.306 120.269 99.9717 120.96 99.3037 121.446C98.6357 121.933 97.6982 122.176 96.4912 122.176C95.2139 122.176 94.2178 121.974 93.5029 121.569V120.216C93.9658 120.45 94.4609 120.635 94.9883 120.77C95.5215 120.904 96.0342 120.972 96.5264 120.972C97.2881 120.972 97.874 120.852 98.2842 120.611C98.6943 120.365 98.8994 119.993 98.8994 119.495C98.8994 119.12 98.7354 118.801 98.4072 118.537C98.085 118.268 97.4521 117.951 96.5088 117.588C95.6123 117.254 94.9736 116.964 94.5928 116.718C94.2178 116.466 93.9365 116.182 93.749 115.865C93.5674 115.549 93.4766 115.171 93.4766 114.731C93.4766 113.946 93.7959 113.328 94.4346 112.877C95.0732 112.42 95.9492 112.191 97.0625 112.191C98.0996 112.191 99.1133 112.402 100.104 112.824L99.585 114.011C98.6182 113.612 97.7422 113.413 96.957 113.413C96.2656 113.413 95.7441 113.521 95.3926 113.738C95.041 113.955 94.8652 114.254 94.8652 114.635C94.8652 114.893 94.9297 115.112 95.0586 115.294C95.1934 115.476 95.4072 115.648 95.7002 115.812C95.9932 115.977 96.5557 116.214 97.3877 116.524C98.5303 116.94 99.3008 117.359 99.6992 117.781C100.104 118.203 100.306 118.733 100.306 119.372Z" fill="white"/>
</svg>
